<?xml version="1.0" encoding="utf-8" standalone="no"?>
<!DOCTYPE svg PUBLIC "-//W3C//DTD SVG 1.1//EN"
  "http://www.w3.org/Graphics/SVG/1.1/DTD/svg11.dtd">
<!-- Created with matplotlib (http://matplotlib.org/) -->
<svg height="322pt" version="1.1" viewBox="0 0 581 322" width="581pt" xmlns="http://www.w3.org/2000/svg" xmlns:xlink="http://www.w3.org/1999/xlink">
 <defs>
  <style type="text/css">
*{stroke-linecap:butt;stroke-linejoin:round;}
  </style>
 </defs>
 <g id="figure_1">
  <g id="patch_1">
   <path d="M 0 322.862687 
L 581.284562 322.862687 
L 581.284562 0 
L 0 0 
z
" style="fill:#ffffff;stroke:#ffffff;stroke-linejoin:miter;"/>
  </g>
  <g id="axes_1">
   <g id="patch_2">
    <path d="M 49.591938 287.15 
L 495.991937 287.15 
L 495.991937 9.95 
L 49.591938 9.95 
z
" style="fill:#ebebeb;"/>
   </g>
   <g id="matplotlib.axis_1">
    <g id="xtick_1">
     <g id="line2d_1">
      <path clip-path="url(#p9b0889d783)" d="M 50.330092 287.15 
L 50.330092 9.95 
" style="fill:none;stroke:#ffffff;"/>
     </g>
     <g id="line2d_2">
      <path d="M 50.330092 287.15 
" style="fill:none;stroke:#333333;stroke-width:1.5;"/>
      <defs>
       <path d="M 0 0 
L 0 2.75 
" id="m8d9774bddb" style="stroke:#333333;"/>
      </defs>
      <g>
       <use style="fill:#333333;stroke:#333333;" x="50.330092" xlink:href="#m8d9774bddb" y="287.15"/>
      </g>
     </g>
     <g id="text_1">
      <!-- 0 -->
      <defs>
       <path d="M 31.78125 66.40625 
Q 24.171875 66.40625 20.328125 58.90625 
Q 16.5 51.421875 16.5 36.375 
Q 16.5 21.390625 20.328125 13.890625 
Q 24.171875 6.390625 31.78125 6.390625 
Q 39.453125 6.390625 43.28125 13.890625 
Q 47.125 21.390625 47.125 36.375 
Q 47.125 51.421875 43.28125 58.90625 
Q 39.453125 66.40625 31.78125 66.40625 
z
M 31.78125 74.21875 
Q 44.046875 74.21875 50.515625 64.515625 
Q 56.984375 54.828125 56.984375 36.375 
Q 56.984375 17.96875 50.515625 8.265625 
Q 44.046875 -1.421875 31.78125 -1.421875 
Q 19.53125 -1.421875 13.0625 8.265625 
Q 6.59375 17.96875 6.59375 36.375 
Q 6.59375 54.828125 13.0625 64.515625 
Q 19.53125 74.21875 31.78125 74.21875 
z
" id="DejaVuSans-30"/>
      </defs>
      <g style="fill:#4d4d4d;" transform="translate(47.530592 298.786625)scale(0.088 -0.088)">
       <use xlink:href="#DejaVuSans-30"/>
      </g>
     </g>
    </g>
    <g id="xtick_2">
     <g id="line2d_3">
      <path clip-path="url(#p9b0889d783)" d="M 187.695676 287.15 
L 187.695676 9.95 
" style="fill:none;stroke:#ffffff;"/>
     </g>
     <g id="line2d_4">
      <path d="M 187.695676 287.15 
" style="fill:none;stroke:#333333;stroke-width:1.5;"/>
      <g>
       <use style="fill:#333333;stroke:#333333;" x="187.695676" xlink:href="#m8d9774bddb" y="287.15"/>
      </g>
     </g>
     <g id="text_2">
      <!-- 1000000 -->
      <defs>
       <path d="M 12.40625 8.296875 
L 28.515625 8.296875 
L 28.515625 63.921875 
L 10.984375 60.40625 
L 10.984375 69.390625 
L 28.421875 72.90625 
L 38.28125 72.90625 
L 38.28125 8.296875 
L 54.390625 8.296875 
L 54.390625 0 
L 12.40625 0 
z
" id="DejaVuSans-31"/>
      </defs>
      <g style="fill:#4d4d4d;" transform="translate(168.099176 298.786625)scale(0.088 -0.088)">
       <use xlink:href="#DejaVuSans-31"/>
       <use x="63.623047" xlink:href="#DejaVuSans-30"/>
       <use x="127.246094" xlink:href="#DejaVuSans-30"/>
       <use x="190.869141" xlink:href="#DejaVuSans-30"/>
       <use x="254.492188" xlink:href="#DejaVuSans-30"/>
       <use x="318.115234" xlink:href="#DejaVuSans-30"/>
       <use x="381.738281" xlink:href="#DejaVuSans-30"/>
      </g>
     </g>
    </g>
    <g id="xtick_3">
     <g id="line2d_5">
      <path clip-path="url(#p9b0889d783)" d="M 325.061259 287.15 
L 325.061259 9.95 
" style="fill:none;stroke:#ffffff;"/>
     </g>
     <g id="line2d_6">
      <path d="M 325.061259 287.15 
" style="fill:none;stroke:#333333;stroke-width:1.5;"/>
      <g>
       <use style="fill:#333333;stroke:#333333;" x="325.061259" xlink:href="#m8d9774bddb" y="287.15"/>
      </g>
     </g>
     <g id="text_3">
      <!-- 2000000 -->
      <defs>
       <path d="M 19.1875 8.296875 
L 53.609375 8.296875 
L 53.609375 0 
L 7.328125 0 
L 7.328125 8.296875 
Q 12.9375 14.109375 22.625 23.890625 
Q 32.328125 33.6875 34.8125 36.53125 
Q 39.546875 41.84375 41.421875 45.53125 
Q 43.3125 49.21875 43.3125 52.78125 
Q 43.3125 58.59375 39.234375 62.25 
Q 35.15625 65.921875 28.609375 65.921875 
Q 23.96875 65.921875 18.8125 64.3125 
Q 13.671875 62.703125 7.8125 59.421875 
L 7.8125 69.390625 
Q 13.765625 71.78125 18.9375 73 
Q 24.125 74.21875 28.421875 74.21875 
Q 39.75 74.21875 46.484375 68.546875 
Q 53.21875 62.890625 53.21875 53.421875 
Q 53.21875 48.921875 51.53125 44.890625 
Q 49.859375 40.875 45.40625 35.40625 
Q 44.1875 33.984375 37.640625 27.21875 
Q 31.109375 20.453125 19.1875 8.296875 
z
" id="DejaVuSans-32"/>
      </defs>
      <g style="fill:#4d4d4d;" transform="translate(305.464759 298.786625)scale(0.088 -0.088)">
       <use xlink:href="#DejaVuSans-32"/>
       <use x="63.623047" xlink:href="#DejaVuSans-30"/>
       <use x="127.246094" xlink:href="#DejaVuSans-30"/>
       <use x="190.869141" xlink:href="#DejaVuSans-30"/>
       <use x="254.492188" xlink:href="#DejaVuSans-30"/>
       <use x="318.115234" xlink:href="#DejaVuSans-30"/>
       <use x="381.738281" xlink:href="#DejaVuSans-30"/>
      </g>
     </g>
    </g>
    <g id="xtick_4">
     <g id="line2d_7">
      <path clip-path="url(#p9b0889d783)" d="M 462.426843 287.15 
L 462.426843 9.95 
" style="fill:none;stroke:#ffffff;"/>
     </g>
     <g id="line2d_8">
      <path d="M 462.426843 287.15 
" style="fill:none;stroke:#333333;stroke-width:1.5;"/>
      <g>
       <use style="fill:#333333;stroke:#333333;" x="462.426843" xlink:href="#m8d9774bddb" y="287.15"/>
      </g>
     </g>
     <g id="text_4">
      <!-- 3000000 -->
      <defs>
       <path d="M 40.578125 39.3125 
Q 47.65625 37.796875 51.625 33 
Q 55.609375 28.21875 55.609375 21.1875 
Q 55.609375 10.40625 48.1875 4.484375 
Q 40.765625 -1.421875 27.09375 -1.421875 
Q 22.515625 -1.421875 17.65625 -0.515625 
Q 12.796875 0.390625 7.625 2.203125 
L 7.625 11.71875 
Q 11.71875 9.328125 16.59375 8.109375 
Q 21.484375 6.890625 26.8125 6.890625 
Q 36.078125 6.890625 40.9375 10.546875 
Q 45.796875 14.203125 45.796875 21.1875 
Q 45.796875 27.640625 41.28125 31.265625 
Q 36.765625 34.90625 28.71875 34.90625 
L 20.21875 34.90625 
L 20.21875 43.015625 
L 29.109375 43.015625 
Q 36.375 43.015625 40.234375 45.921875 
Q 44.09375 48.828125 44.09375 54.296875 
Q 44.09375 59.90625 40.109375 62.90625 
Q 36.140625 65.921875 28.71875 65.921875 
Q 24.65625 65.921875 20.015625 65.03125 
Q 15.375 64.15625 9.8125 62.3125 
L 9.8125 71.09375 
Q 15.4375 72.65625 20.34375 73.4375 
Q 25.25 74.21875 29.59375 74.21875 
Q 40.828125 74.21875 47.359375 69.109375 
Q 53.90625 64.015625 53.90625 55.328125 
Q 53.90625 49.265625 50.4375 45.09375 
Q 46.96875 40.921875 40.578125 39.3125 
z
" id="DejaVuSans-33"/>
      </defs>
      <g style="fill:#4d4d4d;" transform="translate(442.830343 298.786625)scale(0.088 -0.088)">
       <use xlink:href="#DejaVuSans-33"/>
       <use x="63.623047" xlink:href="#DejaVuSans-30"/>
       <use x="127.246094" xlink:href="#DejaVuSans-30"/>
       <use x="190.869141" xlink:href="#DejaVuSans-30"/>
       <use x="254.492188" xlink:href="#DejaVuSans-30"/>
       <use x="318.115234" xlink:href="#DejaVuSans-30"/>
       <use x="381.738281" xlink:href="#DejaVuSans-30"/>
      </g>
     </g>
    </g>
    <g id="xtick_5">
     <g id="line2d_9">
      <path clip-path="url(#p9b0889d783)" d="M 119.012884 287.15 
L 119.012884 9.95 
" style="fill:none;stroke:#ffffff;stroke-width:0.5;"/>
     </g>
     <g id="line2d_10">
      <path d="M 119.012884 287.15 
" style="fill:none;stroke:#333333;stroke-width:1.5;"/>
     </g>
    </g>
    <g id="xtick_6">
     <g id="line2d_11">
      <path clip-path="url(#p9b0889d783)" d="M 256.378467 287.15 
L 256.378467 9.95 
" style="fill:none;stroke:#ffffff;stroke-width:0.5;"/>
     </g>
     <g id="line2d_12">
      <path d="M 256.378467 287.15 
" style="fill:none;stroke:#333333;stroke-width:1.5;"/>
     </g>
    </g>
    <g id="xtick_7">
     <g id="line2d_13">
      <path clip-path="url(#p9b0889d783)" d="M 393.744051 287.15 
L 393.744051 9.95 
" style="fill:none;stroke:#ffffff;stroke-width:0.5;"/>
     </g>
     <g id="line2d_14">
      <path d="M 393.744051 287.15 
" style="fill:none;stroke:#333333;stroke-width:1.5;"/>
     </g>
    </g>
    <g id="text_5">
     <!-- sfprice -->
     <defs>
      <path d="M 44.28125 53.078125 
L 44.28125 44.578125 
Q 40.484375 46.53125 36.375 47.5 
Q 32.28125 48.484375 27.875 48.484375 
Q 21.1875 48.484375 17.84375 46.4375 
Q 14.5 44.390625 14.5 40.28125 
Q 14.5 37.15625 16.890625 35.375 
Q 19.28125 33.59375 26.515625 31.984375 
L 29.59375 31.296875 
Q 39.15625 29.25 43.1875 25.515625 
Q 47.21875 21.78125 47.21875 15.09375 
Q 47.21875 7.46875 41.1875 3.015625 
Q 35.15625 -1.421875 24.609375 -1.421875 
Q 20.21875 -1.421875 15.453125 -0.5625 
Q 10.6875 0.296875 5.421875 2 
L 5.421875 11.28125 
Q 10.40625 8.6875 15.234375 7.390625 
Q 20.0625 6.109375 24.8125 6.109375 
Q 31.15625 6.109375 34.5625 8.28125 
Q 37.984375 10.453125 37.984375 14.40625 
Q 37.984375 18.0625 35.515625 20.015625 
Q 33.0625 21.96875 24.703125 23.78125 
L 21.578125 24.515625 
Q 13.234375 26.265625 9.515625 29.90625 
Q 5.8125 33.546875 5.8125 39.890625 
Q 5.8125 47.609375 11.28125 51.796875 
Q 16.75 56 26.8125 56 
Q 31.78125 56 36.171875 55.265625 
Q 40.578125 54.546875 44.28125 53.078125 
z
" id="DejaVuSans-73"/>
      <path d="M 37.109375 75.984375 
L 37.109375 68.5 
L 28.515625 68.5 
Q 23.6875 68.5 21.796875 66.546875 
Q 19.921875 64.59375 19.921875 59.515625 
L 19.921875 54.6875 
L 34.71875 54.6875 
L 34.71875 47.703125 
L 19.921875 47.703125 
L 19.921875 0 
L 10.890625 0 
L 10.890625 47.703125 
L 2.296875 47.703125 
L 2.296875 54.6875 
L 10.890625 54.6875 
L 10.890625 58.5 
Q 10.890625 67.625 15.140625 71.796875 
Q 19.390625 75.984375 28.609375 75.984375 
z
" id="DejaVuSans-66"/>
      <path d="M 18.109375 8.203125 
L 18.109375 -20.796875 
L 9.078125 -20.796875 
L 9.078125 54.6875 
L 18.109375 54.6875 
L 18.109375 46.390625 
Q 20.953125 51.265625 25.265625 53.625 
Q 29.59375 56 35.59375 56 
Q 45.5625 56 51.78125 48.09375 
Q 58.015625 40.1875 58.015625 27.296875 
Q 58.015625 14.40625 51.78125 6.484375 
Q 45.5625 -1.421875 35.59375 -1.421875 
Q 29.59375 -1.421875 25.265625 0.953125 
Q 20.953125 3.328125 18.109375 8.203125 
z
M 48.6875 27.296875 
Q 48.6875 37.203125 44.609375 42.84375 
Q 40.53125 48.484375 33.40625 48.484375 
Q 26.265625 48.484375 22.1875 42.84375 
Q 18.109375 37.203125 18.109375 27.296875 
Q 18.109375 17.390625 22.1875 11.75 
Q 26.265625 6.109375 33.40625 6.109375 
Q 40.53125 6.109375 44.609375 11.75 
Q 48.6875 17.390625 48.6875 27.296875 
z
" id="DejaVuSans-70"/>
      <path d="M 41.109375 46.296875 
Q 39.59375 47.171875 37.8125 47.578125 
Q 36.03125 48 33.890625 48 
Q 26.265625 48 22.1875 43.046875 
Q 18.109375 38.09375 18.109375 28.8125 
L 18.109375 0 
L 9.078125 0 
L 9.078125 54.6875 
L 18.109375 54.6875 
L 18.109375 46.1875 
Q 20.953125 51.171875 25.484375 53.578125 
Q 30.03125 56 36.53125 56 
Q 37.453125 56 38.578125 55.875 
Q 39.703125 55.765625 41.0625 55.515625 
z
" id="DejaVuSans-72"/>
      <path d="M 9.421875 54.6875 
L 18.40625 54.6875 
L 18.40625 0 
L 9.421875 0 
z
M 9.421875 75.984375 
L 18.40625 75.984375 
L 18.40625 64.59375 
L 9.421875 64.59375 
z
" id="DejaVuSans-69"/>
      <path d="M 48.78125 52.59375 
L 48.78125 44.1875 
Q 44.96875 46.296875 41.140625 47.34375 
Q 37.3125 48.390625 33.40625 48.390625 
Q 24.65625 48.390625 19.8125 42.84375 
Q 14.984375 37.3125 14.984375 27.296875 
Q 14.984375 17.28125 19.8125 11.734375 
Q 24.65625 6.203125 33.40625 6.203125 
Q 37.3125 6.203125 41.140625 7.25 
Q 44.96875 8.296875 48.78125 10.40625 
L 48.78125 2.09375 
Q 45.015625 0.34375 40.984375 -0.53125 
Q 36.96875 -1.421875 32.421875 -1.421875 
Q 20.0625 -1.421875 12.78125 6.34375 
Q 5.515625 14.109375 5.515625 27.296875 
Q 5.515625 40.671875 12.859375 48.328125 
Q 20.21875 56 33.015625 56 
Q 37.15625 56 41.109375 55.140625 
Q 45.0625 54.296875 48.78125 52.59375 
z
" id="DejaVuSans-63"/>
      <path d="M 56.203125 29.59375 
L 56.203125 25.203125 
L 14.890625 25.203125 
Q 15.484375 15.921875 20.484375 11.0625 
Q 25.484375 6.203125 34.421875 6.203125 
Q 39.59375 6.203125 44.453125 7.46875 
Q 49.3125 8.734375 54.109375 11.28125 
L 54.109375 2.78125 
Q 49.265625 0.734375 44.1875 -0.34375 
Q 39.109375 -1.421875 33.890625 -1.421875 
Q 20.796875 -1.421875 13.15625 6.1875 
Q 5.515625 13.8125 5.515625 26.8125 
Q 5.515625 40.234375 12.765625 48.109375 
Q 20.015625 56 32.328125 56 
Q 43.359375 56 49.78125 48.890625 
Q 56.203125 41.796875 56.203125 29.59375 
z
M 47.21875 32.234375 
Q 47.125 39.59375 43.09375 43.984375 
Q 39.0625 48.390625 32.421875 48.390625 
Q 24.90625 48.390625 20.390625 44.140625 
Q 15.875 39.890625 15.1875 32.171875 
z
" id="DejaVuSans-65"/>
     </defs>
     <g transform="translate(247.101625 313.375031)scale(0.11 -0.11)">
      <use xlink:href="#DejaVuSans-73"/>
      <use x="52.099609" xlink:href="#DejaVuSans-66"/>
      <use x="87.304688" xlink:href="#DejaVuSans-70"/>
      <use x="150.78125" xlink:href="#DejaVuSans-72"/>
      <use x="191.894531" xlink:href="#DejaVuSans-69"/>
      <use x="219.677734" xlink:href="#DejaVuSans-63"/>
      <use x="274.658203" xlink:href="#DejaVuSans-65"/>
     </g>
    </g>
   </g>
   <g id="matplotlib.axis_2">
    <g id="ytick_1">
     <g id="line2d_15">
      <path clip-path="url(#p9b0889d783)" d="M 49.591938 274.55 
L 495.991937 274.55 
" style="fill:none;stroke:#ffffff;"/>
     </g>
     <g id="line2d_16">
      <path d="M 49.591938 274.55 
" style="fill:none;stroke:#333333;stroke-width:1.5;"/>
      <defs>
       <path d="M 0 0 
L -2.75 0 
" id="m27e87cb45b" style="stroke:#333333;"/>
      </defs>
      <g>
       <use style="fill:#333333;stroke:#333333;" x="49.591938" xlink:href="#m27e87cb45b" y="274.55"/>
      </g>
     </g>
     <g id="text_6">
      <!-- 0 -->
      <g style="fill:#4d4d4d;" transform="translate(39.042937 276.97825)scale(0.088 -0.088)">
       <use xlink:href="#DejaVuSans-30"/>
      </g>
     </g>
    </g>
    <g id="ytick_2">
     <g id="line2d_17">
      <path clip-path="url(#p9b0889d783)" d="M 49.591938 199.816904 
L 495.991937 199.816904 
" style="fill:none;stroke:#ffffff;"/>
     </g>
     <g id="line2d_18">
      <path d="M 49.591938 199.816904 
" style="fill:none;stroke:#333333;stroke-width:1.5;"/>
      <g>
       <use style="fill:#333333;stroke:#333333;" x="49.591938" xlink:href="#m27e87cb45b" y="199.816904"/>
      </g>
     </g>
     <g id="text_7">
      <!-- 500 -->
      <defs>
       <path d="M 10.796875 72.90625 
L 49.515625 72.90625 
L 49.515625 64.59375 
L 19.828125 64.59375 
L 19.828125 46.734375 
Q 21.96875 47.46875 24.109375 47.828125 
Q 26.265625 48.1875 28.421875 48.1875 
Q 40.625 48.1875 47.75 41.5 
Q 54.890625 34.8125 54.890625 23.390625 
Q 54.890625 11.625 47.5625 5.09375 
Q 40.234375 -1.421875 26.90625 -1.421875 
Q 22.3125 -1.421875 17.546875 -0.640625 
Q 12.796875 0.140625 7.71875 1.703125 
L 7.71875 11.625 
Q 12.109375 9.234375 16.796875 8.0625 
Q 21.484375 6.890625 26.703125 6.890625 
Q 35.15625 6.890625 40.078125 11.328125 
Q 45.015625 15.765625 45.015625 23.390625 
Q 45.015625 31 40.078125 35.4375 
Q 35.15625 39.890625 26.703125 39.890625 
Q 22.75 39.890625 18.8125 39.015625 
Q 14.890625 38.140625 10.796875 36.28125 
z
" id="DejaVuSans-35"/>
      </defs>
      <g style="fill:#4d4d4d;" transform="translate(27.844937 202.245154)scale(0.088 -0.088)">
       <use xlink:href="#DejaVuSans-35"/>
       <use x="63.623047" xlink:href="#DejaVuSans-30"/>
       <use x="127.246094" xlink:href="#DejaVuSans-30"/>
      </g>
     </g>
    </g>
    <g id="ytick_3">
     <g id="line2d_19">
      <path clip-path="url(#p9b0889d783)" d="M 49.591938 125.083808 
L 495.991937 125.083808 
" style="fill:none;stroke:#ffffff;"/>
     </g>
     <g id="line2d_20">
      <path d="M 49.591938 125.083808 
" style="fill:none;stroke:#333333;stroke-width:1.5;"/>
      <g>
       <use style="fill:#333333;stroke:#333333;" x="49.591938" xlink:href="#m27e87cb45b" y="125.083808"/>
      </g>
     </g>
     <g id="text_8">
      <!-- 1000 -->
      <g style="fill:#4d4d4d;" transform="translate(22.245937 127.512058)scale(0.088 -0.088)">
       <use xlink:href="#DejaVuSans-31"/>
       <use x="63.623047" xlink:href="#DejaVuSans-30"/>
       <use x="127.246094" xlink:href="#DejaVuSans-30"/>
       <use x="190.869141" xlink:href="#DejaVuSans-30"/>
      </g>
     </g>
    </g>
    <g id="ytick_4">
     <g id="line2d_21">
      <path clip-path="url(#p9b0889d783)" d="M 49.591938 50.350712 
L 495.991937 50.350712 
" style="fill:none;stroke:#ffffff;"/>
     </g>
     <g id="line2d_22">
      <path d="M 49.591938 50.350712 
" style="fill:none;stroke:#333333;stroke-width:1.5;"/>
      <g>
       <use style="fill:#333333;stroke:#333333;" x="49.591938" xlink:href="#m27e87cb45b" y="50.350712"/>
      </g>
     </g>
     <g id="text_9">
      <!-- 1500 -->
      <g style="fill:#4d4d4d;" transform="translate(22.245937 52.778962)scale(0.088 -0.088)">
       <use xlink:href="#DejaVuSans-31"/>
       <use x="63.623047" xlink:href="#DejaVuSans-35"/>
       <use x="127.246094" xlink:href="#DejaVuSans-30"/>
       <use x="190.869141" xlink:href="#DejaVuSans-30"/>
      </g>
     </g>
    </g>
    <g id="ytick_5">
     <g id="line2d_23">
      <path clip-path="url(#p9b0889d783)" d="M 49.591938 237.183452 
L 495.991937 237.183452 
" style="fill:none;stroke:#ffffff;stroke-width:0.5;"/>
     </g>
     <g id="line2d_24">
      <path d="M 49.591938 237.183452 
" style="fill:none;stroke:#333333;stroke-width:1.5;"/>
     </g>
    </g>
    <g id="ytick_6">
     <g id="line2d_25">
      <path clip-path="url(#p9b0889d783)" d="M 49.591938 162.450356 
L 495.991937 162.450356 
" style="fill:none;stroke:#ffffff;stroke-width:0.5;"/>
     </g>
     <g id="line2d_26">
      <path d="M 49.591938 162.450356 
" style="fill:none;stroke:#333333;stroke-width:1.5;"/>
     </g>
    </g>
    <g id="ytick_7">
     <g id="line2d_27">
      <path clip-path="url(#p9b0889d783)" d="M 49.591938 87.71726 
L 495.991937 87.71726 
" style="fill:none;stroke:#ffffff;stroke-width:0.5;"/>
     </g>
     <g id="line2d_28">
      <path d="M 49.591938 87.71726 
" style="fill:none;stroke:#333333;stroke-width:1.5;"/>
     </g>
    </g>
    <g id="ytick_8">
     <g id="line2d_29">
      <path clip-path="url(#p9b0889d783)" d="M 49.591938 12.984164 
L 495.991937 12.984164 
" style="fill:none;stroke:#ffffff;stroke-width:0.5;"/>
     </g>
     <g id="line2d_30">
      <path d="M 49.591938 12.984164 
" style="fill:none;stroke:#333333;stroke-width:1.5;"/>
     </g>
    </g>
    <g id="text_10">
     <!-- SF -->
     <defs>
      <path d="M 53.515625 70.515625 
L 53.515625 60.890625 
Q 47.90625 63.578125 42.921875 64.890625 
Q 37.9375 66.21875 33.296875 66.21875 
Q 25.25 66.21875 20.875 63.09375 
Q 16.5 59.96875 16.5 54.203125 
Q 16.5 49.359375 19.40625 46.890625 
Q 22.3125 44.4375 30.421875 42.921875 
L 36.375 41.703125 
Q 47.40625 39.59375 52.65625 34.296875 
Q 57.90625 29 57.90625 20.125 
Q 57.90625 9.515625 50.796875 4.046875 
Q 43.703125 -1.421875 29.984375 -1.421875 
Q 24.8125 -1.421875 18.96875 -0.25 
Q 13.140625 0.921875 6.890625 3.21875 
L 6.890625 13.375 
Q 12.890625 10.015625 18.65625 8.296875 
Q 24.421875 6.59375 29.984375 6.59375 
Q 38.421875 6.59375 43.015625 9.90625 
Q 47.609375 13.234375 47.609375 19.390625 
Q 47.609375 24.75 44.3125 27.78125 
Q 41.015625 30.8125 33.5 32.328125 
L 27.484375 33.5 
Q 16.453125 35.6875 11.515625 40.375 
Q 6.59375 45.0625 6.59375 53.421875 
Q 6.59375 63.09375 13.40625 68.65625 
Q 20.21875 74.21875 32.171875 74.21875 
Q 37.3125 74.21875 42.625 73.28125 
Q 47.953125 72.359375 53.515625 70.515625 
z
" id="DejaVuSans-53"/>
      <path d="M 9.8125 72.90625 
L 51.703125 72.90625 
L 51.703125 64.59375 
L 19.671875 64.59375 
L 19.671875 43.109375 
L 48.578125 43.109375 
L 48.578125 34.8125 
L 19.671875 34.8125 
L 19.671875 0 
L 9.8125 0 
z
" id="DejaVuSans-46"/>
     </defs>
     <g transform="translate(15.558281 153.405)rotate(-90)scale(0.11 -0.11)">
      <use xlink:href="#DejaVuSans-53"/>
      <use x="63.476562" xlink:href="#DejaVuSans-46"/>
     </g>
    </g>
   </g>
   <g id="PathCollection_1">
    <path clip-path="url(#p9b0889d783)" d="M 181.442519 174.834909 
C 181.91258 174.834909 182.363451 174.648152 182.695834 174.31577 
C 183.028216 173.983387 183.214973 173.532516 183.214973 173.062456 
C 183.214973 172.592395 183.028216 172.141524 182.695834 171.809141 
C 182.363451 171.476759 181.91258 171.290002 181.442519 171.290002 
C 180.972459 171.290002 180.521588 171.476759 180.189205 171.809141 
C 179.856823 172.141524 179.670066 172.592395 179.670066 173.062456 
C 179.670066 173.532516 179.856823 173.983387 180.189205 174.31577 
C 180.521588 174.648152 180.972459 174.834909 181.442519 174.834909 
z
" style="fill:#db5f57;stroke:#db5f57;stroke-width:0.886227;"/>
    <path clip-path="url(#p9b0889d783)" d="M 196.845597 269.895408 
C 197.315657 269.895408 197.766528 269.708651 198.098911 269.376268 
C 198.431294 269.043885 198.618051 268.593014 198.618051 268.122954 
C 198.618051 267.652893 198.431294 267.202022 198.098911 266.86964 
C 197.766528 266.537257 197.315657 266.3505 196.845597 266.3505 
C 196.375537 266.3505 195.924666 266.537257 195.592283 266.86964 
C 195.2599 267.202022 195.073143 267.652893 195.073143 268.122954 
C 195.073143 268.593014 195.2599 269.043885 195.592283 269.376268 
C 195.924666 269.708651 196.375537 269.895408 196.845597 269.895408 
z
" style="fill:#db5f57;stroke:#db5f57;stroke-width:0.886227;"/>
    <path clip-path="url(#p9b0889d783)" d="M 397.2194 276.023521 
C 397.68946 276.023521 398.140331 275.836765 398.472714 275.504382 
C 398.805097 275.171999 398.991854 274.721128 398.991854 274.251068 
C 398.991854 273.781007 398.805097 273.330136 398.472714 272.997753 
C 398.140331 272.665371 397.68946 272.478614 397.2194 272.478614 
C 396.74934 272.478614 396.298469 272.665371 395.966086 272.997753 
C 395.633703 273.330136 395.446946 273.781007 395.446946 274.251068 
C 395.446946 274.721128 395.633703 275.171999 395.966086 275.504382 
C 396.298469 275.836765 396.74934 276.023521 397.2194 276.023521 
z
" style="fill:#db5f57;stroke:#db5f57;stroke-width:0.886227;"/>
    <path clip-path="url(#p9b0889d783)" d="M 126.223341 171.546653 
C 126.693401 171.546653 127.144272 171.359896 127.476655 171.027513 
C 127.809038 170.695131 127.995795 170.24426 127.995795 169.774199 
C 127.995795 169.304139 127.809038 168.853268 127.476655 168.520885 
C 127.144272 168.188502 126.693401 168.001745 126.223341 168.001745 
C 125.75328 168.001745 125.302409 168.188502 124.970027 168.520885 
C 124.637644 168.853268 124.450887 169.304139 124.450887 169.774199 
C 124.450887 170.24426 124.637644 170.695131 124.970027 171.027513 
C 125.302409 171.359896 125.75328 171.546653 126.223341 171.546653 
z
" style="fill:#db5f57;stroke:#db5f57;stroke-width:0.886227;"/>
    <path clip-path="url(#p9b0889d783)" d="M 281.727637 229.987934 
C 282.197698 229.987934 282.648569 229.801177 282.980952 229.468795 
C 283.313334 229.136412 283.500091 228.685541 283.500091 228.21548 
C 283.500091 227.74542 283.313334 227.294549 282.980952 226.962166 
C 282.648569 226.629783 282.197698 226.443027 281.727637 226.443027 
C 281.257577 226.443027 280.806706 226.629783 280.474323 226.962166 
C 280.14194 227.294549 279.955184 227.74542 279.955184 228.21548 
C 279.955184 228.685541 280.14194 229.136412 280.474323 229.468795 
C 280.806706 229.801177 281.257577 229.987934 281.727637 229.987934 
z
" style="fill:#db5f57;stroke:#db5f57;stroke-width:0.886227;"/>
    <path clip-path="url(#p9b0889d783)" d="M 106.912212 24.322454 
C 107.382272 24.322454 107.833144 24.135697 108.165526 23.803314 
C 108.497909 23.470931 108.684666 23.02006 108.684666 22.55 
C 108.684666 22.07994 108.497909 21.629069 108.165526 21.296686 
C 107.833144 20.964303 107.382272 20.777546 106.912212 20.777546 
C 106.442152 20.777546 105.991281 20.964303 105.658898 21.296686 
C 105.326515 21.629069 105.139758 22.07994 105.139758 22.55 
C 105.139758 23.02006 105.326515 23.470931 105.658898 23.803314 
C 105.991281 24.135697 106.442152 24.322454 106.912212 24.322454 
z
" style="fill:#db5f57;stroke:#db5f57;stroke-width:0.886227;"/>
    <path clip-path="url(#p9b0889d783)" d="M 103.501287 240.301102 
C 103.971348 240.301102 104.422219 240.114345 104.754602 239.781962 
C 105.086984 239.449579 105.273741 238.998708 105.273741 238.528648 
C 105.273741 238.058587 105.086984 237.607716 104.754602 237.275334 
C 104.422219 236.942951 103.971348 236.756194 103.501287 236.756194 
C 103.031227 236.756194 102.580356 236.942951 102.247973 237.275334 
C 101.91559 237.607716 101.728834 238.058587 101.728834 238.528648 
C 101.728834 238.998708 101.91559 239.449579 102.247973 239.781962 
C 102.580356 240.114345 103.031227 240.301102 103.501287 240.301102 
z
" style="fill:#db5f57;stroke:#db5f57;stroke-width:0.886227;"/>
    <path clip-path="url(#p9b0889d783)" d="M 110.654463 122.073344 
C 111.124523 122.073344 111.575394 121.886587 111.907777 121.554204 
C 112.24016 121.221821 112.426917 120.77095 112.426917 120.30089 
C 112.426917 119.830829 112.24016 119.379958 111.907777 119.047576 
C 111.575394 118.715193 111.124523 118.528436 110.654463 118.528436 
C 110.184403 118.528436 109.733531 118.715193 109.401149 119.047576 
C 109.068766 119.379958 108.882009 119.830829 108.882009 120.30089 
C 108.882009 120.77095 109.068766 121.221821 109.401149 121.554204 
C 109.733531 121.886587 110.184403 122.073344 110.654463 122.073344 
z
" style="fill:#db5f57;stroke:#db5f57;stroke-width:0.886227;"/>
    <path clip-path="url(#p9b0889d783)" d="M 96.822573 267.205016 
C 97.292633 267.205016 97.743504 267.018259 98.075887 266.685876 
C 98.40827 266.353494 98.595027 265.902623 98.595027 265.432562 
C 98.595027 264.962502 98.40827 264.511631 98.075887 264.179248 
C 97.743504 263.846865 97.292633 263.660108 96.822573 263.660108 
C 96.352512 263.660108 95.901641 263.846865 95.569259 264.179248 
C 95.236876 264.511631 95.050119 264.962502 95.050119 265.432562 
C 95.050119 265.902623 95.236876 266.353494 95.569259 266.685876 
C 95.901641 267.018259 96.352512 267.205016 96.822573 267.205016 
z
" style="fill:#db5f57;stroke:#db5f57;stroke-width:0.886227;"/>
    <path clip-path="url(#p9b0889d783)" d="M 403.038344 261.973699 
C 403.508404 261.973699 403.959275 261.786942 404.291658 261.45456 
C 404.624041 261.122177 404.810797 260.671306 404.810797 260.201246 
C 404.810797 259.731185 404.624041 259.280314 404.291658 258.947931 
C 403.959275 258.615549 403.508404 258.428792 403.038344 258.428792 
C 402.568283 258.428792 402.117412 258.615549 401.785029 258.947931 
C 401.452647 259.280314 401.26589 259.731185 401.26589 260.201246 
C 401.26589 260.671306 401.452647 261.122177 401.785029 261.45456 
C 402.117412 261.786942 402.568283 261.973699 403.038344 261.973699 
z
" style="fill:#db5f57;stroke:#db5f57;stroke-width:0.886227;"/>
    <path clip-path="url(#p9b0889d783)" d="M 249.914867 250.016404 
C 250.384927 250.016404 250.835799 249.829647 251.168181 249.497264 
C 251.500564 249.164882 251.687321 248.71401 251.687321 248.24395 
C 251.687321 247.77389 251.500564 247.323019 251.168181 246.990636 
C 250.835799 246.658253 250.384927 246.471496 249.914867 246.471496 
C 249.444807 246.471496 248.993936 246.658253 248.661553 246.990636 
C 248.32917 247.323019 248.142413 247.77389 248.142413 248.24395 
C 248.142413 248.71401 248.32917 249.164882 248.661553 249.497264 
C 248.993936 249.829647 249.444807 250.016404 249.914867 250.016404 
z
" style="fill:#db5f57;stroke:#db5f57;stroke-width:0.886227;"/>
    <path clip-path="url(#p9b0889d783)" d="M 202.136233 274.827792 
C 202.606293 274.827792 203.057164 274.641035 203.389547 274.308652 
C 203.721929 273.976269 203.908686 273.525398 203.908686 273.055338 
C 203.908686 272.585278 203.721929 272.134407 203.389547 271.802024 
C 203.057164 271.469641 202.606293 271.282884 202.136233 271.282884 
C 201.666172 271.282884 201.215301 271.469641 200.882918 271.802024 
C 200.550536 272.134407 200.363779 272.585278 200.363779 273.055338 
C 200.363779 273.525398 200.550536 273.976269 200.882918 274.308652 
C 201.215301 274.641035 201.666172 274.827792 202.136233 274.827792 
z
" style="fill:#db5f57;stroke:#db5f57;stroke-width:0.886227;"/>
    <path clip-path="url(#p9b0889d783)" d="M 144.493101 234.172988 
C 144.963161 234.172988 145.414032 233.986231 145.746415 233.653848 
C 146.078798 233.321465 146.265554 232.870594 146.265554 232.400534 
C 146.265554 231.930474 146.078798 231.479602 145.746415 231.14722 
C 145.414032 230.814837 144.963161 230.62808 144.493101 230.62808 
C 144.02304 230.62808 143.572169 230.814837 143.239787 231.14722 
C 142.907404 231.479602 142.720647 231.930474 142.720647 232.400534 
C 142.720647 232.870594 142.907404 233.321465 143.239787 233.653848 
C 143.572169 233.986231 144.02304 234.172988 144.493101 234.172988 
z
" style="fill:#db5f57;stroke:#db5f57;stroke-width:0.886227;"/>
    <path clip-path="url(#p9b0889d783)" d="M 103.973962 261.674767 
C 104.444023 261.674767 104.894894 261.48801 105.227277 261.155627 
C 105.559659 260.823245 105.746416 260.372373 105.746416 259.902313 
C 105.746416 259.432253 105.559659 258.981382 105.227277 258.648999 
C 104.894894 258.316616 104.444023 258.129859 103.973962 258.129859 
C 103.503902 258.129859 103.053031 258.316616 102.720648 258.648999 
C 102.388265 258.981382 102.201509 259.432253 102.201509 259.902313 
C 102.201509 260.372373 102.388265 260.823245 102.720648 261.155627 
C 103.053031 261.48801 103.503902 261.674767 103.973962 261.674767 
z
" style="fill:#db5f57;stroke:#db5f57;stroke-width:0.886227;"/>
    <path clip-path="url(#p9b0889d783)" d="M 169.164509 256.592916 
C 169.634569 256.592916 170.08544 256.40616 170.417823 256.073777 
C 170.750206 255.741394 170.936963 255.290523 170.936963 254.820463 
C 170.936963 254.350402 170.750206 253.899531 170.417823 253.567148 
C 170.08544 253.234766 169.634569 253.048009 169.164509 253.048009 
C 168.694449 253.048009 168.243578 253.234766 167.911195 253.567148 
C 167.578812 253.899531 167.392055 254.350402 167.392055 254.820463 
C 167.392055 255.290523 167.578812 255.741394 167.911195 256.073777 
C 168.243578 256.40616 168.694449 256.592916 169.164509 256.592916 
z
" style="fill:#db5f57;stroke:#db5f57;stroke-width:0.886227;"/>
    <path clip-path="url(#p9b0889d783)" d="M 276.41571 273.183664 
C 276.885771 273.183664 277.336642 272.996907 277.669024 272.664524 
C 278.001407 272.332141 278.188164 271.88127 278.188164 271.41121 
C 278.188164 270.94115 278.001407 270.490279 277.669024 270.157896 
C 277.336642 269.825513 276.885771 269.638756 276.41571 269.638756 
C 275.94565 269.638756 275.494779 269.825513 275.162396 270.157896 
C 274.830013 270.490279 274.643256 270.94115 274.643256 271.41121 
C 274.643256 271.88127 274.830013 272.332141 275.162396 272.664524 
C 275.494779 272.996907 275.94565 273.183664 276.41571 273.183664 
z
" style="fill:#db5f57;stroke:#db5f57;stroke-width:0.886227;"/>
    <path clip-path="url(#p9b0889d783)" d="M 277.890742 258.834909 
C 278.360802 258.834909 278.811673 258.648152 279.144056 258.31577 
C 279.476439 257.983387 279.663196 257.532516 279.663196 257.062456 
C 279.663196 256.592395 279.476439 256.141524 279.144056 255.809141 
C 278.811673 255.476759 278.360802 255.290002 277.890742 255.290002 
C 277.420682 255.290002 276.969811 255.476759 276.637428 255.809141 
C 276.305045 256.141524 276.118288 256.592395 276.118288 257.062456 
C 276.118288 257.532516 276.305045 257.983387 276.637428 258.31577 
C 276.969811 258.648152 277.420682 258.834909 277.890742 258.834909 
z
" style="fill:#db5f57;stroke:#db5f57;stroke-width:0.886227;"/>
    <path clip-path="url(#p9b0889d783)" d="M 183.804658 262.571564 
C 184.274718 262.571564 184.725589 262.384807 185.057972 262.052424 
C 185.390355 261.720042 185.577112 261.269171 185.577112 260.79911 
C 185.577112 260.32905 185.390355 259.878179 185.057972 259.545796 
C 184.725589 259.213413 184.274718 259.026656 183.804658 259.026656 
C 183.334598 259.026656 182.883727 259.213413 182.551344 259.545796 
C 182.218961 259.878179 182.032204 260.32905 182.032204 260.79911 
C 182.032204 261.269171 182.218961 261.720042 182.551344 262.052424 
C 182.883727 262.384807 183.334598 262.571564 183.804658 262.571564 
z
" style="fill:#db5f57;stroke:#db5f57;stroke-width:0.886227;"/>
    <path clip-path="url(#p9b0889d783)" d="M 127.103442 158.094696 
C 127.573502 158.094696 128.024373 157.907939 128.356756 157.575556 
C 128.689139 157.243173 128.875896 156.792302 128.875896 156.322242 
C 128.875896 155.852182 128.689139 155.401311 128.356756 155.068928 
C 128.024373 154.736545 127.573502 154.549788 127.103442 154.549788 
C 126.633382 154.549788 126.182511 154.736545 125.850128 155.068928 
C 125.517745 155.401311 125.330988 155.852182 125.330988 156.322242 
C 125.330988 156.792302 125.517745 157.243173 125.850128 157.575556 
C 126.182511 157.907939 126.633382 158.094696 127.103442 158.094696 
z
" style="fill:#db5f57;stroke:#db5f57;stroke-width:0.886227;"/>
    <path clip-path="url(#p9b0889d783)" d="M 107.230076 159.738824 
C 107.700136 159.738824 108.151008 159.552067 108.48339 159.219684 
C 108.815773 158.887301 109.00253 158.43643 109.00253 157.96637 
C 109.00253 157.49631 108.815773 157.045439 108.48339 156.713056 
C 108.151008 156.380673 107.700136 156.193916 107.230076 156.193916 
C 106.760016 156.193916 106.309145 156.380673 105.976762 156.713056 
C 105.644379 157.045439 105.457622 157.49631 105.457622 157.96637 
C 105.457622 158.43643 105.644379 158.887301 105.976762 159.219684 
C 106.309145 159.552067 106.760016 159.738824 107.230076 159.738824 
z
" style="fill:#db5f57;stroke:#db5f57;stroke-width:0.886227;"/>
    <path clip-path="url(#p9b0889d783)" d="M 103.962698 181.560888 
C 104.432759 181.560888 104.88363 181.374131 105.216013 181.041748 
C 105.548395 180.709366 105.735152 180.258494 105.735152 179.788434 
C 105.735152 179.318374 105.548395 178.867503 105.216013 178.53512 
C 104.88363 178.202737 104.432759 178.01598 103.962698 178.01598 
C 103.492638 178.01598 103.041767 178.202737 102.709384 178.53512 
C 102.377001 178.867503 102.190245 179.318374 102.190245 179.788434 
C 102.190245 180.258494 102.377001 180.709366 102.709384 181.041748 
C 103.041767 181.374131 103.492638 181.560888 103.962698 181.560888 
z
" style="fill:#db5f57;stroke:#db5f57;stroke-width:0.886227;"/>
    <path clip-path="url(#p9b0889d783)" d="M 377.859782 250.464803 
C 378.329842 250.464803 378.780713 250.278046 379.113096 249.945663 
C 379.445479 249.61328 379.632235 249.162409 379.632235 248.692349 
C 379.632235 248.222288 379.445479 247.771417 379.113096 247.439035 
C 378.780713 247.106652 378.329842 246.919895 377.859782 246.919895 
C 377.389721 246.919895 376.93885 247.106652 376.606467 247.439035 
C 376.274085 247.771417 376.087328 248.222288 376.087328 248.692349 
C 376.087328 249.162409 376.274085 249.61328 376.606467 249.945663 
C 376.93885 250.278046 377.389721 250.464803 377.859782 250.464803 
z
" style="fill:#db5f57;stroke:#db5f57;stroke-width:0.886227;"/>
    <path clip-path="url(#p9b0889d783)" d="M 104.946785 267.205016 
C 105.416846 267.205016 105.867717 267.018259 106.2001 266.685876 
C 106.532482 266.353494 106.719239 265.902623 106.719239 265.432562 
C 106.719239 264.962502 106.532482 264.511631 106.2001 264.179248 
C 105.867717 263.846865 105.416846 263.660108 104.946785 263.660108 
C 104.476725 263.660108 104.025854 263.846865 103.693471 264.179248 
C 103.361089 264.511631 103.174332 264.962502 103.174332 265.432562 
C 103.174332 265.902623 103.361089 266.353494 103.693471 266.685876 
C 104.025854 267.018259 104.476725 267.205016 104.946785 267.205016 
z
" style="fill:#db5f57;stroke:#db5f57;stroke-width:0.886227;"/>
    <path clip-path="url(#p9b0889d783)" d="M 124.557508 267.503949 
C 125.027568 267.503949 125.47844 267.317192 125.810822 266.984809 
C 126.143205 266.652426 126.329962 266.201555 126.329962 265.731495 
C 126.329962 265.261434 126.143205 264.810563 125.810822 264.478181 
C 125.47844 264.145798 125.027568 263.959041 124.557508 263.959041 
C 124.087448 263.959041 123.636577 264.145798 123.304194 264.478181 
C 122.971811 264.810563 122.785054 265.261434 122.785054 265.731495 
C 122.785054 266.201555 122.971811 266.652426 123.304194 266.984809 
C 123.636577 267.317192 124.087448 267.503949 124.557508 267.503949 
z
" style="fill:#db5f57;stroke:#db5f57;stroke-width:0.886227;"/>
    <path clip-path="url(#p9b0889d783)" d="M 127.21773 258.386511 
C 127.68779 258.386511 128.138661 258.199754 128.471044 257.867371 
C 128.803427 257.534988 128.990184 257.084117 128.990184 256.614057 
C 128.990184 256.143997 128.803427 255.693126 128.471044 255.360743 
C 128.138661 255.02836 127.68779 254.841603 127.21773 254.841603 
C 126.74767 254.841603 126.296799 255.02836 125.964416 255.360743 
C 125.632033 255.693126 125.445276 256.143997 125.445276 256.614057 
C 125.445276 257.084117 125.632033 257.534988 125.964416 257.867371 
C 126.296799 258.199754 126.74767 258.386511 127.21773 258.386511 
z
" style="fill:#db5f57;stroke:#db5f57;stroke-width:0.886227;"/>
    <path clip-path="url(#p9b0889d783)" d="M 143.851603 260.628504 
C 144.321664 260.628504 144.772535 260.441747 145.104918 260.109364 
C 145.4373 259.776981 145.624057 259.32611 145.624057 258.85605 
C 145.624057 258.38599 145.4373 257.935118 145.104918 257.602736 
C 144.772535 257.270353 144.321664 257.083596 143.851603 257.083596 
C 143.381543 257.083596 142.930672 257.270353 142.598289 257.602736 
C 142.265906 257.935118 142.07915 258.38599 142.07915 258.85605 
C 142.07915 259.32611 142.265906 259.776981 142.598289 260.109364 
C 142.930672 260.441747 143.381543 260.628504 143.851603 260.628504 
z
" style="fill:#db5f57;stroke:#db5f57;stroke-width:0.886227;"/>
    <path clip-path="url(#p9b0889d783)" d="M 124.10846 249.119607 
C 124.57852 249.119607 125.029391 248.93285 125.361774 248.600467 
C 125.694157 248.268084 125.880914 247.817213 125.880914 247.347153 
C 125.880914 246.877093 125.694157 246.426222 125.361774 246.093839 
C 125.029391 245.761456 124.57852 245.574699 124.10846 245.574699 
C 123.6384 245.574699 123.187529 245.761456 122.855146 246.093839 
C 122.522763 246.426222 122.336006 246.877093 122.336006 247.347153 
C 122.336006 247.817213 122.522763 248.268084 122.855146 248.600467 
C 123.187529 248.93285 123.6384 249.119607 124.10846 249.119607 
z
" style="fill:#db5f57;stroke:#db5f57;stroke-width:0.886227;"/>
    <path clip-path="url(#p9b0889d783)" d="M 96.295226 270.493272 
C 96.765287 270.493272 97.216158 270.306515 97.54854 269.974133 
C 97.880923 269.64175 98.06768 269.190879 98.06768 268.720819 
C 98.06768 268.250758 97.880923 267.799887 97.54854 267.467504 
C 97.216158 267.135122 96.765287 266.948365 96.295226 266.948365 
C 95.825166 266.948365 95.374295 267.135122 95.041912 267.467504 
C 94.709529 267.799887 94.522772 268.250758 94.522772 268.720819 
C 94.522772 269.190879 94.709529 269.64175 95.041912 269.974133 
C 95.374295 270.306515 95.825166 270.493272 96.295226 270.493272 
z
" style="fill:#db5f57;stroke:#db5f57;stroke-width:0.886227;"/>
    <path clip-path="url(#p9b0889d783)" d="M 132.389544 263.767294 
C 132.859605 263.767294 133.310476 263.580537 133.642858 263.248154 
C 133.975241 262.915771 134.161998 262.4649 134.161998 261.99484 
C 134.161998 261.52478 133.975241 261.073909 133.642858 260.741526 
C 133.310476 260.409143 132.859605 260.222386 132.389544 260.222386 
C 131.919484 260.222386 131.468613 260.409143 131.13623 260.741526 
C 130.803847 261.073909 130.61709 261.52478 130.61709 261.99484 
C 130.61709 262.4649 130.803847 262.915771 131.13623 263.248154 
C 131.468613 263.580537 131.919484 263.767294 132.389544 263.767294 
z
" style="fill:#db5f57;stroke:#db5f57;stroke-width:0.886227;"/>
    <path clip-path="url(#p9b0889d783)" d="M 129.017631 250.913201 
C 129.487692 250.913201 129.938563 250.726444 130.270946 250.394061 
C 130.603328 250.061679 130.790085 249.610808 130.790085 249.140747 
C 130.790085 248.670687 130.603328 248.219816 130.270946 247.887433 
C 129.938563 247.55505 129.487692 247.368293 129.017631 247.368293 
C 128.547571 247.368293 128.0967 247.55505 127.764317 247.887433 
C 127.431934 248.219816 127.245178 248.670687 127.245178 249.140747 
C 127.245178 249.610808 127.431934 250.061679 127.764317 250.394061 
C 128.0967 250.726444 128.547571 250.913201 129.017631 250.913201 
z
" style="fill:#db5f57;stroke:#db5f57;stroke-width:0.886227;"/>
    <path clip-path="url(#p9b0889d783)" d="M 170.231153 276.322454 
C 170.701213 276.322454 171.152084 276.135697 171.484467 275.803314 
C 171.81685 275.470931 172.003607 275.02006 172.003607 274.55 
C 172.003607 274.07994 171.81685 273.629069 171.484467 273.296686 
C 171.152084 272.964303 170.701213 272.777546 170.231153 272.777546 
C 169.761092 272.777546 169.310221 272.964303 168.977839 273.296686 
C 168.645456 273.629069 168.458699 274.07994 168.458699 274.55 
C 168.458699 275.02006 168.645456 275.470931 168.977839 275.803314 
C 169.310221 276.135697 169.761092 276.322454 170.231153 276.322454 
z
" style="fill:#db5f57;stroke:#db5f57;stroke-width:0.886227;"/>
    <path clip-path="url(#p9b0889d783)" d="M 90.035202 71.852703 
C 90.505262 71.852703 90.956133 71.665946 91.288516 71.333563 
C 91.620899 71.00118 91.807656 70.550309 91.807656 70.080249 
C 91.807656 69.610189 91.620899 69.159318 91.288516 68.826935 
C 90.956133 68.494552 90.505262 68.307795 90.035202 68.307795 
C 89.565142 68.307795 89.114271 68.494552 88.781888 68.826935 
C 88.449505 69.159318 88.262748 69.610189 88.262748 70.080249 
C 88.262748 70.550309 88.449505 71.00118 88.781888 71.333563 
C 89.114271 71.665946 89.565142 71.852703 90.035202 71.852703 
z
" style="fill:#db5f57;stroke:#db5f57;stroke-width:0.886227;"/>
    <path clip-path="url(#p9b0889d783)" d="M 94.562085 101.148077 
C 95.032145 101.148077 95.483016 100.96132 95.815399 100.628937 
C 96.147782 100.296554 96.334539 99.845683 96.334539 99.375623 
C 96.334539 98.905563 96.147782 98.454691 95.815399 98.122309 
C 95.483016 97.789926 95.032145 97.603169 94.562085 97.603169 
C 94.092024 97.603169 93.641153 97.789926 93.308771 98.122309 
C 92.976388 98.454691 92.789631 98.905563 92.789631 99.375623 
C 92.789631 99.845683 92.976388 100.296554 93.308771 100.628937 
C 93.641153 100.96132 94.092024 101.148077 94.562085 101.148077 
z
" style="fill:#db5f57;stroke:#db5f57;stroke-width:0.886227;"/>
    <path clip-path="url(#p9b0889d783)" d="M 97.40569 115.94523 
C 97.87575 115.94523 98.326621 115.758473 98.659004 115.42609 
C 98.991387 115.093707 99.178143 114.642836 99.178143 114.172776 
C 99.178143 113.702716 98.991387 113.251844 98.659004 112.919462 
C 98.326621 112.587079 97.87575 112.400322 97.40569 112.400322 
C 96.935629 112.400322 96.484758 112.587079 96.152375 112.919462 
C 95.819993 113.251844 95.633236 113.702716 95.633236 114.172776 
C 95.633236 114.642836 95.819993 115.093707 96.152375 115.42609 
C 96.484758 115.758473 96.935629 115.94523 97.40569 115.94523 
z
" style="fill:#db5f57;stroke:#db5f57;stroke-width:0.886227;"/>
    <path clip-path="url(#p9b0889d783)" d="M 91.577268 211.155194 
C 92.047328 211.155194 92.498199 210.968437 92.830582 210.636054 
C 93.162965 210.303672 93.349722 209.8528 93.349722 209.38274 
C 93.349722 208.91268 93.162965 208.461809 92.830582 208.129426 
C 92.498199 207.797043 92.047328 207.610286 91.577268 207.610286 
C 91.107208 207.610286 90.656337 207.797043 90.323954 208.129426 
C 89.991571 208.461809 89.804814 208.91268 89.804814 209.38274 
C 89.804814 209.8528 89.991571 210.303672 90.323954 210.636054 
C 90.656337 210.968437 91.107208 211.155194 91.577268 211.155194 
z
" style="fill:#db5f57;stroke:#db5f57;stroke-width:0.886227;"/>
    <path clip-path="url(#p9b0889d783)" d="M 88.550692 88.592916 
C 89.020752 88.592916 89.471623 88.40616 89.804006 88.073777 
C 90.136389 87.741394 90.323146 87.290523 90.323146 86.820463 
C 90.323146 86.350402 90.136389 85.899531 89.804006 85.567148 
C 89.471623 85.234766 89.020752 85.048009 88.550692 85.048009 
C 88.080632 85.048009 87.629761 85.234766 87.297378 85.567148 
C 86.964995 85.899531 86.778238 86.350402 86.778238 86.820463 
C 86.778238 87.290523 86.964995 87.741394 87.297378 88.073777 
C 87.629761 88.40616 88.080632 88.592916 88.550692 88.592916 
z
" style="fill:#db5f57;stroke:#db5f57;stroke-width:0.886227;"/>
   </g>
   <g id="PathCollection_2">
    <path clip-path="url(#p9b0889d783)" d="M 142.693611 246.877614 
C 143.163672 246.877614 143.614543 246.690857 143.946926 246.358474 
C 144.279308 246.026091 144.466065 245.57522 144.466065 245.10516 
C 144.466065 244.6351 144.279308 244.184229 143.946926 243.851846 
C 143.614543 243.519463 143.163672 243.332706 142.693611 243.332706 
C 142.223551 243.332706 141.77268 243.519463 141.440297 243.851846 
C 141.107915 244.184229 140.921158 244.6351 140.921158 245.10516 
C 140.921158 245.57522 141.107915 246.026091 141.440297 246.358474 
C 141.77268 246.690857 142.223551 246.877614 142.693611 246.877614 
z
" style="fill:#57d3db;stroke:#57d3db;stroke-width:0.886227;"/>
    <path clip-path="url(#p9b0889d783)" d="M 475.701028 275.126724 
C 476.171089 275.126724 476.62196 274.939967 476.954343 274.607585 
C 477.286725 274.275202 477.473482 273.824331 477.473482 273.35427 
C 477.473482 272.88421 477.286725 272.433339 476.954343 272.100956 
C 476.62196 271.768574 476.171089 271.581817 475.701028 271.581817 
C 475.230968 271.581817 474.780097 271.768574 474.447714 272.100956 
C 474.115331 272.433339 473.928575 272.88421 473.928575 273.35427 
C 473.928575 273.824331 474.115331 274.275202 474.447714 274.607585 
C 474.780097 274.939967 475.230968 275.126724 475.701028 275.126724 
z
" style="fill:#57d3db;stroke:#57d3db;stroke-width:0.886227;"/>
    <path clip-path="url(#p9b0889d783)" d="M 129.128348 259.881173 
C 129.598408 259.881173 130.049279 259.694416 130.381662 259.362033 
C 130.714045 259.02965 130.900802 258.578779 130.900802 258.108719 
C 130.900802 257.638659 130.714045 257.187788 130.381662 256.855405 
C 130.049279 256.523022 129.598408 256.336265 129.128348 256.336265 
C 128.658288 256.336265 128.207417 256.523022 127.875034 256.855405 
C 127.542651 257.187788 127.355894 257.638659 127.355894 258.108719 
C 127.355894 258.578779 127.542651 259.02965 127.875034 259.362033 
C 128.207417 259.694416 128.658288 259.881173 129.128348 259.881173 
z
" style="fill:#57d3db;stroke:#57d3db;stroke-width:0.886227;"/>
    <path clip-path="url(#p9b0889d783)" d="M 247.379236 224.308219 
C 247.849296 224.308219 248.300167 224.121462 248.63255 223.789079 
C 248.964933 223.456696 249.15169 223.005825 249.15169 222.535765 
C 249.15169 222.065705 248.964933 221.614834 248.63255 221.282451 
C 248.300167 220.950068 247.849296 220.763311 247.379236 220.763311 
C 246.909176 220.763311 246.458305 220.950068 246.125922 221.282451 
C 245.793539 221.614834 245.606782 222.065705 245.606782 222.535765 
C 245.606782 223.005825 245.793539 223.456696 246.125922 223.789079 
C 246.458305 224.121462 246.909176 224.308219 247.379236 224.308219 
z
" style="fill:#57d3db;stroke:#57d3db;stroke-width:0.886227;"/>
    <path clip-path="url(#p9b0889d783)" d="M 84.410768 267.802881 
C 84.880828 267.802881 85.331699 267.616124 85.664082 267.283741 
C 85.996465 266.951358 86.183222 266.500487 86.183222 266.030427 
C 86.183222 265.560367 85.996465 265.109496 85.664082 264.777113 
C 85.331699 264.44473 84.880828 264.257973 84.410768 264.257973 
C 83.940708 264.257973 83.489837 264.44473 83.157454 264.777113 
C 82.825071 265.109496 82.638314 265.560367 82.638314 266.030427 
C 82.638314 266.500487 82.825071 266.951358 83.157454 267.283741 
C 83.489837 267.616124 83.940708 267.802881 84.410768 267.802881 
z
" style="fill:#57d3db;stroke:#57d3db;stroke-width:0.886227;"/>
    <path clip-path="url(#p9b0889d783)" d="M 174.522591 203.831351 
C 174.992651 203.831351 175.443522 203.644594 175.775905 203.312211 
C 176.108288 202.979828 176.295045 202.528957 176.295045 202.058897 
C 176.295045 201.588837 176.108288 201.137965 175.775905 200.805583 
C 175.443522 200.4732 174.992651 200.286443 174.522591 200.286443 
C 174.052531 200.286443 173.60166 200.4732 173.269277 200.805583 
C 172.936894 201.137965 172.750137 201.588837 172.750137 202.058897 
C 172.750137 202.528957 172.936894 202.979828 173.269277 203.312211 
C 173.60166 203.644594 174.052531 203.831351 174.522591 203.831351 
z
" style="fill:#57d3db;stroke:#57d3db;stroke-width:0.886227;"/>
    <path clip-path="url(#p9b0889d783)" d="M 324.381299 258.984376 
C 324.85136 258.984376 325.302231 258.797619 325.634614 258.465236 
C 325.966996 258.132853 326.153753 257.681982 326.153753 257.211922 
C 326.153753 256.741861 325.966996 256.29099 325.634614 255.958608 
C 325.302231 255.626225 324.85136 255.439468 324.381299 255.439468 
C 323.911239 255.439468 323.460368 255.626225 323.127985 255.958608 
C 322.795603 256.29099 322.608846 256.741861 322.608846 257.211922 
C 322.608846 257.681982 322.795603 258.132853 323.127985 258.465236 
C 323.460368 258.797619 323.911239 258.984376 324.381299 258.984376 
z
" style="fill:#57d3db;stroke:#57d3db;stroke-width:0.886227;"/>
    <path clip-path="url(#p9b0889d783)" d="M 149.804066 214.592916 
C 150.274126 214.592916 150.724998 214.40616 151.05738 214.073777 
C 151.389763 213.741394 151.57652 213.290523 151.57652 212.820463 
C 151.57652 212.350402 151.389763 211.899531 151.05738 211.567148 
C 150.724998 211.234766 150.274126 211.048009 149.804066 211.048009 
C 149.334006 211.048009 148.883135 211.234766 148.550752 211.567148 
C 148.218369 211.899531 148.031612 212.350402 148.031612 212.820463 
C 148.031612 213.290523 148.218369 213.741394 148.550752 214.073777 
C 148.883135 214.40616 149.334006 214.592916 149.804066 214.592916 
z
" style="fill:#57d3db;stroke:#57d3db;stroke-width:0.886227;"/>
    <path clip-path="url(#p9b0889d783)" d="M 73.413279 252.407863 
C 73.88334 252.407863 74.334211 252.221106 74.666594 251.888723 
C 74.998976 251.556341 75.185733 251.10547 75.185733 250.635409 
C 75.185733 250.165349 74.998976 249.714478 74.666594 249.382095 
C 74.334211 249.049712 73.88334 248.862955 73.413279 248.862955 
C 72.943219 248.862955 72.492348 249.049712 72.159965 249.382095 
C 71.827583 249.714478 71.640826 250.165349 71.640826 250.635409 
C 71.640826 251.10547 71.827583 251.556341 72.159965 251.888723 
C 72.492348 252.221106 72.943219 252.407863 73.413279 252.407863 
z
" style="fill:#57d3db;stroke:#57d3db;stroke-width:0.886227;"/>
    <path clip-path="url(#p9b0889d783)" d="M 72.4726 234.023521 
C 72.94266 234.023521 73.393531 233.836765 73.725914 233.504382 
C 74.058297 233.171999 74.245054 232.721128 74.245054 232.251068 
C 74.245054 231.781007 74.058297 231.330136 73.725914 230.997753 
C 73.393531 230.665371 72.94266 230.478614 72.4726 230.478614 
C 72.00254 230.478614 71.551669 230.665371 71.219286 230.997753 
C 70.886903 231.330136 70.700146 231.781007 70.700146 232.251068 
C 70.700146 232.721128 70.886903 233.171999 71.219286 233.504382 
C 71.551669 233.836765 72.00254 234.023521 72.4726 234.023521 
z
" style="fill:#57d3db;stroke:#57d3db;stroke-width:0.886227;"/>
    <path clip-path="url(#p9b0889d783)" d="M 72.153774 258.087578 
C 72.623835 258.087578 73.074706 257.900821 73.407089 257.568439 
C 73.739471 257.236056 73.926228 256.785185 73.926228 256.315125 
C 73.926228 255.845064 73.739471 255.394193 73.407089 255.06181 
C 73.074706 254.729428 72.623835 254.542671 72.153774 254.542671 
C 71.683714 254.542671 71.232843 254.729428 70.90046 255.06181 
C 70.568077 255.394193 70.381321 255.845064 70.381321 256.315125 
C 70.381321 256.785185 70.568077 257.236056 70.90046 257.568439 
C 71.232843 257.900821 71.683714 258.087578 72.153774 258.087578 
z
" style="fill:#57d3db;stroke:#57d3db;stroke-width:0.886227;"/>
    <path clip-path="url(#p9b0889d783)" d="M 125.989819 255.845586 
C 126.459879 255.845586 126.910751 255.658829 127.243133 255.326446 
C 127.575516 254.994063 127.762273 254.543192 127.762273 254.073132 
C 127.762273 253.603071 127.575516 253.1522 127.243133 252.819818 
C 126.910751 252.487435 126.459879 252.300678 125.989819 252.300678 
C 125.519759 252.300678 125.068888 252.487435 124.736505 252.819818 
C 124.404122 253.1522 124.217365 253.603071 124.217365 254.073132 
C 124.217365 254.543192 124.404122 254.994063 124.736505 255.326446 
C 125.068888 255.658829 125.519759 255.845586 125.989819 255.845586 
z
" style="fill:#57d3db;stroke:#57d3db;stroke-width:0.886227;"/>
    <path clip-path="url(#p9b0889d783)" d="M 87.579929 272.585799 
C 88.04999 272.585799 88.500861 272.399042 88.833244 272.066659 
C 89.165626 271.734277 89.352383 271.283405 89.352383 270.813345 
C 89.352383 270.343285 89.165626 269.892414 88.833244 269.560031 
C 88.500861 269.227648 88.04999 269.040891 87.579929 269.040891 
C 87.109869 269.040891 86.658998 269.227648 86.326615 269.560031 
C 85.994233 269.892414 85.807476 270.343285 85.807476 270.813345 
C 85.807476 271.283405 85.994233 271.734277 86.326615 272.066659 
C 86.658998 272.399042 87.109869 272.585799 87.579929 272.585799 
z
" style="fill:#57d3db;stroke:#57d3db;stroke-width:0.886227;"/>
    <path clip-path="url(#p9b0889d783)" d="M 354.346503 245.08402 
C 354.816563 245.08402 355.267434 244.897263 355.599817 244.56488 
C 355.9322 244.232497 356.118956 243.781626 356.118956 243.311566 
C 356.118956 242.841506 355.9322 242.390634 355.599817 242.058252 
C 355.267434 241.725869 354.816563 241.539112 354.346503 241.539112 
C 353.876442 241.539112 353.425571 241.725869 353.093188 242.058252 
C 352.760806 242.390634 352.574049 242.841506 352.574049 243.311566 
C 352.574049 243.781626 352.760806 244.232497 353.093188 244.56488 
C 353.425571 244.897263 353.876442 245.08402 354.346503 245.08402 
z
" style="fill:#57d3db;stroke:#57d3db;stroke-width:0.886227;"/>
    <path clip-path="url(#p9b0889d783)" d="M 242.593144 223.261956 
C 243.063204 223.261956 243.514076 223.075199 243.846458 222.742816 
C 244.178841 222.410433 244.365598 221.959562 244.365598 221.489502 
C 244.365598 221.019442 244.178841 220.56857 243.846458 220.236188 
C 243.514076 219.903805 243.063204 219.717048 242.593144 219.717048 
C 242.123084 219.717048 241.672213 219.903805 241.33983 220.236188 
C 241.007447 220.56857 240.82069 221.019442 240.82069 221.489502 
C 240.82069 221.959562 241.007447 222.410433 241.33983 222.742816 
C 241.672213 223.075199 242.123084 223.261956 242.593144 223.261956 
z
" style="fill:#57d3db;stroke:#57d3db;stroke-width:0.886227;"/>
    <path clip-path="url(#p9b0889d783)" d="M 124.104477 270.493272 
C 124.574537 270.493272 125.025408 270.306515 125.357791 269.974133 
C 125.690173 269.64175 125.87693 269.190879 125.87693 268.720819 
C 125.87693 268.250758 125.690173 267.799887 125.357791 267.467504 
C 125.025408 267.135122 124.574537 266.948365 124.104477 266.948365 
C 123.634416 266.948365 123.183545 267.135122 122.851162 267.467504 
C 122.51878 267.799887 122.332023 268.250758 122.332023 268.720819 
C 122.332023 269.190879 122.51878 269.64175 122.851162 269.974133 
C 123.183545 270.306515 123.634416 270.493272 124.104477 270.493272 
z
" style="fill:#57d3db;stroke:#57d3db;stroke-width:0.886227;"/>
    <path clip-path="url(#p9b0889d783)" d="M 75.975697 269.148077 
C 76.445757 269.148077 76.896628 268.96132 77.229011 268.628937 
C 77.561394 268.296554 77.748151 267.845683 77.748151 267.375623 
C 77.748151 266.905563 77.561394 266.454691 77.229011 266.122309 
C 76.896628 265.789926 76.445757 265.603169 75.975697 265.603169 
C 75.505637 265.603169 75.054766 265.789926 74.722383 266.122309 
C 74.39 266.454691 74.203243 266.905563 74.203243 267.375623 
C 74.203243 267.845683 74.39 268.296554 74.722383 268.628937 
C 75.054766 268.96132 75.505637 269.148077 75.975697 269.148077 
z
" style="fill:#57d3db;stroke:#57d3db;stroke-width:0.886227;"/>
    <path clip-path="url(#p9b0889d783)" d="M 136.547326 253.005728 
C 137.017386 253.005728 137.468257 252.818971 137.80064 252.486588 
C 138.133023 252.154205 138.31978 251.703334 138.31978 251.233274 
C 138.31978 250.763214 138.133023 250.312343 137.80064 249.97996 
C 137.468257 249.647577 137.017386 249.46082 136.547326 249.46082 
C 136.077266 249.46082 135.626394 249.647577 135.294012 249.97996 
C 134.961629 250.312343 134.774872 250.763214 134.774872 251.233274 
C 134.774872 251.703334 134.961629 252.154205 135.294012 252.486588 
C 135.626394 252.818971 136.077266 253.005728 136.547326 253.005728 
z
" style="fill:#57d3db;stroke:#57d3db;stroke-width:0.886227;"/>
    <path clip-path="url(#p9b0889d783)" d="M 114.476248 258.535977 
C 114.946308 258.535977 115.397179 258.34922 115.729562 258.016837 
C 116.061945 257.684454 116.248702 257.233583 116.248702 256.763523 
C 116.248702 256.293463 116.061945 255.842592 115.729562 255.510209 
C 115.397179 255.177826 114.946308 254.991069 114.476248 254.991069 
C 114.006188 254.991069 113.555317 255.177826 113.222934 255.510209 
C 112.890551 255.842592 112.703794 256.293463 112.703794 256.763523 
C 112.703794 257.233583 112.890551 257.684454 113.222934 258.016837 
C 113.555317 258.34922 114.006188 258.535977 114.476248 258.535977 
z
" style="fill:#57d3db;stroke:#57d3db;stroke-width:0.886227;"/>
    <path clip-path="url(#p9b0889d783)" d="M 155.844443 274.52886 
C 156.314503 274.52886 156.765374 274.342103 157.097757 274.00972 
C 157.43014 273.677337 157.616897 273.226466 157.616897 272.756406 
C 157.616897 272.286345 157.43014 271.835474 157.097757 271.503092 
C 156.765374 271.170709 156.314503 270.983952 155.844443 270.983952 
C 155.374383 270.983952 154.923512 271.170709 154.591129 271.503092 
C 154.258746 271.835474 154.071989 272.286345 154.071989 272.756406 
C 154.071989 273.226466 154.258746 273.677337 154.591129 274.00972 
C 154.923512 274.342103 155.374383 274.52886 155.844443 274.52886 
z
" style="fill:#57d3db;stroke:#57d3db;stroke-width:0.886227;"/>
    <path clip-path="url(#p9b0889d783)" d="M 135.855553 265.261956 
C 136.325613 265.261956 136.776484 265.075199 137.108867 264.742816 
C 137.44125 264.410433 137.628007 263.959562 137.628007 263.489502 
C 137.628007 263.019442 137.44125 262.56857 137.108867 262.236188 
C 136.776484 261.903805 136.325613 261.717048 135.855553 261.717048 
C 135.385492 261.717048 134.934621 261.903805 134.602239 262.236188 
C 134.269856 262.56857 134.083099 263.019442 134.083099 263.489502 
C 134.083099 263.959562 134.269856 264.410433 134.602239 264.742816 
C 134.934621 265.075199 135.385492 265.261956 135.855553 265.261956 
z
" style="fill:#57d3db;stroke:#57d3db;stroke-width:0.886227;"/>
    <path clip-path="url(#p9b0889d783)" d="M 201.383057 261.525301 
C 201.853117 261.525301 202.303988 261.338544 202.636371 261.006161 
C 202.968754 260.673778 203.155511 260.222907 203.155511 259.752847 
C 203.155511 259.282787 202.968754 258.831916 202.636371 258.499533 
C 202.303988 258.16715 201.853117 257.980393 201.383057 257.980393 
C 200.912997 257.980393 200.462126 258.16715 200.129743 258.499533 
C 199.79736 258.831916 199.610603 259.282787 199.610603 259.752847 
C 199.610603 260.222907 199.79736 260.673778 200.129743 261.006161 
C 200.462126 261.338544 200.912997 261.525301 201.383057 261.525301 
z
" style="fill:#57d3db;stroke:#57d3db;stroke-width:0.886227;"/>
    <path clip-path="url(#p9b0889d783)" d="M 332.370757 243.140959 
C 332.840817 243.140959 333.291688 242.954202 333.624071 242.621819 
C 333.956453 242.289437 334.14321 241.838566 334.14321 241.368505 
C 334.14321 240.898445 333.956453 240.447574 333.624071 240.115191 
C 333.291688 239.782808 332.840817 239.596051 332.370757 239.596051 
C 331.900696 239.596051 331.449825 239.782808 331.117442 240.115191 
C 330.78506 240.447574 330.598303 240.898445 330.598303 241.368505 
C 330.598303 241.838566 330.78506 242.289437 331.117442 242.621819 
C 331.449825 242.954202 331.900696 243.140959 332.370757 243.140959 
z
" style="fill:#57d3db;stroke:#57d3db;stroke-width:0.886227;"/>
    <path clip-path="url(#p9b0889d783)" d="M 78.178079 242.991493 
C 78.64814 242.991493 79.099011 242.804736 79.431394 242.472353 
C 79.763776 242.13997 79.950533 241.689099 79.950533 241.219039 
C 79.950533 240.748979 79.763776 240.298108 79.431394 239.965725 
C 79.099011 239.633342 78.64814 239.446585 78.178079 239.446585 
C 77.708019 239.446585 77.257148 239.633342 76.924765 239.965725 
C 76.592383 240.298108 76.405626 240.748979 76.405626 241.219039 
C 76.405626 241.689099 76.592383 242.13997 76.924765 242.472353 
C 77.257148 242.804736 77.708019 242.991493 78.178079 242.991493 
z
" style="fill:#57d3db;stroke:#57d3db;stroke-width:0.886227;"/>
    <path clip-path="url(#p9b0889d783)" d="M 88.744103 264.365158 
C 89.214163 264.365158 89.665034 264.178402 89.997417 263.846019 
C 90.3298 263.513636 90.516557 263.062765 90.516557 262.592705 
C 90.516557 262.122644 90.3298 261.671773 89.997417 261.33939 
C 89.665034 261.007008 89.214163 260.820251 88.744103 260.820251 
C 88.274043 260.820251 87.823171 261.007008 87.490789 261.33939 
C 87.158406 261.671773 86.971649 262.122644 86.971649 262.592705 
C 86.971649 263.062765 87.158406 263.513636 87.490789 263.846019 
C 87.823171 264.178402 88.274043 264.365158 88.744103 264.365158 
z
" style="fill:#57d3db;stroke:#57d3db;stroke-width:0.886227;"/>
    <path clip-path="url(#p9b0889d783)" d="M 267.389967 248.521742 
C 267.860028 248.521742 268.310899 248.334985 268.643281 248.002602 
C 268.975664 247.67022 269.162421 247.219349 269.162421 246.749288 
C 269.162421 246.279228 268.975664 245.828357 268.643281 245.495974 
C 268.310899 245.163591 267.860028 244.976834 267.389967 244.976834 
C 266.919907 244.976834 266.469036 245.163591 266.136653 245.495974 
C 265.80427 245.828357 265.617513 246.279228 265.617513 246.749288 
C 265.617513 247.219349 265.80427 247.67022 266.136653 248.002602 
C 266.469036 248.334985 266.919907 248.521742 267.389967 248.521742 
z
" style="fill:#57d3db;stroke:#57d3db;stroke-width:0.886227;"/>
    <path clip-path="url(#p9b0889d783)" d="M 109.710349 276.023521 
C 110.180409 276.023521 110.63128 275.836765 110.963663 275.504382 
C 111.296046 275.171999 111.482803 274.721128 111.482803 274.251068 
C 111.482803 273.781007 111.296046 273.330136 110.963663 272.997753 
C 110.63128 272.665371 110.180409 272.478614 109.710349 272.478614 
C 109.240289 272.478614 108.789418 272.665371 108.457035 272.997753 
C 108.124652 273.330136 107.937895 273.781007 107.937895 274.251068 
C 107.937895 274.721128 108.124652 275.171999 108.457035 275.504382 
C 108.789418 275.836765 109.240289 276.023521 109.710349 276.023521 
z
" style="fill:#57d3db;stroke:#57d3db;stroke-width:0.886227;"/>
    <path clip-path="url(#p9b0889d783)" d="M 69.882847 250.913201 
C 70.352907 250.913201 70.803778 250.726444 71.136161 250.394061 
C 71.468544 250.061679 71.6553 249.610808 71.6553 249.140747 
C 71.6553 248.670687 71.468544 248.219816 71.136161 247.887433 
C 70.803778 247.55505 70.352907 247.368293 69.882847 247.368293 
C 69.412786 247.368293 68.961915 247.55505 68.629532 247.887433 
C 68.29715 248.219816 68.110393 248.670687 68.110393 249.140747 
C 68.110393 249.610808 68.29715 250.061679 68.629532 250.394061 
C 68.961915 250.726444 69.412786 250.913201 69.882847 250.913201 
z
" style="fill:#57d3db;stroke:#57d3db;stroke-width:0.886227;"/>
    <path clip-path="url(#p9b0889d783)" d="M 112.485546 266.457685 
C 112.955606 266.457685 113.406477 266.270928 113.73886 265.938545 
C 114.071243 265.606163 114.258 265.155292 114.258 264.685231 
C 114.258 264.215171 114.071243 263.7643 113.73886 263.431917 
C 113.406477 263.099534 112.955606 262.912777 112.485546 262.912777 
C 112.015486 262.912777 111.564615 263.099534 111.232232 263.431917 
C 110.899849 263.7643 110.713092 264.215171 110.713092 264.685231 
C 110.713092 265.155292 110.899849 265.606163 111.232232 265.938545 
C 111.564615 266.270928 112.015486 266.457685 112.485546 266.457685 
z
" style="fill:#57d3db;stroke:#57d3db;stroke-width:0.886227;"/>
    <path clip-path="url(#p9b0889d783)" d="M 133.135027 271.539536 
C 133.605088 271.539536 134.055959 271.352779 134.388342 271.020396 
C 134.720724 270.688013 134.907481 270.237142 134.907481 269.767082 
C 134.907481 269.297022 134.720724 268.846151 134.388342 268.513768 
C 134.055959 268.181385 133.605088 267.994628 133.135027 267.994628 
C 132.664967 267.994628 132.214096 268.181385 131.881713 268.513768 
C 131.54933 268.846151 131.362574 269.297022 131.362574 269.767082 
C 131.362574 270.237142 131.54933 270.688013 131.881713 271.020396 
C 132.214096 271.352779 132.664967 271.539536 133.135027 271.539536 
z
" style="fill:#57d3db;stroke:#57d3db;stroke-width:0.886227;"/>
    <path clip-path="url(#p9b0889d783)" d="M 161.598962 271.091137 
C 162.069022 271.091137 162.519893 270.90438 162.852276 270.571997 
C 163.184659 270.239615 163.371416 269.788744 163.371416 269.318683 
C 163.371416 268.848623 163.184659 268.397752 162.852276 268.065369 
C 162.519893 267.732986 162.069022 267.546229 161.598962 267.546229 
C 161.128902 267.546229 160.678031 267.732986 160.345648 268.065369 
C 160.013265 268.397752 159.826508 268.848623 159.826508 269.318683 
C 159.826508 269.788744 160.013265 270.239615 160.345648 270.571997 
C 160.678031 270.90438 161.128902 271.091137 161.598962 271.091137 
z
" style="fill:#57d3db;stroke:#57d3db;stroke-width:0.886227;"/>
    <path clip-path="url(#p9b0889d783)" d="M 80.879374 248.521742 
C 81.349434 248.521742 81.800305 248.334985 82.132688 248.002602 
C 82.465071 247.67022 82.651827 247.219349 82.651827 246.749288 
C 82.651827 246.279228 82.465071 245.828357 82.132688 245.495974 
C 81.800305 245.163591 81.349434 244.976834 80.879374 244.976834 
C 80.409313 244.976834 79.958442 245.163591 79.62606 245.495974 
C 79.293677 245.828357 79.10692 246.279228 79.10692 246.749288 
C 79.10692 247.219349 79.293677 247.67022 79.62606 248.002602 
C 79.958442 248.334985 80.409313 248.521742 80.879374 248.521742 
z
" style="fill:#57d3db;stroke:#57d3db;stroke-width:0.886227;"/>
    <path clip-path="url(#p9b0889d783)" d="M 180.817506 275.126724 
C 181.287566 275.126724 181.738437 274.939967 182.07082 274.607585 
C 182.403203 274.275202 182.58996 273.824331 182.58996 273.35427 
C 182.58996 272.88421 182.403203 272.433339 182.07082 272.100956 
C 181.738437 271.768574 181.287566 271.581817 180.817506 271.581817 
C 180.347446 271.581817 179.896575 271.768574 179.564192 272.100956 
C 179.231809 272.433339 179.045052 272.88421 179.045052 273.35427 
C 179.045052 273.824331 179.231809 274.275202 179.564192 274.607585 
C 179.896575 274.939967 180.347446 275.126724 180.817506 275.126724 
z
" style="fill:#57d3db;stroke:#57d3db;stroke-width:0.886227;"/>
    <path clip-path="url(#p9b0889d783)" d="M 126.016468 274.827792 
C 126.486528 274.827792 126.937399 274.641035 127.269782 274.308652 
C 127.602165 273.976269 127.788922 273.525398 127.788922 273.055338 
C 127.788922 272.585278 127.602165 272.134407 127.269782 271.802024 
C 126.937399 271.469641 126.486528 271.282884 126.016468 271.282884 
C 125.546408 271.282884 125.095537 271.469641 124.763154 271.802024 
C 124.430771 272.134407 124.244014 272.585278 124.244014 273.055338 
C 124.244014 273.525398 124.430771 273.976269 124.763154 274.308652 
C 125.095537 274.641035 125.546408 274.827792 126.016468 274.827792 
z
" style="fill:#57d3db;stroke:#57d3db;stroke-width:0.886227;"/>
   </g>
   <g id="line2d_31">
    <path clip-path="url(#p9b0889d783)" d="M 88.550692 159.043074 
L 90.035202 161.648343 
L 91.577268 164.336617 
L 94.562085 169.490958 
L 96.295226 172.455603 
L 96.822573 173.353812 
L 97.40569 174.344981 
L 103.501287 184.580361 
L 103.962698 185.345952 
L 103.973962 185.364625 
L 104.946785 186.974404 
L 106.912212 190.207518 
L 107.230076 190.727773 
L 110.654463 196.279189 
L 124.10846 216.730384 
L 124.557508 217.361121 
L 126.223341 219.661695 
L 127.103442 220.85029 
L 127.21773 221.003195 
L 129.017631 223.365183 
L 132.389544 227.534452 
L 143.851603 237.96917 
L 144.493101 238.032417 
L 169.164509 248.685998 
L 170.231153 249.232956 
L 181.442519 252.783396 
L 183.804658 253.027156 
L 196.845597 252.800589 
L 202.136233 252.032875 
L 249.914867 252.960066 
L 276.41571 253.998516 
L 277.890742 254.105614 
L 281.727637 254.37798 
L 377.859782 259.573656 
L 397.2194 260.583376 
L 403.038344 260.896911 
" style="fill:none;stroke:#db5f57;stroke-linejoin:miter;stroke-width:1.772454;"/>
   </g>
   <g id="line2d_32">
    <path clip-path="url(#p9b0889d783)" d="M 69.882847 253.525586 
L 72.153774 253.907413 
L 72.4726 253.960635 
L 73.413279 254.117115 
L 75.975697 254.539361 
L 78.178079 254.897898 
L 80.879374 255.332497 
L 84.410768 255.893353 
L 87.579929 256.391489 
L 88.744103 256.573575 
L 109.710349 259.807249 
L 112.485546 260.230711 
L 114.476248 260.53309 
L 124.104477 261.944059 
L 125.989819 262.197703 
L 126.016468 262.201188 
L 129.128348 262.580309 
L 133.135027 262.931083 
L 135.855553 263.054829 
L 136.547326 263.118801 
L 142.693611 263.570896 
L 149.804066 263.7577 
L 155.844443 263.824286 
L 161.598962 263.745317 
L 174.522591 258.723969 
L 180.817506 256.018658 
L 201.383057 250.815037 
L 242.593144 249.708922 
L 247.379236 249.481605 
L 267.389967 248.016307 
L 324.381299 248.504912 
L 332.370757 249.213169 
L 354.346503 250.893032 
L 475.701028 259.447061 
" style="fill:none;stroke:#57d3db;stroke-linejoin:miter;stroke-width:1.772454;"/>
   </g>
   <g id="patch_3">
    <path d="M 503.191938 183.312969 
L 574.084563 183.312969 
L 574.084563 110.187031 
L 503.191938 110.187031 
z
" style="fill:#ffffff;"/>
   </g>
   <g id="text_11">
    <!-- City -->
    <defs>
     <path d="M 64.40625 67.28125 
L 64.40625 56.890625 
Q 59.421875 61.53125 53.78125 63.8125 
Q 48.140625 66.109375 41.796875 66.109375 
Q 29.296875 66.109375 22.65625 58.46875 
Q 16.015625 50.828125 16.015625 36.375 
Q 16.015625 21.96875 22.65625 14.328125 
Q 29.296875 6.6875 41.796875 6.6875 
Q 48.140625 6.6875 53.78125 8.984375 
Q 59.421875 11.28125 64.40625 15.921875 
L 64.40625 5.609375 
Q 59.234375 2.09375 53.4375 0.328125 
Q 47.65625 -1.421875 41.21875 -1.421875 
Q 24.65625 -1.421875 15.125 8.703125 
Q 5.609375 18.84375 5.609375 36.375 
Q 5.609375 53.953125 15.125 64.078125 
Q 24.65625 74.21875 41.21875 74.21875 
Q 47.75 74.21875 53.53125 72.484375 
Q 59.328125 70.75 64.40625 67.28125 
z
" id="DejaVuSans-43"/>
     <path d="M 18.3125 70.21875 
L 18.3125 54.6875 
L 36.8125 54.6875 
L 36.8125 47.703125 
L 18.3125 47.703125 
L 18.3125 18.015625 
Q 18.3125 11.328125 20.140625 9.421875 
Q 21.96875 7.515625 27.59375 7.515625 
L 36.8125 7.515625 
L 36.8125 0 
L 27.59375 0 
Q 17.1875 0 13.234375 3.875 
Q 9.28125 7.765625 9.28125 18.015625 
L 9.28125 47.703125 
L 2.6875 47.703125 
L 2.6875 54.6875 
L 9.28125 54.6875 
L 9.28125 70.21875 
z
" id="DejaVuSans-74"/>
     <path d="M 32.171875 -5.078125 
Q 28.375 -14.84375 24.75 -17.8125 
Q 21.140625 -20.796875 15.09375 -20.796875 
L 7.90625 -20.796875 
L 7.90625 -13.28125 
L 13.1875 -13.28125 
Q 16.890625 -13.28125 18.9375 -11.515625 
Q 21 -9.765625 23.484375 -3.21875 
L 25.09375 0.875 
L 2.984375 54.6875 
L 12.5 54.6875 
L 29.59375 11.921875 
L 46.6875 54.6875 
L 56.203125 54.6875 
z
" id="DejaVuSans-79"/>
    </defs>
    <g transform="translate(515.391938 133.780625)scale(0.11 -0.11)">
     <use xlink:href="#DejaVuSans-43"/>
     <use x="69.824219" xlink:href="#DejaVuSans-69"/>
     <use x="97.607422" xlink:href="#DejaVuSans-74"/>
     <use x="136.816406" xlink:href="#DejaVuSans-79"/>
    </g>
   </g>
   <g id="patch_4">
    <path clip-path="url(#p087efc8b3a)" d="M 515.391938 153.272969 
L 531.231938 153.272969 
L 531.231938 137.432969 
L 515.391938 137.432969 
z
" style="fill:#f2f2f2;"/>
   </g>
   <g id="line2d_33">
    <path clip-path="url(#p087efc8b3a)" d="M 523.311937 145.352969 
" style="fill:none;stroke:#1f77b4;stroke-linecap:square;stroke-width:1.5;"/>
    <defs>
     <path d="M 0 1.772454 
C 0.47006 1.772454 0.920931 1.585697 1.253314 1.253314 
C 1.585697 0.920931 1.772454 0.47006 1.772454 0 
C 1.772454 -0.47006 1.585697 -0.920931 1.253314 -1.253314 
C 0.920931 -1.585697 0.47006 -1.772454 0 -1.772454 
C -0.47006 -1.772454 -0.920931 -1.585697 -1.253314 -1.253314 
C -1.585697 -0.920931 -1.772454 -0.47006 -1.772454 0 
C -1.772454 0.47006 -1.585697 0.920931 -1.253314 1.253314 
C -0.920931 1.585697 -0.47006 1.772454 0 1.772454 
z
" id="mabbd38d3d2" style="stroke:#db5f57;stroke-width:0.886227;"/>
    </defs>
    <g clip-path="url(#p087efc8b3a)">
     <use style="fill:#db5f57;stroke:#db5f57;stroke-width:0.886227;" x="523.311937" xlink:href="#mabbd38d3d2" y="145.352969"/>
    </g>
   </g>
   <g id="patch_5">
    <path clip-path="url(#p087efc8b3a)" d="M 515.391938 149.312969 
L 531.231938 149.312969 
L 531.231938 141.392969 
L 515.391938 141.392969 
z
" style="fill:#999999;opacity:0.4;"/>
   </g>
   <g id="line2d_34">
    <path clip-path="url(#p087efc8b3a)" d="M 515.391938 145.352969 
L 531.231938 145.352969 
" style="fill:none;stroke:#db5f57;stroke-width:1.772454;"/>
   </g>
   <g id="text_12">
    <!-- Austin -->
    <defs>
     <path d="M 34.1875 63.1875 
L 20.796875 26.90625 
L 47.609375 26.90625 
z
M 28.609375 72.90625 
L 39.796875 72.90625 
L 67.578125 0 
L 57.328125 0 
L 50.6875 18.703125 
L 17.828125 18.703125 
L 11.1875 0 
L 0.78125 0 
z
" id="DejaVuSans-41"/>
     <path d="M 8.5 21.578125 
L 8.5 54.6875 
L 17.484375 54.6875 
L 17.484375 21.921875 
Q 17.484375 14.15625 20.5 10.265625 
Q 23.53125 6.390625 29.59375 6.390625 
Q 36.859375 6.390625 41.078125 11.03125 
Q 45.3125 15.671875 45.3125 23.6875 
L 45.3125 54.6875 
L 54.296875 54.6875 
L 54.296875 0 
L 45.3125 0 
L 45.3125 8.40625 
Q 42.046875 3.421875 37.71875 1 
Q 33.40625 -1.421875 27.6875 -1.421875 
Q 18.265625 -1.421875 13.375 4.4375 
Q 8.5 10.296875 8.5 21.578125 
z
M 31.109375 56 
z
" id="DejaVuSans-75"/>
     <path d="M 54.890625 33.015625 
L 54.890625 0 
L 45.90625 0 
L 45.90625 32.71875 
Q 45.90625 40.484375 42.875 44.328125 
Q 39.84375 48.1875 33.796875 48.1875 
Q 26.515625 48.1875 22.3125 43.546875 
Q 18.109375 38.921875 18.109375 30.90625 
L 18.109375 0 
L 9.078125 0 
L 9.078125 54.6875 
L 18.109375 54.6875 
L 18.109375 46.1875 
Q 21.34375 51.125 25.703125 53.5625 
Q 30.078125 56 35.796875 56 
Q 45.21875 56 50.046875 50.171875 
Q 54.890625 44.34375 54.890625 33.015625 
z
" id="DejaVuSans-6e"/>
    </defs>
    <g transform="translate(534.231938 147.781219)scale(0.088 -0.088)">
     <use xlink:href="#DejaVuSans-41"/>
     <use x="68.408203" xlink:href="#DejaVuSans-75"/>
     <use x="131.787109" xlink:href="#DejaVuSans-73"/>
     <use x="183.886719" xlink:href="#DejaVuSans-74"/>
     <use x="223.095703" xlink:href="#DejaVuSans-69"/>
     <use x="250.878906" xlink:href="#DejaVuSans-6e"/>
    </g>
   </g>
   <g id="patch_6">
    <path clip-path="url(#p1101f63628)" d="M 515.391938 171.112969 
L 531.231938 171.112969 
L 531.231938 155.272969 
L 515.391938 155.272969 
z
" style="fill:#f2f2f2;"/>
   </g>
   <g id="line2d_35">
    <path clip-path="url(#p1101f63628)" d="M 523.311937 163.192969 
" style="fill:none;stroke:#1f77b4;stroke-linecap:square;stroke-width:1.5;"/>
    <defs>
     <path d="M 0 1.772454 
C 0.47006 1.772454 0.920931 1.585697 1.253314 1.253314 
C 1.585697 0.920931 1.772454 0.47006 1.772454 0 
C 1.772454 -0.47006 1.585697 -0.920931 1.253314 -1.253314 
C 0.920931 -1.585697 0.47006 -1.772454 0 -1.772454 
C -0.47006 -1.772454 -0.920931 -1.585697 -1.253314 -1.253314 
C -1.585697 -0.920931 -1.772454 -0.47006 -1.772454 0 
C -1.772454 0.47006 -1.585697 0.920931 -1.253314 1.253314 
C -0.920931 1.585697 -0.47006 1.772454 0 1.772454 
z
" id="m75b4c202ce" style="stroke:#57d3db;stroke-width:0.886227;"/>
    </defs>
    <g clip-path="url(#p1101f63628)">
     <use style="fill:#57d3db;stroke:#57d3db;stroke-width:0.886227;" x="523.311937" xlink:href="#m75b4c202ce" y="163.192969"/>
    </g>
   </g>
   <g id="patch_7">
    <path clip-path="url(#p1101f63628)" d="M 515.391938 167.152969 
L 531.231938 167.152969 
L 531.231938 159.232969 
L 515.391938 159.232969 
z
" style="fill:#999999;opacity:0.4;"/>
   </g>
   <g id="line2d_36">
    <path clip-path="url(#p1101f63628)" d="M 515.391938 163.192969 
L 531.231938 163.192969 
" style="fill:none;stroke:#57d3db;stroke-width:1.772454;"/>
   </g>
   <g id="text_13">
    <!-- Dallas -->
    <defs>
     <path d="M 19.671875 64.796875 
L 19.671875 8.109375 
L 31.59375 8.109375 
Q 46.6875 8.109375 53.6875 14.9375 
Q 60.6875 21.78125 60.6875 36.53125 
Q 60.6875 51.171875 53.6875 57.984375 
Q 46.6875 64.796875 31.59375 64.796875 
z
M 9.8125 72.90625 
L 30.078125 72.90625 
Q 51.265625 72.90625 61.171875 64.09375 
Q 71.09375 55.28125 71.09375 36.53125 
Q 71.09375 17.671875 61.125 8.828125 
Q 51.171875 0 30.078125 0 
L 9.8125 0 
z
" id="DejaVuSans-44"/>
     <path d="M 34.28125 27.484375 
Q 23.390625 27.484375 19.1875 25 
Q 14.984375 22.515625 14.984375 16.5 
Q 14.984375 11.71875 18.140625 8.90625 
Q 21.296875 6.109375 26.703125 6.109375 
Q 34.1875 6.109375 38.703125 11.40625 
Q 43.21875 16.703125 43.21875 25.484375 
L 43.21875 27.484375 
z
M 52.203125 31.203125 
L 52.203125 0 
L 43.21875 0 
L 43.21875 8.296875 
Q 40.140625 3.328125 35.546875 0.953125 
Q 30.953125 -1.421875 24.3125 -1.421875 
Q 15.921875 -1.421875 10.953125 3.296875 
Q 6 8.015625 6 15.921875 
Q 6 25.140625 12.171875 29.828125 
Q 18.359375 34.515625 30.609375 34.515625 
L 43.21875 34.515625 
L 43.21875 35.40625 
Q 43.21875 41.609375 39.140625 45 
Q 35.0625 48.390625 27.6875 48.390625 
Q 23 48.390625 18.546875 47.265625 
Q 14.109375 46.140625 10.015625 43.890625 
L 10.015625 52.203125 
Q 14.9375 54.109375 19.578125 55.046875 
Q 24.21875 56 28.609375 56 
Q 40.484375 56 46.34375 49.84375 
Q 52.203125 43.703125 52.203125 31.203125 
z
" id="DejaVuSans-61"/>
     <path d="M 9.421875 75.984375 
L 18.40625 75.984375 
L 18.40625 0 
L 9.421875 0 
z
" id="DejaVuSans-6c"/>
    </defs>
    <g transform="translate(534.231938 165.621219)scale(0.088 -0.088)">
     <use xlink:href="#DejaVuSans-44"/>
     <use x="77.001953" xlink:href="#DejaVuSans-61"/>
     <use x="138.28125" xlink:href="#DejaVuSans-6c"/>
     <use x="166.064453" xlink:href="#DejaVuSans-6c"/>
     <use x="193.847656" xlink:href="#DejaVuSans-61"/>
     <use x="255.126953" xlink:href="#DejaVuSans-73"/>
    </g>
   </g>
  </g>
 </g>
 <defs>
  <clipPath id="p9b0889d783">
   <rect height="277.2" width="446.4" x="49.591938" y="9.95"/>
  </clipPath>
  <clipPath id="p087efc8b3a">
   <path d="M 515.391938 153.272969 
L 515.391938 137.432969 
L 531.231938 137.432969 
L 531.231938 153.272969 
"/>
  </clipPath>
  <clipPath id="p1101f63628">
   <path d="M 515.391938 171.112969 
L 515.391938 155.272969 
L 531.231938 155.272969 
L 531.231938 171.112969 
"/>
  </clipPath>
 </defs>
</svg>
