<?xml version="1.0" encoding="utf-8" standalone="no"?>
<!DOCTYPE svg PUBLIC "-//W3C//DTD SVG 1.1//EN"
  "http://www.w3.org/Graphics/SVG/1.1/DTD/svg11.dtd">
<!-- Created with matplotlib (http://matplotlib.org/) -->
<svg height="322pt" version="1.1" viewBox="0 0 575 322" width="575pt" xmlns="http://www.w3.org/2000/svg" xmlns:xlink="http://www.w3.org/1999/xlink">
 <defs>
  <style type="text/css">
*{stroke-linecap:butt;stroke-linejoin:round;}
  </style>
 </defs>
 <g id="figure_1">
  <g id="patch_1">
   <path d="M 0 322.862687 
L 575.685563 322.862687 
L 575.685563 0 
L 0 0 
z
" style="fill:#ffffff;stroke:#ffffff;stroke-linejoin:miter;"/>
  </g>
  <g id="axes_1">
   <g id="patch_2">
    <path d="M 43.992938 287.15 
L 490.392938 287.15 
L 490.392938 9.95 
L 43.992938 9.95 
z
" style="fill:#ebebeb;"/>
   </g>
   <g id="matplotlib.axis_1">
    <g id="xtick_1">
     <g id="line2d_1">
      <path clip-path="url(#pf1ed43a992)" d="M 45.5371 287.15 
L 45.5371 9.95 
" style="fill:none;stroke:#ffffff;"/>
     </g>
     <g id="line2d_2">
      <path d="M 45.5371 287.15 
" style="fill:none;stroke:#333333;stroke-width:1.5;"/>
      <defs>
       <path d="M 0 0 
L 0 2.75 
" id="m06f4551772" style="stroke:#333333;"/>
      </defs>
      <g>
       <use style="fill:#333333;stroke:#333333;" x="45.5371" xlink:href="#m06f4551772" y="287.15"/>
      </g>
     </g>
     <g id="text_1">
      <!-- 0 -->
      <defs>
       <path d="M 31.78125 66.40625 
Q 24.171875 66.40625 20.328125 58.90625 
Q 16.5 51.421875 16.5 36.375 
Q 16.5 21.390625 20.328125 13.890625 
Q 24.171875 6.390625 31.78125 6.390625 
Q 39.453125 6.390625 43.28125 13.890625 
Q 47.125 21.390625 47.125 36.375 
Q 47.125 51.421875 43.28125 58.90625 
Q 39.453125 66.40625 31.78125 66.40625 
z
M 31.78125 74.21875 
Q 44.046875 74.21875 50.515625 64.515625 
Q 56.984375 54.828125 56.984375 36.375 
Q 56.984375 17.96875 50.515625 8.265625 
Q 44.046875 -1.421875 31.78125 -1.421875 
Q 19.53125 -1.421875 13.0625 8.265625 
Q 6.59375 17.96875 6.59375 36.375 
Q 6.59375 54.828125 13.0625 64.515625 
Q 19.53125 74.21875 31.78125 74.21875 
z
" id="DejaVuSans-30"/>
      </defs>
      <g style="fill:#4d4d4d;" transform="translate(42.7376 298.786625)scale(0.088 -0.088)">
       <use xlink:href="#DejaVuSans-30"/>
      </g>
     </g>
    </g>
    <g id="xtick_2">
     <g id="line2d_3">
      <path clip-path="url(#pf1ed43a992)" d="M 173.851589 287.15 
L 173.851589 9.95 
" style="fill:none;stroke:#ffffff;"/>
     </g>
     <g id="line2d_4">
      <path d="M 173.851589 287.15 
" style="fill:none;stroke:#333333;stroke-width:1.5;"/>
      <g>
       <use style="fill:#333333;stroke:#333333;" x="173.851589" xlink:href="#m06f4551772" y="287.15"/>
      </g>
     </g>
     <g id="text_2">
      <!-- 500000 -->
      <defs>
       <path d="M 10.796875 72.90625 
L 49.515625 72.90625 
L 49.515625 64.59375 
L 19.828125 64.59375 
L 19.828125 46.734375 
Q 21.96875 47.46875 24.109375 47.828125 
Q 26.265625 48.1875 28.421875 48.1875 
Q 40.625 48.1875 47.75 41.5 
Q 54.890625 34.8125 54.890625 23.390625 
Q 54.890625 11.625 47.5625 5.09375 
Q 40.234375 -1.421875 26.90625 -1.421875 
Q 22.3125 -1.421875 17.546875 -0.640625 
Q 12.796875 0.140625 7.71875 1.703125 
L 7.71875 11.625 
Q 12.109375 9.234375 16.796875 8.0625 
Q 21.484375 6.890625 26.703125 6.890625 
Q 35.15625 6.890625 40.078125 11.328125 
Q 45.015625 15.765625 45.015625 23.390625 
Q 45.015625 31 40.078125 35.4375 
Q 35.15625 39.890625 26.703125 39.890625 
Q 22.75 39.890625 18.8125 39.015625 
Q 14.890625 38.140625 10.796875 36.28125 
z
" id="DejaVuSans-35"/>
      </defs>
      <g style="fill:#4d4d4d;" transform="translate(157.054589 298.786625)scale(0.088 -0.088)">
       <use xlink:href="#DejaVuSans-35"/>
       <use x="63.623047" xlink:href="#DejaVuSans-30"/>
       <use x="127.246094" xlink:href="#DejaVuSans-30"/>
       <use x="190.869141" xlink:href="#DejaVuSans-30"/>
       <use x="254.492188" xlink:href="#DejaVuSans-30"/>
       <use x="318.115234" xlink:href="#DejaVuSans-30"/>
      </g>
     </g>
    </g>
    <g id="xtick_3">
     <g id="line2d_5">
      <path clip-path="url(#pf1ed43a992)" d="M 302.166078 287.15 
L 302.166078 9.95 
" style="fill:none;stroke:#ffffff;"/>
     </g>
     <g id="line2d_6">
      <path d="M 302.166078 287.15 
" style="fill:none;stroke:#333333;stroke-width:1.5;"/>
      <g>
       <use style="fill:#333333;stroke:#333333;" x="302.166078" xlink:href="#m06f4551772" y="287.15"/>
      </g>
     </g>
     <g id="text_3">
      <!-- 1000000 -->
      <defs>
       <path d="M 12.40625 8.296875 
L 28.515625 8.296875 
L 28.515625 63.921875 
L 10.984375 60.40625 
L 10.984375 69.390625 
L 28.421875 72.90625 
L 38.28125 72.90625 
L 38.28125 8.296875 
L 54.390625 8.296875 
L 54.390625 0 
L 12.40625 0 
z
" id="DejaVuSans-31"/>
      </defs>
      <g style="fill:#4d4d4d;" transform="translate(282.569578 298.786625)scale(0.088 -0.088)">
       <use xlink:href="#DejaVuSans-31"/>
       <use x="63.623047" xlink:href="#DejaVuSans-30"/>
       <use x="127.246094" xlink:href="#DejaVuSans-30"/>
       <use x="190.869141" xlink:href="#DejaVuSans-30"/>
       <use x="254.492188" xlink:href="#DejaVuSans-30"/>
       <use x="318.115234" xlink:href="#DejaVuSans-30"/>
       <use x="381.738281" xlink:href="#DejaVuSans-30"/>
      </g>
     </g>
    </g>
    <g id="xtick_4">
     <g id="line2d_7">
      <path clip-path="url(#pf1ed43a992)" d="M 430.480567 287.15 
L 430.480567 9.95 
" style="fill:none;stroke:#ffffff;"/>
     </g>
     <g id="line2d_8">
      <path d="M 430.480567 287.15 
" style="fill:none;stroke:#333333;stroke-width:1.5;"/>
      <g>
       <use style="fill:#333333;stroke:#333333;" x="430.480567" xlink:href="#m06f4551772" y="287.15"/>
      </g>
     </g>
     <g id="text_4">
      <!-- 1500000 -->
      <g style="fill:#4d4d4d;" transform="translate(410.884067 298.786625)scale(0.088 -0.088)">
       <use xlink:href="#DejaVuSans-31"/>
       <use x="63.623047" xlink:href="#DejaVuSans-35"/>
       <use x="127.246094" xlink:href="#DejaVuSans-30"/>
       <use x="190.869141" xlink:href="#DejaVuSans-30"/>
       <use x="254.492188" xlink:href="#DejaVuSans-30"/>
       <use x="318.115234" xlink:href="#DejaVuSans-30"/>
       <use x="381.738281" xlink:href="#DejaVuSans-30"/>
      </g>
     </g>
    </g>
    <g id="xtick_5">
     <g id="line2d_9">
      <path clip-path="url(#pf1ed43a992)" d="M 109.694344 287.15 
L 109.694344 9.95 
" style="fill:none;stroke:#ffffff;stroke-width:0.5;"/>
     </g>
     <g id="line2d_10">
      <path d="M 109.694344 287.15 
" style="fill:none;stroke:#333333;stroke-width:1.5;"/>
     </g>
    </g>
    <g id="xtick_6">
     <g id="line2d_11">
      <path clip-path="url(#pf1ed43a992)" d="M 238.008833 287.15 
L 238.008833 9.95 
" style="fill:none;stroke:#ffffff;stroke-width:0.5;"/>
     </g>
     <g id="line2d_12">
      <path d="M 238.008833 287.15 
" style="fill:none;stroke:#333333;stroke-width:1.5;"/>
     </g>
    </g>
    <g id="xtick_7">
     <g id="line2d_13">
      <path clip-path="url(#pf1ed43a992)" d="M 366.323323 287.15 
L 366.323323 9.95 
" style="fill:none;stroke:#ffffff;stroke-width:0.5;"/>
     </g>
     <g id="line2d_14">
      <path d="M 366.323323 287.15 
" style="fill:none;stroke:#333333;stroke-width:1.5;"/>
     </g>
    </g>
    <g id="text_5">
     <!-- mfprice -->
     <defs>
      <path d="M 52 44.1875 
Q 55.375 50.25 60.0625 53.125 
Q 64.75 56 71.09375 56 
Q 79.640625 56 84.28125 50.015625 
Q 88.921875 44.046875 88.921875 33.015625 
L 88.921875 0 
L 79.890625 0 
L 79.890625 32.71875 
Q 79.890625 40.578125 77.09375 44.375 
Q 74.3125 48.1875 68.609375 48.1875 
Q 61.625 48.1875 57.5625 43.546875 
Q 53.515625 38.921875 53.515625 30.90625 
L 53.515625 0 
L 44.484375 0 
L 44.484375 32.71875 
Q 44.484375 40.625 41.703125 44.40625 
Q 38.921875 48.1875 33.109375 48.1875 
Q 26.21875 48.1875 22.15625 43.53125 
Q 18.109375 38.875 18.109375 30.90625 
L 18.109375 0 
L 9.078125 0 
L 9.078125 54.6875 
L 18.109375 54.6875 
L 18.109375 46.1875 
Q 21.1875 51.21875 25.484375 53.609375 
Q 29.78125 56 35.6875 56 
Q 41.65625 56 45.828125 52.96875 
Q 50 49.953125 52 44.1875 
z
" id="DejaVuSans-6d"/>
      <path d="M 37.109375 75.984375 
L 37.109375 68.5 
L 28.515625 68.5 
Q 23.6875 68.5 21.796875 66.546875 
Q 19.921875 64.59375 19.921875 59.515625 
L 19.921875 54.6875 
L 34.71875 54.6875 
L 34.71875 47.703125 
L 19.921875 47.703125 
L 19.921875 0 
L 10.890625 0 
L 10.890625 47.703125 
L 2.296875 47.703125 
L 2.296875 54.6875 
L 10.890625 54.6875 
L 10.890625 58.5 
Q 10.890625 67.625 15.140625 71.796875 
Q 19.390625 75.984375 28.609375 75.984375 
z
" id="DejaVuSans-66"/>
      <path d="M 18.109375 8.203125 
L 18.109375 -20.796875 
L 9.078125 -20.796875 
L 9.078125 54.6875 
L 18.109375 54.6875 
L 18.109375 46.390625 
Q 20.953125 51.265625 25.265625 53.625 
Q 29.59375 56 35.59375 56 
Q 45.5625 56 51.78125 48.09375 
Q 58.015625 40.1875 58.015625 27.296875 
Q 58.015625 14.40625 51.78125 6.484375 
Q 45.5625 -1.421875 35.59375 -1.421875 
Q 29.59375 -1.421875 25.265625 0.953125 
Q 20.953125 3.328125 18.109375 8.203125 
z
M 48.6875 27.296875 
Q 48.6875 37.203125 44.609375 42.84375 
Q 40.53125 48.484375 33.40625 48.484375 
Q 26.265625 48.484375 22.1875 42.84375 
Q 18.109375 37.203125 18.109375 27.296875 
Q 18.109375 17.390625 22.1875 11.75 
Q 26.265625 6.109375 33.40625 6.109375 
Q 40.53125 6.109375 44.609375 11.75 
Q 48.6875 17.390625 48.6875 27.296875 
z
" id="DejaVuSans-70"/>
      <path d="M 41.109375 46.296875 
Q 39.59375 47.171875 37.8125 47.578125 
Q 36.03125 48 33.890625 48 
Q 26.265625 48 22.1875 43.046875 
Q 18.109375 38.09375 18.109375 28.8125 
L 18.109375 0 
L 9.078125 0 
L 9.078125 54.6875 
L 18.109375 54.6875 
L 18.109375 46.1875 
Q 20.953125 51.171875 25.484375 53.578125 
Q 30.03125 56 36.53125 56 
Q 37.453125 56 38.578125 55.875 
Q 39.703125 55.765625 41.0625 55.515625 
z
" id="DejaVuSans-72"/>
      <path d="M 9.421875 54.6875 
L 18.40625 54.6875 
L 18.40625 0 
L 9.421875 0 
z
M 9.421875 75.984375 
L 18.40625 75.984375 
L 18.40625 64.59375 
L 9.421875 64.59375 
z
" id="DejaVuSans-69"/>
      <path d="M 48.78125 52.59375 
L 48.78125 44.1875 
Q 44.96875 46.296875 41.140625 47.34375 
Q 37.3125 48.390625 33.40625 48.390625 
Q 24.65625 48.390625 19.8125 42.84375 
Q 14.984375 37.3125 14.984375 27.296875 
Q 14.984375 17.28125 19.8125 11.734375 
Q 24.65625 6.203125 33.40625 6.203125 
Q 37.3125 6.203125 41.140625 7.25 
Q 44.96875 8.296875 48.78125 10.40625 
L 48.78125 2.09375 
Q 45.015625 0.34375 40.984375 -0.53125 
Q 36.96875 -1.421875 32.421875 -1.421875 
Q 20.0625 -1.421875 12.78125 6.34375 
Q 5.515625 14.109375 5.515625 27.296875 
Q 5.515625 40.671875 12.859375 48.328125 
Q 20.21875 56 33.015625 56 
Q 37.15625 56 41.109375 55.140625 
Q 45.0625 54.296875 48.78125 52.59375 
z
" id="DejaVuSans-63"/>
      <path d="M 56.203125 29.59375 
L 56.203125 25.203125 
L 14.890625 25.203125 
Q 15.484375 15.921875 20.484375 11.0625 
Q 25.484375 6.203125 34.421875 6.203125 
Q 39.59375 6.203125 44.453125 7.46875 
Q 49.3125 8.734375 54.109375 11.28125 
L 54.109375 2.78125 
Q 49.265625 0.734375 44.1875 -0.34375 
Q 39.109375 -1.421875 33.890625 -1.421875 
Q 20.796875 -1.421875 13.15625 6.1875 
Q 5.515625 13.8125 5.515625 26.8125 
Q 5.515625 40.234375 12.765625 48.109375 
Q 20.015625 56 32.328125 56 
Q 43.359375 56 49.78125 48.890625 
Q 56.203125 41.796875 56.203125 29.59375 
z
M 47.21875 32.234375 
Q 47.125 39.59375 43.09375 43.984375 
Q 39.0625 48.390625 32.421875 48.390625 
Q 24.90625 48.390625 20.390625 44.140625 
Q 15.875 39.890625 15.1875 32.171875 
z
" id="DejaVuSans-65"/>
     </defs>
     <g transform="translate(239.010437 313.375031)scale(0.11 -0.11)">
      <use xlink:href="#DejaVuSans-6d"/>
      <use x="97.412109" xlink:href="#DejaVuSans-66"/>
      <use x="132.617188" xlink:href="#DejaVuSans-70"/>
      <use x="196.09375" xlink:href="#DejaVuSans-72"/>
      <use x="237.207031" xlink:href="#DejaVuSans-69"/>
      <use x="264.990234" xlink:href="#DejaVuSans-63"/>
      <use x="319.970703" xlink:href="#DejaVuSans-65"/>
     </g>
    </g>
   </g>
   <g id="matplotlib.axis_2">
    <g id="ytick_1">
     <g id="line2d_15">
      <path clip-path="url(#pf1ed43a992)" d="M 43.992938 274.55 
L 490.392938 274.55 
" style="fill:none;stroke:#ffffff;"/>
     </g>
     <g id="line2d_16">
      <path d="M 43.992938 274.55 
" style="fill:none;stroke:#333333;stroke-width:1.5;"/>
      <defs>
       <path d="M 0 0 
L -2.75 0 
" id="mdf31af53b2" style="stroke:#333333;"/>
      </defs>
      <g>
       <use style="fill:#333333;stroke:#333333;" x="43.992938" xlink:href="#mdf31af53b2" y="274.55"/>
      </g>
     </g>
     <g id="text_6">
      <!-- 0 -->
      <g style="fill:#4d4d4d;" transform="translate(33.443938 276.97825)scale(0.088 -0.088)">
       <use xlink:href="#DejaVuSans-30"/>
      </g>
     </g>
    </g>
    <g id="ytick_2">
     <g id="line2d_17">
      <path clip-path="url(#pf1ed43a992)" d="M 43.992938 187.05 
L 490.392938 187.05 
" style="fill:none;stroke:#ffffff;"/>
     </g>
     <g id="line2d_18">
      <path d="M 43.992938 187.05 
" style="fill:none;stroke:#333333;stroke-width:1.5;"/>
      <g>
       <use style="fill:#333333;stroke:#333333;" x="43.992938" xlink:href="#mdf31af53b2" y="187.05"/>
      </g>
     </g>
     <g id="text_7">
      <!-- 200 -->
      <defs>
       <path d="M 19.1875 8.296875 
L 53.609375 8.296875 
L 53.609375 0 
L 7.328125 0 
L 7.328125 8.296875 
Q 12.9375 14.109375 22.625 23.890625 
Q 32.328125 33.6875 34.8125 36.53125 
Q 39.546875 41.84375 41.421875 45.53125 
Q 43.3125 49.21875 43.3125 52.78125 
Q 43.3125 58.59375 39.234375 62.25 
Q 35.15625 65.921875 28.609375 65.921875 
Q 23.96875 65.921875 18.8125 64.3125 
Q 13.671875 62.703125 7.8125 59.421875 
L 7.8125 69.390625 
Q 13.765625 71.78125 18.9375 73 
Q 24.125 74.21875 28.421875 74.21875 
Q 39.75 74.21875 46.484375 68.546875 
Q 53.21875 62.890625 53.21875 53.421875 
Q 53.21875 48.921875 51.53125 44.890625 
Q 49.859375 40.875 45.40625 35.40625 
Q 44.1875 33.984375 37.640625 27.21875 
Q 31.109375 20.453125 19.1875 8.296875 
z
" id="DejaVuSans-32"/>
      </defs>
      <g style="fill:#4d4d4d;" transform="translate(22.245938 189.47825)scale(0.088 -0.088)">
       <use xlink:href="#DejaVuSans-32"/>
       <use x="63.623047" xlink:href="#DejaVuSans-30"/>
       <use x="127.246094" xlink:href="#DejaVuSans-30"/>
      </g>
     </g>
    </g>
    <g id="ytick_3">
     <g id="line2d_19">
      <path clip-path="url(#pf1ed43a992)" d="M 43.992938 99.55 
L 490.392938 99.55 
" style="fill:none;stroke:#ffffff;"/>
     </g>
     <g id="line2d_20">
      <path d="M 43.992938 99.55 
" style="fill:none;stroke:#333333;stroke-width:1.5;"/>
      <g>
       <use style="fill:#333333;stroke:#333333;" x="43.992938" xlink:href="#mdf31af53b2" y="99.55"/>
      </g>
     </g>
     <g id="text_8">
      <!-- 400 -->
      <defs>
       <path d="M 37.796875 64.3125 
L 12.890625 25.390625 
L 37.796875 25.390625 
z
M 35.203125 72.90625 
L 47.609375 72.90625 
L 47.609375 25.390625 
L 58.015625 25.390625 
L 58.015625 17.1875 
L 47.609375 17.1875 
L 47.609375 0 
L 37.796875 0 
L 37.796875 17.1875 
L 4.890625 17.1875 
L 4.890625 26.703125 
z
" id="DejaVuSans-34"/>
      </defs>
      <g style="fill:#4d4d4d;" transform="translate(22.245938 101.97825)scale(0.088 -0.088)">
       <use xlink:href="#DejaVuSans-34"/>
       <use x="63.623047" xlink:href="#DejaVuSans-30"/>
       <use x="127.246094" xlink:href="#DejaVuSans-30"/>
      </g>
     </g>
    </g>
    <g id="ytick_4">
     <g id="line2d_21">
      <path clip-path="url(#pf1ed43a992)" d="M 43.992938 12.05 
L 490.392938 12.05 
" style="fill:none;stroke:#ffffff;"/>
     </g>
     <g id="line2d_22">
      <path d="M 43.992938 12.05 
" style="fill:none;stroke:#333333;stroke-width:1.5;"/>
      <g>
       <use style="fill:#333333;stroke:#333333;" x="43.992938" xlink:href="#mdf31af53b2" y="12.05"/>
      </g>
     </g>
     <g id="text_9">
      <!-- 600 -->
      <defs>
       <path d="M 33.015625 40.375 
Q 26.375 40.375 22.484375 35.828125 
Q 18.609375 31.296875 18.609375 23.390625 
Q 18.609375 15.53125 22.484375 10.953125 
Q 26.375 6.390625 33.015625 6.390625 
Q 39.65625 6.390625 43.53125 10.953125 
Q 47.40625 15.53125 47.40625 23.390625 
Q 47.40625 31.296875 43.53125 35.828125 
Q 39.65625 40.375 33.015625 40.375 
z
M 52.59375 71.296875 
L 52.59375 62.3125 
Q 48.875 64.0625 45.09375 64.984375 
Q 41.3125 65.921875 37.59375 65.921875 
Q 27.828125 65.921875 22.671875 59.328125 
Q 17.53125 52.734375 16.796875 39.40625 
Q 19.671875 43.65625 24.015625 45.921875 
Q 28.375 48.1875 33.59375 48.1875 
Q 44.578125 48.1875 50.953125 41.515625 
Q 57.328125 34.859375 57.328125 23.390625 
Q 57.328125 12.15625 50.6875 5.359375 
Q 44.046875 -1.421875 33.015625 -1.421875 
Q 20.359375 -1.421875 13.671875 8.265625 
Q 6.984375 17.96875 6.984375 36.375 
Q 6.984375 53.65625 15.1875 63.9375 
Q 23.390625 74.21875 37.203125 74.21875 
Q 40.921875 74.21875 44.703125 73.484375 
Q 48.484375 72.75 52.59375 71.296875 
z
" id="DejaVuSans-36"/>
      </defs>
      <g style="fill:#4d4d4d;" transform="translate(22.245938 14.47825)scale(0.088 -0.088)">
       <use xlink:href="#DejaVuSans-36"/>
       <use x="63.623047" xlink:href="#DejaVuSans-30"/>
       <use x="127.246094" xlink:href="#DejaVuSans-30"/>
      </g>
     </g>
    </g>
    <g id="ytick_5">
     <g id="line2d_23">
      <path clip-path="url(#pf1ed43a992)" d="M 43.992938 230.8 
L 490.392938 230.8 
" style="fill:none;stroke:#ffffff;stroke-width:0.5;"/>
     </g>
     <g id="line2d_24">
      <path d="M 43.992938 230.8 
" style="fill:none;stroke:#333333;stroke-width:1.5;"/>
     </g>
    </g>
    <g id="ytick_6">
     <g id="line2d_25">
      <path clip-path="url(#pf1ed43a992)" d="M 43.992938 143.3 
L 490.392938 143.3 
" style="fill:none;stroke:#ffffff;stroke-width:0.5;"/>
     </g>
     <g id="line2d_26">
      <path d="M 43.992938 143.3 
" style="fill:none;stroke:#333333;stroke-width:1.5;"/>
     </g>
    </g>
    <g id="ytick_7">
     <g id="line2d_27">
      <path clip-path="url(#pf1ed43a992)" d="M 43.992938 55.8 
L 490.392938 55.8 
" style="fill:none;stroke:#ffffff;stroke-width:0.5;"/>
     </g>
     <g id="line2d_28">
      <path d="M 43.992938 55.8 
" style="fill:none;stroke:#333333;stroke-width:1.5;"/>
     </g>
    </g>
    <g id="text_10">
     <!-- MF -->
     <defs>
      <path d="M 9.8125 72.90625 
L 24.515625 72.90625 
L 43.109375 23.296875 
L 61.8125 72.90625 
L 76.515625 72.90625 
L 76.515625 0 
L 66.890625 0 
L 66.890625 64.015625 
L 48.09375 14.015625 
L 38.1875 14.015625 
L 19.390625 64.015625 
L 19.390625 0 
L 9.8125 0 
z
" id="DejaVuSans-4d"/>
      <path d="M 9.8125 72.90625 
L 51.703125 72.90625 
L 51.703125 64.59375 
L 19.671875 64.59375 
L 19.671875 43.109375 
L 48.578125 43.109375 
L 48.578125 34.8125 
L 19.671875 34.8125 
L 19.671875 0 
L 9.8125 0 
z
" id="DejaVuSans-46"/>
     </defs>
     <g transform="translate(15.558281 154.658828)rotate(-90)scale(0.11 -0.11)">
      <use xlink:href="#DejaVuSans-4d"/>
      <use x="86.279297" xlink:href="#DejaVuSans-46"/>
     </g>
    </g>
   </g>
   <g id="PathCollection_1">
    <path clip-path="url(#pf1ed43a992)" d="M 170.912417 173.947454 
C 171.382477 173.947454 171.833349 173.760697 172.165731 173.428314 
C 172.498114 173.095931 172.684871 172.64506 172.684871 172.175 
C 172.684871 171.70494 172.498114 171.254069 172.165731 170.921686 
C 171.833349 170.589303 171.382477 170.402546 170.912417 170.402546 
C 170.442357 170.402546 169.991486 170.589303 169.659103 170.921686 
C 169.32672 171.254069 169.139963 171.70494 169.139963 172.175 
C 169.139963 172.64506 169.32672 173.095931 169.659103 173.428314 
C 169.991486 173.760697 170.442357 173.947454 170.912417 173.947454 
z
" style="fill:#db5f57;stroke:#db5f57;stroke-width:0.886227;"/>
    <path clip-path="url(#pf1ed43a992)" d="M 119.837861 261.447454 
C 120.307922 261.447454 120.758793 261.260697 121.091175 260.928314 
C 121.423558 260.595931 121.610315 260.14506 121.610315 259.675 
C 121.610315 259.20494 121.423558 258.754069 121.091175 258.421686 
C 120.758793 258.089303 120.307922 257.902546 119.837861 257.902546 
C 119.367801 257.902546 118.91693 258.089303 118.584547 258.421686 
C 118.252164 258.754069 118.065407 259.20494 118.065407 259.675 
C 118.065407 260.14506 118.252164 260.595931 118.584547 260.928314 
C 118.91693 261.260697 119.367801 261.447454 119.837861 261.447454 
z
" style="fill:#db5f57;stroke:#db5f57;stroke-width:0.886227;"/>
    <path clip-path="url(#pf1ed43a992)" d="M 326.446516 275.009954 
C 326.916576 275.009954 327.367447 274.823197 327.69983 274.490814 
C 328.032212 274.158431 328.218969 273.70756 328.218969 273.2375 
C 328.218969 272.76744 328.032212 272.316569 327.69983 271.984186 
C 327.367447 271.651803 326.916576 271.465046 326.446516 271.465046 
C 325.976455 271.465046 325.525584 271.651803 325.193201 271.984186 
C 324.860819 272.316569 324.674062 272.76744 324.674062 273.2375 
C 324.674062 273.70756 324.860819 274.158431 325.193201 274.490814 
C 325.525584 274.823197 325.976455 275.009954 326.446516 275.009954 
z
" style="fill:#db5f57;stroke:#db5f57;stroke-width:0.886227;"/>
    <path clip-path="url(#pf1ed43a992)" d="M 165.176503 203.697454 
C 165.646563 203.697454 166.097434 203.510697 166.429817 203.178314 
C 166.7622 202.845931 166.948957 202.39506 166.948957 201.925 
C 166.948957 201.45494 166.7622 201.004069 166.429817 200.671686 
C 166.097434 200.339303 165.646563 200.152546 165.176503 200.152546 
C 164.706443 200.152546 164.255572 200.339303 163.923189 200.671686 
C 163.590806 201.004069 163.404049 201.45494 163.404049 201.925 
C 163.404049 202.39506 163.590806 202.845931 163.923189 203.178314 
C 164.255572 203.510697 164.706443 203.697454 165.176503 203.697454 
z
" style="fill:#db5f57;stroke:#db5f57;stroke-width:0.886227;"/>
    <path clip-path="url(#pf1ed43a992)" d="M 247.782291 261.884954 
C 248.252352 261.884954 248.703223 261.698197 249.035606 261.365814 
C 249.367988 261.033431 249.554745 260.58256 249.554745 260.1125 
C 249.554745 259.64244 249.367988 259.191569 249.035606 258.859186 
C 248.703223 258.526803 248.252352 258.340046 247.782291 258.340046 
C 247.312231 258.340046 246.86136 258.526803 246.528977 258.859186 
C 246.196595 259.191569 246.009838 259.64244 246.009838 260.1125 
C 246.009838 260.58256 246.196595 261.033431 246.528977 261.365814 
C 246.86136 261.698197 247.312231 261.884954 247.782291 261.884954 
z
" style="fill:#db5f57;stroke:#db5f57;stroke-width:0.886227;"/>
    <path clip-path="url(#pf1ed43a992)" d="M 118.027087 230.384954 
C 118.497147 230.384954 118.948019 230.198197 119.280401 229.865814 
C 119.612784 229.533431 119.799541 229.08256 119.799541 228.6125 
C 119.799541 228.14244 119.612784 227.691569 119.280401 227.359186 
C 118.948019 227.026803 118.497147 226.840046 118.027087 226.840046 
C 117.557027 226.840046 117.106156 227.026803 116.773773 227.359186 
C 116.44139 227.691569 116.254633 228.14244 116.254633 228.6125 
C 116.254633 229.08256 116.44139 229.533431 116.773773 229.865814 
C 117.106156 230.198197 117.557027 230.384954 118.027087 230.384954 
z
" style="fill:#db5f57;stroke:#db5f57;stroke-width:0.886227;"/>
    <path clip-path="url(#pf1ed43a992)" d="M 169.390864 240.009954 
C 169.860924 240.009954 170.311795 239.823197 170.644178 239.490814 
C 170.976561 239.158431 171.163318 238.70756 171.163318 238.2375 
C 171.163318 237.76744 170.976561 237.316569 170.644178 236.984186 
C 170.311795 236.651803 169.860924 236.465046 169.390864 236.465046 
C 168.920804 236.465046 168.469933 236.651803 168.13755 236.984186 
C 167.805167 237.316569 167.61841 237.76744 167.61841 238.2375 
C 167.61841 238.70756 167.805167 239.158431 168.13755 239.490814 
C 168.469933 239.823197 168.920804 240.009954 169.390864 240.009954 
z
" style="fill:#db5f57;stroke:#db5f57;stroke-width:0.886227;"/>
    <path clip-path="url(#pf1ed43a992)" d="M 158.1151 250.947454 
C 158.58516 250.947454 159.036031 250.760697 159.368414 250.428314 
C 159.700797 250.095931 159.887554 249.64506 159.887554 249.175 
C 159.887554 248.70494 159.700797 248.254069 159.368414 247.921686 
C 159.036031 247.589303 158.58516 247.402546 158.1151 247.402546 
C 157.64504 247.402546 157.194169 247.589303 156.861786 247.921686 
C 156.529403 248.254069 156.342646 248.70494 156.342646 249.175 
C 156.342646 249.64506 156.529403 250.095931 156.861786 250.428314 
C 157.194169 250.760697 157.64504 250.947454 158.1151 250.947454 
z
" style="fill:#db5f57;stroke:#db5f57;stroke-width:0.886227;"/>
    <path clip-path="url(#pf1ed43a992)" d="M 119.478324 259.697454 
C 119.948384 259.697454 120.399255 259.510697 120.731638 259.178314 
C 121.064021 258.845931 121.250778 258.39506 121.250778 257.925 
C 121.250778 257.45494 121.064021 257.004069 120.731638 256.671686 
C 120.399255 256.339303 119.948384 256.152546 119.478324 256.152546 
C 119.008264 256.152546 118.557393 256.339303 118.22501 256.671686 
C 117.892627 257.004069 117.70587 257.45494 117.70587 257.925 
C 117.70587 258.39506 117.892627 258.845931 118.22501 259.178314 
C 118.557393 259.510697 119.008264 259.697454 119.478324 259.697454 
z
" style="fill:#db5f57;stroke:#db5f57;stroke-width:0.886227;"/>
    <path clip-path="url(#pf1ed43a992)" d="M 107.235582 264.509954 
C 107.705642 264.509954 108.156513 264.323197 108.488896 263.990814 
C 108.821279 263.658431 109.008036 263.20756 109.008036 262.7375 
C 109.008036 262.26744 108.821279 261.816569 108.488896 261.484186 
C 108.156513 261.151803 107.705642 260.965046 107.235582 260.965046 
C 106.765522 260.965046 106.314651 261.151803 105.982268 261.484186 
C 105.649885 261.816569 105.463128 262.26744 105.463128 262.7375 
C 105.463128 263.20756 105.649885 263.658431 105.982268 263.990814 
C 106.314651 264.323197 106.765522 264.509954 107.235582 264.509954 
z
" style="fill:#db5f57;stroke:#db5f57;stroke-width:0.886227;"/>
    <path clip-path="url(#pf1ed43a992)" d="M 142.337037 269.759954 
C 142.807097 269.759954 143.257968 269.573197 143.590351 269.240814 
C 143.922734 268.908431 144.109491 268.45756 144.109491 267.9875 
C 144.109491 267.51744 143.922734 267.066569 143.590351 266.734186 
C 143.257968 266.401803 142.807097 266.215046 142.337037 266.215046 
C 141.866977 266.215046 141.416106 266.401803 141.083723 266.734186 
C 140.75134 267.066569 140.564583 267.51744 140.564583 267.9875 
C 140.564583 268.45756 140.75134 268.908431 141.083723 269.240814 
C 141.416106 269.573197 141.866977 269.759954 142.337037 269.759954 
z
" style="fill:#db5f57;stroke:#db5f57;stroke-width:0.886227;"/>
    <path clip-path="url(#pf1ed43a992)" d="M 156.089784 276.322454 
C 156.559844 276.322454 157.010715 276.135697 157.343098 275.803314 
C 157.675481 275.470931 157.862238 275.02006 157.862238 274.55 
C 157.862238 274.07994 157.675481 273.629069 157.343098 273.296686 
C 157.010715 272.964303 156.559844 272.777546 156.089784 272.777546 
C 155.619724 272.777546 155.168853 272.964303 154.83647 273.296686 
C 154.504087 273.629069 154.31733 274.07994 154.31733 274.55 
C 154.31733 275.02006 154.504087 275.470931 154.83647 275.803314 
C 155.168853 276.135697 155.619724 276.322454 156.089784 276.322454 
z
" style="fill:#db5f57;stroke:#db5f57;stroke-width:0.886227;"/>
    <path clip-path="url(#pf1ed43a992)" d="M 134.44313 263.634954 
C 134.91319 263.634954 135.364061 263.448197 135.696444 263.115814 
C 136.028827 262.783431 136.215584 262.33256 136.215584 261.8625 
C 136.215584 261.39244 136.028827 260.941569 135.696444 260.609186 
C 135.364061 260.276803 134.91319 260.090046 134.44313 260.090046 
C 133.973069 260.090046 133.522198 260.276803 133.189816 260.609186 
C 132.857433 260.941569 132.670676 261.39244 132.670676 261.8625 
C 132.670676 262.33256 132.857433 262.783431 133.189816 263.115814 
C 133.522198 263.448197 133.973069 263.634954 134.44313 263.634954 
z
" style="fill:#db5f57;stroke:#db5f57;stroke-width:0.886227;"/>
    <path clip-path="url(#pf1ed43a992)" d="M 98.197366 252.259954 
C 98.667426 252.259954 99.118297 252.073197 99.45068 251.740814 
C 99.783063 251.408431 99.96982 250.95756 99.96982 250.4875 
C 99.96982 250.01744 99.783063 249.566569 99.45068 249.234186 
C 99.118297 248.901803 98.667426 248.715046 98.197366 248.715046 
C 97.727306 248.715046 97.276435 248.901803 96.944052 249.234186 
C 96.611669 249.566569 96.424912 250.01744 96.424912 250.4875 
C 96.424912 250.95756 96.611669 251.408431 96.944052 251.740814 
C 97.276435 252.073197 97.727306 252.259954 98.197366 252.259954 
z
" style="fill:#db5f57;stroke:#db5f57;stroke-width:0.886227;"/>
    <path clip-path="url(#pf1ed43a992)" d="M 183.808793 276.322454 
C 184.278853 276.322454 184.729725 276.135697 185.062107 275.803314 
C 185.39449 275.470931 185.581247 275.02006 185.581247 274.55 
C 185.581247 274.07994 185.39449 273.629069 185.062107 273.296686 
C 184.729725 272.964303 184.278853 272.777546 183.808793 272.777546 
C 183.338733 272.777546 182.887862 272.964303 182.555479 273.296686 
C 182.223096 273.629069 182.036339 274.07994 182.036339 274.55 
C 182.036339 275.02006 182.223096 275.470931 182.555479 275.803314 
C 182.887862 276.135697 183.338733 276.322454 183.808793 276.322454 
z
" style="fill:#db5f57;stroke:#db5f57;stroke-width:0.886227;"/>
    <path clip-path="url(#pf1ed43a992)" d="M 117.406045 276.322454 
C 117.876105 276.322454 118.326976 276.135697 118.659359 275.803314 
C 118.991742 275.470931 119.178499 275.02006 119.178499 274.55 
C 119.178499 274.07994 118.991742 273.629069 118.659359 273.296686 
C 118.326976 272.964303 117.876105 272.777546 117.406045 272.777546 
C 116.935985 272.777546 116.485114 272.964303 116.152731 273.296686 
C 115.820348 273.629069 115.633591 274.07994 115.633591 274.55 
C 115.633591 275.02006 115.820348 275.470931 116.152731 275.803314 
C 116.485114 276.135697 116.935985 276.322454 117.406045 276.322454 
z
" style="fill:#db5f57;stroke:#db5f57;stroke-width:0.886227;"/>
    <path clip-path="url(#pf1ed43a992)" d="M 208.984609 255.322454 
C 209.45467 255.322454 209.905541 255.135697 210.237923 254.803314 
C 210.570306 254.470931 210.757063 254.02006 210.757063 253.55 
C 210.757063 253.07994 210.570306 252.629069 210.237923 252.296686 
C 209.905541 251.964303 209.45467 251.777546 208.984609 251.777546 
C 208.514549 251.777546 208.063678 251.964303 207.731295 252.296686 
C 207.398912 252.629069 207.212155 253.07994 207.212155 253.55 
C 207.212155 254.02006 207.398912 254.470931 207.731295 254.803314 
C 208.063678 255.135697 208.514549 255.322454 208.984609 255.322454 
z
" style="fill:#db5f57;stroke:#db5f57;stroke-width:0.886227;"/>
    <path clip-path="url(#pf1ed43a992)" d="M 91.342293 260.572454 
C 91.812353 260.572454 92.263224 260.385697 92.595607 260.053314 
C 92.92799 259.720931 93.114747 259.27006 93.114747 258.8 
C 93.114747 258.32994 92.92799 257.879069 92.595607 257.546686 
C 92.263224 257.214303 91.812353 257.027546 91.342293 257.027546 
C 90.872233 257.027546 90.421361 257.214303 90.088979 257.546686 
C 89.756596 257.879069 89.569839 258.32994 89.569839 258.8 
C 89.569839 259.27006 89.756596 259.720931 90.088979 260.053314 
C 90.421361 260.385697 90.872233 260.572454 91.342293 260.572454 
z
" style="fill:#db5f57;stroke:#db5f57;stroke-width:0.886227;"/>
    <path clip-path="url(#pf1ed43a992)" d="M 123.723994 229.509954 
C 124.194054 229.509954 124.644925 229.323197 124.977308 228.990814 
C 125.309691 228.658431 125.496448 228.20756 125.496448 227.7375 
C 125.496448 227.26744 125.309691 226.816569 124.977308 226.484186 
C 124.644925 226.151803 124.194054 225.965046 123.723994 225.965046 
C 123.253934 225.965046 122.803063 226.151803 122.47068 226.484186 
C 122.138297 226.816569 121.95154 227.26744 121.95154 227.7375 
C 121.95154 228.20756 122.138297 228.658431 122.47068 228.990814 
C 122.803063 229.323197 123.253934 229.509954 123.723994 229.509954 
z
" style="fill:#db5f57;stroke:#db5f57;stroke-width:0.886227;"/>
    <path clip-path="url(#pf1ed43a992)" d="M 123.635457 214.634954 
C 124.105517 214.634954 124.556388 214.448197 124.888771 214.115814 
C 125.221154 213.783431 125.407911 213.33256 125.407911 212.8625 
C 125.407911 212.39244 125.221154 211.941569 124.888771 211.609186 
C 124.556388 211.276803 124.105517 211.090046 123.635457 211.090046 
C 123.165397 211.090046 122.714526 211.276803 122.382143 211.609186 
C 122.04976 211.941569 121.863003 212.39244 121.863003 212.8625 
C 121.863003 213.33256 122.04976 213.783431 122.382143 214.115814 
C 122.714526 214.448197 123.165397 214.634954 123.635457 214.634954 
z
" style="fill:#db5f57;stroke:#db5f57;stroke-width:0.886227;"/>
    <path clip-path="url(#pf1ed43a992)" d="M 232.261371 268.884954 
C 232.731431 268.884954 233.182302 268.698197 233.514685 268.365814 
C 233.847068 268.033431 234.033825 267.58256 234.033825 267.1125 
C 234.033825 266.64244 233.847068 266.191569 233.514685 265.859186 
C 233.182302 265.526803 232.731431 265.340046 232.261371 265.340046 
C 231.791311 265.340046 231.34044 265.526803 231.008057 265.859186 
C 230.675674 266.191569 230.488917 266.64244 230.488917 267.1125 
C 230.488917 267.58256 230.675674 268.033431 231.008057 268.365814 
C 231.34044 268.698197 231.791311 268.884954 232.261371 268.884954 
z
" style="fill:#db5f57;stroke:#db5f57;stroke-width:0.886227;"/>
    <path clip-path="url(#pf1ed43a992)" d="M 121.744615 263.197454 
C 122.214675 263.197454 122.665546 263.010697 122.997929 262.678314 
C 123.330312 262.345931 123.517068 261.89506 123.517068 261.425 
C 123.517068 260.95494 123.330312 260.504069 122.997929 260.171686 
C 122.665546 259.839303 122.214675 259.652546 121.744615 259.652546 
C 121.274554 259.652546 120.823683 259.839303 120.4913 260.171686 
C 120.158918 260.504069 119.972161 260.95494 119.972161 261.425 
C 119.972161 261.89506 120.158918 262.345931 120.4913 262.678314 
C 120.823683 263.010697 121.274554 263.197454 121.744615 263.197454 
z
" style="fill:#db5f57;stroke:#db5f57;stroke-width:0.886227;"/>
    <path clip-path="url(#pf1ed43a992)" d="M 113.743693 229.072454 
C 114.213753 229.072454 114.664624 228.885697 114.997007 228.553314 
C 115.32939 228.220931 115.516147 227.77006 115.516147 227.3 
C 115.516147 226.82994 115.32939 226.379069 114.997007 226.046686 
C 114.664624 225.714303 114.213753 225.527546 113.743693 225.527546 
C 113.273633 225.527546 112.822762 225.714303 112.490379 226.046686 
C 112.157996 226.379069 111.971239 226.82994 111.971239 227.3 
C 111.971239 227.77006 112.157996 228.220931 112.490379 228.553314 
C 112.822762 228.885697 113.273633 229.072454 113.743693 229.072454 
z
" style="fill:#db5f57;stroke:#db5f57;stroke-width:0.886227;"/>
    <path clip-path="url(#pf1ed43a992)" d="M 114.754811 264.509954 
C 115.224871 264.509954 115.675742 264.323197 116.008125 263.990814 
C 116.340508 263.658431 116.527265 263.20756 116.527265 262.7375 
C 116.527265 262.26744 116.340508 261.816569 116.008125 261.484186 
C 115.675742 261.151803 115.224871 260.965046 114.754811 260.965046 
C 114.284751 260.965046 113.83388 261.151803 113.501497 261.484186 
C 113.169114 261.816569 112.982357 262.26744 112.982357 262.7375 
C 112.982357 263.20756 113.169114 263.658431 113.501497 263.990814 
C 113.83388 264.323197 114.284751 264.509954 114.754811 264.509954 
z
" style="fill:#db5f57;stroke:#db5f57;stroke-width:0.886227;"/>
    <path clip-path="url(#pf1ed43a992)" d="M 144.490411 264.072454 
C 144.960471 264.072454 145.411342 263.885697 145.743725 263.553314 
C 146.076108 263.220931 146.262865 262.77006 146.262865 262.3 
C 146.262865 261.82994 146.076108 261.379069 145.743725 261.046686 
C 145.411342 260.714303 144.960471 260.527546 144.490411 260.527546 
C 144.020351 260.527546 143.56948 260.714303 143.237097 261.046686 
C 142.904714 261.379069 142.717957 261.82994 142.717957 262.3 
C 142.717957 262.77006 142.904714 263.220931 143.237097 263.553314 
C 143.56948 263.885697 144.020351 264.072454 144.490411 264.072454 
z
" style="fill:#db5f57;stroke:#db5f57;stroke-width:0.886227;"/>
    <path clip-path="url(#pf1ed43a992)" d="M 116.168324 252.259954 
C 116.638384 252.259954 117.089255 252.073197 117.421638 251.740814 
C 117.75402 251.408431 117.940777 250.95756 117.940777 250.4875 
C 117.940777 250.01744 117.75402 249.566569 117.421638 249.234186 
C 117.089255 248.901803 116.638384 248.715046 116.168324 248.715046 
C 115.698263 248.715046 115.247392 248.901803 114.915009 249.234186 
C 114.582627 249.566569 114.39587 250.01744 114.39587 250.4875 
C 114.39587 250.95756 114.582627 251.408431 114.915009 251.740814 
C 115.247392 252.073197 115.698263 252.259954 116.168324 252.259954 
z
" style="fill:#db5f57;stroke:#db5f57;stroke-width:0.886227;"/>
    <path clip-path="url(#pf1ed43a992)" d="M 124.059408 261.447454 
C 124.529468 261.447454 124.980339 261.260697 125.312722 260.928314 
C 125.645105 260.595931 125.831862 260.14506 125.831862 259.675 
C 125.831862 259.20494 125.645105 258.754069 125.312722 258.421686 
C 124.980339 258.089303 124.529468 257.902546 124.059408 257.902546 
C 123.589348 257.902546 123.138477 258.089303 122.806094 258.421686 
C 122.473711 258.754069 122.286954 259.20494 122.286954 259.675 
C 122.286954 260.14506 122.473711 260.595931 122.806094 260.928314 
C 123.138477 261.260697 123.589348 261.447454 124.059408 261.447454 
z
" style="fill:#db5f57;stroke:#db5f57;stroke-width:0.886227;"/>
    <path clip-path="url(#pf1ed43a992)" d="M 120.176868 273.259954 
C 120.646928 273.259954 121.0978 273.073197 121.430182 272.740814 
C 121.762565 272.408431 121.949322 271.95756 121.949322 271.4875 
C 121.949322 271.01744 121.762565 270.566569 121.430182 270.234186 
C 121.0978 269.901803 120.646928 269.715046 120.176868 269.715046 
C 119.706808 269.715046 119.255937 269.901803 118.923554 270.234186 
C 118.591171 270.566569 118.404414 271.01744 118.404414 271.4875 
C 118.404414 271.95756 118.591171 272.408431 118.923554 272.740814 
C 119.255937 273.073197 119.706808 273.259954 120.176868 273.259954 
z
" style="fill:#db5f57;stroke:#db5f57;stroke-width:0.886227;"/>
    <path clip-path="url(#pf1ed43a992)" d="M 128.312777 276.322454 
C 128.782837 276.322454 129.233708 276.135697 129.566091 275.803314 
C 129.898474 275.470931 130.085231 275.02006 130.085231 274.55 
C 130.085231 274.07994 129.898474 273.629069 129.566091 273.296686 
C 129.233708 272.964303 128.782837 272.777546 128.312777 272.777546 
C 127.842716 272.777546 127.391845 272.964303 127.059463 273.296686 
C 126.72708 273.629069 126.540323 274.07994 126.540323 274.55 
C 126.540323 275.02006 126.72708 275.470931 127.059463 275.803314 
C 127.391845 276.135697 127.842716 276.322454 128.312777 276.322454 
z
" style="fill:#db5f57;stroke:#db5f57;stroke-width:0.886227;"/>
    <path clip-path="url(#pf1ed43a992)" d="M 175.491961 276.322454 
C 175.962022 276.322454 176.412893 276.135697 176.745275 275.803314 
C 177.077658 275.470931 177.264415 275.02006 177.264415 274.55 
C 177.264415 274.07994 177.077658 273.629069 176.745275 273.296686 
C 176.412893 272.964303 175.962022 272.777546 175.491961 272.777546 
C 175.021901 272.777546 174.57103 272.964303 174.238647 273.296686 
C 173.906264 273.629069 173.719507 274.07994 173.719507 274.55 
C 173.719507 275.02006 173.906264 275.470931 174.238647 275.803314 
C 174.57103 276.135697 175.021901 276.322454 175.491961 276.322454 
z
" style="fill:#db5f57;stroke:#db5f57;stroke-width:0.886227;"/>
    <path clip-path="url(#pf1ed43a992)" d="M 104.711379 250.947454 
C 105.18144 250.947454 105.632311 250.760697 105.964694 250.428314 
C 106.297076 250.095931 106.483833 249.64506 106.483833 249.175 
C 106.483833 248.70494 106.297076 248.254069 105.964694 247.921686 
C 105.632311 247.589303 105.18144 247.402546 104.711379 247.402546 
C 104.241319 247.402546 103.790448 247.589303 103.458065 247.921686 
C 103.125682 248.254069 102.938926 248.70494 102.938926 249.175 
C 102.938926 249.64506 103.125682 250.095931 103.458065 250.428314 
C 103.790448 250.760697 104.241319 250.947454 104.711379 250.947454 
z
" style="fill:#db5f57;stroke:#db5f57;stroke-width:0.886227;"/>
    <path clip-path="url(#pf1ed43a992)" d="M 119.484483 261.884954 
C 119.954543 261.884954 120.405415 261.698197 120.737797 261.365814 
C 121.07018 261.033431 121.256937 260.58256 121.256937 260.1125 
C 121.256937 259.64244 121.07018 259.191569 120.737797 258.859186 
C 120.405415 258.526803 119.954543 258.340046 119.484483 258.340046 
C 119.014423 258.340046 118.563552 258.526803 118.231169 258.859186 
C 117.898786 259.191569 117.712029 259.64244 117.712029 260.1125 
C 117.712029 260.58256 117.898786 261.033431 118.231169 261.365814 
C 118.563552 261.698197 119.014423 261.884954 119.484483 261.884954 
z
" style="fill:#db5f57;stroke:#db5f57;stroke-width:0.886227;"/>
    <path clip-path="url(#pf1ed43a992)" d="M 120.361128 234.759954 
C 120.831188 234.759954 121.282059 234.573197 121.614442 234.240814 
C 121.946825 233.908431 122.133582 233.45756 122.133582 232.9875 
C 122.133582 232.51744 121.946825 232.066569 121.614442 231.734186 
C 121.282059 231.401803 120.831188 231.215046 120.361128 231.215046 
C 119.891068 231.215046 119.440196 231.401803 119.107814 231.734186 
C 118.775431 232.066569 118.588674 232.51744 118.588674 232.9875 
C 118.588674 233.45756 118.775431 233.908431 119.107814 234.240814 
C 119.440196 234.573197 119.891068 234.759954 120.361128 234.759954 
z
" style="fill:#db5f57;stroke:#db5f57;stroke-width:0.886227;"/>
    <path clip-path="url(#pf1ed43a992)" d="M 101.950308 223.822454 
C 102.420369 223.822454 102.87124 223.635697 103.203622 223.303314 
C 103.536005 222.970931 103.722762 222.52006 103.722762 222.05 
C 103.722762 221.57994 103.536005 221.129069 103.203622 220.796686 
C 102.87124 220.464303 102.420369 220.277546 101.950308 220.277546 
C 101.480248 220.277546 101.029377 220.464303 100.696994 220.796686 
C 100.364611 221.129069 100.177854 221.57994 100.177854 222.05 
C 100.177854 222.52006 100.364611 222.970931 100.696994 223.303314 
C 101.029377 223.635697 101.480248 223.822454 101.950308 223.822454 
z
" style="fill:#db5f57;stroke:#db5f57;stroke-width:0.886227;"/>
    <path clip-path="url(#pf1ed43a992)" d="M 75.37997 266.697454 
C 75.850031 266.697454 76.300902 266.510697 76.633284 266.178314 
C 76.965667 265.845931 77.152424 265.39506 77.152424 264.925 
C 77.152424 264.45494 76.965667 264.004069 76.633284 263.671686 
C 76.300902 263.339303 75.850031 263.152546 75.37997 263.152546 
C 74.90991 263.152546 74.459039 263.339303 74.126656 263.671686 
C 73.794273 264.004069 73.607517 264.45494 73.607517 264.925 
C 73.607517 265.39506 73.794273 265.845931 74.126656 266.178314 
C 74.459039 266.510697 74.90991 266.697454 75.37997 266.697454 
z
" style="fill:#db5f57;stroke:#db5f57;stroke-width:0.886227;"/>
   </g>
   <g id="PathCollection_2">
    <path clip-path="url(#pf1ed43a992)" d="M 184.594591 24.322454 
C 185.064651 24.322454 185.515523 24.135697 185.847905 23.803314 
C 186.180288 23.470931 186.367045 23.02006 186.367045 22.55 
C 186.367045 22.07994 186.180288 21.629069 185.847905 21.296686 
C 185.515523 20.964303 185.064651 20.777546 184.594591 20.777546 
C 184.124531 20.777546 183.67366 20.964303 183.341277 21.296686 
C 183.008894 21.629069 182.822137 22.07994 182.822137 22.55 
C 182.822137 23.02006 183.008894 23.470931 183.341277 23.803314 
C 183.67366 24.135697 184.124531 24.322454 184.594591 24.322454 
z
" style="fill:#57d3db;stroke:#57d3db;stroke-width:0.886227;"/>
    <path clip-path="url(#pf1ed43a992)" d="M 202.321751 224.259954 
C 202.791811 224.259954 203.242682 224.073197 203.575065 223.740814 
C 203.907448 223.408431 204.094205 222.95756 204.094205 222.4875 
C 204.094205 222.01744 203.907448 221.566569 203.575065 221.234186 
C 203.242682 220.901803 202.791811 220.715046 202.321751 220.715046 
C 201.851691 220.715046 201.40082 220.901803 201.068437 221.234186 
C 200.736054 221.566569 200.549297 222.01744 200.549297 222.4875 
C 200.549297 222.95756 200.736054 223.408431 201.068437 223.740814 
C 201.40082 224.073197 201.851691 224.259954 202.321751 224.259954 
z
" style="fill:#57d3db;stroke:#57d3db;stroke-width:0.886227;"/>
    <path clip-path="url(#pf1ed43a992)" d="M 175.286915 233.447454 
C 175.756975 233.447454 176.207846 233.260697 176.540229 232.928314 
C 176.872612 232.595931 177.059369 232.14506 177.059369 231.675 
C 177.059369 231.20494 176.872612 230.754069 176.540229 230.421686 
C 176.207846 230.089303 175.756975 229.902546 175.286915 229.902546 
C 174.816855 229.902546 174.365983 230.089303 174.033601 230.421686 
C 173.701218 230.754069 173.514461 231.20494 173.514461 231.675 
C 173.514461 232.14506 173.701218 232.595931 174.033601 232.928314 
C 174.365983 233.260697 174.816855 233.447454 175.286915 233.447454 
z
" style="fill:#57d3db;stroke:#57d3db;stroke-width:0.886227;"/>
    <path clip-path="url(#pf1ed43a992)" d="M 174.004283 262.759954 
C 174.474343 262.759954 174.925214 262.573197 175.257597 262.240814 
C 175.58998 261.908431 175.776737 261.45756 175.776737 260.9875 
C 175.776737 260.51744 175.58998 260.066569 175.257597 259.734186 
C 174.925214 259.401803 174.474343 259.215046 174.004283 259.215046 
C 173.534223 259.215046 173.083352 259.401803 172.750969 259.734186 
C 172.418586 260.066569 172.231829 260.51744 172.231829 260.9875 
C 172.231829 261.45756 172.418586 261.908431 172.750969 262.240814 
C 173.083352 262.573197 173.534223 262.759954 174.004283 262.759954 
z
" style="fill:#57d3db;stroke:#57d3db;stroke-width:0.886227;"/>
    <path clip-path="url(#pf1ed43a992)" d="M 78.655069 260.572454 
C 79.12513 260.572454 79.576001 260.385697 79.908384 260.053314 
C 80.240766 259.720931 80.427523 259.27006 80.427523 258.8 
C 80.427523 258.32994 80.240766 257.879069 79.908384 257.546686 
C 79.576001 257.214303 79.12513 257.027546 78.655069 257.027546 
C 78.185009 257.027546 77.734138 257.214303 77.401755 257.546686 
C 77.069372 257.879069 76.882616 258.32994 76.882616 258.8 
C 76.882616 259.27006 77.069372 259.720931 77.401755 260.053314 
C 77.734138 260.385697 78.185009 260.572454 78.655069 260.572454 
z
" style="fill:#57d3db;stroke:#57d3db;stroke-width:0.886227;"/>
    <path clip-path="url(#pf1ed43a992)" d="M 111.942671 257.947454 
C 112.412731 257.947454 112.863602 257.760697 113.195985 257.428314 
C 113.528368 257.095931 113.715125 256.64506 113.715125 256.175 
C 113.715125 255.70494 113.528368 255.254069 113.195985 254.921686 
C 112.863602 254.589303 112.412731 254.402546 111.942671 254.402546 
C 111.472611 254.402546 111.021739 254.589303 110.689357 254.921686 
C 110.356974 255.254069 110.170217 255.70494 110.170217 256.175 
C 110.170217 256.64506 110.356974 257.095931 110.689357 257.428314 
C 111.021739 257.760697 111.472611 257.947454 111.942671 257.947454 
z
" style="fill:#57d3db;stroke:#57d3db;stroke-width:0.886227;"/>
    <path clip-path="url(#pf1ed43a992)" d="M 470.102028 62.384954 
C 470.572089 62.384954 471.02296 62.198197 471.355343 61.865814 
C 471.687725 61.533431 471.874482 61.08256 471.874482 60.6125 
C 471.874482 60.14244 471.687725 59.691569 471.355343 59.359186 
C 471.02296 59.026803 470.572089 58.840046 470.102028 58.840046 
C 469.631968 58.840046 469.181097 59.026803 468.848714 59.359186 
C 468.516331 59.691569 468.329575 60.14244 468.329575 60.6125 
C 468.329575 61.08256 468.516331 61.533431 468.848714 61.865814 
C 469.181097 62.198197 469.631968 62.384954 470.102028 62.384954 
z
" style="fill:#57d3db;stroke:#57d3db;stroke-width:0.886227;"/>
    <path clip-path="url(#pf1ed43a992)" d="M 145.192804 93.884954 
C 145.662865 93.884954 146.113736 93.698197 146.446118 93.365814 
C 146.778501 93.033431 146.965258 92.58256 146.965258 92.1125 
C 146.965258 91.64244 146.778501 91.191569 146.446118 90.859186 
C 146.113736 90.526803 145.662865 90.340046 145.192804 90.340046 
C 144.722744 90.340046 144.271873 90.526803 143.93949 90.859186 
C 143.607107 91.191569 143.420351 91.64244 143.420351 92.1125 
C 143.420351 92.58256 143.607107 93.033431 143.93949 93.365814 
C 144.271873 93.698197 144.722744 93.884954 145.192804 93.884954 
z
" style="fill:#57d3db;stroke:#57d3db;stroke-width:0.886227;"/>
    <path clip-path="url(#pf1ed43a992)" d="M 130.74485 231.259954 
C 131.21491 231.259954 131.665781 231.073197 131.998164 230.740814 
C 132.330546 230.408431 132.517303 229.95756 132.517303 229.4875 
C 132.517303 229.01744 132.330546 228.566569 131.998164 228.234186 
C 131.665781 227.901803 131.21491 227.715046 130.74485 227.715046 
C 130.274789 227.715046 129.823918 227.901803 129.491535 228.234186 
C 129.159153 228.566569 128.972396 229.01744 128.972396 229.4875 
C 128.972396 229.95756 129.159153 230.408431 129.491535 230.740814 
C 129.823918 231.073197 130.274789 231.259954 130.74485 231.259954 
z
" style="fill:#57d3db;stroke:#57d3db;stroke-width:0.886227;"/>
    <path clip-path="url(#pf1ed43a992)" d="M 64.283847 276.322454 
C 64.753907 276.322454 65.204778 276.135697 65.537161 275.803314 
C 65.869544 275.470931 66.0563 275.02006 66.0563 274.55 
C 66.0563 274.07994 65.869544 273.629069 65.537161 273.296686 
C 65.204778 272.964303 64.753907 272.777546 64.283847 272.777546 
C 63.813786 272.777546 63.362915 272.964303 63.030532 273.296686 
C 62.69815 273.629069 62.511393 274.07994 62.511393 274.55 
C 62.511393 275.02006 62.69815 275.470931 63.030532 275.803314 
C 63.362915 276.135697 63.813786 276.322454 64.283847 276.322454 
z
" style="fill:#57d3db;stroke:#57d3db;stroke-width:0.886227;"/>
    <path clip-path="url(#pf1ed43a992)" d="M 156.786018 276.322454 
C 157.256079 276.322454 157.70695 276.135697 158.039333 275.803314 
C 158.371715 275.470931 158.558472 275.02006 158.558472 274.55 
C 158.558472 274.07994 158.371715 273.629069 158.039333 273.296686 
C 157.70695 272.964303 157.256079 272.777546 156.786018 272.777546 
C 156.315958 272.777546 155.865087 272.964303 155.532704 273.296686 
C 155.200322 273.629069 155.013565 274.07994 155.013565 274.55 
C 155.013565 275.02006 155.200322 275.470931 155.532704 275.803314 
C 155.865087 276.135697 156.315958 276.322454 156.786018 276.322454 
z
" style="fill:#57d3db;stroke:#57d3db;stroke-width:0.886227;"/>
    <path clip-path="url(#pf1ed43a992)" d="M 161.060431 259.697454 
C 161.530491 259.697454 161.981362 259.510697 162.313745 259.178314 
C 162.646128 258.845931 162.832885 258.39506 162.832885 257.925 
C 162.832885 257.45494 162.646128 257.004069 162.313745 256.671686 
C 161.981362 256.339303 161.530491 256.152546 161.060431 256.152546 
C 160.59037 256.152546 160.139499 256.339303 159.807117 256.671686 
C 159.474734 257.004069 159.287977 257.45494 159.287977 257.925 
C 159.287977 258.39506 159.474734 258.845931 159.807117 259.178314 
C 160.139499 259.510697 160.59037 259.697454 161.060431 259.697454 
z
" style="fill:#57d3db;stroke:#57d3db;stroke-width:0.886227;"/>
    <path clip-path="url(#pf1ed43a992)" d="M 101.293851 274.134954 
C 101.763912 274.134954 102.214783 273.948197 102.547165 273.615814 
C 102.879548 273.283431 103.066305 272.83256 103.066305 272.3625 
C 103.066305 271.89244 102.879548 271.441569 102.547165 271.109186 
C 102.214783 270.776803 101.763912 270.590046 101.293851 270.590046 
C 100.823791 270.590046 100.37292 270.776803 100.040537 271.109186 
C 99.708154 271.441569 99.521397 271.89244 99.521397 272.3625 
C 99.521397 272.83256 99.708154 273.283431 100.040537 273.615814 
C 100.37292 273.948197 100.823791 274.134954 101.293851 274.134954 
z
" style="fill:#57d3db;stroke:#57d3db;stroke-width:0.886227;"/>
    <path clip-path="url(#pf1ed43a992)" d="M 75.643015 194.072454 
C 76.113075 194.072454 76.563946 193.885697 76.896329 193.553314 
C 77.228712 193.220931 77.415469 192.77006 77.415469 192.3 
C 77.415469 191.82994 77.228712 191.379069 76.896329 191.046686 
C 76.563946 190.714303 76.113075 190.527546 75.643015 190.527546 
C 75.172955 190.527546 74.722084 190.714303 74.389701 191.046686 
C 74.057318 191.379069 73.870561 191.82994 73.870561 192.3 
C 73.870561 192.77006 74.057318 193.220931 74.389701 193.553314 
C 74.722084 193.885697 75.172955 194.072454 75.643015 194.072454 
z
" style="fill:#57d3db;stroke:#57d3db;stroke-width:0.886227;"/>
    <path clip-path="url(#pf1ed43a992)" d="M 137.679734 276.322454 
C 138.149795 276.322454 138.600666 276.135697 138.933049 275.803314 
C 139.265431 275.470931 139.452188 275.02006 139.452188 274.55 
C 139.452188 274.07994 139.265431 273.629069 138.933049 273.296686 
C 138.600666 272.964303 138.149795 272.777546 137.679734 272.777546 
C 137.209674 272.777546 136.758803 272.964303 136.42642 273.296686 
C 136.094037 273.629069 135.907281 274.07994 135.907281 274.55 
C 135.907281 275.02006 136.094037 275.470931 136.42642 275.803314 
C 136.758803 276.135697 137.209674 276.322454 137.679734 276.322454 
z
" style="fill:#57d3db;stroke:#57d3db;stroke-width:0.886227;"/>
    <path clip-path="url(#pf1ed43a992)" d="M 68.713519 267.572454 
C 69.18358 267.572454 69.634451 267.385697 69.966834 267.053314 
C 70.299216 266.720931 70.485973 266.27006 70.485973 265.8 
C 70.485973 265.32994 70.299216 264.879069 69.966834 264.546686 
C 69.634451 264.214303 69.18358 264.027546 68.713519 264.027546 
C 68.243459 264.027546 67.792588 264.214303 67.460205 264.546686 
C 67.127822 264.879069 66.941066 265.32994 66.941066 265.8 
C 66.941066 266.27006 67.127822 266.720931 67.460205 267.053314 
C 67.792588 267.385697 68.243459 267.572454 68.713519 267.572454 
z
" style="fill:#57d3db;stroke:#57d3db;stroke-width:0.886227;"/>
    <path clip-path="url(#pf1ed43a992)" d="M 118.945819 270.634954 
C 119.415879 270.634954 119.86675 270.448197 120.199133 270.115814 
C 120.531516 269.783431 120.718273 269.33256 120.718273 268.8625 
C 120.718273 268.39244 120.531516 267.941569 120.199133 267.609186 
C 119.86675 267.276803 119.415879 267.090046 118.945819 267.090046 
C 118.475759 267.090046 118.024888 267.276803 117.692505 267.609186 
C 117.360122 267.941569 117.173365 268.39244 117.173365 268.8625 
C 117.173365 269.33256 117.360122 269.783431 117.692505 270.115814 
C 118.024888 270.448197 118.475759 270.634954 118.945819 270.634954 
z
" style="fill:#57d3db;stroke:#57d3db;stroke-width:0.886227;"/>
    <path clip-path="url(#pf1ed43a992)" d="M 93.080954 275.447454 
C 93.551014 275.447454 94.001885 275.260697 94.334268 274.928314 
C 94.666651 274.595931 94.853408 274.14506 94.853408 273.675 
C 94.853408 273.20494 94.666651 272.754069 94.334268 272.421686 
C 94.001885 272.089303 93.551014 271.902546 93.080954 271.902546 
C 92.610894 271.902546 92.160023 272.089303 91.82764 272.421686 
C 91.495257 272.754069 91.3085 273.20494 91.3085 273.675 
C 91.3085 274.14506 91.495257 274.595931 91.82764 274.928314 
C 92.160023 275.260697 92.610894 275.447454 93.080954 275.447454 
z
" style="fill:#57d3db;stroke:#57d3db;stroke-width:0.886227;"/>
    <path clip-path="url(#pf1ed43a992)" d="M 130.62526 276.322454 
C 131.095321 276.322454 131.546192 276.135697 131.878575 275.803314 
C 132.210957 275.470931 132.397714 275.02006 132.397714 274.55 
C 132.397714 274.07994 132.210957 273.629069 131.878575 273.296686 
C 131.546192 272.964303 131.095321 272.777546 130.62526 272.777546 
C 130.1552 272.777546 129.704329 272.964303 129.371946 273.296686 
C 129.039563 273.629069 128.852807 274.07994 128.852807 274.55 
C 128.852807 275.02006 129.039563 275.470931 129.371946 275.803314 
C 129.704329 276.135697 130.1552 276.322454 130.62526 276.322454 
z
" style="fill:#57d3db;stroke:#57d3db;stroke-width:0.886227;"/>
    <path clip-path="url(#pf1ed43a992)" d="M 194.186869 167.822454 
C 194.656929 167.822454 195.1078 167.635697 195.440183 167.303314 
C 195.772566 166.970931 195.959323 166.52006 195.959323 166.05 
C 195.959323 165.57994 195.772566 165.129069 195.440183 164.796686 
C 195.1078 164.464303 194.656929 164.277546 194.186869 164.277546 
C 193.716809 164.277546 193.265938 164.464303 192.933555 164.796686 
C 192.601172 165.129069 192.414415 165.57994 192.414415 166.05 
C 192.414415 166.52006 192.601172 166.970931 192.933555 167.303314 
C 193.265938 167.635697 193.716809 167.822454 194.186869 167.822454 
z
" style="fill:#57d3db;stroke:#57d3db;stroke-width:0.886227;"/>
    <path clip-path="url(#pf1ed43a992)" d="M 96.697113 276.322454 
C 97.167173 276.322454 97.618044 276.135697 97.950427 275.803314 
C 98.28281 275.470931 98.469567 275.02006 98.469567 274.55 
C 98.469567 274.07994 98.28281 273.629069 97.950427 273.296686 
C 97.618044 272.964303 97.167173 272.777546 96.697113 272.777546 
C 96.227053 272.777546 95.776182 272.964303 95.443799 273.296686 
C 95.111416 273.629069 94.924659 274.07994 94.924659 274.55 
C 94.924659 275.02006 95.111416 275.470931 95.443799 275.803314 
C 95.776182 276.135697 96.227053 276.322454 96.697113 276.322454 
z
" style="fill:#57d3db;stroke:#57d3db;stroke-width:0.886227;"/>
    <path clip-path="url(#pf1ed43a992)" d="M 90.460002 276.322454 
C 90.930063 276.322454 91.380934 276.135697 91.713317 275.803314 
C 92.045699 275.470931 92.232456 275.02006 92.232456 274.55 
C 92.232456 274.07994 92.045699 273.629069 91.713317 273.296686 
C 91.380934 272.964303 90.930063 272.777546 90.460002 272.777546 
C 89.989942 272.777546 89.539071 272.964303 89.206688 273.296686 
C 88.874305 273.629069 88.687549 274.07994 88.687549 274.55 
C 88.687549 275.02006 88.874305 275.470931 89.206688 275.803314 
C 89.539071 276.135697 89.989942 276.322454 90.460002 276.322454 
z
" style="fill:#57d3db;stroke:#57d3db;stroke-width:0.886227;"/>
    <path clip-path="url(#pf1ed43a992)" d="M 107.176301 275.447454 
C 107.646361 275.447454 108.097232 275.260697 108.429615 274.928314 
C 108.761998 274.595931 108.948755 274.14506 108.948755 273.675 
C 108.948755 273.20494 108.761998 272.754069 108.429615 272.421686 
C 108.097232 272.089303 107.646361 271.902546 107.176301 271.902546 
C 106.706241 271.902546 106.255369 272.089303 105.922987 272.421686 
C 105.590604 272.754069 105.403847 273.20494 105.403847 273.675 
C 105.403847 274.14506 105.590604 274.595931 105.922987 274.928314 
C 106.255369 275.260697 106.706241 275.447454 107.176301 275.447454 
z
" style="fill:#57d3db;stroke:#57d3db;stroke-width:0.886227;"/>
    <path clip-path="url(#pf1ed43a992)" d="M 78.566019 261.447454 
C 79.036079 261.447454 79.48695 261.260697 79.819333 260.928314 
C 80.151716 260.595931 80.338473 260.14506 80.338473 259.675 
C 80.338473 259.20494 80.151716 258.754069 79.819333 258.421686 
C 79.48695 258.089303 79.036079 257.902546 78.566019 257.902546 
C 78.095959 257.902546 77.645088 258.089303 77.312705 258.421686 
C 76.980322 258.754069 76.793565 259.20494 76.793565 259.675 
C 76.793565 260.14506 76.980322 260.595931 77.312705 260.928314 
C 77.645088 261.260697 78.095959 261.447454 78.566019 261.447454 
z
" style="fill:#57d3db;stroke:#57d3db;stroke-width:0.886227;"/>
    <path clip-path="url(#pf1ed43a992)" d="M 99.833119 276.322454 
C 100.303179 276.322454 100.754051 276.135697 101.086433 275.803314 
C 101.418816 275.470931 101.605573 275.02006 101.605573 274.55 
C 101.605573 274.07994 101.418816 273.629069 101.086433 273.296686 
C 100.754051 272.964303 100.303179 272.777546 99.833119 272.777546 
C 99.363059 272.777546 98.912188 272.964303 98.579805 273.296686 
C 98.247422 273.629069 98.060665 274.07994 98.060665 274.55 
C 98.060665 275.02006 98.247422 275.470931 98.579805 275.803314 
C 98.912188 276.135697 99.363059 276.322454 99.833119 276.322454 
z
" style="fill:#57d3db;stroke:#57d3db;stroke-width:0.886227;"/>
    <path clip-path="url(#pf1ed43a992)" d="M 143.344049 225.572454 
C 143.814109 225.572454 144.264981 225.385697 144.597363 225.053314 
C 144.929746 224.720931 145.116503 224.27006 145.116503 223.8 
C 145.116503 223.32994 144.929746 222.879069 144.597363 222.546686 
C 144.264981 222.214303 143.814109 222.027546 143.344049 222.027546 
C 142.873989 222.027546 142.423118 222.214303 142.090735 222.546686 
C 141.758352 222.879069 141.571595 223.32994 141.571595 223.8 
C 141.571595 224.27006 141.758352 224.720931 142.090735 225.053314 
C 142.423118 225.385697 142.873989 225.572454 143.344049 225.572454 
z
" style="fill:#57d3db;stroke:#57d3db;stroke-width:0.886227;"/>
    <path clip-path="url(#pf1ed43a992)" d="M 89.286438 261.447454 
C 89.756498 261.447454 90.207369 261.260697 90.539752 260.928314 
C 90.872135 260.595931 91.058892 260.14506 91.058892 259.675 
C 91.058892 259.20494 90.872135 258.754069 90.539752 258.421686 
C 90.207369 258.089303 89.756498 257.902546 89.286438 257.902546 
C 88.816378 257.902546 88.365507 258.089303 88.033124 258.421686 
C 87.700741 258.754069 87.513984 259.20494 87.513984 259.675 
C 87.513984 260.14506 87.700741 260.595931 88.033124 260.928314 
C 88.365507 261.260697 88.816378 261.447454 89.286438 261.447454 
z
" style="fill:#57d3db;stroke:#57d3db;stroke-width:0.886227;"/>
    <path clip-path="url(#pf1ed43a992)" d="M 89.954443 273.697454 
C 90.424504 273.697454 90.875375 273.510697 91.207757 273.178314 
C 91.54014 272.845931 91.726897 272.39506 91.726897 271.925 
C 91.726897 271.45494 91.54014 271.004069 91.207757 270.671686 
C 90.875375 270.339303 90.424504 270.152546 89.954443 270.152546 
C 89.484383 270.152546 89.033512 270.339303 88.701129 270.671686 
C 88.368746 271.004069 88.181989 271.45494 88.181989 271.925 
C 88.181989 272.39506 88.368746 272.845931 88.701129 273.178314 
C 89.033512 273.510697 89.484383 273.697454 89.954443 273.697454 
z
" style="fill:#57d3db;stroke:#57d3db;stroke-width:0.886227;"/>
   </g>
   <g id="line2d_29">
    <path clip-path="url(#pf1ed43a992)" d="M 75.37997 253.588653 
L 91.342293 253.491509 
L 98.197366 253.645754 
L 101.950308 253.755511 
L 104.711379 253.847046 
L 107.235582 253.946173 
L 113.743693 254.392414 
L 114.754811 254.511231 
L 116.168324 254.715485 
L 117.406045 254.938372 
L 118.027087 255.067718 
L 119.478324 255.417915 
L 119.484483 255.419543 
L 119.837861 255.514837 
L 120.176868 255.609655 
L 120.361128 255.662513 
L 121.744615 256.084186 
L 123.635457 256.66866 
L 123.723994 256.697533 
L 124.059408 256.807544 
L 128.312777 258.280222 
L 134.44313 259.719734 
L 142.337037 260.014687 
L 144.490411 260.05744 
L 156.089784 262.382144 
L 158.1151 262.787785 
L 165.176503 263.012152 
L 169.390864 262.772406 
L 170.912417 262.665048 
L 175.491961 262.343968 
L 183.808793 262.271255 
L 208.984609 262.387906 
L 232.261371 262.949279 
L 247.782291 264.776212 
L 326.446516 270.856166 
" style="fill:none;stroke:#db5f57;stroke-linejoin:miter;stroke-width:1.772454;"/>
   </g>
   <g id="line2d_30">
    <path clip-path="url(#pf1ed43a992)" d="M 64.283847 268.895789 
L 68.713519 268.887299 
L 75.643015 268.793002 
L 78.566019 268.714895 
L 78.655069 268.712105 
L 89.286438 268.207762 
L 89.954443 268.165894 
L 90.460002 268.133555 
L 93.080954 267.957856 
L 96.697113 267.69765 
L 99.833119 267.459891 
L 101.293851 267.345574 
L 107.176301 266.824969 
L 111.942671 266.145932 
L 118.945819 264.396795 
L 130.62526 261.584574 
L 130.74485 261.551331 
L 137.679734 259.12592 
L 143.344049 257.084499 
L 145.192804 256.455598 
L 156.786018 250.464483 
L 161.060431 248.107214 
L 174.004283 241.324333 
L 175.286915 240.661426 
L 184.594591 235.80949 
L 194.186869 230.666244 
L 202.321751 226.151944 
L 470.102028 60.590612 
" style="fill:none;stroke:#57d3db;stroke-linejoin:miter;stroke-width:1.772454;"/>
   </g>
   <g id="patch_3">
    <path d="M 497.592938 183.312969 
L 568.485563 183.312969 
L 568.485563 110.187031 
L 497.592938 110.187031 
z
" style="fill:#ffffff;"/>
   </g>
   <g id="text_11">
    <!-- City -->
    <defs>
     <path d="M 64.40625 67.28125 
L 64.40625 56.890625 
Q 59.421875 61.53125 53.78125 63.8125 
Q 48.140625 66.109375 41.796875 66.109375 
Q 29.296875 66.109375 22.65625 58.46875 
Q 16.015625 50.828125 16.015625 36.375 
Q 16.015625 21.96875 22.65625 14.328125 
Q 29.296875 6.6875 41.796875 6.6875 
Q 48.140625 6.6875 53.78125 8.984375 
Q 59.421875 11.28125 64.40625 15.921875 
L 64.40625 5.609375 
Q 59.234375 2.09375 53.4375 0.328125 
Q 47.65625 -1.421875 41.21875 -1.421875 
Q 24.65625 -1.421875 15.125 8.703125 
Q 5.609375 18.84375 5.609375 36.375 
Q 5.609375 53.953125 15.125 64.078125 
Q 24.65625 74.21875 41.21875 74.21875 
Q 47.75 74.21875 53.53125 72.484375 
Q 59.328125 70.75 64.40625 67.28125 
z
" id="DejaVuSans-43"/>
     <path d="M 18.3125 70.21875 
L 18.3125 54.6875 
L 36.8125 54.6875 
L 36.8125 47.703125 
L 18.3125 47.703125 
L 18.3125 18.015625 
Q 18.3125 11.328125 20.140625 9.421875 
Q 21.96875 7.515625 27.59375 7.515625 
L 36.8125 7.515625 
L 36.8125 0 
L 27.59375 0 
Q 17.1875 0 13.234375 3.875 
Q 9.28125 7.765625 9.28125 18.015625 
L 9.28125 47.703125 
L 2.6875 47.703125 
L 2.6875 54.6875 
L 9.28125 54.6875 
L 9.28125 70.21875 
z
" id="DejaVuSans-74"/>
     <path d="M 32.171875 -5.078125 
Q 28.375 -14.84375 24.75 -17.8125 
Q 21.140625 -20.796875 15.09375 -20.796875 
L 7.90625 -20.796875 
L 7.90625 -13.28125 
L 13.1875 -13.28125 
Q 16.890625 -13.28125 18.9375 -11.515625 
Q 21 -9.765625 23.484375 -3.21875 
L 25.09375 0.875 
L 2.984375 54.6875 
L 12.5 54.6875 
L 29.59375 11.921875 
L 46.6875 54.6875 
L 56.203125 54.6875 
z
" id="DejaVuSans-79"/>
    </defs>
    <g transform="translate(509.792937 133.780625)scale(0.11 -0.11)">
     <use xlink:href="#DejaVuSans-43"/>
     <use x="69.824219" xlink:href="#DejaVuSans-69"/>
     <use x="97.607422" xlink:href="#DejaVuSans-74"/>
     <use x="136.816406" xlink:href="#DejaVuSans-79"/>
    </g>
   </g>
   <g id="patch_4">
    <path clip-path="url(#p3c1e30b165)" d="M 509.792937 153.272969 
L 525.632938 153.272969 
L 525.632938 137.432969 
L 509.792937 137.432969 
z
" style="fill:#f2f2f2;"/>
   </g>
   <g id="line2d_31">
    <path clip-path="url(#p3c1e30b165)" d="M 517.712937 145.352969 
" style="fill:none;stroke:#1f77b4;stroke-linecap:square;stroke-width:1.5;"/>
    <defs>
     <path d="M 0 1.772454 
C 0.47006 1.772454 0.920931 1.585697 1.253314 1.253314 
C 1.585697 0.920931 1.772454 0.47006 1.772454 0 
C 1.772454 -0.47006 1.585697 -0.920931 1.253314 -1.253314 
C 0.920931 -1.585697 0.47006 -1.772454 0 -1.772454 
C -0.47006 -1.772454 -0.920931 -1.585697 -1.253314 -1.253314 
C -1.585697 -0.920931 -1.772454 -0.47006 -1.772454 0 
C -1.772454 0.47006 -1.585697 0.920931 -1.253314 1.253314 
C -0.920931 1.585697 -0.47006 1.772454 0 1.772454 
z
" id="mdc460b8db0" style="stroke:#db5f57;stroke-width:0.886227;"/>
    </defs>
    <g clip-path="url(#p3c1e30b165)">
     <use style="fill:#db5f57;stroke:#db5f57;stroke-width:0.886227;" x="517.712937" xlink:href="#mdc460b8db0" y="145.352969"/>
    </g>
   </g>
   <g id="patch_5">
    <path clip-path="url(#p3c1e30b165)" d="M 509.792937 149.312969 
L 525.632938 149.312969 
L 525.632938 141.392969 
L 509.792937 141.392969 
z
" style="fill:#999999;opacity:0.4;"/>
   </g>
   <g id="line2d_32">
    <path clip-path="url(#p3c1e30b165)" d="M 509.792937 145.352969 
L 525.632938 145.352969 
" style="fill:none;stroke:#db5f57;stroke-width:1.772454;"/>
   </g>
   <g id="text_12">
    <!-- Austin -->
    <defs>
     <path d="M 34.1875 63.1875 
L 20.796875 26.90625 
L 47.609375 26.90625 
z
M 28.609375 72.90625 
L 39.796875 72.90625 
L 67.578125 0 
L 57.328125 0 
L 50.6875 18.703125 
L 17.828125 18.703125 
L 11.1875 0 
L 0.78125 0 
z
" id="DejaVuSans-41"/>
     <path d="M 8.5 21.578125 
L 8.5 54.6875 
L 17.484375 54.6875 
L 17.484375 21.921875 
Q 17.484375 14.15625 20.5 10.265625 
Q 23.53125 6.390625 29.59375 6.390625 
Q 36.859375 6.390625 41.078125 11.03125 
Q 45.3125 15.671875 45.3125 23.6875 
L 45.3125 54.6875 
L 54.296875 54.6875 
L 54.296875 0 
L 45.3125 0 
L 45.3125 8.40625 
Q 42.046875 3.421875 37.71875 1 
Q 33.40625 -1.421875 27.6875 -1.421875 
Q 18.265625 -1.421875 13.375 4.4375 
Q 8.5 10.296875 8.5 21.578125 
z
M 31.109375 56 
z
" id="DejaVuSans-75"/>
     <path d="M 44.28125 53.078125 
L 44.28125 44.578125 
Q 40.484375 46.53125 36.375 47.5 
Q 32.28125 48.484375 27.875 48.484375 
Q 21.1875 48.484375 17.84375 46.4375 
Q 14.5 44.390625 14.5 40.28125 
Q 14.5 37.15625 16.890625 35.375 
Q 19.28125 33.59375 26.515625 31.984375 
L 29.59375 31.296875 
Q 39.15625 29.25 43.1875 25.515625 
Q 47.21875 21.78125 47.21875 15.09375 
Q 47.21875 7.46875 41.1875 3.015625 
Q 35.15625 -1.421875 24.609375 -1.421875 
Q 20.21875 -1.421875 15.453125 -0.5625 
Q 10.6875 0.296875 5.421875 2 
L 5.421875 11.28125 
Q 10.40625 8.6875 15.234375 7.390625 
Q 20.0625 6.109375 24.8125 6.109375 
Q 31.15625 6.109375 34.5625 8.28125 
Q 37.984375 10.453125 37.984375 14.40625 
Q 37.984375 18.0625 35.515625 20.015625 
Q 33.0625 21.96875 24.703125 23.78125 
L 21.578125 24.515625 
Q 13.234375 26.265625 9.515625 29.90625 
Q 5.8125 33.546875 5.8125 39.890625 
Q 5.8125 47.609375 11.28125 51.796875 
Q 16.75 56 26.8125 56 
Q 31.78125 56 36.171875 55.265625 
Q 40.578125 54.546875 44.28125 53.078125 
z
" id="DejaVuSans-73"/>
     <path d="M 54.890625 33.015625 
L 54.890625 0 
L 45.90625 0 
L 45.90625 32.71875 
Q 45.90625 40.484375 42.875 44.328125 
Q 39.84375 48.1875 33.796875 48.1875 
Q 26.515625 48.1875 22.3125 43.546875 
Q 18.109375 38.921875 18.109375 30.90625 
L 18.109375 0 
L 9.078125 0 
L 9.078125 54.6875 
L 18.109375 54.6875 
L 18.109375 46.1875 
Q 21.34375 51.125 25.703125 53.5625 
Q 30.078125 56 35.796875 56 
Q 45.21875 56 50.046875 50.171875 
Q 54.890625 44.34375 54.890625 33.015625 
z
" id="DejaVuSans-6e"/>
    </defs>
    <g transform="translate(528.632938 147.781219)scale(0.088 -0.088)">
     <use xlink:href="#DejaVuSans-41"/>
     <use x="68.408203" xlink:href="#DejaVuSans-75"/>
     <use x="131.787109" xlink:href="#DejaVuSans-73"/>
     <use x="183.886719" xlink:href="#DejaVuSans-74"/>
     <use x="223.095703" xlink:href="#DejaVuSans-69"/>
     <use x="250.878906" xlink:href="#DejaVuSans-6e"/>
    </g>
   </g>
   <g id="patch_6">
    <path clip-path="url(#p8e9de997d4)" d="M 509.792937 171.112969 
L 525.632938 171.112969 
L 525.632938 155.272969 
L 509.792937 155.272969 
z
" style="fill:#f2f2f2;"/>
   </g>
   <g id="line2d_33">
    <path clip-path="url(#p8e9de997d4)" d="M 517.712937 163.192969 
" style="fill:none;stroke:#1f77b4;stroke-linecap:square;stroke-width:1.5;"/>
    <defs>
     <path d="M 0 1.772454 
C 0.47006 1.772454 0.920931 1.585697 1.253314 1.253314 
C 1.585697 0.920931 1.772454 0.47006 1.772454 0 
C 1.772454 -0.47006 1.585697 -0.920931 1.253314 -1.253314 
C 0.920931 -1.585697 0.47006 -1.772454 0 -1.772454 
C -0.47006 -1.772454 -0.920931 -1.585697 -1.253314 -1.253314 
C -1.585697 -0.920931 -1.772454 -0.47006 -1.772454 0 
C -1.772454 0.47006 -1.585697 0.920931 -1.253314 1.253314 
C -0.920931 1.585697 -0.47006 1.772454 0 1.772454 
z
" id="mc33bd9e160" style="stroke:#57d3db;stroke-width:0.886227;"/>
    </defs>
    <g clip-path="url(#p8e9de997d4)">
     <use style="fill:#57d3db;stroke:#57d3db;stroke-width:0.886227;" x="517.712937" xlink:href="#mc33bd9e160" y="163.192969"/>
    </g>
   </g>
   <g id="patch_7">
    <path clip-path="url(#p8e9de997d4)" d="M 509.792937 167.152969 
L 525.632938 167.152969 
L 525.632938 159.232969 
L 509.792937 159.232969 
z
" style="fill:#999999;opacity:0.4;"/>
   </g>
   <g id="line2d_34">
    <path clip-path="url(#p8e9de997d4)" d="M 509.792937 163.192969 
L 525.632938 163.192969 
" style="fill:none;stroke:#57d3db;stroke-width:1.772454;"/>
   </g>
   <g id="text_13">
    <!-- Dallas -->
    <defs>
     <path d="M 19.671875 64.796875 
L 19.671875 8.109375 
L 31.59375 8.109375 
Q 46.6875 8.109375 53.6875 14.9375 
Q 60.6875 21.78125 60.6875 36.53125 
Q 60.6875 51.171875 53.6875 57.984375 
Q 46.6875 64.796875 31.59375 64.796875 
z
M 9.8125 72.90625 
L 30.078125 72.90625 
Q 51.265625 72.90625 61.171875 64.09375 
Q 71.09375 55.28125 71.09375 36.53125 
Q 71.09375 17.671875 61.125 8.828125 
Q 51.171875 0 30.078125 0 
L 9.8125 0 
z
" id="DejaVuSans-44"/>
     <path d="M 34.28125 27.484375 
Q 23.390625 27.484375 19.1875 25 
Q 14.984375 22.515625 14.984375 16.5 
Q 14.984375 11.71875 18.140625 8.90625 
Q 21.296875 6.109375 26.703125 6.109375 
Q 34.1875 6.109375 38.703125 11.40625 
Q 43.21875 16.703125 43.21875 25.484375 
L 43.21875 27.484375 
z
M 52.203125 31.203125 
L 52.203125 0 
L 43.21875 0 
L 43.21875 8.296875 
Q 40.140625 3.328125 35.546875 0.953125 
Q 30.953125 -1.421875 24.3125 -1.421875 
Q 15.921875 -1.421875 10.953125 3.296875 
Q 6 8.015625 6 15.921875 
Q 6 25.140625 12.171875 29.828125 
Q 18.359375 34.515625 30.609375 34.515625 
L 43.21875 34.515625 
L 43.21875 35.40625 
Q 43.21875 41.609375 39.140625 45 
Q 35.0625 48.390625 27.6875 48.390625 
Q 23 48.390625 18.546875 47.265625 
Q 14.109375 46.140625 10.015625 43.890625 
L 10.015625 52.203125 
Q 14.9375 54.109375 19.578125 55.046875 
Q 24.21875 56 28.609375 56 
Q 40.484375 56 46.34375 49.84375 
Q 52.203125 43.703125 52.203125 31.203125 
z
" id="DejaVuSans-61"/>
     <path d="M 9.421875 75.984375 
L 18.40625 75.984375 
L 18.40625 0 
L 9.421875 0 
z
" id="DejaVuSans-6c"/>
    </defs>
    <g transform="translate(528.632938 165.621219)scale(0.088 -0.088)">
     <use xlink:href="#DejaVuSans-44"/>
     <use x="77.001953" xlink:href="#DejaVuSans-61"/>
     <use x="138.28125" xlink:href="#DejaVuSans-6c"/>
     <use x="166.064453" xlink:href="#DejaVuSans-6c"/>
     <use x="193.847656" xlink:href="#DejaVuSans-61"/>
     <use x="255.126953" xlink:href="#DejaVuSans-73"/>
    </g>
   </g>
  </g>
 </g>
 <defs>
  <clipPath id="pf1ed43a992">
   <rect height="277.2" width="446.4" x="43.992938" y="9.95"/>
  </clipPath>
  <clipPath id="p3c1e30b165">
   <path d="M 509.792937 153.272969 
L 509.792937 137.432969 
L 525.632938 137.432969 
L 525.632938 153.272969 
"/>
  </clipPath>
  <clipPath id="p8e9de997d4">
   <path d="M 509.792937 171.112969 
L 509.792937 155.272969 
L 525.632938 155.272969 
L 525.632938 171.112969 
"/>
  </clipPath>
 </defs>
</svg>
