<?xml version="1.0" encoding="utf-8" standalone="no"?>
<!DOCTYPE svg PUBLIC "-//W3C//DTD SVG 1.1//EN"
  "http://www.w3.org/Graphics/SVG/1.1/DTD/svg11.dtd">
<!-- Created with matplotlib (http://matplotlib.org/) -->
<svg height="353pt" version="1.1" viewBox="0 0 600 353" width="600pt" xmlns="http://www.w3.org/2000/svg" xmlns:xlink="http://www.w3.org/1999/xlink">
 <defs>
  <style type="text/css">
*{stroke-linecap:butt;stroke-linejoin:round;}
  </style>
 </defs>
 <g id="figure_1">
  <g id="patch_1">
   <path d="M 0 353.318058 
L 600.614312 353.318058 
L 600.614312 0 
L 0 0 
z
" style="fill:#ffffff;stroke:#ffffff;stroke-linejoin:miter;"/>
  </g>
  <g id="axes_1">
   <g id="patch_2">
    <path d="M 38.393938 317.605371 
L 183.833937 317.605371 
L 183.833937 40.405371 
L 38.393938 40.405371 
z
" style="fill:#ffffff;stroke:#7f7f7f;stroke-linejoin:miter;"/>
   </g>
   <g id="matplotlib.axis_1">
    <g id="xtick_1">
     <g id="line2d_1">
      <path clip-path="url(#p20de2df5af)" d="M 59.695756 317.605371 
L 59.695756 40.405371 
" style="fill:none;stroke:#e5e5e5;stroke-width:0.8;"/>
     </g>
     <g id="line2d_2">
      <path d="M 59.695756 317.605371 
" style="fill:none;stroke:#000000;stroke-width:1.5;"/>
      <defs>
       <path d="M 0 0 
L 0 2.75 
" id="md63c173b4b" style="stroke:#000000;"/>
      </defs>
      <g>
       <use style="stroke:#000000;" x="59.695756" xlink:href="#md63c173b4b" y="317.605371"/>
      </g>
     </g>
     <g id="text_1">
      <!-- 1 -->
      <defs>
       <path d="M 12.40625 8.296875 
L 28.515625 8.296875 
L 28.515625 63.921875 
L 10.984375 60.40625 
L 10.984375 69.390625 
L 28.421875 72.90625 
L 38.28125 72.90625 
L 38.28125 8.296875 
L 54.390625 8.296875 
L 54.390625 0 
L 12.40625 0 
z
" id="DejaVuSans-31"/>
      </defs>
      <g style="fill:#4d4d4d;" transform="translate(56.896256 329.241996)scale(0.088 -0.088)">
       <use xlink:href="#DejaVuSans-31"/>
      </g>
     </g>
    </g>
    <g id="xtick_2">
     <g id="line2d_3">
      <path clip-path="url(#p20de2df5af)" d="M 89.077574 317.605371 
L 89.077574 40.405371 
" style="fill:none;stroke:#e5e5e5;stroke-width:0.8;"/>
     </g>
     <g id="line2d_4">
      <path d="M 89.077574 317.605371 
" style="fill:none;stroke:#000000;stroke-width:1.5;"/>
      <g>
       <use style="stroke:#000000;" x="89.077574" xlink:href="#md63c173b4b" y="317.605371"/>
      </g>
     </g>
     <g id="text_2">
      <!-- 2 -->
      <defs>
       <path d="M 19.1875 8.296875 
L 53.609375 8.296875 
L 53.609375 0 
L 7.328125 0 
L 7.328125 8.296875 
Q 12.9375 14.109375 22.625 23.890625 
Q 32.328125 33.6875 34.8125 36.53125 
Q 39.546875 41.84375 41.421875 45.53125 
Q 43.3125 49.21875 43.3125 52.78125 
Q 43.3125 58.59375 39.234375 62.25 
Q 35.15625 65.921875 28.609375 65.921875 
Q 23.96875 65.921875 18.8125 64.3125 
Q 13.671875 62.703125 7.8125 59.421875 
L 7.8125 69.390625 
Q 13.765625 71.78125 18.9375 73 
Q 24.125 74.21875 28.421875 74.21875 
Q 39.75 74.21875 46.484375 68.546875 
Q 53.21875 62.890625 53.21875 53.421875 
Q 53.21875 48.921875 51.53125 44.890625 
Q 49.859375 40.875 45.40625 35.40625 
Q 44.1875 33.984375 37.640625 27.21875 
Q 31.109375 20.453125 19.1875 8.296875 
z
" id="DejaVuSans-32"/>
      </defs>
      <g style="fill:#4d4d4d;" transform="translate(86.278074 329.241996)scale(0.088 -0.088)">
       <use xlink:href="#DejaVuSans-32"/>
      </g>
     </g>
    </g>
    <g id="xtick_3">
     <g id="line2d_5">
      <path clip-path="url(#p20de2df5af)" d="M 118.459392 317.605371 
L 118.459392 40.405371 
" style="fill:none;stroke:#e5e5e5;stroke-width:0.8;"/>
     </g>
     <g id="line2d_6">
      <path d="M 118.459392 317.605371 
" style="fill:none;stroke:#000000;stroke-width:1.5;"/>
      <g>
       <use style="stroke:#000000;" x="118.459392" xlink:href="#md63c173b4b" y="317.605371"/>
      </g>
     </g>
     <g id="text_3">
      <!-- 3 -->
      <defs>
       <path d="M 40.578125 39.3125 
Q 47.65625 37.796875 51.625 33 
Q 55.609375 28.21875 55.609375 21.1875 
Q 55.609375 10.40625 48.1875 4.484375 
Q 40.765625 -1.421875 27.09375 -1.421875 
Q 22.515625 -1.421875 17.65625 -0.515625 
Q 12.796875 0.390625 7.625 2.203125 
L 7.625 11.71875 
Q 11.71875 9.328125 16.59375 8.109375 
Q 21.484375 6.890625 26.8125 6.890625 
Q 36.078125 6.890625 40.9375 10.546875 
Q 45.796875 14.203125 45.796875 21.1875 
Q 45.796875 27.640625 41.28125 31.265625 
Q 36.765625 34.90625 28.71875 34.90625 
L 20.21875 34.90625 
L 20.21875 43.015625 
L 29.109375 43.015625 
Q 36.375 43.015625 40.234375 45.921875 
Q 44.09375 48.828125 44.09375 54.296875 
Q 44.09375 59.90625 40.109375 62.90625 
Q 36.140625 65.921875 28.71875 65.921875 
Q 24.65625 65.921875 20.015625 65.03125 
Q 15.375 64.15625 9.8125 62.3125 
L 9.8125 71.09375 
Q 15.4375 72.65625 20.34375 73.4375 
Q 25.25 74.21875 29.59375 74.21875 
Q 40.828125 74.21875 47.359375 69.109375 
Q 53.90625 64.015625 53.90625 55.328125 
Q 53.90625 49.265625 50.4375 45.09375 
Q 46.96875 40.921875 40.578125 39.3125 
z
" id="DejaVuSans-33"/>
      </defs>
      <g style="fill:#4d4d4d;" transform="translate(115.659892 329.241996)scale(0.088 -0.088)">
       <use xlink:href="#DejaVuSans-33"/>
      </g>
     </g>
    </g>
    <g id="xtick_4">
     <g id="line2d_7">
      <path clip-path="url(#p20de2df5af)" d="M 147.84121 317.605371 
L 147.84121 40.405371 
" style="fill:none;stroke:#e5e5e5;stroke-width:0.8;"/>
     </g>
     <g id="line2d_8">
      <path d="M 147.84121 317.605371 
" style="fill:none;stroke:#000000;stroke-width:1.5;"/>
      <g>
       <use style="stroke:#000000;" x="147.84121" xlink:href="#md63c173b4b" y="317.605371"/>
      </g>
     </g>
     <g id="text_4">
      <!-- 4 -->
      <defs>
       <path d="M 37.796875 64.3125 
L 12.890625 25.390625 
L 37.796875 25.390625 
z
M 35.203125 72.90625 
L 47.609375 72.90625 
L 47.609375 25.390625 
L 58.015625 25.390625 
L 58.015625 17.1875 
L 47.609375 17.1875 
L 47.609375 0 
L 37.796875 0 
L 37.796875 17.1875 
L 4.890625 17.1875 
L 4.890625 26.703125 
z
" id="DejaVuSans-34"/>
      </defs>
      <g style="fill:#4d4d4d;" transform="translate(145.04171 329.241996)scale(0.088 -0.088)">
       <use xlink:href="#DejaVuSans-34"/>
      </g>
     </g>
    </g>
    <g id="xtick_5">
     <g id="line2d_9">
      <path clip-path="url(#p20de2df5af)" d="M 177.223028 317.605371 
L 177.223028 40.405371 
" style="fill:none;stroke:#e5e5e5;stroke-width:0.8;"/>
     </g>
     <g id="line2d_10">
      <path d="M 177.223028 317.605371 
" style="fill:none;stroke:#000000;stroke-width:1.5;"/>
      <g>
       <use style="stroke:#000000;" x="177.223028" xlink:href="#md63c173b4b" y="317.605371"/>
      </g>
     </g>
     <g id="text_5">
      <!-- 5 -->
      <defs>
       <path d="M 10.796875 72.90625 
L 49.515625 72.90625 
L 49.515625 64.59375 
L 19.828125 64.59375 
L 19.828125 46.734375 
Q 21.96875 47.46875 24.109375 47.828125 
Q 26.265625 48.1875 28.421875 48.1875 
Q 40.625 48.1875 47.75 41.5 
Q 54.890625 34.8125 54.890625 23.390625 
Q 54.890625 11.625 47.5625 5.09375 
Q 40.234375 -1.421875 26.90625 -1.421875 
Q 22.3125 -1.421875 17.546875 -0.640625 
Q 12.796875 0.140625 7.71875 1.703125 
L 7.71875 11.625 
Q 12.109375 9.234375 16.796875 8.0625 
Q 21.484375 6.890625 26.703125 6.890625 
Q 35.15625 6.890625 40.078125 11.328125 
Q 45.015625 15.765625 45.015625 23.390625 
Q 45.015625 31 40.078125 35.4375 
Q 35.15625 39.890625 26.703125 39.890625 
Q 22.75 39.890625 18.8125 39.015625 
Q 14.890625 38.140625 10.796875 36.28125 
z
" id="DejaVuSans-35"/>
      </defs>
      <g style="fill:#4d4d4d;" transform="translate(174.423528 329.241996)scale(0.088 -0.088)">
       <use xlink:href="#DejaVuSans-35"/>
      </g>
     </g>
    </g>
    <g id="xtick_6">
     <g id="line2d_11">
      <path clip-path="url(#p20de2df5af)" d="M 45.004847 317.605371 
L 45.004847 40.405371 
" style="fill:none;stroke:#fafafa;"/>
     </g>
     <g id="line2d_12">
      <path d="M 45.004847 317.605371 
" style="fill:none;stroke:#000000;stroke-width:1.5;"/>
     </g>
    </g>
    <g id="xtick_7">
     <g id="line2d_13">
      <path clip-path="url(#p20de2df5af)" d="M 74.386665 317.605371 
L 74.386665 40.405371 
" style="fill:none;stroke:#fafafa;"/>
     </g>
     <g id="line2d_14">
      <path d="M 74.386665 317.605371 
" style="fill:none;stroke:#000000;stroke-width:1.5;"/>
     </g>
    </g>
    <g id="xtick_8">
     <g id="line2d_15">
      <path clip-path="url(#p20de2df5af)" d="M 103.768483 317.605371 
L 103.768483 40.405371 
" style="fill:none;stroke:#fafafa;"/>
     </g>
     <g id="line2d_16">
      <path d="M 103.768483 317.605371 
" style="fill:none;stroke:#000000;stroke-width:1.5;"/>
     </g>
    </g>
    <g id="xtick_9">
     <g id="line2d_17">
      <path clip-path="url(#p20de2df5af)" d="M 133.150301 317.605371 
L 133.150301 40.405371 
" style="fill:none;stroke:#fafafa;"/>
     </g>
     <g id="line2d_18">
      <path d="M 133.150301 317.605371 
" style="fill:none;stroke:#000000;stroke-width:1.5;"/>
     </g>
    </g>
    <g id="xtick_10">
     <g id="line2d_19">
      <path clip-path="url(#p20de2df5af)" d="M 162.532119 317.605371 
L 162.532119 40.405371 
" style="fill:none;stroke:#fafafa;"/>
     </g>
     <g id="line2d_20">
      <path d="M 162.532119 317.605371 
" style="fill:none;stroke:#000000;stroke-width:1.5;"/>
     </g>
    </g>
   </g>
   <g id="matplotlib.axis_2">
    <g id="ytick_1">
     <g id="line2d_21">
      <path clip-path="url(#p20de2df5af)" d="M 38.393938 317.605371 
L 183.833937 317.605371 
" style="fill:none;stroke:#e5e5e5;stroke-width:0.8;"/>
     </g>
     <g id="line2d_22">
      <path d="M 38.393938 317.605371 
" style="fill:none;stroke:#000000;stroke-width:1.5;"/>
      <defs>
       <path d="M 0 0 
L -2.75 0 
" id="m8969fcf5b8" style="stroke:#000000;"/>
      </defs>
      <g>
       <use style="stroke:#000000;" x="38.393938" xlink:href="#m8969fcf5b8" y="317.605371"/>
      </g>
     </g>
     <g id="text_6">
      <!-- 0 -->
      <defs>
       <path d="M 31.78125 66.40625 
Q 24.171875 66.40625 20.328125 58.90625 
Q 16.5 51.421875 16.5 36.375 
Q 16.5 21.390625 20.328125 13.890625 
Q 24.171875 6.390625 31.78125 6.390625 
Q 39.453125 6.390625 43.28125 13.890625 
Q 47.125 21.390625 47.125 36.375 
Q 47.125 51.421875 43.28125 58.90625 
Q 39.453125 66.40625 31.78125 66.40625 
z
M 31.78125 74.21875 
Q 44.046875 74.21875 50.515625 64.515625 
Q 56.984375 54.828125 56.984375 36.375 
Q 56.984375 17.96875 50.515625 8.265625 
Q 44.046875 -1.421875 31.78125 -1.421875 
Q 19.53125 -1.421875 13.0625 8.265625 
Q 6.59375 17.96875 6.59375 36.375 
Q 6.59375 54.828125 13.0625 64.515625 
Q 19.53125 74.21875 31.78125 74.21875 
z
" id="DejaVuSans-30"/>
      </defs>
      <g style="fill:#4d4d4d;" transform="translate(27.844938 320.033621)scale(0.088 -0.088)">
       <use xlink:href="#DejaVuSans-30"/>
      </g>
     </g>
    </g>
    <g id="ytick_2">
     <g id="line2d_23">
      <path clip-path="url(#p20de2df5af)" d="M 38.393938 256.54092 
L 183.833937 256.54092 
" style="fill:none;stroke:#e5e5e5;stroke-width:0.8;"/>
     </g>
     <g id="line2d_24">
      <path d="M 38.393938 256.54092 
" style="fill:none;stroke:#000000;stroke-width:1.5;"/>
      <g>
       <use style="stroke:#000000;" x="38.393938" xlink:href="#m8969fcf5b8" y="256.54092"/>
      </g>
     </g>
     <g id="text_7">
      <!-- 5 -->
      <g style="fill:#4d4d4d;" transform="translate(27.844938 258.96917)scale(0.088 -0.088)">
       <use xlink:href="#DejaVuSans-35"/>
      </g>
     </g>
    </g>
    <g id="ytick_3">
     <g id="line2d_25">
      <path clip-path="url(#p20de2df5af)" d="M 38.393938 195.476469 
L 183.833937 195.476469 
" style="fill:none;stroke:#e5e5e5;stroke-width:0.8;"/>
     </g>
     <g id="line2d_26">
      <path d="M 38.393938 195.476469 
" style="fill:none;stroke:#000000;stroke-width:1.5;"/>
      <g>
       <use style="stroke:#000000;" x="38.393938" xlink:href="#m8969fcf5b8" y="195.476469"/>
      </g>
     </g>
     <g id="text_8">
      <!-- 10 -->
      <g style="fill:#4d4d4d;" transform="translate(22.245938 197.904719)scale(0.088 -0.088)">
       <use xlink:href="#DejaVuSans-31"/>
       <use x="63.623047" xlink:href="#DejaVuSans-30"/>
      </g>
     </g>
    </g>
    <g id="ytick_4">
     <g id="line2d_27">
      <path clip-path="url(#p20de2df5af)" d="M 38.393938 134.412018 
L 183.833937 134.412018 
" style="fill:none;stroke:#e5e5e5;stroke-width:0.8;"/>
     </g>
     <g id="line2d_28">
      <path d="M 38.393938 134.412018 
" style="fill:none;stroke:#000000;stroke-width:1.5;"/>
      <g>
       <use style="stroke:#000000;" x="38.393938" xlink:href="#m8969fcf5b8" y="134.412018"/>
      </g>
     </g>
     <g id="text_9">
      <!-- 15 -->
      <g style="fill:#4d4d4d;" transform="translate(22.245938 136.840268)scale(0.088 -0.088)">
       <use xlink:href="#DejaVuSans-31"/>
       <use x="63.623047" xlink:href="#DejaVuSans-35"/>
      </g>
     </g>
    </g>
    <g id="ytick_5">
     <g id="line2d_29">
      <path clip-path="url(#p20de2df5af)" d="M 38.393938 73.347567 
L 183.833937 73.347567 
" style="fill:none;stroke:#e5e5e5;stroke-width:0.8;"/>
     </g>
     <g id="line2d_30">
      <path d="M 38.393938 73.347567 
" style="fill:none;stroke:#000000;stroke-width:1.5;"/>
      <g>
       <use style="stroke:#000000;" x="38.393938" xlink:href="#m8969fcf5b8" y="73.347567"/>
      </g>
     </g>
     <g id="text_10">
      <!-- 20 -->
      <g style="fill:#4d4d4d;" transform="translate(22.245938 75.775817)scale(0.088 -0.088)">
       <use xlink:href="#DejaVuSans-32"/>
       <use x="63.623047" xlink:href="#DejaVuSans-30"/>
      </g>
     </g>
    </g>
    <g id="ytick_6">
     <g id="line2d_31">
      <path clip-path="url(#p20de2df5af)" d="M 38.393938 287.073145 
L 183.833937 287.073145 
" style="fill:none;stroke:#fafafa;"/>
     </g>
     <g id="line2d_32">
      <path d="M 38.393938 287.073145 
" style="fill:none;stroke:#000000;stroke-width:1.5;"/>
     </g>
    </g>
    <g id="ytick_7">
     <g id="line2d_33">
      <path clip-path="url(#p20de2df5af)" d="M 38.393938 226.008694 
L 183.833937 226.008694 
" style="fill:none;stroke:#fafafa;"/>
     </g>
     <g id="line2d_34">
      <path d="M 38.393938 226.008694 
" style="fill:none;stroke:#000000;stroke-width:1.5;"/>
     </g>
    </g>
    <g id="ytick_8">
     <g id="line2d_35">
      <path clip-path="url(#p20de2df5af)" d="M 38.393938 164.944244 
L 183.833937 164.944244 
" style="fill:none;stroke:#fafafa;"/>
     </g>
     <g id="line2d_36">
      <path d="M 38.393938 164.944244 
" style="fill:none;stroke:#000000;stroke-width:1.5;"/>
     </g>
    </g>
    <g id="ytick_9">
     <g id="line2d_37">
      <path clip-path="url(#p20de2df5af)" d="M 38.393938 103.879793 
L 183.833937 103.879793 
" style="fill:none;stroke:#fafafa;"/>
     </g>
     <g id="line2d_38">
      <path d="M 38.393938 103.879793 
" style="fill:none;stroke:#000000;stroke-width:1.5;"/>
     </g>
    </g>
    <g id="ytick_10">
     <g id="line2d_39">
      <path clip-path="url(#p20de2df5af)" d="M 38.393938 42.815342 
L 183.833937 42.815342 
" style="fill:none;stroke:#fafafa;"/>
     </g>
     <g id="line2d_40">
      <path d="M 38.393938 42.815342 
" style="fill:none;stroke:#000000;stroke-width:1.5;"/>
     </g>
    </g>
    <g id="text_11">
     <!-- Percent of Land in Historic Districts -->
     <defs>
      <path d="M 19.671875 64.796875 
L 19.671875 37.40625 
L 32.078125 37.40625 
Q 38.96875 37.40625 42.71875 40.96875 
Q 46.484375 44.53125 46.484375 51.125 
Q 46.484375 57.671875 42.71875 61.234375 
Q 38.96875 64.796875 32.078125 64.796875 
z
M 9.8125 72.90625 
L 32.078125 72.90625 
Q 44.34375 72.90625 50.609375 67.359375 
Q 56.890625 61.8125 56.890625 51.125 
Q 56.890625 40.328125 50.609375 34.8125 
Q 44.34375 29.296875 32.078125 29.296875 
L 19.671875 29.296875 
L 19.671875 0 
L 9.8125 0 
z
" id="DejaVuSans-50"/>
      <path d="M 56.203125 29.59375 
L 56.203125 25.203125 
L 14.890625 25.203125 
Q 15.484375 15.921875 20.484375 11.0625 
Q 25.484375 6.203125 34.421875 6.203125 
Q 39.59375 6.203125 44.453125 7.46875 
Q 49.3125 8.734375 54.109375 11.28125 
L 54.109375 2.78125 
Q 49.265625 0.734375 44.1875 -0.34375 
Q 39.109375 -1.421875 33.890625 -1.421875 
Q 20.796875 -1.421875 13.15625 6.1875 
Q 5.515625 13.8125 5.515625 26.8125 
Q 5.515625 40.234375 12.765625 48.109375 
Q 20.015625 56 32.328125 56 
Q 43.359375 56 49.78125 48.890625 
Q 56.203125 41.796875 56.203125 29.59375 
z
M 47.21875 32.234375 
Q 47.125 39.59375 43.09375 43.984375 
Q 39.0625 48.390625 32.421875 48.390625 
Q 24.90625 48.390625 20.390625 44.140625 
Q 15.875 39.890625 15.1875 32.171875 
z
" id="DejaVuSans-65"/>
      <path d="M 41.109375 46.296875 
Q 39.59375 47.171875 37.8125 47.578125 
Q 36.03125 48 33.890625 48 
Q 26.265625 48 22.1875 43.046875 
Q 18.109375 38.09375 18.109375 28.8125 
L 18.109375 0 
L 9.078125 0 
L 9.078125 54.6875 
L 18.109375 54.6875 
L 18.109375 46.1875 
Q 20.953125 51.171875 25.484375 53.578125 
Q 30.03125 56 36.53125 56 
Q 37.453125 56 38.578125 55.875 
Q 39.703125 55.765625 41.0625 55.515625 
z
" id="DejaVuSans-72"/>
      <path d="M 48.78125 52.59375 
L 48.78125 44.1875 
Q 44.96875 46.296875 41.140625 47.34375 
Q 37.3125 48.390625 33.40625 48.390625 
Q 24.65625 48.390625 19.8125 42.84375 
Q 14.984375 37.3125 14.984375 27.296875 
Q 14.984375 17.28125 19.8125 11.734375 
Q 24.65625 6.203125 33.40625 6.203125 
Q 37.3125 6.203125 41.140625 7.25 
Q 44.96875 8.296875 48.78125 10.40625 
L 48.78125 2.09375 
Q 45.015625 0.34375 40.984375 -0.53125 
Q 36.96875 -1.421875 32.421875 -1.421875 
Q 20.0625 -1.421875 12.78125 6.34375 
Q 5.515625 14.109375 5.515625 27.296875 
Q 5.515625 40.671875 12.859375 48.328125 
Q 20.21875 56 33.015625 56 
Q 37.15625 56 41.109375 55.140625 
Q 45.0625 54.296875 48.78125 52.59375 
z
" id="DejaVuSans-63"/>
      <path d="M 54.890625 33.015625 
L 54.890625 0 
L 45.90625 0 
L 45.90625 32.71875 
Q 45.90625 40.484375 42.875 44.328125 
Q 39.84375 48.1875 33.796875 48.1875 
Q 26.515625 48.1875 22.3125 43.546875 
Q 18.109375 38.921875 18.109375 30.90625 
L 18.109375 0 
L 9.078125 0 
L 9.078125 54.6875 
L 18.109375 54.6875 
L 18.109375 46.1875 
Q 21.34375 51.125 25.703125 53.5625 
Q 30.078125 56 35.796875 56 
Q 45.21875 56 50.046875 50.171875 
Q 54.890625 44.34375 54.890625 33.015625 
z
" id="DejaVuSans-6e"/>
      <path d="M 18.3125 70.21875 
L 18.3125 54.6875 
L 36.8125 54.6875 
L 36.8125 47.703125 
L 18.3125 47.703125 
L 18.3125 18.015625 
Q 18.3125 11.328125 20.140625 9.421875 
Q 21.96875 7.515625 27.59375 7.515625 
L 36.8125 7.515625 
L 36.8125 0 
L 27.59375 0 
Q 17.1875 0 13.234375 3.875 
Q 9.28125 7.765625 9.28125 18.015625 
L 9.28125 47.703125 
L 2.6875 47.703125 
L 2.6875 54.6875 
L 9.28125 54.6875 
L 9.28125 70.21875 
z
" id="DejaVuSans-74"/>
      <path id="DejaVuSans-20"/>
      <path d="M 30.609375 48.390625 
Q 23.390625 48.390625 19.1875 42.75 
Q 14.984375 37.109375 14.984375 27.296875 
Q 14.984375 17.484375 19.15625 11.84375 
Q 23.34375 6.203125 30.609375 6.203125 
Q 37.796875 6.203125 41.984375 11.859375 
Q 46.1875 17.53125 46.1875 27.296875 
Q 46.1875 37.015625 41.984375 42.703125 
Q 37.796875 48.390625 30.609375 48.390625 
z
M 30.609375 56 
Q 42.328125 56 49.015625 48.375 
Q 55.71875 40.765625 55.71875 27.296875 
Q 55.71875 13.875 49.015625 6.21875 
Q 42.328125 -1.421875 30.609375 -1.421875 
Q 18.84375 -1.421875 12.171875 6.21875 
Q 5.515625 13.875 5.515625 27.296875 
Q 5.515625 40.765625 12.171875 48.375 
Q 18.84375 56 30.609375 56 
z
" id="DejaVuSans-6f"/>
      <path d="M 37.109375 75.984375 
L 37.109375 68.5 
L 28.515625 68.5 
Q 23.6875 68.5 21.796875 66.546875 
Q 19.921875 64.59375 19.921875 59.515625 
L 19.921875 54.6875 
L 34.71875 54.6875 
L 34.71875 47.703125 
L 19.921875 47.703125 
L 19.921875 0 
L 10.890625 0 
L 10.890625 47.703125 
L 2.296875 47.703125 
L 2.296875 54.6875 
L 10.890625 54.6875 
L 10.890625 58.5 
Q 10.890625 67.625 15.140625 71.796875 
Q 19.390625 75.984375 28.609375 75.984375 
z
" id="DejaVuSans-66"/>
      <path d="M 9.8125 72.90625 
L 19.671875 72.90625 
L 19.671875 8.296875 
L 55.171875 8.296875 
L 55.171875 0 
L 9.8125 0 
z
" id="DejaVuSans-4c"/>
      <path d="M 34.28125 27.484375 
Q 23.390625 27.484375 19.1875 25 
Q 14.984375 22.515625 14.984375 16.5 
Q 14.984375 11.71875 18.140625 8.90625 
Q 21.296875 6.109375 26.703125 6.109375 
Q 34.1875 6.109375 38.703125 11.40625 
Q 43.21875 16.703125 43.21875 25.484375 
L 43.21875 27.484375 
z
M 52.203125 31.203125 
L 52.203125 0 
L 43.21875 0 
L 43.21875 8.296875 
Q 40.140625 3.328125 35.546875 0.953125 
Q 30.953125 -1.421875 24.3125 -1.421875 
Q 15.921875 -1.421875 10.953125 3.296875 
Q 6 8.015625 6 15.921875 
Q 6 25.140625 12.171875 29.828125 
Q 18.359375 34.515625 30.609375 34.515625 
L 43.21875 34.515625 
L 43.21875 35.40625 
Q 43.21875 41.609375 39.140625 45 
Q 35.0625 48.390625 27.6875 48.390625 
Q 23 48.390625 18.546875 47.265625 
Q 14.109375 46.140625 10.015625 43.890625 
L 10.015625 52.203125 
Q 14.9375 54.109375 19.578125 55.046875 
Q 24.21875 56 28.609375 56 
Q 40.484375 56 46.34375 49.84375 
Q 52.203125 43.703125 52.203125 31.203125 
z
" id="DejaVuSans-61"/>
      <path d="M 45.40625 46.390625 
L 45.40625 75.984375 
L 54.390625 75.984375 
L 54.390625 0 
L 45.40625 0 
L 45.40625 8.203125 
Q 42.578125 3.328125 38.25 0.953125 
Q 33.9375 -1.421875 27.875 -1.421875 
Q 17.96875 -1.421875 11.734375 6.484375 
Q 5.515625 14.40625 5.515625 27.296875 
Q 5.515625 40.1875 11.734375 48.09375 
Q 17.96875 56 27.875 56 
Q 33.9375 56 38.25 53.625 
Q 42.578125 51.265625 45.40625 46.390625 
z
M 14.796875 27.296875 
Q 14.796875 17.390625 18.875 11.75 
Q 22.953125 6.109375 30.078125 6.109375 
Q 37.203125 6.109375 41.296875 11.75 
Q 45.40625 17.390625 45.40625 27.296875 
Q 45.40625 37.203125 41.296875 42.84375 
Q 37.203125 48.484375 30.078125 48.484375 
Q 22.953125 48.484375 18.875 42.84375 
Q 14.796875 37.203125 14.796875 27.296875 
z
" id="DejaVuSans-64"/>
      <path d="M 9.421875 54.6875 
L 18.40625 54.6875 
L 18.40625 0 
L 9.421875 0 
z
M 9.421875 75.984375 
L 18.40625 75.984375 
L 18.40625 64.59375 
L 9.421875 64.59375 
z
" id="DejaVuSans-69"/>
      <path d="M 9.8125 72.90625 
L 19.671875 72.90625 
L 19.671875 43.015625 
L 55.515625 43.015625 
L 55.515625 72.90625 
L 65.375 72.90625 
L 65.375 0 
L 55.515625 0 
L 55.515625 34.71875 
L 19.671875 34.71875 
L 19.671875 0 
L 9.8125 0 
z
" id="DejaVuSans-48"/>
      <path d="M 44.28125 53.078125 
L 44.28125 44.578125 
Q 40.484375 46.53125 36.375 47.5 
Q 32.28125 48.484375 27.875 48.484375 
Q 21.1875 48.484375 17.84375 46.4375 
Q 14.5 44.390625 14.5 40.28125 
Q 14.5 37.15625 16.890625 35.375 
Q 19.28125 33.59375 26.515625 31.984375 
L 29.59375 31.296875 
Q 39.15625 29.25 43.1875 25.515625 
Q 47.21875 21.78125 47.21875 15.09375 
Q 47.21875 7.46875 41.1875 3.015625 
Q 35.15625 -1.421875 24.609375 -1.421875 
Q 20.21875 -1.421875 15.453125 -0.5625 
Q 10.6875 0.296875 5.421875 2 
L 5.421875 11.28125 
Q 10.40625 8.6875 15.234375 7.390625 
Q 20.0625 6.109375 24.8125 6.109375 
Q 31.15625 6.109375 34.5625 8.28125 
Q 37.984375 10.453125 37.984375 14.40625 
Q 37.984375 18.0625 35.515625 20.015625 
Q 33.0625 21.96875 24.703125 23.78125 
L 21.578125 24.515625 
Q 13.234375 26.265625 9.515625 29.90625 
Q 5.8125 33.546875 5.8125 39.890625 
Q 5.8125 47.609375 11.28125 51.796875 
Q 16.75 56 26.8125 56 
Q 31.78125 56 36.171875 55.265625 
Q 40.578125 54.546875 44.28125 53.078125 
z
" id="DejaVuSans-73"/>
      <path d="M 19.671875 64.796875 
L 19.671875 8.109375 
L 31.59375 8.109375 
Q 46.6875 8.109375 53.6875 14.9375 
Q 60.6875 21.78125 60.6875 36.53125 
Q 60.6875 51.171875 53.6875 57.984375 
Q 46.6875 64.796875 31.59375 64.796875 
z
M 9.8125 72.90625 
L 30.078125 72.90625 
Q 51.265625 72.90625 61.171875 64.09375 
Q 71.09375 55.28125 71.09375 36.53125 
Q 71.09375 17.671875 61.125 8.828125 
Q 51.171875 0 30.078125 0 
L 9.8125 0 
z
" id="DejaVuSans-44"/>
     </defs>
     <g transform="translate(15.558281 274.162636)rotate(-90)scale(0.11 -0.11)">
      <use xlink:href="#DejaVuSans-50"/>
      <use x="60.255859" xlink:href="#DejaVuSans-65"/>
      <use x="121.779297" xlink:href="#DejaVuSans-72"/>
      <use x="162.861328" xlink:href="#DejaVuSans-63"/>
      <use x="217.841797" xlink:href="#DejaVuSans-65"/>
      <use x="279.365234" xlink:href="#DejaVuSans-6e"/>
      <use x="342.744141" xlink:href="#DejaVuSans-74"/>
      <use x="381.953125" xlink:href="#DejaVuSans-20"/>
      <use x="413.740234" xlink:href="#DejaVuSans-6f"/>
      <use x="474.921875" xlink:href="#DejaVuSans-66"/>
      <use x="510.126953" xlink:href="#DejaVuSans-20"/>
      <use x="541.914062" xlink:href="#DejaVuSans-4c"/>
      <use x="597.626953" xlink:href="#DejaVuSans-61"/>
      <use x="658.90625" xlink:href="#DejaVuSans-6e"/>
      <use x="722.285156" xlink:href="#DejaVuSans-64"/>
      <use x="785.761719" xlink:href="#DejaVuSans-20"/>
      <use x="817.548828" xlink:href="#DejaVuSans-69"/>
      <use x="845.332031" xlink:href="#DejaVuSans-6e"/>
      <use x="908.710938" xlink:href="#DejaVuSans-20"/>
      <use x="940.498047" xlink:href="#DejaVuSans-48"/>
      <use x="1015.693359" xlink:href="#DejaVuSans-69"/>
      <use x="1043.476562" xlink:href="#DejaVuSans-73"/>
      <use x="1095.576172" xlink:href="#DejaVuSans-74"/>
      <use x="1134.785156" xlink:href="#DejaVuSans-6f"/>
      <use x="1195.966797" xlink:href="#DejaVuSans-72"/>
      <use x="1237.080078" xlink:href="#DejaVuSans-69"/>
      <use x="1264.863281" xlink:href="#DejaVuSans-63"/>
      <use x="1319.84375" xlink:href="#DejaVuSans-20"/>
      <use x="1351.630859" xlink:href="#DejaVuSans-44"/>
      <use x="1428.632812" xlink:href="#DejaVuSans-69"/>
      <use x="1456.416016" xlink:href="#DejaVuSans-73"/>
      <use x="1508.515625" xlink:href="#DejaVuSans-74"/>
      <use x="1547.724609" xlink:href="#DejaVuSans-72"/>
      <use x="1588.837891" xlink:href="#DejaVuSans-69"/>
      <use x="1616.621094" xlink:href="#DejaVuSans-63"/>
      <use x="1671.601562" xlink:href="#DejaVuSans-74"/>
      <use x="1710.810547" xlink:href="#DejaVuSans-73"/>
     </g>
    </g>
   </g>
   <g id="PolyCollection_1">
    <path clip-path="url(#p20de2df5af)" d="M 45.004847 317.605371 
L 45.004847 111.801123 
L 51.615756 111.801123 
L 51.615756 317.605371 
z
" style="fill:#5f57db;"/>
    <path clip-path="url(#p20de2df5af)" d="M 38.393938 317.605371 
L 38.393938 317.605371 
L 45.004847 317.605371 
L 45.004847 317.605371 
z
" style="fill:#57db5f;"/>
    <path clip-path="url(#p20de2df5af)" d="M 59.695756 317.605371 
L 59.695756 255.563702 
L 66.306665 255.563702 
L 66.306665 317.605371 
z
" style="fill:#5f57db;"/>
    <path clip-path="url(#p20de2df5af)" d="M 53.084847 317.605371 
L 53.084847 296.089326 
L 59.695756 296.089326 
L 59.695756 317.605371 
z
" style="fill:#57db5f;"/>
    <path clip-path="url(#p20de2df5af)" d="M 74.386665 317.605371 
L 74.386665 190.927691 
L 80.997574 190.927691 
L 80.997574 317.605371 
z
" style="fill:#5f57db;"/>
    <path clip-path="url(#p20de2df5af)" d="M 67.775756 317.605371 
L 67.775756 316.140228 
L 74.386665 316.140228 
L 74.386665 317.605371 
z
" style="fill:#57db5f;"/>
    <path clip-path="url(#p20de2df5af)" d="M 89.077574 317.605371 
L 89.077574 140.731159 
L 95.688483 140.731159 
L 95.688483 317.605371 
z
" style="fill:#5f57db;"/>
    <path clip-path="url(#p20de2df5af)" d="M 82.466665 317.605371 
L 82.466665 317.321064 
L 89.077574 317.321064 
L 89.077574 317.605371 
z
" style="fill:#57db5f;"/>
    <path clip-path="url(#p20de2df5af)" d="M 103.768483 317.605371 
L 103.768483 217.62987 
L 110.379392 217.62987 
L 110.379392 317.605371 
z
" style="fill:#5f57db;"/>
    <path clip-path="url(#p20de2df5af)" d="M 97.157574 317.605371 
L 97.157574 304.174473 
L 103.768483 304.174473 
L 103.768483 317.605371 
z
" style="fill:#57db5f;"/>
    <path clip-path="url(#p20de2df5af)" d="M 118.459392 317.605371 
L 118.459392 220.776669 
L 125.070301 220.776669 
L 125.070301 317.605371 
z
" style="fill:#5f57db;"/>
    <path clip-path="url(#p20de2df5af)" d="M 111.848483 317.605371 
L 111.848483 295.40911 
L 118.459392 295.40911 
L 118.459392 317.605371 
z
" style="fill:#57db5f;"/>
    <path clip-path="url(#p20de2df5af)" d="M 133.150301 317.605371 
L 133.150301 296.816008 
L 139.76121 296.816008 
L 139.76121 317.605371 
z
" style="fill:#5f57db;"/>
    <path clip-path="url(#p20de2df5af)" d="M 126.539392 317.605371 
L 126.539392 317.140921 
L 133.150301 317.140921 
L 133.150301 317.605371 
z
" style="fill:#57db5f;"/>
    <path clip-path="url(#p20de2df5af)" d="M 147.84121 317.605371 
L 147.84121 292.391743 
L 154.452119 292.391743 
L 154.452119 317.605371 
z
" style="fill:#5f57db;"/>
    <path clip-path="url(#p20de2df5af)" d="M 141.230301 317.605371 
L 141.230301 317.605371 
L 147.84121 317.605371 
L 147.84121 317.605371 
z
" style="fill:#57db5f;"/>
    <path clip-path="url(#p20de2df5af)" d="M 162.532119 317.605371 
L 162.532119 316.741215 
L 169.143028 316.741215 
L 169.143028 317.605371 
z
" style="fill:#5f57db;"/>
    <path clip-path="url(#p20de2df5af)" d="M 155.92121 317.605371 
L 155.92121 317.605371 
L 162.532119 317.605371 
L 162.532119 317.605371 
z
" style="fill:#57db5f;"/>
    <path clip-path="url(#p20de2df5af)" d="M 177.223028 317.605371 
L 177.223028 317.605371 
L 183.833938 317.605371 
L 183.833938 317.605371 
z
" style="fill:#5f57db;"/>
    <path clip-path="url(#p20de2df5af)" d="M 170.612119 317.605371 
L 170.612119 317.605371 
L 177.223028 317.605371 
L 177.223028 317.605371 
z
" style="fill:#57db5f;"/>
   </g>
   <g id="patch_3">
    <path d="M 38.393938 40.405371 
L 183.833937 40.405371 
L 183.833937 26.306779 
L 38.393938 26.306779 
z
" style="fill:#cccccc;stroke:#7f7f7f;stroke-linejoin:miter;"/>
   </g>
   <g id="text_12">
    <!-- Austin -->
    <defs>
     <path d="M 34.1875 63.1875 
L 20.796875 26.90625 
L 47.609375 26.90625 
z
M 28.609375 72.90625 
L 39.796875 72.90625 
L 67.578125 0 
L 57.328125 0 
L 50.6875 18.703125 
L 17.828125 18.703125 
L 11.1875 0 
L 0.78125 0 
z
" id="DejaVuSans-41"/>
     <path d="M 8.5 21.578125 
L 8.5 54.6875 
L 17.484375 54.6875 
L 17.484375 21.921875 
Q 17.484375 14.15625 20.5 10.265625 
Q 23.53125 6.390625 29.59375 6.390625 
Q 36.859375 6.390625 41.078125 11.03125 
Q 45.3125 15.671875 45.3125 23.6875 
L 45.3125 54.6875 
L 54.296875 54.6875 
L 54.296875 0 
L 45.3125 0 
L 45.3125 8.40625 
Q 42.046875 3.421875 37.71875 1 
Q 33.40625 -1.421875 27.6875 -1.421875 
Q 18.265625 -1.421875 13.375 4.4375 
Q 8.5 10.296875 8.5 21.578125 
z
M 31.109375 56 
z
" id="DejaVuSans-75"/>
    </defs>
    <g style="fill:#1a1a1a;" transform="translate(97.287625 35.784325)scale(0.088 -0.088)">
     <use xlink:href="#DejaVuSans-41"/>
     <use x="68.408203" xlink:href="#DejaVuSans-75"/>
     <use x="131.787109" xlink:href="#DejaVuSans-73"/>
     <use x="183.886719" xlink:href="#DejaVuSans-74"/>
     <use x="223.095703" xlink:href="#DejaVuSans-69"/>
     <use x="250.878906" xlink:href="#DejaVuSans-6e"/>
    </g>
   </g>
   <g id="patch_4">
    <path d="M 491.993938 222.688339 
L 593.414313 222.688339 
L 593.414313 131.722402 
L 491.993938 131.722402 
z
" style="fill:#ffffff;"/>
   </g>
   <g id="text_13">
    <!-- District Type -->
    <defs>
     <path d="M -0.296875 72.90625 
L 61.375 72.90625 
L 61.375 64.59375 
L 35.5 64.59375 
L 35.5 0 
L 25.59375 0 
L 25.59375 64.59375 
L -0.296875 64.59375 
z
" id="DejaVuSans-54"/>
     <path d="M 32.171875 -5.078125 
Q 28.375 -14.84375 24.75 -17.8125 
Q 21.140625 -20.796875 15.09375 -20.796875 
L 7.90625 -20.796875 
L 7.90625 -13.28125 
L 13.1875 -13.28125 
Q 16.890625 -13.28125 18.9375 -11.515625 
Q 21 -9.765625 23.484375 -3.21875 
L 25.09375 0.875 
L 2.984375 54.6875 
L 12.5 54.6875 
L 29.59375 11.921875 
L 46.6875 54.6875 
L 56.203125 54.6875 
z
" id="DejaVuSans-79"/>
     <path d="M 18.109375 8.203125 
L 18.109375 -20.796875 
L 9.078125 -20.796875 
L 9.078125 54.6875 
L 18.109375 54.6875 
L 18.109375 46.390625 
Q 20.953125 51.265625 25.265625 53.625 
Q 29.59375 56 35.59375 56 
Q 45.5625 56 51.78125 48.09375 
Q 58.015625 40.1875 58.015625 27.296875 
Q 58.015625 14.40625 51.78125 6.484375 
Q 45.5625 -1.421875 35.59375 -1.421875 
Q 29.59375 -1.421875 25.265625 0.953125 
Q 20.953125 3.328125 18.109375 8.203125 
z
M 48.6875 27.296875 
Q 48.6875 37.203125 44.609375 42.84375 
Q 40.53125 48.484375 33.40625 48.484375 
Q 26.265625 48.484375 22.1875 42.84375 
Q 18.109375 37.203125 18.109375 27.296875 
Q 18.109375 17.390625 22.1875 11.75 
Q 26.265625 6.109375 33.40625 6.109375 
Q 40.53125 6.109375 44.609375 11.75 
Q 48.6875 17.390625 48.6875 27.296875 
z
" id="DejaVuSans-70"/>
    </defs>
    <g transform="translate(504.193938 155.315996)scale(0.11 -0.11)">
     <use xlink:href="#DejaVuSans-44"/>
     <use x="77.001953" xlink:href="#DejaVuSans-69"/>
     <use x="104.785156" xlink:href="#DejaVuSans-73"/>
     <use x="156.884766" xlink:href="#DejaVuSans-74"/>
     <use x="196.09375" xlink:href="#DejaVuSans-72"/>
     <use x="237.207031" xlink:href="#DejaVuSans-69"/>
     <use x="264.990234" xlink:href="#DejaVuSans-63"/>
     <use x="319.970703" xlink:href="#DejaVuSans-74"/>
     <use x="359.179688" xlink:href="#DejaVuSans-20"/>
     <use x="390.966797" xlink:href="#DejaVuSans-54"/>
     <use x="451.816406" xlink:href="#DejaVuSans-79"/>
     <use x="510.996094" xlink:href="#DejaVuSans-70"/>
     <use x="574.472656" xlink:href="#DejaVuSans-65"/>
    </g>
   </g>
   <g id="patch_5">
    <path clip-path="url(#p56eff3ddd4)" d="M 504.193938 174.808339 
L 520.033937 174.808339 
L 520.033937 158.968339 
L 504.193938 158.968339 
z
" style="fill:#f2f2f2;stroke:#cccccc;stroke-linejoin:miter;"/>
   </g>
   <g id="patch_6">
    <path clip-path="url(#p56eff3ddd4)" d="M 504.193938 174.808339 
L 520.033937 174.808339 
L 520.033937 158.968339 
L 504.193938 158.968339 
z
" style="fill:#db5f57;"/>
   </g>
   <g id="text_14">
    <!-- Conservation -->
    <defs>
     <path d="M 64.40625 67.28125 
L 64.40625 56.890625 
Q 59.421875 61.53125 53.78125 63.8125 
Q 48.140625 66.109375 41.796875 66.109375 
Q 29.296875 66.109375 22.65625 58.46875 
Q 16.015625 50.828125 16.015625 36.375 
Q 16.015625 21.96875 22.65625 14.328125 
Q 29.296875 6.6875 41.796875 6.6875 
Q 48.140625 6.6875 53.78125 8.984375 
Q 59.421875 11.28125 64.40625 15.921875 
L 64.40625 5.609375 
Q 59.234375 2.09375 53.4375 0.328125 
Q 47.65625 -1.421875 41.21875 -1.421875 
Q 24.65625 -1.421875 15.125 8.703125 
Q 5.609375 18.84375 5.609375 36.375 
Q 5.609375 53.953125 15.125 64.078125 
Q 24.65625 74.21875 41.21875 74.21875 
Q 47.75 74.21875 53.53125 72.484375 
Q 59.328125 70.75 64.40625 67.28125 
z
" id="DejaVuSans-43"/>
     <path d="M 2.984375 54.6875 
L 12.5 54.6875 
L 29.59375 8.796875 
L 46.6875 54.6875 
L 56.203125 54.6875 
L 35.6875 0 
L 23.484375 0 
z
" id="DejaVuSans-76"/>
    </defs>
    <g transform="translate(523.033937 169.316589)scale(0.088 -0.088)">
     <use xlink:href="#DejaVuSans-43"/>
     <use x="69.824219" xlink:href="#DejaVuSans-6f"/>
     <use x="131.005859" xlink:href="#DejaVuSans-6e"/>
     <use x="194.384766" xlink:href="#DejaVuSans-73"/>
     <use x="246.484375" xlink:href="#DejaVuSans-65"/>
     <use x="308.007812" xlink:href="#DejaVuSans-72"/>
     <use x="349.121094" xlink:href="#DejaVuSans-76"/>
     <use x="408.300781" xlink:href="#DejaVuSans-61"/>
     <use x="469.580078" xlink:href="#DejaVuSans-74"/>
     <use x="508.789062" xlink:href="#DejaVuSans-69"/>
     <use x="536.572266" xlink:href="#DejaVuSans-6f"/>
     <use x="597.753906" xlink:href="#DejaVuSans-6e"/>
    </g>
   </g>
   <g id="patch_7">
    <path clip-path="url(#p85f0665fe0)" d="M 504.193938 192.648339 
L 520.033937 192.648339 
L 520.033937 176.808339 
L 504.193938 176.808339 
z
" style="fill:#f2f2f2;stroke:#cccccc;stroke-linejoin:miter;"/>
   </g>
   <g id="patch_8">
    <path clip-path="url(#p85f0665fe0)" d="M 504.193938 192.648339 
L 520.033937 192.648339 
L 520.033937 176.808339 
L 504.193938 176.808339 
z
" style="fill:#57db5f;"/>
   </g>
   <g id="text_15">
    <!-- Local -->
    <defs>
     <path d="M 9.421875 75.984375 
L 18.40625 75.984375 
L 18.40625 0 
L 9.421875 0 
z
" id="DejaVuSans-6c"/>
    </defs>
    <g transform="translate(523.033937 187.156589)scale(0.088 -0.088)">
     <use xlink:href="#DejaVuSans-4c"/>
     <use x="55.697266" xlink:href="#DejaVuSans-6f"/>
     <use x="116.878906" xlink:href="#DejaVuSans-63"/>
     <use x="171.859375" xlink:href="#DejaVuSans-61"/>
     <use x="233.138672" xlink:href="#DejaVuSans-6c"/>
    </g>
   </g>
   <g id="patch_9">
    <path clip-path="url(#p7d205c9501)" d="M 504.193938 210.488339 
L 520.033937 210.488339 
L 520.033937 194.648339 
L 504.193938 194.648339 
z
" style="fill:#f2f2f2;stroke:#cccccc;stroke-linejoin:miter;"/>
   </g>
   <g id="patch_10">
    <path clip-path="url(#p7d205c9501)" d="M 504.193938 210.488339 
L 520.033937 210.488339 
L 520.033937 194.648339 
L 504.193938 194.648339 
z
" style="fill:#5f57db;"/>
   </g>
   <g id="text_16">
    <!-- National -->
    <defs>
     <path d="M 9.8125 72.90625 
L 23.09375 72.90625 
L 55.421875 11.921875 
L 55.421875 72.90625 
L 64.984375 72.90625 
L 64.984375 0 
L 51.703125 0 
L 19.390625 60.984375 
L 19.390625 0 
L 9.8125 0 
z
" id="DejaVuSans-4e"/>
    </defs>
    <g transform="translate(523.033937 204.996589)scale(0.088 -0.088)">
     <use xlink:href="#DejaVuSans-4e"/>
     <use x="74.804688" xlink:href="#DejaVuSans-61"/>
     <use x="136.083984" xlink:href="#DejaVuSans-74"/>
     <use x="175.292969" xlink:href="#DejaVuSans-69"/>
     <use x="203.076172" xlink:href="#DejaVuSans-6f"/>
     <use x="264.257812" xlink:href="#DejaVuSans-6e"/>
     <use x="327.636719" xlink:href="#DejaVuSans-61"/>
     <use x="388.916016" xlink:href="#DejaVuSans-6c"/>
    </g>
   </g>
  </g>
  <g id="axes_2">
   <g id="patch_11">
    <path d="M 188.873938 317.605371 
L 334.313937 317.605371 
L 334.313937 40.405371 
L 188.873938 40.405371 
z
" style="fill:#ffffff;stroke:#7f7f7f;stroke-linejoin:miter;"/>
   </g>
   <g id="matplotlib.axis_3">
    <g id="xtick_11">
     <g id="line2d_41">
      <path clip-path="url(#pc82ab8d381)" d="M 210.175756 317.605371 
L 210.175756 40.405371 
" style="fill:none;stroke:#e5e5e5;stroke-linecap:square;stroke-width:0.8;"/>
     </g>
     <g id="line2d_42">
      <path d="M 210.175756 317.605371 
" style="fill:none;stroke:#000000;stroke-linecap:square;stroke-width:1.5;"/>
      <g>
       <use style="stroke:#000000;" x="210.175756" xlink:href="#md63c173b4b" y="317.605371"/>
      </g>
     </g>
     <g id="text_17">
      <!-- 1 -->
      <g style="fill:#4d4d4d;" transform="translate(207.376256 329.241996)scale(0.088 -0.088)">
       <use xlink:href="#DejaVuSans-31"/>
      </g>
     </g>
    </g>
    <g id="xtick_12">
     <g id="line2d_43">
      <path clip-path="url(#pc82ab8d381)" d="M 239.557574 317.605371 
L 239.557574 40.405371 
" style="fill:none;stroke:#e5e5e5;stroke-linecap:square;stroke-width:0.8;"/>
     </g>
     <g id="line2d_44">
      <path d="M 239.557574 317.605371 
" style="fill:none;stroke:#000000;stroke-linecap:square;stroke-width:1.5;"/>
      <g>
       <use style="stroke:#000000;" x="239.557574" xlink:href="#md63c173b4b" y="317.605371"/>
      </g>
     </g>
     <g id="text_18">
      <!-- 2 -->
      <g style="fill:#4d4d4d;" transform="translate(236.758074 329.241996)scale(0.088 -0.088)">
       <use xlink:href="#DejaVuSans-32"/>
      </g>
     </g>
    </g>
    <g id="xtick_13">
     <g id="line2d_45">
      <path clip-path="url(#pc82ab8d381)" d="M 268.939392 317.605371 
L 268.939392 40.405371 
" style="fill:none;stroke:#e5e5e5;stroke-linecap:square;stroke-width:0.8;"/>
     </g>
     <g id="line2d_46">
      <path d="M 268.939392 317.605371 
" style="fill:none;stroke:#000000;stroke-linecap:square;stroke-width:1.5;"/>
      <g>
       <use style="stroke:#000000;" x="268.939392" xlink:href="#md63c173b4b" y="317.605371"/>
      </g>
     </g>
     <g id="text_19">
      <!-- 3 -->
      <g style="fill:#4d4d4d;" transform="translate(266.139892 329.241996)scale(0.088 -0.088)">
       <use xlink:href="#DejaVuSans-33"/>
      </g>
     </g>
    </g>
    <g id="xtick_14">
     <g id="line2d_47">
      <path clip-path="url(#pc82ab8d381)" d="M 298.32121 317.605371 
L 298.32121 40.405371 
" style="fill:none;stroke:#e5e5e5;stroke-linecap:square;stroke-width:0.8;"/>
     </g>
     <g id="line2d_48">
      <path d="M 298.32121 317.605371 
" style="fill:none;stroke:#000000;stroke-linecap:square;stroke-width:1.5;"/>
      <g>
       <use style="stroke:#000000;" x="298.32121" xlink:href="#md63c173b4b" y="317.605371"/>
      </g>
     </g>
     <g id="text_20">
      <!-- 4 -->
      <g style="fill:#4d4d4d;" transform="translate(295.52171 329.241996)scale(0.088 -0.088)">
       <use xlink:href="#DejaVuSans-34"/>
      </g>
     </g>
    </g>
    <g id="xtick_15">
     <g id="line2d_49">
      <path clip-path="url(#pc82ab8d381)" d="M 327.703028 317.605371 
L 327.703028 40.405371 
" style="fill:none;stroke:#e5e5e5;stroke-linecap:square;stroke-width:0.8;"/>
     </g>
     <g id="line2d_50">
      <path d="M 327.703028 317.605371 
" style="fill:none;stroke:#000000;stroke-linecap:square;stroke-width:1.5;"/>
      <g>
       <use style="stroke:#000000;" x="327.703028" xlink:href="#md63c173b4b" y="317.605371"/>
      </g>
     </g>
     <g id="text_21">
      <!-- 5 -->
      <g style="fill:#4d4d4d;" transform="translate(324.903528 329.241996)scale(0.088 -0.088)">
       <use xlink:href="#DejaVuSans-35"/>
      </g>
     </g>
    </g>
    <g id="xtick_16">
     <g id="line2d_51">
      <path clip-path="url(#pc82ab8d381)" d="M 195.484847 317.605371 
L 195.484847 40.405371 
" style="fill:none;stroke:#fafafa;stroke-linecap:square;"/>
     </g>
     <g id="line2d_52">
      <path d="M 195.484847 317.605371 
" style="fill:none;stroke:#000000;stroke-linecap:square;stroke-width:1.5;"/>
     </g>
    </g>
    <g id="xtick_17">
     <g id="line2d_53">
      <path clip-path="url(#pc82ab8d381)" d="M 224.866665 317.605371 
L 224.866665 40.405371 
" style="fill:none;stroke:#fafafa;stroke-linecap:square;"/>
     </g>
     <g id="line2d_54">
      <path d="M 224.866665 317.605371 
" style="fill:none;stroke:#000000;stroke-linecap:square;stroke-width:1.5;"/>
     </g>
    </g>
    <g id="xtick_18">
     <g id="line2d_55">
      <path clip-path="url(#pc82ab8d381)" d="M 254.248483 317.605371 
L 254.248483 40.405371 
" style="fill:none;stroke:#fafafa;stroke-linecap:square;"/>
     </g>
     <g id="line2d_56">
      <path d="M 254.248483 317.605371 
" style="fill:none;stroke:#000000;stroke-linecap:square;stroke-width:1.5;"/>
     </g>
    </g>
    <g id="xtick_19">
     <g id="line2d_57">
      <path clip-path="url(#pc82ab8d381)" d="M 283.630301 317.605371 
L 283.630301 40.405371 
" style="fill:none;stroke:#fafafa;stroke-linecap:square;"/>
     </g>
     <g id="line2d_58">
      <path d="M 283.630301 317.605371 
" style="fill:none;stroke:#000000;stroke-linecap:square;stroke-width:1.5;"/>
     </g>
    </g>
    <g id="xtick_20">
     <g id="line2d_59">
      <path clip-path="url(#pc82ab8d381)" d="M 313.012119 317.605371 
L 313.012119 40.405371 
" style="fill:none;stroke:#fafafa;stroke-linecap:square;"/>
     </g>
     <g id="line2d_60">
      <path d="M 313.012119 317.605371 
" style="fill:none;stroke:#000000;stroke-linecap:square;stroke-width:1.5;"/>
     </g>
    </g>
   </g>
   <g id="matplotlib.axis_4">
    <g id="ytick_11">
     <g id="line2d_61">
      <path clip-path="url(#pc82ab8d381)" d="M 188.873938 317.605371 
L 334.313937 317.605371 
" style="fill:none;stroke:#e5e5e5;stroke-linecap:square;stroke-width:0.8;"/>
     </g>
    </g>
    <g id="ytick_12">
     <g id="line2d_62">
      <path clip-path="url(#pc82ab8d381)" d="M 188.873938 256.54092 
L 334.313937 256.54092 
" style="fill:none;stroke:#e5e5e5;stroke-linecap:square;stroke-width:0.8;"/>
     </g>
    </g>
    <g id="ytick_13">
     <g id="line2d_63">
      <path clip-path="url(#pc82ab8d381)" d="M 188.873938 195.476469 
L 334.313937 195.476469 
" style="fill:none;stroke:#e5e5e5;stroke-linecap:square;stroke-width:0.8;"/>
     </g>
    </g>
    <g id="ytick_14">
     <g id="line2d_64">
      <path clip-path="url(#pc82ab8d381)" d="M 188.873938 134.412018 
L 334.313937 134.412018 
" style="fill:none;stroke:#e5e5e5;stroke-linecap:square;stroke-width:0.8;"/>
     </g>
    </g>
    <g id="ytick_15">
     <g id="line2d_65">
      <path clip-path="url(#pc82ab8d381)" d="M 188.873938 73.347567 
L 334.313937 73.347567 
" style="fill:none;stroke:#e5e5e5;stroke-linecap:square;stroke-width:0.8;"/>
     </g>
    </g>
    <g id="ytick_16">
     <g id="line2d_66">
      <path clip-path="url(#pc82ab8d381)" d="M 188.873938 287.073145 
L 334.313937 287.073145 
" style="fill:none;stroke:#fafafa;stroke-linecap:square;"/>
     </g>
    </g>
    <g id="ytick_17">
     <g id="line2d_67">
      <path clip-path="url(#pc82ab8d381)" d="M 188.873938 226.008694 
L 334.313937 226.008694 
" style="fill:none;stroke:#fafafa;stroke-linecap:square;"/>
     </g>
    </g>
    <g id="ytick_18">
     <g id="line2d_68">
      <path clip-path="url(#pc82ab8d381)" d="M 188.873938 164.944244 
L 334.313937 164.944244 
" style="fill:none;stroke:#fafafa;stroke-linecap:square;"/>
     </g>
    </g>
    <g id="ytick_19">
     <g id="line2d_69">
      <path clip-path="url(#pc82ab8d381)" d="M 188.873938 103.879793 
L 334.313937 103.879793 
" style="fill:none;stroke:#fafafa;stroke-linecap:square;"/>
     </g>
    </g>
    <g id="ytick_20">
     <g id="line2d_70">
      <path clip-path="url(#pc82ab8d381)" d="M 188.873938 42.815342 
L 334.313937 42.815342 
" style="fill:none;stroke:#fafafa;stroke-linecap:square;"/>
     </g>
    </g>
   </g>
   <g id="PolyCollection_2">
    <path clip-path="url(#pc82ab8d381)" d="M 195.484847 317.605371 
L 195.484847 52.618261 
L 202.095756 52.618261 
L 202.095756 317.605371 
z
" style="fill:#5f57db;"/>
    <path clip-path="url(#pc82ab8d381)" d="M 188.873938 317.605371 
L 188.873938 317.605371 
L 195.484847 317.605371 
L 195.484847 317.605371 
z
" style="fill:#db5f57;"/>
    <path clip-path="url(#pc82ab8d381)" d="M 210.175756 317.605371 
L 210.175756 235.171054 
L 216.786665 235.171054 
L 216.786665 317.605371 
z
" style="fill:#5f57db;"/>
    <path clip-path="url(#pc82ab8d381)" d="M 203.564847 317.605371 
L 203.564847 317.605371 
L 210.175756 317.605371 
L 210.175756 317.605371 
z
" style="fill:#db5f57;"/>
    <path clip-path="url(#pc82ab8d381)" d="M 224.866665 317.605371 
L 224.866665 304.515903 
L 231.477574 304.515903 
L 231.477574 317.605371 
z
" style="fill:#5f57db;"/>
    <path clip-path="url(#pc82ab8d381)" d="M 218.255756 317.605371 
L 218.255756 317.605371 
L 224.866665 317.605371 
L 224.866665 317.605371 
z
" style="fill:#db5f57;"/>
    <path clip-path="url(#pc82ab8d381)" d="M 239.557574 317.605371 
L 239.557574 224.861151 
L 246.168483 224.861151 
L 246.168483 317.605371 
z
" style="fill:#5f57db;"/>
    <path clip-path="url(#pc82ab8d381)" d="M 232.946665 317.605371 
L 232.946665 317.605371 
L 239.557574 317.605371 
L 239.557574 317.605371 
z
" style="fill:#db5f57;"/>
    <path clip-path="url(#pc82ab8d381)" d="M 254.248483 317.605371 
L 254.248483 164.301746 
L 260.859392 164.301746 
L 260.859392 317.605371 
z
" style="fill:#5f57db;"/>
    <path clip-path="url(#pc82ab8d381)" d="M 247.637574 317.605371 
L 247.637574 317.605371 
L 254.248483 317.605371 
L 254.248483 317.605371 
z
" style="fill:#db5f57;"/>
    <path clip-path="url(#pc82ab8d381)" d="M 268.939392 317.605371 
L 268.939392 251.985146 
L 275.550301 251.985146 
L 275.550301 317.605371 
z
" style="fill:#5f57db;"/>
    <path clip-path="url(#pc82ab8d381)" d="M 262.328483 317.605371 
L 262.328483 304.219326 
L 268.939392 304.219326 
L 268.939392 317.605371 
z
" style="fill:#db5f57;"/>
    <path clip-path="url(#pc82ab8d381)" d="M 283.630301 317.605371 
L 283.630301 264.050647 
L 290.24121 264.050647 
L 290.24121 317.605371 
z
" style="fill:#5f57db;"/>
    <path clip-path="url(#pc82ab8d381)" d="M 277.019392 317.605371 
L 277.019392 225.529312 
L 283.630301 225.529312 
L 283.630301 317.605371 
z
" style="fill:#db5f57;"/>
    <path clip-path="url(#pc82ab8d381)" d="M 298.32121 317.605371 
L 298.32121 298.266269 
L 304.932119 298.266269 
L 304.932119 317.605371 
z
" style="fill:#5f57db;"/>
    <path clip-path="url(#pc82ab8d381)" d="M 291.710301 317.605371 
L 291.710301 221.289089 
L 298.32121 221.289089 
L 298.32121 317.605371 
z
" style="fill:#db5f57;"/>
    <path clip-path="url(#pc82ab8d381)" d="M 313.012119 317.605371 
L 313.012119 311.074445 
L 319.623028 311.074445 
L 319.623028 317.605371 
z
" style="fill:#5f57db;"/>
    <path clip-path="url(#pc82ab8d381)" d="M 306.40121 317.605371 
L 306.40121 287.631961 
L 313.012119 287.631961 
L 313.012119 317.605371 
z
" style="fill:#db5f57;"/>
    <path clip-path="url(#pc82ab8d381)" d="M 327.703028 317.605371 
L 327.703028 303.997115 
L 334.313937 303.997115 
L 334.313937 317.605371 
z
" style="fill:#5f57db;"/>
    <path clip-path="url(#pc82ab8d381)" d="M 321.092119 317.605371 
L 321.092119 288.212044 
L 327.703028 288.212044 
L 327.703028 317.605371 
z
" style="fill:#db5f57;"/>
   </g>
   <g id="patch_12">
    <path d="M 188.873938 40.405371 
L 334.313937 40.405371 
L 334.313937 26.306779 
L 188.873938 26.306779 
z
" style="fill:#cccccc;stroke:#7f7f7f;stroke-linejoin:miter;"/>
   </g>
   <g id="text_22">
    <!-- Dallas -->
    <g style="fill:#1a1a1a;" transform="translate(248.076312 35.784325)scale(0.088 -0.088)">
     <use xlink:href="#DejaVuSans-44"/>
     <use x="77.001953" xlink:href="#DejaVuSans-61"/>
     <use x="138.28125" xlink:href="#DejaVuSans-6c"/>
     <use x="166.064453" xlink:href="#DejaVuSans-6c"/>
     <use x="193.847656" xlink:href="#DejaVuSans-61"/>
     <use x="255.126953" xlink:href="#DejaVuSans-73"/>
    </g>
   </g>
  </g>
  <g id="axes_3">
   <g id="patch_13">
    <path d="M 339.353937 317.605371 
L 484.793937 317.605371 
L 484.793937 40.405371 
L 339.353937 40.405371 
z
" style="fill:#ffffff;stroke:#7f7f7f;stroke-linejoin:miter;"/>
   </g>
   <g id="matplotlib.axis_5">
    <g id="xtick_21">
     <g id="line2d_71">
      <path clip-path="url(#pc6da36fcec)" d="M 360.655756 317.605371 
L 360.655756 40.405371 
" style="fill:none;stroke:#e5e5e5;stroke-linecap:square;stroke-width:0.8;"/>
     </g>
     <g id="line2d_72">
      <path d="M 360.655756 317.605371 
" style="fill:none;stroke:#000000;stroke-linecap:square;stroke-width:1.5;"/>
      <g>
       <use style="stroke:#000000;" x="360.655756" xlink:href="#md63c173b4b" y="317.605371"/>
      </g>
     </g>
     <g id="text_23">
      <!-- 1 -->
      <g style="fill:#4d4d4d;" transform="translate(357.856256 329.241996)scale(0.088 -0.088)">
       <use xlink:href="#DejaVuSans-31"/>
      </g>
     </g>
    </g>
    <g id="xtick_22">
     <g id="line2d_73">
      <path clip-path="url(#pc6da36fcec)" d="M 390.037574 317.605371 
L 390.037574 40.405371 
" style="fill:none;stroke:#e5e5e5;stroke-linecap:square;stroke-width:0.8;"/>
     </g>
     <g id="line2d_74">
      <path d="M 390.037574 317.605371 
" style="fill:none;stroke:#000000;stroke-linecap:square;stroke-width:1.5;"/>
      <g>
       <use style="stroke:#000000;" x="390.037574" xlink:href="#md63c173b4b" y="317.605371"/>
      </g>
     </g>
     <g id="text_24">
      <!-- 2 -->
      <g style="fill:#4d4d4d;" transform="translate(387.238074 329.241996)scale(0.088 -0.088)">
       <use xlink:href="#DejaVuSans-32"/>
      </g>
     </g>
    </g>
    <g id="xtick_23">
     <g id="line2d_75">
      <path clip-path="url(#pc6da36fcec)" d="M 419.419392 317.605371 
L 419.419392 40.405371 
" style="fill:none;stroke:#e5e5e5;stroke-linecap:square;stroke-width:0.8;"/>
     </g>
     <g id="line2d_76">
      <path d="M 419.419392 317.605371 
" style="fill:none;stroke:#000000;stroke-linecap:square;stroke-width:1.5;"/>
      <g>
       <use style="stroke:#000000;" x="419.419392" xlink:href="#md63c173b4b" y="317.605371"/>
      </g>
     </g>
     <g id="text_25">
      <!-- 3 -->
      <g style="fill:#4d4d4d;" transform="translate(416.619892 329.241996)scale(0.088 -0.088)">
       <use xlink:href="#DejaVuSans-33"/>
      </g>
     </g>
    </g>
    <g id="xtick_24">
     <g id="line2d_77">
      <path clip-path="url(#pc6da36fcec)" d="M 448.80121 317.605371 
L 448.80121 40.405371 
" style="fill:none;stroke:#e5e5e5;stroke-linecap:square;stroke-width:0.8;"/>
     </g>
     <g id="line2d_78">
      <path d="M 448.80121 317.605371 
" style="fill:none;stroke:#000000;stroke-linecap:square;stroke-width:1.5;"/>
      <g>
       <use style="stroke:#000000;" x="448.80121" xlink:href="#md63c173b4b" y="317.605371"/>
      </g>
     </g>
     <g id="text_26">
      <!-- 4 -->
      <g style="fill:#4d4d4d;" transform="translate(446.00171 329.241996)scale(0.088 -0.088)">
       <use xlink:href="#DejaVuSans-34"/>
      </g>
     </g>
    </g>
    <g id="xtick_25">
     <g id="line2d_79">
      <path clip-path="url(#pc6da36fcec)" d="M 478.183028 317.605371 
L 478.183028 40.405371 
" style="fill:none;stroke:#e5e5e5;stroke-linecap:square;stroke-width:0.8;"/>
     </g>
     <g id="line2d_80">
      <path d="M 478.183028 317.605371 
" style="fill:none;stroke:#000000;stroke-linecap:square;stroke-width:1.5;"/>
      <g>
       <use style="stroke:#000000;" x="478.183028" xlink:href="#md63c173b4b" y="317.605371"/>
      </g>
     </g>
     <g id="text_27">
      <!-- 5 -->
      <g style="fill:#4d4d4d;" transform="translate(475.383528 329.241996)scale(0.088 -0.088)">
       <use xlink:href="#DejaVuSans-35"/>
      </g>
     </g>
    </g>
    <g id="xtick_26">
     <g id="line2d_81">
      <path clip-path="url(#pc6da36fcec)" d="M 345.964847 317.605371 
L 345.964847 40.405371 
" style="fill:none;stroke:#fafafa;stroke-linecap:square;"/>
     </g>
     <g id="line2d_82">
      <path d="M 345.964847 317.605371 
" style="fill:none;stroke:#000000;stroke-linecap:square;stroke-width:1.5;"/>
     </g>
    </g>
    <g id="xtick_27">
     <g id="line2d_83">
      <path clip-path="url(#pc6da36fcec)" d="M 375.346665 317.605371 
L 375.346665 40.405371 
" style="fill:none;stroke:#fafafa;stroke-linecap:square;"/>
     </g>
     <g id="line2d_84">
      <path d="M 375.346665 317.605371 
" style="fill:none;stroke:#000000;stroke-linecap:square;stroke-width:1.5;"/>
     </g>
    </g>
    <g id="xtick_28">
     <g id="line2d_85">
      <path clip-path="url(#pc6da36fcec)" d="M 404.728483 317.605371 
L 404.728483 40.405371 
" style="fill:none;stroke:#fafafa;stroke-linecap:square;"/>
     </g>
     <g id="line2d_86">
      <path d="M 404.728483 317.605371 
" style="fill:none;stroke:#000000;stroke-linecap:square;stroke-width:1.5;"/>
     </g>
    </g>
    <g id="xtick_29">
     <g id="line2d_87">
      <path clip-path="url(#pc6da36fcec)" d="M 434.110301 317.605371 
L 434.110301 40.405371 
" style="fill:none;stroke:#fafafa;stroke-linecap:square;"/>
     </g>
     <g id="line2d_88">
      <path d="M 434.110301 317.605371 
" style="fill:none;stroke:#000000;stroke-linecap:square;stroke-width:1.5;"/>
     </g>
    </g>
    <g id="xtick_30">
     <g id="line2d_89">
      <path clip-path="url(#pc6da36fcec)" d="M 463.492119 317.605371 
L 463.492119 40.405371 
" style="fill:none;stroke:#fafafa;stroke-linecap:square;"/>
     </g>
     <g id="line2d_90">
      <path d="M 463.492119 317.605371 
" style="fill:none;stroke:#000000;stroke-linecap:square;stroke-width:1.5;"/>
     </g>
    </g>
    <g id="text_28">
     <!-- Distance from City Center (Miles) -->
     <defs>
      <path d="M 52 44.1875 
Q 55.375 50.25 60.0625 53.125 
Q 64.75 56 71.09375 56 
Q 79.640625 56 84.28125 50.015625 
Q 88.921875 44.046875 88.921875 33.015625 
L 88.921875 0 
L 79.890625 0 
L 79.890625 32.71875 
Q 79.890625 40.578125 77.09375 44.375 
Q 74.3125 48.1875 68.609375 48.1875 
Q 61.625 48.1875 57.5625 43.546875 
Q 53.515625 38.921875 53.515625 30.90625 
L 53.515625 0 
L 44.484375 0 
L 44.484375 32.71875 
Q 44.484375 40.625 41.703125 44.40625 
Q 38.921875 48.1875 33.109375 48.1875 
Q 26.21875 48.1875 22.15625 43.53125 
Q 18.109375 38.875 18.109375 30.90625 
L 18.109375 0 
L 9.078125 0 
L 9.078125 54.6875 
L 18.109375 54.6875 
L 18.109375 46.1875 
Q 21.1875 51.21875 25.484375 53.609375 
Q 29.78125 56 35.6875 56 
Q 41.65625 56 45.828125 52.96875 
Q 50 49.953125 52 44.1875 
z
" id="DejaVuSans-6d"/>
      <path d="M 31 75.875 
Q 24.46875 64.65625 21.28125 53.65625 
Q 18.109375 42.671875 18.109375 31.390625 
Q 18.109375 20.125 21.3125 9.0625 
Q 24.515625 -2 31 -13.1875 
L 23.1875 -13.1875 
Q 15.875 -1.703125 12.234375 9.375 
Q 8.59375 20.453125 8.59375 31.390625 
Q 8.59375 42.28125 12.203125 53.3125 
Q 15.828125 64.359375 23.1875 75.875 
z
" id="DejaVuSans-28"/>
      <path d="M 9.8125 72.90625 
L 24.515625 72.90625 
L 43.109375 23.296875 
L 61.8125 72.90625 
L 76.515625 72.90625 
L 76.515625 0 
L 66.890625 0 
L 66.890625 64.015625 
L 48.09375 14.015625 
L 38.1875 14.015625 
L 19.390625 64.015625 
L 19.390625 0 
L 9.8125 0 
z
" id="DejaVuSans-4d"/>
      <path d="M 8.015625 75.875 
L 15.828125 75.875 
Q 23.140625 64.359375 26.78125 53.3125 
Q 30.421875 42.28125 30.421875 31.390625 
Q 30.421875 20.453125 26.78125 9.375 
Q 23.140625 -1.703125 15.828125 -13.1875 
L 8.015625 -13.1875 
Q 14.5 -2 17.703125 9.0625 
Q 20.90625 20.125 20.90625 31.390625 
Q 20.90625 42.671875 17.703125 53.65625 
Q 14.5 64.65625 8.015625 75.875 
z
" id="DejaVuSans-29"/>
     </defs>
     <g transform="translate(162.800891 343.830402)scale(0.11 -0.11)">
      <use xlink:href="#DejaVuSans-44"/>
      <use x="77.001953" xlink:href="#DejaVuSans-69"/>
      <use x="104.785156" xlink:href="#DejaVuSans-73"/>
      <use x="156.884766" xlink:href="#DejaVuSans-74"/>
      <use x="196.09375" xlink:href="#DejaVuSans-61"/>
      <use x="257.373047" xlink:href="#DejaVuSans-6e"/>
      <use x="320.751953" xlink:href="#DejaVuSans-63"/>
      <use x="375.732422" xlink:href="#DejaVuSans-65"/>
      <use x="437.255859" xlink:href="#DejaVuSans-20"/>
      <use x="469.042969" xlink:href="#DejaVuSans-66"/>
      <use x="504.248047" xlink:href="#DejaVuSans-72"/>
      <use x="545.330078" xlink:href="#DejaVuSans-6f"/>
      <use x="606.511719" xlink:href="#DejaVuSans-6d"/>
      <use x="703.923828" xlink:href="#DejaVuSans-20"/>
      <use x="735.710938" xlink:href="#DejaVuSans-43"/>
      <use x="805.535156" xlink:href="#DejaVuSans-69"/>
      <use x="833.318359" xlink:href="#DejaVuSans-74"/>
      <use x="872.527344" xlink:href="#DejaVuSans-79"/>
      <use x="931.707031" xlink:href="#DejaVuSans-20"/>
      <use x="963.494141" xlink:href="#DejaVuSans-43"/>
      <use x="1033.318359" xlink:href="#DejaVuSans-65"/>
      <use x="1094.841797" xlink:href="#DejaVuSans-6e"/>
      <use x="1158.220703" xlink:href="#DejaVuSans-74"/>
      <use x="1197.429688" xlink:href="#DejaVuSans-65"/>
      <use x="1258.953125" xlink:href="#DejaVuSans-72"/>
      <use x="1300.066406" xlink:href="#DejaVuSans-20"/>
      <use x="1331.853516" xlink:href="#DejaVuSans-28"/>
      <use x="1370.867188" xlink:href="#DejaVuSans-4d"/>
      <use x="1457.146484" xlink:href="#DejaVuSans-69"/>
      <use x="1484.929688" xlink:href="#DejaVuSans-6c"/>
      <use x="1512.712891" xlink:href="#DejaVuSans-65"/>
      <use x="1574.236328" xlink:href="#DejaVuSans-73"/>
      <use x="1626.335938" xlink:href="#DejaVuSans-29"/>
     </g>
    </g>
   </g>
   <g id="matplotlib.axis_6">
    <g id="ytick_21">
     <g id="line2d_91">
      <path clip-path="url(#pc6da36fcec)" d="M 339.353937 317.605371 
L 484.793937 317.605371 
" style="fill:none;stroke:#e5e5e5;stroke-linecap:square;stroke-width:0.8;"/>
     </g>
    </g>
    <g id="ytick_22">
     <g id="line2d_92">
      <path clip-path="url(#pc6da36fcec)" d="M 339.353937 256.54092 
L 484.793937 256.54092 
" style="fill:none;stroke:#e5e5e5;stroke-linecap:square;stroke-width:0.8;"/>
     </g>
    </g>
    <g id="ytick_23">
     <g id="line2d_93">
      <path clip-path="url(#pc6da36fcec)" d="M 339.353937 195.476469 
L 484.793937 195.476469 
" style="fill:none;stroke:#e5e5e5;stroke-linecap:square;stroke-width:0.8;"/>
     </g>
    </g>
    <g id="ytick_24">
     <g id="line2d_94">
      <path clip-path="url(#pc6da36fcec)" d="M 339.353937 134.412018 
L 484.793937 134.412018 
" style="fill:none;stroke:#e5e5e5;stroke-linecap:square;stroke-width:0.8;"/>
     </g>
    </g>
    <g id="ytick_25">
     <g id="line2d_95">
      <path clip-path="url(#pc6da36fcec)" d="M 339.353937 73.347567 
L 484.793937 73.347567 
" style="fill:none;stroke:#e5e5e5;stroke-linecap:square;stroke-width:0.8;"/>
     </g>
    </g>
    <g id="ytick_26">
     <g id="line2d_96">
      <path clip-path="url(#pc6da36fcec)" d="M 339.353937 287.073145 
L 484.793937 287.073145 
" style="fill:none;stroke:#fafafa;stroke-linecap:square;"/>
     </g>
    </g>
    <g id="ytick_27">
     <g id="line2d_97">
      <path clip-path="url(#pc6da36fcec)" d="M 339.353937 226.008694 
L 484.793937 226.008694 
" style="fill:none;stroke:#fafafa;stroke-linecap:square;"/>
     </g>
    </g>
    <g id="ytick_28">
     <g id="line2d_98">
      <path clip-path="url(#pc6da36fcec)" d="M 339.353937 164.944244 
L 484.793937 164.944244 
" style="fill:none;stroke:#fafafa;stroke-linecap:square;"/>
     </g>
    </g>
    <g id="ytick_29">
     <g id="line2d_99">
      <path clip-path="url(#pc6da36fcec)" d="M 339.353937 103.879793 
L 484.793937 103.879793 
" style="fill:none;stroke:#fafafa;stroke-linecap:square;"/>
     </g>
    </g>
    <g id="ytick_30">
     <g id="line2d_100">
      <path clip-path="url(#pc6da36fcec)" d="M 339.353937 42.815342 
L 484.793937 42.815342 
" style="fill:none;stroke:#fafafa;stroke-linecap:square;"/>
     </g>
    </g>
   </g>
   <g id="PolyCollection_3">
    <path clip-path="url(#pc6da36fcec)" d="M 345.964847 317.605371 
L 345.964847 202.642277 
L 352.575756 202.642277 
L 352.575756 317.605371 
z
" style="fill:#5f57db;"/>
    <path clip-path="url(#pc6da36fcec)" d="M 339.353937 317.605371 
L 339.353937 292.698777 
L 345.964847 292.698777 
L 345.964847 317.605371 
z
" style="fill:#57db5f;"/>
    <path clip-path="url(#pc6da36fcec)" d="M 360.655756 317.605371 
L 360.655756 170.439321 
L 367.266665 170.439321 
L 367.266665 317.605371 
z
" style="fill:#5f57db;"/>
    <path clip-path="url(#pc6da36fcec)" d="M 354.044847 317.605371 
L 354.044847 253.389899 
L 360.655756 253.389899 
L 360.655756 317.605371 
z
" style="fill:#57db5f;"/>
    <path clip-path="url(#pc6da36fcec)" d="M 375.346665 317.605371 
L 375.346665 276.709856 
L 381.957574 276.709856 
L 381.957574 317.605371 
z
" style="fill:#5f57db;"/>
    <path clip-path="url(#pc6da36fcec)" d="M 368.735756 317.605371 
L 368.735756 294.992704 
L 375.346665 294.992704 
L 375.346665 317.605371 
z
" style="fill:#57db5f;"/>
    <path clip-path="url(#pc6da36fcec)" d="M 390.037574 317.605371 
L 390.037574 302.660764 
L 396.648483 302.660764 
L 396.648483 317.605371 
z
" style="fill:#5f57db;"/>
    <path clip-path="url(#pc6da36fcec)" d="M 383.426665 317.605371 
L 383.426665 230.552066 
L 390.037574 230.552066 
L 390.037574 317.605371 
z
" style="fill:#57db5f;"/>
    <path clip-path="url(#pc6da36fcec)" d="M 404.728483 317.605371 
L 404.728483 313.904313 
L 411.339392 313.904313 
L 411.339392 317.605371 
z
" style="fill:#5f57db;"/>
    <path clip-path="url(#pc6da36fcec)" d="M 398.117574 317.605371 
L 398.117574 252.801031 
L 404.728483 252.801031 
L 404.728483 317.605371 
z
" style="fill:#57db5f;"/>
    <path clip-path="url(#pc6da36fcec)" d="M 419.419392 317.605371 
L 419.419392 302.98309 
L 426.030301 302.98309 
L 426.030301 317.605371 
z
" style="fill:#5f57db;"/>
    <path clip-path="url(#pc6da36fcec)" d="M 412.808483 317.605371 
L 412.808483 254.440335 
L 419.419392 254.440335 
L 419.419392 317.605371 
z
" style="fill:#57db5f;"/>
    <path clip-path="url(#pc6da36fcec)" d="M 434.110301 317.605371 
L 434.110301 307.060141 
L 440.72121 307.060141 
L 440.72121 317.605371 
z
" style="fill:#5f57db;"/>
    <path clip-path="url(#pc6da36fcec)" d="M 427.499392 317.605371 
L 427.499392 278.498496 
L 434.110301 278.498496 
L 434.110301 317.605371 
z
" style="fill:#57db5f;"/>
    <path clip-path="url(#pc6da36fcec)" d="M 448.80121 317.605371 
L 448.80121 317.257323 
L 455.412119 317.257323 
L 455.412119 317.605371 
z
" style="fill:#5f57db;"/>
    <path clip-path="url(#pc6da36fcec)" d="M 442.190301 317.605371 
L 442.190301 317.605371 
L 448.80121 317.605371 
L 448.80121 317.605371 
z
" style="fill:#57db5f;"/>
    <path clip-path="url(#pc6da36fcec)" d="M 463.492119 317.605371 
L 463.492119 305.617477 
L 470.103028 305.617477 
L 470.103028 317.605371 
z
" style="fill:#5f57db;"/>
    <path clip-path="url(#pc6da36fcec)" d="M 456.88121 317.605371 
L 456.88121 317.082501 
L 463.492119 317.082501 
L 463.492119 317.605371 
z
" style="fill:#57db5f;"/>
    <path clip-path="url(#pc6da36fcec)" d="M 478.183028 317.605371 
L 478.183028 311.080129 
L 484.793937 311.080129 
L 484.793937 317.605371 
z
" style="fill:#5f57db;"/>
    <path clip-path="url(#pc6da36fcec)" d="M 471.572119 317.605371 
L 471.572119 317.605371 
L 478.183028 317.605371 
L 478.183028 317.605371 
z
" style="fill:#57db5f;"/>
   </g>
   <g id="patch_14">
    <path d="M 339.353937 40.405371 
L 484.793937 40.405371 
L 484.793937 26.306779 
L 339.353937 26.306779 
z
" style="fill:#cccccc;stroke:#7f7f7f;stroke-linejoin:miter;"/>
   </g>
   <g id="text_29">
    <!-- Houston -->
    <g style="fill:#1a1a1a;" transform="translate(393.786437 35.784325)scale(0.088 -0.088)">
     <use xlink:href="#DejaVuSans-48"/>
     <use x="75.195312" xlink:href="#DejaVuSans-6f"/>
     <use x="136.376953" xlink:href="#DejaVuSans-75"/>
     <use x="199.755859" xlink:href="#DejaVuSans-73"/>
     <use x="251.855469" xlink:href="#DejaVuSans-74"/>
     <use x="291.064453" xlink:href="#DejaVuSans-6f"/>
     <use x="352.246094" xlink:href="#DejaVuSans-6e"/>
    </g>
   </g>
  </g>
  <g id="text_30">
   <!-- Locations of Historic Districts in Austin, Dallas, and Houston -->
   <defs>
    <path d="M 11.71875 12.40625 
L 22.015625 12.40625 
L 22.015625 4 
L 14.015625 -11.625 
L 7.71875 -11.625 
L 11.71875 4 
z
" id="DejaVuSans-2c"/>
   </defs>
   <g transform="translate(56.528 17.229937)scale(0.132 -0.132)">
    <use xlink:href="#DejaVuSans-4c"/>
    <use x="55.697266" xlink:href="#DejaVuSans-6f"/>
    <use x="116.878906" xlink:href="#DejaVuSans-63"/>
    <use x="171.859375" xlink:href="#DejaVuSans-61"/>
    <use x="233.138672" xlink:href="#DejaVuSans-74"/>
    <use x="272.347656" xlink:href="#DejaVuSans-69"/>
    <use x="300.130859" xlink:href="#DejaVuSans-6f"/>
    <use x="361.3125" xlink:href="#DejaVuSans-6e"/>
    <use x="424.691406" xlink:href="#DejaVuSans-73"/>
    <use x="476.791016" xlink:href="#DejaVuSans-20"/>
    <use x="508.578125" xlink:href="#DejaVuSans-6f"/>
    <use x="569.759766" xlink:href="#DejaVuSans-66"/>
    <use x="604.964844" xlink:href="#DejaVuSans-20"/>
    <use x="636.751953" xlink:href="#DejaVuSans-48"/>
    <use x="711.947266" xlink:href="#DejaVuSans-69"/>
    <use x="739.730469" xlink:href="#DejaVuSans-73"/>
    <use x="791.830078" xlink:href="#DejaVuSans-74"/>
    <use x="831.039062" xlink:href="#DejaVuSans-6f"/>
    <use x="892.220703" xlink:href="#DejaVuSans-72"/>
    <use x="933.333984" xlink:href="#DejaVuSans-69"/>
    <use x="961.117188" xlink:href="#DejaVuSans-63"/>
    <use x="1016.097656" xlink:href="#DejaVuSans-20"/>
    <use x="1047.884766" xlink:href="#DejaVuSans-44"/>
    <use x="1124.886719" xlink:href="#DejaVuSans-69"/>
    <use x="1152.669922" xlink:href="#DejaVuSans-73"/>
    <use x="1204.769531" xlink:href="#DejaVuSans-74"/>
    <use x="1243.978516" xlink:href="#DejaVuSans-72"/>
    <use x="1285.091797" xlink:href="#DejaVuSans-69"/>
    <use x="1312.875" xlink:href="#DejaVuSans-63"/>
    <use x="1367.855469" xlink:href="#DejaVuSans-74"/>
    <use x="1407.064453" xlink:href="#DejaVuSans-73"/>
    <use x="1459.164062" xlink:href="#DejaVuSans-20"/>
    <use x="1490.951172" xlink:href="#DejaVuSans-69"/>
    <use x="1518.734375" xlink:href="#DejaVuSans-6e"/>
    <use x="1582.113281" xlink:href="#DejaVuSans-20"/>
    <use x="1613.900391" xlink:href="#DejaVuSans-41"/>
    <use x="1682.308594" xlink:href="#DejaVuSans-75"/>
    <use x="1745.6875" xlink:href="#DejaVuSans-73"/>
    <use x="1797.787109" xlink:href="#DejaVuSans-74"/>
    <use x="1836.996094" xlink:href="#DejaVuSans-69"/>
    <use x="1864.779297" xlink:href="#DejaVuSans-6e"/>
    <use x="1928.158203" xlink:href="#DejaVuSans-2c"/>
    <use x="1959.945312" xlink:href="#DejaVuSans-20"/>
    <use x="1991.732422" xlink:href="#DejaVuSans-44"/>
    <use x="2068.734375" xlink:href="#DejaVuSans-61"/>
    <use x="2130.013672" xlink:href="#DejaVuSans-6c"/>
    <use x="2157.796875" xlink:href="#DejaVuSans-6c"/>
    <use x="2185.580078" xlink:href="#DejaVuSans-61"/>
    <use x="2246.859375" xlink:href="#DejaVuSans-73"/>
    <use x="2298.958984" xlink:href="#DejaVuSans-2c"/>
    <use x="2330.746094" xlink:href="#DejaVuSans-20"/>
    <use x="2362.533203" xlink:href="#DejaVuSans-61"/>
    <use x="2423.8125" xlink:href="#DejaVuSans-6e"/>
    <use x="2487.191406" xlink:href="#DejaVuSans-64"/>
    <use x="2550.667969" xlink:href="#DejaVuSans-20"/>
    <use x="2582.455078" xlink:href="#DejaVuSans-48"/>
    <use x="2657.650391" xlink:href="#DejaVuSans-6f"/>
    <use x="2718.832031" xlink:href="#DejaVuSans-75"/>
    <use x="2782.210938" xlink:href="#DejaVuSans-73"/>
    <use x="2834.310547" xlink:href="#DejaVuSans-74"/>
    <use x="2873.519531" xlink:href="#DejaVuSans-6f"/>
    <use x="2934.701172" xlink:href="#DejaVuSans-6e"/>
   </g>
  </g>
 </g>
 <defs>
  <clipPath id="p20de2df5af">
   <rect height="277.2" width="145.44" x="38.393938" y="40.405371"/>
  </clipPath>
  <clipPath id="p56eff3ddd4">
   <path d="M 504.193938 174.808339 
L 504.193938 158.968339 
L 520.033937 158.968339 
L 520.033937 174.808339 
"/>
  </clipPath>
  <clipPath id="p85f0665fe0">
   <path d="M 504.193938 192.648339 
L 504.193938 176.808339 
L 520.033937 176.808339 
L 520.033937 192.648339 
"/>
  </clipPath>
  <clipPath id="p7d205c9501">
   <path d="M 504.193938 210.488339 
L 504.193938 194.648339 
L 520.033937 194.648339 
L 520.033937 210.488339 
"/>
  </clipPath>
  <clipPath id="pc82ab8d381">
   <rect height="277.2" width="145.44" x="188.873938" y="40.405371"/>
  </clipPath>
  <clipPath id="pc6da36fcec">
   <rect height="277.2" width="145.44" x="339.353937" y="40.405371"/>
  </clipPath>
 </defs>
</svg>
