<?xml version="1.0" encoding="utf-8" standalone="no"?>
<!DOCTYPE svg PUBLIC "-//W3C//DTD SVG 1.1//EN"
  "http://www.w3.org/Graphics/SVG/1.1/DTD/svg11.dtd">
<!-- Created with matplotlib (http://matplotlib.org/) -->
<svg height="505pt" version="1.1" viewBox="0 0 690 505" width="690pt" xmlns="http://www.w3.org/2000/svg" xmlns:xlink="http://www.w3.org/1999/xlink">
 <defs>
  <style type="text/css">
*{stroke-linecap:butt;stroke-linejoin:round;}
  </style>
 </defs>
 <g id="figure_1">
  <g id="patch_1">
   <path d="M 0 505.338058 
L 690.608937 505.338058 
L 690.608937 0 
L 0 0 
z
" style="fill:#ffffff;stroke:#ffffff;stroke-linejoin:miter;"/>
  </g>
  <g id="axes_1">
   <g id="patch_2">
    <path d="M 38.393938 469.625371 
L 596.393937 469.625371 
L 596.393937 26.105371 
L 38.393938 26.105371 
z
" style="fill:#ebebeb;"/>
   </g>
   <g id="matplotlib.axis_1">
    <g id="xtick_1">
     <g id="line2d_1">
      <path clip-path="url(#p958ae58299)" d="M 163.674929 469.625371 
L 163.674929 26.105371 
" style="fill:none;stroke:#ffffff;"/>
     </g>
     <g id="line2d_2">
      <path d="M 163.674929 469.625371 
" style="fill:none;stroke:#333333;stroke-width:1.5;"/>
      <defs>
       <path d="M 0 0 
L 0 2.75 
" id="maf638fc094" style="stroke:#333333;"/>
      </defs>
      <g>
       <use style="fill:#333333;stroke:#333333;" x="163.674929" xlink:href="#maf638fc094" y="469.625371"/>
      </g>
     </g>
     <g id="text_1">
      <!-- 2.5 -->
      <defs>
       <path d="M 19.1875 8.296875 
L 53.609375 8.296875 
L 53.609375 0 
L 7.328125 0 
L 7.328125 8.296875 
Q 12.9375 14.109375 22.625 23.890625 
Q 32.328125 33.6875 34.8125 36.53125 
Q 39.546875 41.84375 41.421875 45.53125 
Q 43.3125 49.21875 43.3125 52.78125 
Q 43.3125 58.59375 39.234375 62.25 
Q 35.15625 65.921875 28.609375 65.921875 
Q 23.96875 65.921875 18.8125 64.3125 
Q 13.671875 62.703125 7.8125 59.421875 
L 7.8125 69.390625 
Q 13.765625 71.78125 18.9375 73 
Q 24.125 74.21875 28.421875 74.21875 
Q 39.75 74.21875 46.484375 68.546875 
Q 53.21875 62.890625 53.21875 53.421875 
Q 53.21875 48.921875 51.53125 44.890625 
Q 49.859375 40.875 45.40625 35.40625 
Q 44.1875 33.984375 37.640625 27.21875 
Q 31.109375 20.453125 19.1875 8.296875 
z
" id="DejaVuSans-32"/>
       <path d="M 10.6875 12.40625 
L 21 12.40625 
L 21 0 
L 10.6875 0 
z
" id="DejaVuSans-2e"/>
       <path d="M 10.796875 72.90625 
L 49.515625 72.90625 
L 49.515625 64.59375 
L 19.828125 64.59375 
L 19.828125 46.734375 
Q 21.96875 47.46875 24.109375 47.828125 
Q 26.265625 48.1875 28.421875 48.1875 
Q 40.625 48.1875 47.75 41.5 
Q 54.890625 34.8125 54.890625 23.390625 
Q 54.890625 11.625 47.5625 5.09375 
Q 40.234375 -1.421875 26.90625 -1.421875 
Q 22.3125 -1.421875 17.546875 -0.640625 
Q 12.796875 0.140625 7.71875 1.703125 
L 7.71875 11.625 
Q 12.109375 9.234375 16.796875 8.0625 
Q 21.484375 6.890625 26.703125 6.890625 
Q 35.15625 6.890625 40.078125 11.328125 
Q 45.015625 15.765625 45.015625 23.390625 
Q 45.015625 31 40.078125 35.4375 
Q 35.15625 39.890625 26.703125 39.890625 
Q 22.75 39.890625 18.8125 39.015625 
Q 14.890625 38.140625 10.796875 36.28125 
z
" id="DejaVuSans-35"/>
      </defs>
      <g style="fill:#4d4d4d;" transform="translate(156.677554 481.261996)scale(0.088 -0.088)">
       <use xlink:href="#DejaVuSans-32"/>
       <use x="63.623047" xlink:href="#DejaVuSans-2e"/>
       <use x="95.410156" xlink:href="#DejaVuSans-35"/>
      </g>
     </g>
    </g>
    <g id="xtick_2">
     <g id="line2d_3">
      <path clip-path="url(#p958ae58299)" d="M 291.774103 469.625371 
L 291.774103 26.105371 
" style="fill:none;stroke:#ffffff;"/>
     </g>
     <g id="line2d_4">
      <path d="M 291.774103 469.625371 
" style="fill:none;stroke:#333333;stroke-width:1.5;"/>
      <g>
       <use style="fill:#333333;stroke:#333333;" x="291.774103" xlink:href="#maf638fc094" y="469.625371"/>
      </g>
     </g>
     <g id="text_2">
      <!-- 5 -->
      <g style="fill:#4d4d4d;" transform="translate(288.974603 481.261996)scale(0.088 -0.088)">
       <use xlink:href="#DejaVuSans-35"/>
      </g>
     </g>
    </g>
    <g id="xtick_3">
     <g id="line2d_5">
      <path clip-path="url(#p958ae58299)" d="M 419.873276 469.625371 
L 419.873276 26.105371 
" style="fill:none;stroke:#ffffff;"/>
     </g>
     <g id="line2d_6">
      <path d="M 419.873276 469.625371 
" style="fill:none;stroke:#333333;stroke-width:1.5;"/>
      <g>
       <use style="fill:#333333;stroke:#333333;" x="419.873276" xlink:href="#maf638fc094" y="469.625371"/>
      </g>
     </g>
     <g id="text_3">
      <!-- 7.5 -->
      <defs>
       <path d="M 8.203125 72.90625 
L 55.078125 72.90625 
L 55.078125 68.703125 
L 28.609375 0 
L 18.3125 0 
L 43.21875 64.59375 
L 8.203125 64.59375 
z
" id="DejaVuSans-37"/>
      </defs>
      <g style="fill:#4d4d4d;" transform="translate(412.875901 481.261996)scale(0.088 -0.088)">
       <use xlink:href="#DejaVuSans-37"/>
       <use x="63.623047" xlink:href="#DejaVuSans-2e"/>
       <use x="95.410156" xlink:href="#DejaVuSans-35"/>
      </g>
     </g>
    </g>
    <g id="xtick_4">
     <g id="line2d_7">
      <path clip-path="url(#p958ae58299)" d="M 547.97245 469.625371 
L 547.97245 26.105371 
" style="fill:none;stroke:#ffffff;"/>
     </g>
     <g id="line2d_8">
      <path d="M 547.97245 469.625371 
" style="fill:none;stroke:#333333;stroke-width:1.5;"/>
      <g>
       <use style="fill:#333333;stroke:#333333;" x="547.97245" xlink:href="#maf638fc094" y="469.625371"/>
      </g>
     </g>
     <g id="text_4">
      <!-- 10 -->
      <defs>
       <path d="M 12.40625 8.296875 
L 28.515625 8.296875 
L 28.515625 63.921875 
L 10.984375 60.40625 
L 10.984375 69.390625 
L 28.421875 72.90625 
L 38.28125 72.90625 
L 38.28125 8.296875 
L 54.390625 8.296875 
L 54.390625 0 
L 12.40625 0 
z
" id="DejaVuSans-31"/>
       <path d="M 31.78125 66.40625 
Q 24.171875 66.40625 20.328125 58.90625 
Q 16.5 51.421875 16.5 36.375 
Q 16.5 21.390625 20.328125 13.890625 
Q 24.171875 6.390625 31.78125 6.390625 
Q 39.453125 6.390625 43.28125 13.890625 
Q 47.125 21.390625 47.125 36.375 
Q 47.125 51.421875 43.28125 58.90625 
Q 39.453125 66.40625 31.78125 66.40625 
z
M 31.78125 74.21875 
Q 44.046875 74.21875 50.515625 64.515625 
Q 56.984375 54.828125 56.984375 36.375 
Q 56.984375 17.96875 50.515625 8.265625 
Q 44.046875 -1.421875 31.78125 -1.421875 
Q 19.53125 -1.421875 13.0625 8.265625 
Q 6.59375 17.96875 6.59375 36.375 
Q 6.59375 54.828125 13.0625 64.515625 
Q 19.53125 74.21875 31.78125 74.21875 
z
" id="DejaVuSans-30"/>
      </defs>
      <g style="fill:#4d4d4d;" transform="translate(542.37345 481.261996)scale(0.088 -0.088)">
       <use xlink:href="#DejaVuSans-31"/>
       <use x="63.623047" xlink:href="#DejaVuSans-30"/>
      </g>
     </g>
    </g>
    <g id="xtick_5">
     <g id="line2d_9">
      <path clip-path="url(#p958ae58299)" d="M 99.625342 469.625371 
L 99.625342 26.105371 
" style="fill:none;stroke:#ffffff;stroke-width:0.5;"/>
     </g>
     <g id="line2d_10">
      <path d="M 99.625342 469.625371 
" style="fill:none;stroke:#333333;stroke-width:1.5;"/>
     </g>
    </g>
    <g id="xtick_6">
     <g id="line2d_11">
      <path clip-path="url(#p958ae58299)" d="M 227.724516 469.625371 
L 227.724516 26.105371 
" style="fill:none;stroke:#ffffff;stroke-width:0.5;"/>
     </g>
     <g id="line2d_12">
      <path d="M 227.724516 469.625371 
" style="fill:none;stroke:#333333;stroke-width:1.5;"/>
     </g>
    </g>
    <g id="xtick_7">
     <g id="line2d_13">
      <path clip-path="url(#p958ae58299)" d="M 355.82369 469.625371 
L 355.82369 26.105371 
" style="fill:none;stroke:#ffffff;stroke-width:0.5;"/>
     </g>
     <g id="line2d_14">
      <path d="M 355.82369 469.625371 
" style="fill:none;stroke:#333333;stroke-width:1.5;"/>
     </g>
    </g>
    <g id="xtick_8">
     <g id="line2d_15">
      <path clip-path="url(#p958ae58299)" d="M 483.922863 469.625371 
L 483.922863 26.105371 
" style="fill:none;stroke:#ffffff;stroke-width:0.5;"/>
     </g>
     <g id="line2d_16">
      <path d="M 483.922863 469.625371 
" style="fill:none;stroke:#333333;stroke-width:1.5;"/>
     </g>
    </g>
    <g id="text_5">
     <!-- Distance from City Center -->
     <defs>
      <path d="M 19.671875 64.796875 
L 19.671875 8.109375 
L 31.59375 8.109375 
Q 46.6875 8.109375 53.6875 14.9375 
Q 60.6875 21.78125 60.6875 36.53125 
Q 60.6875 51.171875 53.6875 57.984375 
Q 46.6875 64.796875 31.59375 64.796875 
z
M 9.8125 72.90625 
L 30.078125 72.90625 
Q 51.265625 72.90625 61.171875 64.09375 
Q 71.09375 55.28125 71.09375 36.53125 
Q 71.09375 17.671875 61.125 8.828125 
Q 51.171875 0 30.078125 0 
L 9.8125 0 
z
" id="DejaVuSans-44"/>
      <path d="M 9.421875 54.6875 
L 18.40625 54.6875 
L 18.40625 0 
L 9.421875 0 
z
M 9.421875 75.984375 
L 18.40625 75.984375 
L 18.40625 64.59375 
L 9.421875 64.59375 
z
" id="DejaVuSans-69"/>
      <path d="M 44.28125 53.078125 
L 44.28125 44.578125 
Q 40.484375 46.53125 36.375 47.5 
Q 32.28125 48.484375 27.875 48.484375 
Q 21.1875 48.484375 17.84375 46.4375 
Q 14.5 44.390625 14.5 40.28125 
Q 14.5 37.15625 16.890625 35.375 
Q 19.28125 33.59375 26.515625 31.984375 
L 29.59375 31.296875 
Q 39.15625 29.25 43.1875 25.515625 
Q 47.21875 21.78125 47.21875 15.09375 
Q 47.21875 7.46875 41.1875 3.015625 
Q 35.15625 -1.421875 24.609375 -1.421875 
Q 20.21875 -1.421875 15.453125 -0.5625 
Q 10.6875 0.296875 5.421875 2 
L 5.421875 11.28125 
Q 10.40625 8.6875 15.234375 7.390625 
Q 20.0625 6.109375 24.8125 6.109375 
Q 31.15625 6.109375 34.5625 8.28125 
Q 37.984375 10.453125 37.984375 14.40625 
Q 37.984375 18.0625 35.515625 20.015625 
Q 33.0625 21.96875 24.703125 23.78125 
L 21.578125 24.515625 
Q 13.234375 26.265625 9.515625 29.90625 
Q 5.8125 33.546875 5.8125 39.890625 
Q 5.8125 47.609375 11.28125 51.796875 
Q 16.75 56 26.8125 56 
Q 31.78125 56 36.171875 55.265625 
Q 40.578125 54.546875 44.28125 53.078125 
z
" id="DejaVuSans-73"/>
      <path d="M 18.3125 70.21875 
L 18.3125 54.6875 
L 36.8125 54.6875 
L 36.8125 47.703125 
L 18.3125 47.703125 
L 18.3125 18.015625 
Q 18.3125 11.328125 20.140625 9.421875 
Q 21.96875 7.515625 27.59375 7.515625 
L 36.8125 7.515625 
L 36.8125 0 
L 27.59375 0 
Q 17.1875 0 13.234375 3.875 
Q 9.28125 7.765625 9.28125 18.015625 
L 9.28125 47.703125 
L 2.6875 47.703125 
L 2.6875 54.6875 
L 9.28125 54.6875 
L 9.28125 70.21875 
z
" id="DejaVuSans-74"/>
      <path d="M 34.28125 27.484375 
Q 23.390625 27.484375 19.1875 25 
Q 14.984375 22.515625 14.984375 16.5 
Q 14.984375 11.71875 18.140625 8.90625 
Q 21.296875 6.109375 26.703125 6.109375 
Q 34.1875 6.109375 38.703125 11.40625 
Q 43.21875 16.703125 43.21875 25.484375 
L 43.21875 27.484375 
z
M 52.203125 31.203125 
L 52.203125 0 
L 43.21875 0 
L 43.21875 8.296875 
Q 40.140625 3.328125 35.546875 0.953125 
Q 30.953125 -1.421875 24.3125 -1.421875 
Q 15.921875 -1.421875 10.953125 3.296875 
Q 6 8.015625 6 15.921875 
Q 6 25.140625 12.171875 29.828125 
Q 18.359375 34.515625 30.609375 34.515625 
L 43.21875 34.515625 
L 43.21875 35.40625 
Q 43.21875 41.609375 39.140625 45 
Q 35.0625 48.390625 27.6875 48.390625 
Q 23 48.390625 18.546875 47.265625 
Q 14.109375 46.140625 10.015625 43.890625 
L 10.015625 52.203125 
Q 14.9375 54.109375 19.578125 55.046875 
Q 24.21875 56 28.609375 56 
Q 40.484375 56 46.34375 49.84375 
Q 52.203125 43.703125 52.203125 31.203125 
z
" id="DejaVuSans-61"/>
      <path d="M 54.890625 33.015625 
L 54.890625 0 
L 45.90625 0 
L 45.90625 32.71875 
Q 45.90625 40.484375 42.875 44.328125 
Q 39.84375 48.1875 33.796875 48.1875 
Q 26.515625 48.1875 22.3125 43.546875 
Q 18.109375 38.921875 18.109375 30.90625 
L 18.109375 0 
L 9.078125 0 
L 9.078125 54.6875 
L 18.109375 54.6875 
L 18.109375 46.1875 
Q 21.34375 51.125 25.703125 53.5625 
Q 30.078125 56 35.796875 56 
Q 45.21875 56 50.046875 50.171875 
Q 54.890625 44.34375 54.890625 33.015625 
z
" id="DejaVuSans-6e"/>
      <path d="M 48.78125 52.59375 
L 48.78125 44.1875 
Q 44.96875 46.296875 41.140625 47.34375 
Q 37.3125 48.390625 33.40625 48.390625 
Q 24.65625 48.390625 19.8125 42.84375 
Q 14.984375 37.3125 14.984375 27.296875 
Q 14.984375 17.28125 19.8125 11.734375 
Q 24.65625 6.203125 33.40625 6.203125 
Q 37.3125 6.203125 41.140625 7.25 
Q 44.96875 8.296875 48.78125 10.40625 
L 48.78125 2.09375 
Q 45.015625 0.34375 40.984375 -0.53125 
Q 36.96875 -1.421875 32.421875 -1.421875 
Q 20.0625 -1.421875 12.78125 6.34375 
Q 5.515625 14.109375 5.515625 27.296875 
Q 5.515625 40.671875 12.859375 48.328125 
Q 20.21875 56 33.015625 56 
Q 37.15625 56 41.109375 55.140625 
Q 45.0625 54.296875 48.78125 52.59375 
z
" id="DejaVuSans-63"/>
      <path d="M 56.203125 29.59375 
L 56.203125 25.203125 
L 14.890625 25.203125 
Q 15.484375 15.921875 20.484375 11.0625 
Q 25.484375 6.203125 34.421875 6.203125 
Q 39.59375 6.203125 44.453125 7.46875 
Q 49.3125 8.734375 54.109375 11.28125 
L 54.109375 2.78125 
Q 49.265625 0.734375 44.1875 -0.34375 
Q 39.109375 -1.421875 33.890625 -1.421875 
Q 20.796875 -1.421875 13.15625 6.1875 
Q 5.515625 13.8125 5.515625 26.8125 
Q 5.515625 40.234375 12.765625 48.109375 
Q 20.015625 56 32.328125 56 
Q 43.359375 56 49.78125 48.890625 
Q 56.203125 41.796875 56.203125 29.59375 
z
M 47.21875 32.234375 
Q 47.125 39.59375 43.09375 43.984375 
Q 39.0625 48.390625 32.421875 48.390625 
Q 24.90625 48.390625 20.390625 44.140625 
Q 15.875 39.890625 15.1875 32.171875 
z
" id="DejaVuSans-65"/>
      <path id="DejaVuSans-20"/>
      <path d="M 37.109375 75.984375 
L 37.109375 68.5 
L 28.515625 68.5 
Q 23.6875 68.5 21.796875 66.546875 
Q 19.921875 64.59375 19.921875 59.515625 
L 19.921875 54.6875 
L 34.71875 54.6875 
L 34.71875 47.703125 
L 19.921875 47.703125 
L 19.921875 0 
L 10.890625 0 
L 10.890625 47.703125 
L 2.296875 47.703125 
L 2.296875 54.6875 
L 10.890625 54.6875 
L 10.890625 58.5 
Q 10.890625 67.625 15.140625 71.796875 
Q 19.390625 75.984375 28.609375 75.984375 
z
" id="DejaVuSans-66"/>
      <path d="M 41.109375 46.296875 
Q 39.59375 47.171875 37.8125 47.578125 
Q 36.03125 48 33.890625 48 
Q 26.265625 48 22.1875 43.046875 
Q 18.109375 38.09375 18.109375 28.8125 
L 18.109375 0 
L 9.078125 0 
L 9.078125 54.6875 
L 18.109375 54.6875 
L 18.109375 46.1875 
Q 20.953125 51.171875 25.484375 53.578125 
Q 30.03125 56 36.53125 56 
Q 37.453125 56 38.578125 55.875 
Q 39.703125 55.765625 41.0625 55.515625 
z
" id="DejaVuSans-72"/>
      <path d="M 30.609375 48.390625 
Q 23.390625 48.390625 19.1875 42.75 
Q 14.984375 37.109375 14.984375 27.296875 
Q 14.984375 17.484375 19.15625 11.84375 
Q 23.34375 6.203125 30.609375 6.203125 
Q 37.796875 6.203125 41.984375 11.859375 
Q 46.1875 17.53125 46.1875 27.296875 
Q 46.1875 37.015625 41.984375 42.703125 
Q 37.796875 48.390625 30.609375 48.390625 
z
M 30.609375 56 
Q 42.328125 56 49.015625 48.375 
Q 55.71875 40.765625 55.71875 27.296875 
Q 55.71875 13.875 49.015625 6.21875 
Q 42.328125 -1.421875 30.609375 -1.421875 
Q 18.84375 -1.421875 12.171875 6.21875 
Q 5.515625 13.875 5.515625 27.296875 
Q 5.515625 40.765625 12.171875 48.375 
Q 18.84375 56 30.609375 56 
z
" id="DejaVuSans-6f"/>
      <path d="M 52 44.1875 
Q 55.375 50.25 60.0625 53.125 
Q 64.75 56 71.09375 56 
Q 79.640625 56 84.28125 50.015625 
Q 88.921875 44.046875 88.921875 33.015625 
L 88.921875 0 
L 79.890625 0 
L 79.890625 32.71875 
Q 79.890625 40.578125 77.09375 44.375 
Q 74.3125 48.1875 68.609375 48.1875 
Q 61.625 48.1875 57.5625 43.546875 
Q 53.515625 38.921875 53.515625 30.90625 
L 53.515625 0 
L 44.484375 0 
L 44.484375 32.71875 
Q 44.484375 40.625 41.703125 44.40625 
Q 38.921875 48.1875 33.109375 48.1875 
Q 26.21875 48.1875 22.15625 43.53125 
Q 18.109375 38.875 18.109375 30.90625 
L 18.109375 0 
L 9.078125 0 
L 9.078125 54.6875 
L 18.109375 54.6875 
L 18.109375 46.1875 
Q 21.1875 51.21875 25.484375 53.609375 
Q 29.78125 56 35.6875 56 
Q 41.65625 56 45.828125 52.96875 
Q 50 49.953125 52 44.1875 
z
" id="DejaVuSans-6d"/>
      <path d="M 64.40625 67.28125 
L 64.40625 56.890625 
Q 59.421875 61.53125 53.78125 63.8125 
Q 48.140625 66.109375 41.796875 66.109375 
Q 29.296875 66.109375 22.65625 58.46875 
Q 16.015625 50.828125 16.015625 36.375 
Q 16.015625 21.96875 22.65625 14.328125 
Q 29.296875 6.6875 41.796875 6.6875 
Q 48.140625 6.6875 53.78125 8.984375 
Q 59.421875 11.28125 64.40625 15.921875 
L 64.40625 5.609375 
Q 59.234375 2.09375 53.4375 0.328125 
Q 47.65625 -1.421875 41.21875 -1.421875 
Q 24.65625 -1.421875 15.125 8.703125 
Q 5.609375 18.84375 5.609375 36.375 
Q 5.609375 53.953125 15.125 64.078125 
Q 24.65625 74.21875 41.21875 74.21875 
Q 47.75 74.21875 53.53125 72.484375 
Q 59.328125 70.75 64.40625 67.28125 
z
" id="DejaVuSans-43"/>
      <path d="M 32.171875 -5.078125 
Q 28.375 -14.84375 24.75 -17.8125 
Q 21.140625 -20.796875 15.09375 -20.796875 
L 7.90625 -20.796875 
L 7.90625 -13.28125 
L 13.1875 -13.28125 
Q 16.890625 -13.28125 18.9375 -11.515625 
Q 21 -9.765625 23.484375 -3.21875 
L 25.09375 0.875 
L 2.984375 54.6875 
L 12.5 54.6875 
L 29.59375 11.921875 
L 46.6875 54.6875 
L 56.203125 54.6875 
z
" id="DejaVuSans-79"/>
     </defs>
     <g transform="translate(236.891359 495.850402)scale(0.11 -0.11)">
      <use xlink:href="#DejaVuSans-44"/>
      <use x="77.001953" xlink:href="#DejaVuSans-69"/>
      <use x="104.785156" xlink:href="#DejaVuSans-73"/>
      <use x="156.884766" xlink:href="#DejaVuSans-74"/>
      <use x="196.09375" xlink:href="#DejaVuSans-61"/>
      <use x="257.373047" xlink:href="#DejaVuSans-6e"/>
      <use x="320.751953" xlink:href="#DejaVuSans-63"/>
      <use x="375.732422" xlink:href="#DejaVuSans-65"/>
      <use x="437.255859" xlink:href="#DejaVuSans-20"/>
      <use x="469.042969" xlink:href="#DejaVuSans-66"/>
      <use x="504.248047" xlink:href="#DejaVuSans-72"/>
      <use x="545.330078" xlink:href="#DejaVuSans-6f"/>
      <use x="606.511719" xlink:href="#DejaVuSans-6d"/>
      <use x="703.923828" xlink:href="#DejaVuSans-20"/>
      <use x="735.710938" xlink:href="#DejaVuSans-43"/>
      <use x="805.535156" xlink:href="#DejaVuSans-69"/>
      <use x="833.318359" xlink:href="#DejaVuSans-74"/>
      <use x="872.527344" xlink:href="#DejaVuSans-79"/>
      <use x="931.707031" xlink:href="#DejaVuSans-20"/>
      <use x="963.494141" xlink:href="#DejaVuSans-43"/>
      <use x="1033.318359" xlink:href="#DejaVuSans-65"/>
      <use x="1094.841797" xlink:href="#DejaVuSans-6e"/>
      <use x="1158.220703" xlink:href="#DejaVuSans-74"/>
      <use x="1197.429688" xlink:href="#DejaVuSans-65"/>
      <use x="1258.953125" xlink:href="#DejaVuSans-72"/>
     </g>
    </g>
   </g>
   <g id="matplotlib.axis_2">
    <g id="ytick_1">
     <g id="line2d_17">
      <path clip-path="url(#p958ae58299)" d="M 38.393938 449.465371 
L 596.393937 449.465371 
" style="fill:none;stroke:#ffffff;"/>
     </g>
     <g id="line2d_18">
      <path d="M 38.393938 449.465371 
" style="fill:none;stroke:#333333;stroke-width:1.5;"/>
      <defs>
       <path d="M 0 0 
L -2.75 0 
" id="m4f6816767d" style="stroke:#333333;"/>
      </defs>
      <g>
       <use style="fill:#333333;stroke:#333333;" x="38.393938" xlink:href="#m4f6816767d" y="449.465371"/>
      </g>
     </g>
     <g id="text_6">
      <!-- 0 -->
      <g style="fill:#4d4d4d;" transform="translate(27.844938 451.893621)scale(0.088 -0.088)">
       <use xlink:href="#DejaVuSans-30"/>
      </g>
     </g>
    </g>
    <g id="ytick_2">
     <g id="line2d_19">
      <path clip-path="url(#p958ae58299)" d="M 38.393938 352.193715 
L 596.393937 352.193715 
" style="fill:none;stroke:#ffffff;"/>
     </g>
     <g id="line2d_20">
      <path d="M 38.393938 352.193715 
" style="fill:none;stroke:#333333;stroke-width:1.5;"/>
      <g>
       <use style="fill:#333333;stroke:#333333;" x="38.393938" xlink:href="#m4f6816767d" y="352.193715"/>
      </g>
     </g>
     <g id="text_7">
      <!-- 20 -->
      <g style="fill:#4d4d4d;" transform="translate(22.245938 354.621965)scale(0.088 -0.088)">
       <use xlink:href="#DejaVuSans-32"/>
       <use x="63.623047" xlink:href="#DejaVuSans-30"/>
      </g>
     </g>
    </g>
    <g id="ytick_3">
     <g id="line2d_21">
      <path clip-path="url(#p958ae58299)" d="M 38.393938 254.922059 
L 596.393937 254.922059 
" style="fill:none;stroke:#ffffff;"/>
     </g>
     <g id="line2d_22">
      <path d="M 38.393938 254.922059 
" style="fill:none;stroke:#333333;stroke-width:1.5;"/>
      <g>
       <use style="fill:#333333;stroke:#333333;" x="38.393938" xlink:href="#m4f6816767d" y="254.922059"/>
      </g>
     </g>
     <g id="text_8">
      <!-- 40 -->
      <defs>
       <path d="M 37.796875 64.3125 
L 12.890625 25.390625 
L 37.796875 25.390625 
z
M 35.203125 72.90625 
L 47.609375 72.90625 
L 47.609375 25.390625 
L 58.015625 25.390625 
L 58.015625 17.1875 
L 47.609375 17.1875 
L 47.609375 0 
L 37.796875 0 
L 37.796875 17.1875 
L 4.890625 17.1875 
L 4.890625 26.703125 
z
" id="DejaVuSans-34"/>
      </defs>
      <g style="fill:#4d4d4d;" transform="translate(22.245938 257.350309)scale(0.088 -0.088)">
       <use xlink:href="#DejaVuSans-34"/>
       <use x="63.623047" xlink:href="#DejaVuSans-30"/>
      </g>
     </g>
    </g>
    <g id="ytick_4">
     <g id="line2d_23">
      <path clip-path="url(#p958ae58299)" d="M 38.393938 157.650403 
L 596.393937 157.650403 
" style="fill:none;stroke:#ffffff;"/>
     </g>
     <g id="line2d_24">
      <path d="M 38.393938 157.650403 
" style="fill:none;stroke:#333333;stroke-width:1.5;"/>
      <g>
       <use style="fill:#333333;stroke:#333333;" x="38.393938" xlink:href="#m4f6816767d" y="157.650403"/>
      </g>
     </g>
     <g id="text_9">
      <!-- 60 -->
      <defs>
       <path d="M 33.015625 40.375 
Q 26.375 40.375 22.484375 35.828125 
Q 18.609375 31.296875 18.609375 23.390625 
Q 18.609375 15.53125 22.484375 10.953125 
Q 26.375 6.390625 33.015625 6.390625 
Q 39.65625 6.390625 43.53125 10.953125 
Q 47.40625 15.53125 47.40625 23.390625 
Q 47.40625 31.296875 43.53125 35.828125 
Q 39.65625 40.375 33.015625 40.375 
z
M 52.59375 71.296875 
L 52.59375 62.3125 
Q 48.875 64.0625 45.09375 64.984375 
Q 41.3125 65.921875 37.59375 65.921875 
Q 27.828125 65.921875 22.671875 59.328125 
Q 17.53125 52.734375 16.796875 39.40625 
Q 19.671875 43.65625 24.015625 45.921875 
Q 28.375 48.1875 33.59375 48.1875 
Q 44.578125 48.1875 50.953125 41.515625 
Q 57.328125 34.859375 57.328125 23.390625 
Q 57.328125 12.15625 50.6875 5.359375 
Q 44.046875 -1.421875 33.015625 -1.421875 
Q 20.359375 -1.421875 13.671875 8.265625 
Q 6.984375 17.96875 6.984375 36.375 
Q 6.984375 53.65625 15.1875 63.9375 
Q 23.390625 74.21875 37.203125 74.21875 
Q 40.921875 74.21875 44.703125 73.484375 
Q 48.484375 72.75 52.59375 71.296875 
z
" id="DejaVuSans-36"/>
      </defs>
      <g style="fill:#4d4d4d;" transform="translate(22.245938 160.078653)scale(0.088 -0.088)">
       <use xlink:href="#DejaVuSans-36"/>
       <use x="63.623047" xlink:href="#DejaVuSans-30"/>
      </g>
     </g>
    </g>
    <g id="ytick_5">
     <g id="line2d_25">
      <path clip-path="url(#p958ae58299)" d="M 38.393938 60.378747 
L 596.393937 60.378747 
" style="fill:none;stroke:#ffffff;"/>
     </g>
     <g id="line2d_26">
      <path d="M 38.393938 60.378747 
" style="fill:none;stroke:#333333;stroke-width:1.5;"/>
      <g>
       <use style="fill:#333333;stroke:#333333;" x="38.393938" xlink:href="#m4f6816767d" y="60.378747"/>
      </g>
     </g>
     <g id="text_10">
      <!-- 80 -->
      <defs>
       <path d="M 31.78125 34.625 
Q 24.75 34.625 20.71875 30.859375 
Q 16.703125 27.09375 16.703125 20.515625 
Q 16.703125 13.921875 20.71875 10.15625 
Q 24.75 6.390625 31.78125 6.390625 
Q 38.8125 6.390625 42.859375 10.171875 
Q 46.921875 13.96875 46.921875 20.515625 
Q 46.921875 27.09375 42.890625 30.859375 
Q 38.875 34.625 31.78125 34.625 
z
M 21.921875 38.8125 
Q 15.578125 40.375 12.03125 44.71875 
Q 8.5 49.078125 8.5 55.328125 
Q 8.5 64.0625 14.71875 69.140625 
Q 20.953125 74.21875 31.78125 74.21875 
Q 42.671875 74.21875 48.875 69.140625 
Q 55.078125 64.0625 55.078125 55.328125 
Q 55.078125 49.078125 51.53125 44.71875 
Q 48 40.375 41.703125 38.8125 
Q 48.828125 37.15625 52.796875 32.3125 
Q 56.78125 27.484375 56.78125 20.515625 
Q 56.78125 9.90625 50.3125 4.234375 
Q 43.84375 -1.421875 31.78125 -1.421875 
Q 19.734375 -1.421875 13.25 4.234375 
Q 6.78125 9.90625 6.78125 20.515625 
Q 6.78125 27.484375 10.78125 32.3125 
Q 14.796875 37.15625 21.921875 38.8125 
z
M 18.3125 54.390625 
Q 18.3125 48.734375 21.84375 45.5625 
Q 25.390625 42.390625 31.78125 42.390625 
Q 38.140625 42.390625 41.71875 45.5625 
Q 45.3125 48.734375 45.3125 54.390625 
Q 45.3125 60.0625 41.71875 63.234375 
Q 38.140625 66.40625 31.78125 66.40625 
Q 25.390625 66.40625 21.84375 63.234375 
Q 18.3125 60.0625 18.3125 54.390625 
z
" id="DejaVuSans-38"/>
      </defs>
      <g style="fill:#4d4d4d;" transform="translate(22.245938 62.806997)scale(0.088 -0.088)">
       <use xlink:href="#DejaVuSans-38"/>
       <use x="63.623047" xlink:href="#DejaVuSans-30"/>
      </g>
     </g>
    </g>
    <g id="ytick_6">
     <g id="line2d_27">
      <path clip-path="url(#p958ae58299)" d="M 38.393938 400.829543 
L 596.393937 400.829543 
" style="fill:none;stroke:#ffffff;stroke-width:0.5;"/>
     </g>
     <g id="line2d_28">
      <path d="M 38.393938 400.829543 
" style="fill:none;stroke:#333333;stroke-width:1.5;"/>
     </g>
    </g>
    <g id="ytick_7">
     <g id="line2d_29">
      <path clip-path="url(#p958ae58299)" d="M 38.393938 303.557887 
L 596.393937 303.557887 
" style="fill:none;stroke:#ffffff;stroke-width:0.5;"/>
     </g>
     <g id="line2d_30">
      <path d="M 38.393938 303.557887 
" style="fill:none;stroke:#333333;stroke-width:1.5;"/>
     </g>
    </g>
    <g id="ytick_8">
     <g id="line2d_31">
      <path clip-path="url(#p958ae58299)" d="M 38.393938 206.286231 
L 596.393937 206.286231 
" style="fill:none;stroke:#ffffff;stroke-width:0.5;"/>
     </g>
     <g id="line2d_32">
      <path d="M 38.393938 206.286231 
" style="fill:none;stroke:#333333;stroke-width:1.5;"/>
     </g>
    </g>
    <g id="ytick_9">
     <g id="line2d_33">
      <path clip-path="url(#p958ae58299)" d="M 38.393938 109.014575 
L 596.393937 109.014575 
" style="fill:none;stroke:#ffffff;stroke-width:0.5;"/>
     </g>
     <g id="line2d_34">
      <path d="M 38.393938 109.014575 
" style="fill:none;stroke:#333333;stroke-width:1.5;"/>
     </g>
    </g>
    <g id="text_11">
     <!-- Simple Mean of Undeveloped Percentage of SF Lots -->
     <defs>
      <path d="M 53.515625 70.515625 
L 53.515625 60.890625 
Q 47.90625 63.578125 42.921875 64.890625 
Q 37.9375 66.21875 33.296875 66.21875 
Q 25.25 66.21875 20.875 63.09375 
Q 16.5 59.96875 16.5 54.203125 
Q 16.5 49.359375 19.40625 46.890625 
Q 22.3125 44.4375 30.421875 42.921875 
L 36.375 41.703125 
Q 47.40625 39.59375 52.65625 34.296875 
Q 57.90625 29 57.90625 20.125 
Q 57.90625 9.515625 50.796875 4.046875 
Q 43.703125 -1.421875 29.984375 -1.421875 
Q 24.8125 -1.421875 18.96875 -0.25 
Q 13.140625 0.921875 6.890625 3.21875 
L 6.890625 13.375 
Q 12.890625 10.015625 18.65625 8.296875 
Q 24.421875 6.59375 29.984375 6.59375 
Q 38.421875 6.59375 43.015625 9.90625 
Q 47.609375 13.234375 47.609375 19.390625 
Q 47.609375 24.75 44.3125 27.78125 
Q 41.015625 30.8125 33.5 32.328125 
L 27.484375 33.5 
Q 16.453125 35.6875 11.515625 40.375 
Q 6.59375 45.0625 6.59375 53.421875 
Q 6.59375 63.09375 13.40625 68.65625 
Q 20.21875 74.21875 32.171875 74.21875 
Q 37.3125 74.21875 42.625 73.28125 
Q 47.953125 72.359375 53.515625 70.515625 
z
" id="DejaVuSans-53"/>
      <path d="M 18.109375 8.203125 
L 18.109375 -20.796875 
L 9.078125 -20.796875 
L 9.078125 54.6875 
L 18.109375 54.6875 
L 18.109375 46.390625 
Q 20.953125 51.265625 25.265625 53.625 
Q 29.59375 56 35.59375 56 
Q 45.5625 56 51.78125 48.09375 
Q 58.015625 40.1875 58.015625 27.296875 
Q 58.015625 14.40625 51.78125 6.484375 
Q 45.5625 -1.421875 35.59375 -1.421875 
Q 29.59375 -1.421875 25.265625 0.953125 
Q 20.953125 3.328125 18.109375 8.203125 
z
M 48.6875 27.296875 
Q 48.6875 37.203125 44.609375 42.84375 
Q 40.53125 48.484375 33.40625 48.484375 
Q 26.265625 48.484375 22.1875 42.84375 
Q 18.109375 37.203125 18.109375 27.296875 
Q 18.109375 17.390625 22.1875 11.75 
Q 26.265625 6.109375 33.40625 6.109375 
Q 40.53125 6.109375 44.609375 11.75 
Q 48.6875 17.390625 48.6875 27.296875 
z
" id="DejaVuSans-70"/>
      <path d="M 9.421875 75.984375 
L 18.40625 75.984375 
L 18.40625 0 
L 9.421875 0 
z
" id="DejaVuSans-6c"/>
      <path d="M 9.8125 72.90625 
L 24.515625 72.90625 
L 43.109375 23.296875 
L 61.8125 72.90625 
L 76.515625 72.90625 
L 76.515625 0 
L 66.890625 0 
L 66.890625 64.015625 
L 48.09375 14.015625 
L 38.1875 14.015625 
L 19.390625 64.015625 
L 19.390625 0 
L 9.8125 0 
z
" id="DejaVuSans-4d"/>
      <path d="M 8.6875 72.90625 
L 18.609375 72.90625 
L 18.609375 28.609375 
Q 18.609375 16.890625 22.84375 11.734375 
Q 27.09375 6.59375 36.625 6.59375 
Q 46.09375 6.59375 50.34375 11.734375 
Q 54.59375 16.890625 54.59375 28.609375 
L 54.59375 72.90625 
L 64.5 72.90625 
L 64.5 27.390625 
Q 64.5 13.140625 57.4375 5.859375 
Q 50.390625 -1.421875 36.625 -1.421875 
Q 22.796875 -1.421875 15.734375 5.859375 
Q 8.6875 13.140625 8.6875 27.390625 
z
" id="DejaVuSans-55"/>
      <path d="M 45.40625 46.390625 
L 45.40625 75.984375 
L 54.390625 75.984375 
L 54.390625 0 
L 45.40625 0 
L 45.40625 8.203125 
Q 42.578125 3.328125 38.25 0.953125 
Q 33.9375 -1.421875 27.875 -1.421875 
Q 17.96875 -1.421875 11.734375 6.484375 
Q 5.515625 14.40625 5.515625 27.296875 
Q 5.515625 40.1875 11.734375 48.09375 
Q 17.96875 56 27.875 56 
Q 33.9375 56 38.25 53.625 
Q 42.578125 51.265625 45.40625 46.390625 
z
M 14.796875 27.296875 
Q 14.796875 17.390625 18.875 11.75 
Q 22.953125 6.109375 30.078125 6.109375 
Q 37.203125 6.109375 41.296875 11.75 
Q 45.40625 17.390625 45.40625 27.296875 
Q 45.40625 37.203125 41.296875 42.84375 
Q 37.203125 48.484375 30.078125 48.484375 
Q 22.953125 48.484375 18.875 42.84375 
Q 14.796875 37.203125 14.796875 27.296875 
z
" id="DejaVuSans-64"/>
      <path d="M 2.984375 54.6875 
L 12.5 54.6875 
L 29.59375 8.796875 
L 46.6875 54.6875 
L 56.203125 54.6875 
L 35.6875 0 
L 23.484375 0 
z
" id="DejaVuSans-76"/>
      <path d="M 19.671875 64.796875 
L 19.671875 37.40625 
L 32.078125 37.40625 
Q 38.96875 37.40625 42.71875 40.96875 
Q 46.484375 44.53125 46.484375 51.125 
Q 46.484375 57.671875 42.71875 61.234375 
Q 38.96875 64.796875 32.078125 64.796875 
z
M 9.8125 72.90625 
L 32.078125 72.90625 
Q 44.34375 72.90625 50.609375 67.359375 
Q 56.890625 61.8125 56.890625 51.125 
Q 56.890625 40.328125 50.609375 34.8125 
Q 44.34375 29.296875 32.078125 29.296875 
L 19.671875 29.296875 
L 19.671875 0 
L 9.8125 0 
z
" id="DejaVuSans-50"/>
      <path d="M 45.40625 27.984375 
Q 45.40625 37.75 41.375 43.109375 
Q 37.359375 48.484375 30.078125 48.484375 
Q 22.859375 48.484375 18.828125 43.109375 
Q 14.796875 37.75 14.796875 27.984375 
Q 14.796875 18.265625 18.828125 12.890625 
Q 22.859375 7.515625 30.078125 7.515625 
Q 37.359375 7.515625 41.375 12.890625 
Q 45.40625 18.265625 45.40625 27.984375 
z
M 54.390625 6.78125 
Q 54.390625 -7.171875 48.1875 -13.984375 
Q 42 -20.796875 29.203125 -20.796875 
Q 24.46875 -20.796875 20.265625 -20.09375 
Q 16.0625 -19.390625 12.109375 -17.921875 
L 12.109375 -9.1875 
Q 16.0625 -11.328125 19.921875 -12.34375 
Q 23.78125 -13.375 27.78125 -13.375 
Q 36.625 -13.375 41.015625 -8.765625 
Q 45.40625 -4.15625 45.40625 5.171875 
L 45.40625 9.625 
Q 42.625 4.78125 38.28125 2.390625 
Q 33.9375 0 27.875 0 
Q 17.828125 0 11.671875 7.65625 
Q 5.515625 15.328125 5.515625 27.984375 
Q 5.515625 40.671875 11.671875 48.328125 
Q 17.828125 56 27.875 56 
Q 33.9375 56 38.28125 53.609375 
Q 42.625 51.21875 45.40625 46.390625 
L 45.40625 54.6875 
L 54.390625 54.6875 
z
" id="DejaVuSans-67"/>
      <path d="M 9.8125 72.90625 
L 51.703125 72.90625 
L 51.703125 64.59375 
L 19.671875 64.59375 
L 19.671875 43.109375 
L 48.578125 43.109375 
L 48.578125 34.8125 
L 19.671875 34.8125 
L 19.671875 0 
L 9.8125 0 
z
" id="DejaVuSans-46"/>
      <path d="M 9.8125 72.90625 
L 19.671875 72.90625 
L 19.671875 8.296875 
L 55.171875 8.296875 
L 55.171875 0 
L 9.8125 0 
z
" id="DejaVuSans-4c"/>
     </defs>
     <g transform="translate(15.558281 387.236855)rotate(-90)scale(0.11 -0.11)">
      <use xlink:href="#DejaVuSans-53"/>
      <use x="63.476562" xlink:href="#DejaVuSans-69"/>
      <use x="91.259766" xlink:href="#DejaVuSans-6d"/>
      <use x="188.671875" xlink:href="#DejaVuSans-70"/>
      <use x="252.148438" xlink:href="#DejaVuSans-6c"/>
      <use x="279.931641" xlink:href="#DejaVuSans-65"/>
      <use x="341.455078" xlink:href="#DejaVuSans-20"/>
      <use x="373.242188" xlink:href="#DejaVuSans-4d"/>
      <use x="459.521484" xlink:href="#DejaVuSans-65"/>
      <use x="521.044922" xlink:href="#DejaVuSans-61"/>
      <use x="582.324219" xlink:href="#DejaVuSans-6e"/>
      <use x="645.703125" xlink:href="#DejaVuSans-20"/>
      <use x="677.490234" xlink:href="#DejaVuSans-6f"/>
      <use x="738.671875" xlink:href="#DejaVuSans-66"/>
      <use x="773.876953" xlink:href="#DejaVuSans-20"/>
      <use x="805.664062" xlink:href="#DejaVuSans-55"/>
      <use x="878.857422" xlink:href="#DejaVuSans-6e"/>
      <use x="942.236328" xlink:href="#DejaVuSans-64"/>
      <use x="1005.712891" xlink:href="#DejaVuSans-65"/>
      <use x="1067.236328" xlink:href="#DejaVuSans-76"/>
      <use x="1126.416016" xlink:href="#DejaVuSans-65"/>
      <use x="1187.939453" xlink:href="#DejaVuSans-6c"/>
      <use x="1215.722656" xlink:href="#DejaVuSans-6f"/>
      <use x="1276.904297" xlink:href="#DejaVuSans-70"/>
      <use x="1340.380859" xlink:href="#DejaVuSans-65"/>
      <use x="1401.904297" xlink:href="#DejaVuSans-64"/>
      <use x="1465.380859" xlink:href="#DejaVuSans-20"/>
      <use x="1497.167969" xlink:href="#DejaVuSans-50"/>
      <use x="1557.423828" xlink:href="#DejaVuSans-65"/>
      <use x="1618.947266" xlink:href="#DejaVuSans-72"/>
      <use x="1660.029297" xlink:href="#DejaVuSans-63"/>
      <use x="1715.009766" xlink:href="#DejaVuSans-65"/>
      <use x="1776.533203" xlink:href="#DejaVuSans-6e"/>
      <use x="1839.912109" xlink:href="#DejaVuSans-74"/>
      <use x="1879.121094" xlink:href="#DejaVuSans-61"/>
      <use x="1940.400391" xlink:href="#DejaVuSans-67"/>
      <use x="2003.876953" xlink:href="#DejaVuSans-65"/>
      <use x="2065.400391" xlink:href="#DejaVuSans-20"/>
      <use x="2097.1875" xlink:href="#DejaVuSans-6f"/>
      <use x="2158.369141" xlink:href="#DejaVuSans-66"/>
      <use x="2193.574219" xlink:href="#DejaVuSans-20"/>
      <use x="2225.361328" xlink:href="#DejaVuSans-53"/>
      <use x="2288.837891" xlink:href="#DejaVuSans-46"/>
      <use x="2346.357422" xlink:href="#DejaVuSans-20"/>
      <use x="2378.144531" xlink:href="#DejaVuSans-4c"/>
      <use x="2433.841797" xlink:href="#DejaVuSans-6f"/>
      <use x="2495.023438" xlink:href="#DejaVuSans-74"/>
      <use x="2534.232422" xlink:href="#DejaVuSans-73"/>
     </g>
    </g>
   </g>
   <g id="PolyCollection_1">
    <path clip-path="url(#p958ae58299)" d="M 94.501376 449.465371 
L 94.501376 341.156647 
L 109.873276 341.156647 
L 109.873276 449.465371 
z
" style="fill:#5f57db;"/>
    <path clip-path="url(#p958ae58299)" d="M 79.129475 449.465371 
L 79.129475 135.645117 
L 94.501376 135.645117 
L 94.501376 449.465371 
z
" style="fill:#57db5f;"/>
    <path clip-path="url(#p958ae58299)" d="M 63.757574 449.465371 
L 63.757574 90.461855 
L 79.129475 90.461855 
L 79.129475 449.465371 
z
" style="fill:#db5f57;"/>
    <path clip-path="url(#p958ae58299)" d="M 145.741045 449.465371 
L 145.741045 291.239226 
L 161.112946 291.239226 
L 161.112946 449.465371 
z
" style="fill:#5f57db;"/>
    <path clip-path="url(#p958ae58299)" d="M 130.369144 449.465371 
L 130.369144 110.842713 
L 145.741045 110.842713 
L 145.741045 449.465371 
z
" style="fill:#57db5f;"/>
    <path clip-path="url(#p958ae58299)" d="M 114.997243 449.465371 
L 114.997243 75.341006 
L 130.369144 75.341006 
L 130.369144 449.465371 
z
" style="fill:#db5f57;"/>
    <path clip-path="url(#p958ae58299)" d="M 196.980714 449.465371 
L 196.980714 212.948247 
L 212.352615 212.948247 
L 212.352615 449.465371 
z
" style="fill:#5f57db;"/>
    <path clip-path="url(#p958ae58299)" d="M 181.608814 449.465371 
L 181.608814 64.224538 
L 196.980714 64.224538 
L 196.980714 449.465371 
z
" style="fill:#57db5f;"/>
    <path clip-path="url(#p958ae58299)" d="M 166.236913 449.465371 
L 166.236913 72.387646 
L 181.608814 72.387646 
L 181.608814 449.465371 
z
" style="fill:#db5f57;"/>
    <path clip-path="url(#p958ae58299)" d="M 248.220384 449.465371 
L 248.220384 170.848697 
L 263.592285 170.848697 
L 263.592285 449.465371 
z
" style="fill:#5f57db;"/>
    <path clip-path="url(#p958ae58299)" d="M 232.848483 449.465371 
L 232.848483 77.506836 
L 248.220384 77.506836 
L 248.220384 449.465371 
z
" style="fill:#57db5f;"/>
    <path clip-path="url(#p958ae58299)" d="M 217.476582 449.465371 
L 217.476582 67.684168 
L 232.848483 67.684168 
L 232.848483 449.465371 
z
" style="fill:#db5f57;"/>
    <path clip-path="url(#p958ae58299)" d="M 299.460053 449.465371 
L 299.460053 122.84419 
L 314.831954 122.84419 
L 314.831954 449.465371 
z
" style="fill:#5f57db;"/>
    <path clip-path="url(#p958ae58299)" d="M 284.088152 449.465371 
L 284.088152 65.939828 
L 299.460053 65.939828 
L 299.460053 449.465371 
z
" style="fill:#57db5f;"/>
    <path clip-path="url(#p958ae58299)" d="M 268.716252 449.465371 
L 268.716252 46.265371 
L 284.088152 46.265371 
L 284.088152 449.465371 
z
" style="fill:#db5f57;"/>
    <path clip-path="url(#p958ae58299)" d="M 350.699723 449.465371 
L 350.699723 98.227194 
L 366.071623 98.227194 
L 366.071623 449.465371 
z
" style="fill:#5f57db;"/>
    <path clip-path="url(#p958ae58299)" d="M 335.327822 449.465371 
L 335.327822 64.807209 
L 350.699723 64.807209 
L 350.699723 449.465371 
z
" style="fill:#57db5f;"/>
    <path clip-path="url(#p958ae58299)" d="M 319.955921 449.465371 
L 319.955921 56.506762 
L 335.327822 56.506762 
L 335.327822 449.465371 
z
" style="fill:#db5f57;"/>
    <path clip-path="url(#p958ae58299)" d="M 401.939392 449.465371 
L 401.939392 95.996408 
L 417.311293 95.996408 
L 417.311293 449.465371 
z
" style="fill:#5f57db;"/>
    <path clip-path="url(#p958ae58299)" d="M 386.567491 449.465371 
L 386.567491 51.533235 
L 401.939392 51.533235 
L 401.939392 449.465371 
z
" style="fill:#57db5f;"/>
    <path clip-path="url(#p958ae58299)" d="M 371.19559 449.465371 
L 371.19559 55.383027 
L 386.567491 55.383027 
L 386.567491 449.465371 
z
" style="fill:#db5f57;"/>
    <path clip-path="url(#p958ae58299)" d="M 453.179061 449.465371 
L 453.179061 90.713144 
L 468.550962 90.713144 
L 468.550962 449.465371 
z
" style="fill:#5f57db;"/>
    <path clip-path="url(#p958ae58299)" d="M 437.807161 449.465371 
L 437.807161 52.488591 
L 453.179061 52.488591 
L 453.179061 449.465371 
z
" style="fill:#57db5f;"/>
    <path clip-path="url(#p958ae58299)" d="M 422.43526 449.465371 
L 422.43526 67.49007 
L 437.807161 67.49007 
L 437.807161 449.465371 
z
" style="fill:#db5f57;"/>
    <path clip-path="url(#p958ae58299)" d="M 504.418731 449.465371 
L 504.418731 73.030385 
L 519.790632 73.030385 
L 519.790632 449.465371 
z
" style="fill:#5f57db;"/>
    <path clip-path="url(#p958ae58299)" d="M 489.04683 449.465371 
L 489.04683 56.477525 
L 504.418731 56.477525 
L 504.418731 449.465371 
z
" style="fill:#57db5f;"/>
    <path clip-path="url(#p958ae58299)" d="M 473.674929 449.465371 
L 473.674929 74.614775 
L 489.04683 74.614775 
L 489.04683 449.465371 
z
" style="fill:#db5f57;"/>
    <path clip-path="url(#p958ae58299)" d="M 555.6584 449.465371 
L 555.6584 87.012909 
L 571.030301 87.012909 
L 571.030301 449.465371 
z
" style="fill:#5f57db;"/>
    <path clip-path="url(#p958ae58299)" d="M 540.286499 449.465371 
L 540.286499 58.983109 
L 555.6584 58.983109 
L 555.6584 449.465371 
z
" style="fill:#57db5f;"/>
    <path clip-path="url(#p958ae58299)" d="M 524.914599 449.465371 
L 524.914599 78.971271 
L 540.286499 78.971271 
L 540.286499 449.465371 
z
" style="fill:#db5f57;"/>
   </g>
   <g id="patch_3">
    <path d="M 603.593938 290.468339 
L 683.408938 290.468339 
L 683.408938 199.502402 
L 603.593938 199.502402 
z
" style="fill:#ffffff;"/>
   </g>
   <g id="text_12">
    <!-- City -->
    <g transform="translate(615.793938 223.095996)scale(0.11 -0.11)">
     <use xlink:href="#DejaVuSans-43"/>
     <use x="69.824219" xlink:href="#DejaVuSans-69"/>
     <use x="97.607422" xlink:href="#DejaVuSans-74"/>
     <use x="136.816406" xlink:href="#DejaVuSans-79"/>
    </g>
   </g>
   <g id="patch_4">
    <path clip-path="url(#p371160cfa7)" d="M 615.793938 242.588339 
L 631.633938 242.588339 
L 631.633938 226.748339 
L 615.793938 226.748339 
z
" style="fill:#f2f2f2;"/>
   </g>
   <g id="patch_5">
    <path clip-path="url(#p371160cfa7)" d="M 615.793938 242.588339 
L 631.633938 242.588339 
L 631.633938 226.748339 
L 615.793938 226.748339 
z
" style="fill:#db5f57;"/>
   </g>
   <g id="text_13">
    <!-- Austin -->
    <defs>
     <path d="M 34.1875 63.1875 
L 20.796875 26.90625 
L 47.609375 26.90625 
z
M 28.609375 72.90625 
L 39.796875 72.90625 
L 67.578125 0 
L 57.328125 0 
L 50.6875 18.703125 
L 17.828125 18.703125 
L 11.1875 0 
L 0.78125 0 
z
" id="DejaVuSans-41"/>
     <path d="M 8.5 21.578125 
L 8.5 54.6875 
L 17.484375 54.6875 
L 17.484375 21.921875 
Q 17.484375 14.15625 20.5 10.265625 
Q 23.53125 6.390625 29.59375 6.390625 
Q 36.859375 6.390625 41.078125 11.03125 
Q 45.3125 15.671875 45.3125 23.6875 
L 45.3125 54.6875 
L 54.296875 54.6875 
L 54.296875 0 
L 45.3125 0 
L 45.3125 8.40625 
Q 42.046875 3.421875 37.71875 1 
Q 33.40625 -1.421875 27.6875 -1.421875 
Q 18.265625 -1.421875 13.375 4.4375 
Q 8.5 10.296875 8.5 21.578125 
z
M 31.109375 56 
z
" id="DejaVuSans-75"/>
    </defs>
    <g transform="translate(634.633938 237.096589)scale(0.088 -0.088)">
     <use xlink:href="#DejaVuSans-41"/>
     <use x="68.408203" xlink:href="#DejaVuSans-75"/>
     <use x="131.787109" xlink:href="#DejaVuSans-73"/>
     <use x="183.886719" xlink:href="#DejaVuSans-74"/>
     <use x="223.095703" xlink:href="#DejaVuSans-69"/>
     <use x="250.878906" xlink:href="#DejaVuSans-6e"/>
    </g>
   </g>
   <g id="patch_6">
    <path clip-path="url(#p07d157d275)" d="M 615.793938 260.428339 
L 631.633938 260.428339 
L 631.633938 244.588339 
L 615.793938 244.588339 
z
" style="fill:#f2f2f2;"/>
   </g>
   <g id="patch_7">
    <path clip-path="url(#p07d157d275)" d="M 615.793938 260.428339 
L 631.633938 260.428339 
L 631.633938 244.588339 
L 615.793938 244.588339 
z
" style="fill:#57db5f;"/>
   </g>
   <g id="text_14">
    <!-- Dallas -->
    <g transform="translate(634.633938 254.936589)scale(0.088 -0.088)">
     <use xlink:href="#DejaVuSans-44"/>
     <use x="77.001953" xlink:href="#DejaVuSans-61"/>
     <use x="138.28125" xlink:href="#DejaVuSans-6c"/>
     <use x="166.064453" xlink:href="#DejaVuSans-6c"/>
     <use x="193.847656" xlink:href="#DejaVuSans-61"/>
     <use x="255.126953" xlink:href="#DejaVuSans-73"/>
    </g>
   </g>
   <g id="patch_8">
    <path clip-path="url(#pc1a273f6f3)" d="M 615.793938 278.268339 
L 631.633938 278.268339 
L 631.633938 262.428339 
L 615.793938 262.428339 
z
" style="fill:#f2f2f2;"/>
   </g>
   <g id="patch_9">
    <path clip-path="url(#pc1a273f6f3)" d="M 615.793938 278.268339 
L 631.633938 278.268339 
L 631.633938 262.428339 
L 615.793938 262.428339 
z
" style="fill:#5f57db;"/>
   </g>
   <g id="text_15">
    <!-- Houston -->
    <defs>
     <path d="M 9.8125 72.90625 
L 19.671875 72.90625 
L 19.671875 43.015625 
L 55.515625 43.015625 
L 55.515625 72.90625 
L 65.375 72.90625 
L 65.375 0 
L 55.515625 0 
L 55.515625 34.71875 
L 19.671875 34.71875 
L 19.671875 0 
L 9.8125 0 
z
" id="DejaVuSans-48"/>
    </defs>
    <g transform="translate(634.633938 272.776589)scale(0.088 -0.088)">
     <use xlink:href="#DejaVuSans-48"/>
     <use x="75.195312" xlink:href="#DejaVuSans-6f"/>
     <use x="136.376953" xlink:href="#DejaVuSans-75"/>
     <use x="199.755859" xlink:href="#DejaVuSans-73"/>
     <use x="251.855469" xlink:href="#DejaVuSans-74"/>
     <use x="291.064453" xlink:href="#DejaVuSans-6f"/>
     <use x="352.246094" xlink:href="#DejaVuSans-6e"/>
    </g>
   </g>
  </g>
  <g id="text_16">
   <!-- Undeveloped Area of Single Family Lots in Texas Triangle -->
   <defs>
    <path d="M -0.296875 72.90625 
L 61.375 72.90625 
L 61.375 64.59375 
L 35.5 64.59375 
L 35.5 0 
L 25.59375 0 
L 25.59375 64.59375 
L -0.296875 64.59375 
z
" id="DejaVuSans-54"/>
    <path d="M 54.890625 54.6875 
L 35.109375 28.078125 
L 55.90625 0 
L 45.3125 0 
L 29.390625 21.484375 
L 13.484375 0 
L 2.875 0 
L 24.125 28.609375 
L 4.6875 54.6875 
L 15.28125 54.6875 
L 29.78125 35.203125 
L 44.28125 54.6875 
z
" id="DejaVuSans-78"/>
   </defs>
   <g transform="translate(118.156156 17.229937)scale(0.132 -0.132)">
    <use xlink:href="#DejaVuSans-55"/>
    <use x="73.193359" xlink:href="#DejaVuSans-6e"/>
    <use x="136.572266" xlink:href="#DejaVuSans-64"/>
    <use x="200.048828" xlink:href="#DejaVuSans-65"/>
    <use x="261.572266" xlink:href="#DejaVuSans-76"/>
    <use x="320.751953" xlink:href="#DejaVuSans-65"/>
    <use x="382.275391" xlink:href="#DejaVuSans-6c"/>
    <use x="410.058594" xlink:href="#DejaVuSans-6f"/>
    <use x="471.240234" xlink:href="#DejaVuSans-70"/>
    <use x="534.716797" xlink:href="#DejaVuSans-65"/>
    <use x="596.240234" xlink:href="#DejaVuSans-64"/>
    <use x="659.716797" xlink:href="#DejaVuSans-20"/>
    <use x="691.503906" xlink:href="#DejaVuSans-41"/>
    <use x="759.912109" xlink:href="#DejaVuSans-72"/>
    <use x="800.994141" xlink:href="#DejaVuSans-65"/>
    <use x="862.517578" xlink:href="#DejaVuSans-61"/>
    <use x="923.796875" xlink:href="#DejaVuSans-20"/>
    <use x="955.583984" xlink:href="#DejaVuSans-6f"/>
    <use x="1016.765625" xlink:href="#DejaVuSans-66"/>
    <use x="1051.970703" xlink:href="#DejaVuSans-20"/>
    <use x="1083.757812" xlink:href="#DejaVuSans-53"/>
    <use x="1147.234375" xlink:href="#DejaVuSans-69"/>
    <use x="1175.017578" xlink:href="#DejaVuSans-6e"/>
    <use x="1238.396484" xlink:href="#DejaVuSans-67"/>
    <use x="1301.873047" xlink:href="#DejaVuSans-6c"/>
    <use x="1329.65625" xlink:href="#DejaVuSans-65"/>
    <use x="1391.179688" xlink:href="#DejaVuSans-20"/>
    <use x="1422.966797" xlink:href="#DejaVuSans-46"/>
    <use x="1480.345703" xlink:href="#DejaVuSans-61"/>
    <use x="1541.625" xlink:href="#DejaVuSans-6d"/>
    <use x="1639.037109" xlink:href="#DejaVuSans-69"/>
    <use x="1666.820312" xlink:href="#DejaVuSans-6c"/>
    <use x="1694.603516" xlink:href="#DejaVuSans-79"/>
    <use x="1753.783203" xlink:href="#DejaVuSans-20"/>
    <use x="1785.570312" xlink:href="#DejaVuSans-4c"/>
    <use x="1841.267578" xlink:href="#DejaVuSans-6f"/>
    <use x="1902.449219" xlink:href="#DejaVuSans-74"/>
    <use x="1941.658203" xlink:href="#DejaVuSans-73"/>
    <use x="1993.757812" xlink:href="#DejaVuSans-20"/>
    <use x="2025.544922" xlink:href="#DejaVuSans-69"/>
    <use x="2053.328125" xlink:href="#DejaVuSans-6e"/>
    <use x="2116.707031" xlink:href="#DejaVuSans-20"/>
    <use x="2148.494141" xlink:href="#DejaVuSans-54"/>
    <use x="2209.3125" xlink:href="#DejaVuSans-65"/>
    <use x="2270.820312" xlink:href="#DejaVuSans-78"/>
    <use x="2330" xlink:href="#DejaVuSans-61"/>
    <use x="2391.279297" xlink:href="#DejaVuSans-73"/>
    <use x="2443.378906" xlink:href="#DejaVuSans-20"/>
    <use x="2475.166016" xlink:href="#DejaVuSans-54"/>
    <use x="2536.03125" xlink:href="#DejaVuSans-72"/>
    <use x="2577.144531" xlink:href="#DejaVuSans-69"/>
    <use x="2604.927734" xlink:href="#DejaVuSans-61"/>
    <use x="2666.207031" xlink:href="#DejaVuSans-6e"/>
    <use x="2729.585938" xlink:href="#DejaVuSans-67"/>
    <use x="2793.0625" xlink:href="#DejaVuSans-6c"/>
    <use x="2820.845703" xlink:href="#DejaVuSans-65"/>
   </g>
  </g>
 </g>
 <defs>
  <clipPath id="p958ae58299">
   <rect height="443.52" width="558" x="38.393938" y="26.105371"/>
  </clipPath>
  <clipPath id="p371160cfa7">
   <path d="M 615.793938 242.588339 
L 615.793938 226.748339 
L 631.633938 226.748339 
L 631.633938 242.588339 
"/>
  </clipPath>
  <clipPath id="p07d157d275">
   <path d="M 615.793938 260.428339 
L 615.793938 244.588339 
L 631.633938 244.588339 
L 631.633938 260.428339 
"/>
  </clipPath>
  <clipPath id="pc1a273f6f3">
   <path d="M 615.793938 278.268339 
L 615.793938 262.428339 
L 631.633938 262.428339 
L 631.633938 278.268339 
"/>
  </clipPath>
 </defs>
</svg>
