<?xml version="1.0" encoding="utf-8" standalone="no"?>
<!DOCTYPE svg PUBLIC "-//W3C//DTD SVG 1.1//EN"
  "http://www.w3.org/Graphics/SVG/1.1/DTD/svg11.dtd">
<!-- Created with matplotlib (http://matplotlib.org/) -->
<svg height="519pt" version="1.1" viewBox="0 0 824 519" width="824pt" xmlns="http://www.w3.org/2000/svg" xmlns:xlink="http://www.w3.org/1999/xlink">
 <defs>
  <style type="text/css">
*{stroke-linecap:butt;stroke-linejoin:round;}
  </style>
 </defs>
 <g id="figure_1">
  <g id="patch_1">
   <path d="M 0 519.638058 
L 824.604937 519.638058 
L 824.604937 0 
L 0 0 
z
" style="fill:#ffffff;stroke:#ffffff;stroke-linejoin:miter;"/>
  </g>
  <g id="axes_1">
   <g id="patch_2">
    <path d="M 60.789938 483.925371 
L 393.069938 483.925371 
L 393.069938 40.405371 
L 60.789938 40.405371 
z
" style="fill:#ebebeb;"/>
   </g>
   <g id="matplotlib.axis_1">
    <g id="xtick_1">
     <g id="line2d_1">
      <path clip-path="url(#p797bf30a71)" d="M 85.016576 483.925371 
L 85.016576 40.405371 
" style="fill:none;stroke:#ffffff;"/>
     </g>
     <g id="line2d_2">
      <path d="M 85.016576 483.925371 
" style="fill:none;stroke:#333333;stroke-width:1.5;"/>
      <defs>
       <path d="M 0 0 
L 0 2.75 
" id="mb994412027" style="stroke:#333333;"/>
      </defs>
      <g>
       <use style="fill:#333333;stroke:#333333;" x="85.016576" xlink:href="#mb994412027" y="483.925371"/>
      </g>
     </g>
     <g id="text_1">
      <!-- 10 -->
      <defs>
       <path d="M 12.40625 8.296875 
L 28.515625 8.296875 
L 28.515625 63.921875 
L 10.984375 60.40625 
L 10.984375 69.390625 
L 28.421875 72.90625 
L 38.28125 72.90625 
L 38.28125 8.296875 
L 54.390625 8.296875 
L 54.390625 0 
L 12.40625 0 
z
" id="DejaVuSans-31"/>
       <path d="M 31.78125 66.40625 
Q 24.171875 66.40625 20.328125 58.90625 
Q 16.5 51.421875 16.5 36.375 
Q 16.5 21.390625 20.328125 13.890625 
Q 24.171875 6.390625 31.78125 6.390625 
Q 39.453125 6.390625 43.28125 13.890625 
Q 47.125 21.390625 47.125 36.375 
Q 47.125 51.421875 43.28125 58.90625 
Q 39.453125 66.40625 31.78125 66.40625 
z
M 31.78125 74.21875 
Q 44.046875 74.21875 50.515625 64.515625 
Q 56.984375 54.828125 56.984375 36.375 
Q 56.984375 17.96875 50.515625 8.265625 
Q 44.046875 -1.421875 31.78125 -1.421875 
Q 19.53125 -1.421875 13.0625 8.265625 
Q 6.59375 17.96875 6.59375 36.375 
Q 6.59375 54.828125 13.0625 64.515625 
Q 19.53125 74.21875 31.78125 74.21875 
z
" id="DejaVuSans-30"/>
      </defs>
      <g style="fill:#4d4d4d;" transform="translate(79.417576 495.561996)scale(0.088 -0.088)">
       <use xlink:href="#DejaVuSans-31"/>
       <use x="63.623047" xlink:href="#DejaVuSans-30"/>
      </g>
     </g>
    </g>
    <g id="xtick_2">
     <g id="line2d_3">
      <path clip-path="url(#p797bf30a71)" d="M 166.109925 483.925371 
L 166.109925 40.405371 
" style="fill:none;stroke:#ffffff;"/>
     </g>
     <g id="line2d_4">
      <path d="M 166.109925 483.925371 
" style="fill:none;stroke:#333333;stroke-width:1.5;"/>
      <g>
       <use style="fill:#333333;stroke:#333333;" x="166.109925" xlink:href="#mb994412027" y="483.925371"/>
      </g>
     </g>
     <g id="text_2">
      <!-- 20 -->
      <defs>
       <path d="M 19.1875 8.296875 
L 53.609375 8.296875 
L 53.609375 0 
L 7.328125 0 
L 7.328125 8.296875 
Q 12.9375 14.109375 22.625 23.890625 
Q 32.328125 33.6875 34.8125 36.53125 
Q 39.546875 41.84375 41.421875 45.53125 
Q 43.3125 49.21875 43.3125 52.78125 
Q 43.3125 58.59375 39.234375 62.25 
Q 35.15625 65.921875 28.609375 65.921875 
Q 23.96875 65.921875 18.8125 64.3125 
Q 13.671875 62.703125 7.8125 59.421875 
L 7.8125 69.390625 
Q 13.765625 71.78125 18.9375 73 
Q 24.125 74.21875 28.421875 74.21875 
Q 39.75 74.21875 46.484375 68.546875 
Q 53.21875 62.890625 53.21875 53.421875 
Q 53.21875 48.921875 51.53125 44.890625 
Q 49.859375 40.875 45.40625 35.40625 
Q 44.1875 33.984375 37.640625 27.21875 
Q 31.109375 20.453125 19.1875 8.296875 
z
" id="DejaVuSans-32"/>
      </defs>
      <g style="fill:#4d4d4d;" transform="translate(160.510925 495.561996)scale(0.088 -0.088)">
       <use xlink:href="#DejaVuSans-32"/>
       <use x="63.623047" xlink:href="#DejaVuSans-30"/>
      </g>
     </g>
    </g>
    <g id="xtick_3">
     <g id="line2d_5">
      <path clip-path="url(#p797bf30a71)" d="M 247.203275 483.925371 
L 247.203275 40.405371 
" style="fill:none;stroke:#ffffff;"/>
     </g>
     <g id="line2d_6">
      <path d="M 247.203275 483.925371 
" style="fill:none;stroke:#333333;stroke-width:1.5;"/>
      <g>
       <use style="fill:#333333;stroke:#333333;" x="247.203275" xlink:href="#mb994412027" y="483.925371"/>
      </g>
     </g>
     <g id="text_3">
      <!-- 30 -->
      <defs>
       <path d="M 40.578125 39.3125 
Q 47.65625 37.796875 51.625 33 
Q 55.609375 28.21875 55.609375 21.1875 
Q 55.609375 10.40625 48.1875 4.484375 
Q 40.765625 -1.421875 27.09375 -1.421875 
Q 22.515625 -1.421875 17.65625 -0.515625 
Q 12.796875 0.390625 7.625 2.203125 
L 7.625 11.71875 
Q 11.71875 9.328125 16.59375 8.109375 
Q 21.484375 6.890625 26.8125 6.890625 
Q 36.078125 6.890625 40.9375 10.546875 
Q 45.796875 14.203125 45.796875 21.1875 
Q 45.796875 27.640625 41.28125 31.265625 
Q 36.765625 34.90625 28.71875 34.90625 
L 20.21875 34.90625 
L 20.21875 43.015625 
L 29.109375 43.015625 
Q 36.375 43.015625 40.234375 45.921875 
Q 44.09375 48.828125 44.09375 54.296875 
Q 44.09375 59.90625 40.109375 62.90625 
Q 36.140625 65.921875 28.71875 65.921875 
Q 24.65625 65.921875 20.015625 65.03125 
Q 15.375 64.15625 9.8125 62.3125 
L 9.8125 71.09375 
Q 15.4375 72.65625 20.34375 73.4375 
Q 25.25 74.21875 29.59375 74.21875 
Q 40.828125 74.21875 47.359375 69.109375 
Q 53.90625 64.015625 53.90625 55.328125 
Q 53.90625 49.265625 50.4375 45.09375 
Q 46.96875 40.921875 40.578125 39.3125 
z
" id="DejaVuSans-33"/>
      </defs>
      <g style="fill:#4d4d4d;" transform="translate(241.604275 495.561996)scale(0.088 -0.088)">
       <use xlink:href="#DejaVuSans-33"/>
       <use x="63.623047" xlink:href="#DejaVuSans-30"/>
      </g>
     </g>
    </g>
    <g id="xtick_4">
     <g id="line2d_7">
      <path clip-path="url(#p797bf30a71)" d="M 328.296625 483.925371 
L 328.296625 40.405371 
" style="fill:none;stroke:#ffffff;"/>
     </g>
     <g id="line2d_8">
      <path d="M 328.296625 483.925371 
" style="fill:none;stroke:#333333;stroke-width:1.5;"/>
      <g>
       <use style="fill:#333333;stroke:#333333;" x="328.296625" xlink:href="#mb994412027" y="483.925371"/>
      </g>
     </g>
     <g id="text_4">
      <!-- 40 -->
      <defs>
       <path d="M 37.796875 64.3125 
L 12.890625 25.390625 
L 37.796875 25.390625 
z
M 35.203125 72.90625 
L 47.609375 72.90625 
L 47.609375 25.390625 
L 58.015625 25.390625 
L 58.015625 17.1875 
L 47.609375 17.1875 
L 47.609375 0 
L 37.796875 0 
L 37.796875 17.1875 
L 4.890625 17.1875 
L 4.890625 26.703125 
z
" id="DejaVuSans-34"/>
      </defs>
      <g style="fill:#4d4d4d;" transform="translate(322.697625 495.561996)scale(0.088 -0.088)">
       <use xlink:href="#DejaVuSans-34"/>
       <use x="63.623047" xlink:href="#DejaVuSans-30"/>
      </g>
     </g>
    </g>
    <g id="xtick_5">
     <g id="line2d_9">
      <path clip-path="url(#p797bf30a71)" d="M 125.56325 483.925371 
L 125.56325 40.405371 
" style="fill:none;stroke:#ffffff;stroke-width:0.5;"/>
     </g>
     <g id="line2d_10">
      <path d="M 125.56325 483.925371 
" style="fill:none;stroke:#333333;stroke-width:1.5;"/>
     </g>
    </g>
    <g id="xtick_6">
     <g id="line2d_11">
      <path clip-path="url(#p797bf30a71)" d="M 206.6566 483.925371 
L 206.6566 40.405371 
" style="fill:none;stroke:#ffffff;stroke-width:0.5;"/>
     </g>
     <g id="line2d_12">
      <path d="M 206.6566 483.925371 
" style="fill:none;stroke:#333333;stroke-width:1.5;"/>
     </g>
    </g>
    <g id="xtick_7">
     <g id="line2d_13">
      <path clip-path="url(#p797bf30a71)" d="M 287.74995 483.925371 
L 287.74995 40.405371 
" style="fill:none;stroke:#ffffff;stroke-width:0.5;"/>
     </g>
     <g id="line2d_14">
      <path d="M 287.74995 483.925371 
" style="fill:none;stroke:#333333;stroke-width:1.5;"/>
     </g>
    </g>
    <g id="xtick_8">
     <g id="line2d_15">
      <path clip-path="url(#p797bf30a71)" d="M 368.843299 483.925371 
L 368.843299 40.405371 
" style="fill:none;stroke:#ffffff;stroke-width:0.5;"/>
     </g>
     <g id="line2d_16">
      <path d="M 368.843299 483.925371 
" style="fill:none;stroke:#333333;stroke-width:1.5;"/>
     </g>
    </g>
   </g>
   <g id="matplotlib.axis_2">
    <g id="ytick_1">
     <g id="line2d_17">
      <path clip-path="url(#p797bf30a71)" d="M 60.789938 463.765371 
L 393.069938 463.765371 
" style="fill:none;stroke:#ffffff;"/>
     </g>
     <g id="line2d_18">
      <path d="M 60.789938 463.765371 
" style="fill:none;stroke:#333333;stroke-width:1.5;"/>
      <defs>
       <path d="M 0 0 
L -2.75 0 
" id="mfb257fcbe5" style="stroke:#333333;"/>
      </defs>
      <g>
       <use style="fill:#333333;stroke:#333333;" x="60.789938" xlink:href="#mfb257fcbe5" y="463.765371"/>
      </g>
     </g>
     <g id="text_5">
      <!-- 0 -->
      <g style="fill:#4d4d4d;" transform="translate(50.240938 466.193621)scale(0.088 -0.088)">
       <use xlink:href="#DejaVuSans-30"/>
      </g>
     </g>
    </g>
    <g id="ytick_2">
     <g id="line2d_19">
      <path clip-path="url(#p797bf30a71)" d="M 60.789938 310.813369 
L 393.069938 310.813369 
" style="fill:none;stroke:#ffffff;"/>
     </g>
     <g id="line2d_20">
      <path d="M 60.789938 310.813369 
" style="fill:none;stroke:#333333;stroke-width:1.5;"/>
      <g>
       <use style="fill:#333333;stroke:#333333;" x="60.789938" xlink:href="#mfb257fcbe5" y="310.813369"/>
      </g>
     </g>
     <g id="text_6">
      <!-- 100000 -->
      <g style="fill:#4d4d4d;" transform="translate(22.245938 313.241619)scale(0.088 -0.088)">
       <use xlink:href="#DejaVuSans-31"/>
       <use x="63.623047" xlink:href="#DejaVuSans-30"/>
       <use x="127.246094" xlink:href="#DejaVuSans-30"/>
       <use x="190.869141" xlink:href="#DejaVuSans-30"/>
       <use x="254.492188" xlink:href="#DejaVuSans-30"/>
       <use x="318.115234" xlink:href="#DejaVuSans-30"/>
      </g>
     </g>
    </g>
    <g id="ytick_3">
     <g id="line2d_21">
      <path clip-path="url(#p797bf30a71)" d="M 60.789938 157.861368 
L 393.069938 157.861368 
" style="fill:none;stroke:#ffffff;"/>
     </g>
     <g id="line2d_22">
      <path d="M 60.789938 157.861368 
" style="fill:none;stroke:#333333;stroke-width:1.5;"/>
      <g>
       <use style="fill:#333333;stroke:#333333;" x="60.789938" xlink:href="#mfb257fcbe5" y="157.861368"/>
      </g>
     </g>
     <g id="text_7">
      <!-- 200000 -->
      <g style="fill:#4d4d4d;" transform="translate(22.245938 160.289618)scale(0.088 -0.088)">
       <use xlink:href="#DejaVuSans-32"/>
       <use x="63.623047" xlink:href="#DejaVuSans-30"/>
       <use x="127.246094" xlink:href="#DejaVuSans-30"/>
       <use x="190.869141" xlink:href="#DejaVuSans-30"/>
       <use x="254.492188" xlink:href="#DejaVuSans-30"/>
       <use x="318.115234" xlink:href="#DejaVuSans-30"/>
      </g>
     </g>
    </g>
    <g id="ytick_4">
     <g id="line2d_23">
      <path clip-path="url(#p797bf30a71)" d="M 60.789938 387.28937 
L 393.069938 387.28937 
" style="fill:none;stroke:#ffffff;stroke-width:0.5;"/>
     </g>
     <g id="line2d_24">
      <path d="M 60.789938 387.28937 
" style="fill:none;stroke:#333333;stroke-width:1.5;"/>
     </g>
    </g>
    <g id="ytick_5">
     <g id="line2d_25">
      <path clip-path="url(#p797bf30a71)" d="M 60.789938 234.337369 
L 393.069938 234.337369 
" style="fill:none;stroke:#ffffff;stroke-width:0.5;"/>
     </g>
     <g id="line2d_26">
      <path d="M 60.789938 234.337369 
" style="fill:none;stroke:#333333;stroke-width:1.5;"/>
     </g>
    </g>
    <g id="ytick_6">
     <g id="line2d_27">
      <path clip-path="url(#p797bf30a71)" d="M 60.789938 81.385368 
L 393.069938 81.385368 
" style="fill:none;stroke:#ffffff;stroke-width:0.5;"/>
     </g>
     <g id="line2d_28">
      <path d="M 60.789938 81.385368 
" style="fill:none;stroke:#333333;stroke-width:1.5;"/>
     </g>
    </g>
    <g id="text_8">
     <!-- Lotsize (Square Feet) -->
     <defs>
      <path d="M 9.8125 72.90625 
L 19.671875 72.90625 
L 19.671875 8.296875 
L 55.171875 8.296875 
L 55.171875 0 
L 9.8125 0 
z
" id="DejaVuSans-4c"/>
      <path d="M 30.609375 48.390625 
Q 23.390625 48.390625 19.1875 42.75 
Q 14.984375 37.109375 14.984375 27.296875 
Q 14.984375 17.484375 19.15625 11.84375 
Q 23.34375 6.203125 30.609375 6.203125 
Q 37.796875 6.203125 41.984375 11.859375 
Q 46.1875 17.53125 46.1875 27.296875 
Q 46.1875 37.015625 41.984375 42.703125 
Q 37.796875 48.390625 30.609375 48.390625 
z
M 30.609375 56 
Q 42.328125 56 49.015625 48.375 
Q 55.71875 40.765625 55.71875 27.296875 
Q 55.71875 13.875 49.015625 6.21875 
Q 42.328125 -1.421875 30.609375 -1.421875 
Q 18.84375 -1.421875 12.171875 6.21875 
Q 5.515625 13.875 5.515625 27.296875 
Q 5.515625 40.765625 12.171875 48.375 
Q 18.84375 56 30.609375 56 
z
" id="DejaVuSans-6f"/>
      <path d="M 18.3125 70.21875 
L 18.3125 54.6875 
L 36.8125 54.6875 
L 36.8125 47.703125 
L 18.3125 47.703125 
L 18.3125 18.015625 
Q 18.3125 11.328125 20.140625 9.421875 
Q 21.96875 7.515625 27.59375 7.515625 
L 36.8125 7.515625 
L 36.8125 0 
L 27.59375 0 
Q 17.1875 0 13.234375 3.875 
Q 9.28125 7.765625 9.28125 18.015625 
L 9.28125 47.703125 
L 2.6875 47.703125 
L 2.6875 54.6875 
L 9.28125 54.6875 
L 9.28125 70.21875 
z
" id="DejaVuSans-74"/>
      <path d="M 44.28125 53.078125 
L 44.28125 44.578125 
Q 40.484375 46.53125 36.375 47.5 
Q 32.28125 48.484375 27.875 48.484375 
Q 21.1875 48.484375 17.84375 46.4375 
Q 14.5 44.390625 14.5 40.28125 
Q 14.5 37.15625 16.890625 35.375 
Q 19.28125 33.59375 26.515625 31.984375 
L 29.59375 31.296875 
Q 39.15625 29.25 43.1875 25.515625 
Q 47.21875 21.78125 47.21875 15.09375 
Q 47.21875 7.46875 41.1875 3.015625 
Q 35.15625 -1.421875 24.609375 -1.421875 
Q 20.21875 -1.421875 15.453125 -0.5625 
Q 10.6875 0.296875 5.421875 2 
L 5.421875 11.28125 
Q 10.40625 8.6875 15.234375 7.390625 
Q 20.0625 6.109375 24.8125 6.109375 
Q 31.15625 6.109375 34.5625 8.28125 
Q 37.984375 10.453125 37.984375 14.40625 
Q 37.984375 18.0625 35.515625 20.015625 
Q 33.0625 21.96875 24.703125 23.78125 
L 21.578125 24.515625 
Q 13.234375 26.265625 9.515625 29.90625 
Q 5.8125 33.546875 5.8125 39.890625 
Q 5.8125 47.609375 11.28125 51.796875 
Q 16.75 56 26.8125 56 
Q 31.78125 56 36.171875 55.265625 
Q 40.578125 54.546875 44.28125 53.078125 
z
" id="DejaVuSans-73"/>
      <path d="M 9.421875 54.6875 
L 18.40625 54.6875 
L 18.40625 0 
L 9.421875 0 
z
M 9.421875 75.984375 
L 18.40625 75.984375 
L 18.40625 64.59375 
L 9.421875 64.59375 
z
" id="DejaVuSans-69"/>
      <path d="M 5.515625 54.6875 
L 48.1875 54.6875 
L 48.1875 46.484375 
L 14.40625 7.171875 
L 48.1875 7.171875 
L 48.1875 0 
L 4.296875 0 
L 4.296875 8.203125 
L 38.09375 47.515625 
L 5.515625 47.515625 
z
" id="DejaVuSans-7a"/>
      <path d="M 56.203125 29.59375 
L 56.203125 25.203125 
L 14.890625 25.203125 
Q 15.484375 15.921875 20.484375 11.0625 
Q 25.484375 6.203125 34.421875 6.203125 
Q 39.59375 6.203125 44.453125 7.46875 
Q 49.3125 8.734375 54.109375 11.28125 
L 54.109375 2.78125 
Q 49.265625 0.734375 44.1875 -0.34375 
Q 39.109375 -1.421875 33.890625 -1.421875 
Q 20.796875 -1.421875 13.15625 6.1875 
Q 5.515625 13.8125 5.515625 26.8125 
Q 5.515625 40.234375 12.765625 48.109375 
Q 20.015625 56 32.328125 56 
Q 43.359375 56 49.78125 48.890625 
Q 56.203125 41.796875 56.203125 29.59375 
z
M 47.21875 32.234375 
Q 47.125 39.59375 43.09375 43.984375 
Q 39.0625 48.390625 32.421875 48.390625 
Q 24.90625 48.390625 20.390625 44.140625 
Q 15.875 39.890625 15.1875 32.171875 
z
" id="DejaVuSans-65"/>
      <path id="DejaVuSans-20"/>
      <path d="M 31 75.875 
Q 24.46875 64.65625 21.28125 53.65625 
Q 18.109375 42.671875 18.109375 31.390625 
Q 18.109375 20.125 21.3125 9.0625 
Q 24.515625 -2 31 -13.1875 
L 23.1875 -13.1875 
Q 15.875 -1.703125 12.234375 9.375 
Q 8.59375 20.453125 8.59375 31.390625 
Q 8.59375 42.28125 12.203125 53.3125 
Q 15.828125 64.359375 23.1875 75.875 
z
" id="DejaVuSans-28"/>
      <path d="M 53.515625 70.515625 
L 53.515625 60.890625 
Q 47.90625 63.578125 42.921875 64.890625 
Q 37.9375 66.21875 33.296875 66.21875 
Q 25.25 66.21875 20.875 63.09375 
Q 16.5 59.96875 16.5 54.203125 
Q 16.5 49.359375 19.40625 46.890625 
Q 22.3125 44.4375 30.421875 42.921875 
L 36.375 41.703125 
Q 47.40625 39.59375 52.65625 34.296875 
Q 57.90625 29 57.90625 20.125 
Q 57.90625 9.515625 50.796875 4.046875 
Q 43.703125 -1.421875 29.984375 -1.421875 
Q 24.8125 -1.421875 18.96875 -0.25 
Q 13.140625 0.921875 6.890625 3.21875 
L 6.890625 13.375 
Q 12.890625 10.015625 18.65625 8.296875 
Q 24.421875 6.59375 29.984375 6.59375 
Q 38.421875 6.59375 43.015625 9.90625 
Q 47.609375 13.234375 47.609375 19.390625 
Q 47.609375 24.75 44.3125 27.78125 
Q 41.015625 30.8125 33.5 32.328125 
L 27.484375 33.5 
Q 16.453125 35.6875 11.515625 40.375 
Q 6.59375 45.0625 6.59375 53.421875 
Q 6.59375 63.09375 13.40625 68.65625 
Q 20.21875 74.21875 32.171875 74.21875 
Q 37.3125 74.21875 42.625 73.28125 
Q 47.953125 72.359375 53.515625 70.515625 
z
" id="DejaVuSans-53"/>
      <path d="M 14.796875 27.296875 
Q 14.796875 17.390625 18.875 11.75 
Q 22.953125 6.109375 30.078125 6.109375 
Q 37.203125 6.109375 41.296875 11.75 
Q 45.40625 17.390625 45.40625 27.296875 
Q 45.40625 37.203125 41.296875 42.84375 
Q 37.203125 48.484375 30.078125 48.484375 
Q 22.953125 48.484375 18.875 42.84375 
Q 14.796875 37.203125 14.796875 27.296875 
z
M 45.40625 8.203125 
Q 42.578125 3.328125 38.25 0.953125 
Q 33.9375 -1.421875 27.875 -1.421875 
Q 17.96875 -1.421875 11.734375 6.484375 
Q 5.515625 14.40625 5.515625 27.296875 
Q 5.515625 40.1875 11.734375 48.09375 
Q 17.96875 56 27.875 56 
Q 33.9375 56 38.25 53.625 
Q 42.578125 51.265625 45.40625 46.390625 
L 45.40625 54.6875 
L 54.390625 54.6875 
L 54.390625 -20.796875 
L 45.40625 -20.796875 
z
" id="DejaVuSans-71"/>
      <path d="M 8.5 21.578125 
L 8.5 54.6875 
L 17.484375 54.6875 
L 17.484375 21.921875 
Q 17.484375 14.15625 20.5 10.265625 
Q 23.53125 6.390625 29.59375 6.390625 
Q 36.859375 6.390625 41.078125 11.03125 
Q 45.3125 15.671875 45.3125 23.6875 
L 45.3125 54.6875 
L 54.296875 54.6875 
L 54.296875 0 
L 45.3125 0 
L 45.3125 8.40625 
Q 42.046875 3.421875 37.71875 1 
Q 33.40625 -1.421875 27.6875 -1.421875 
Q 18.265625 -1.421875 13.375 4.4375 
Q 8.5 10.296875 8.5 21.578125 
z
M 31.109375 56 
z
" id="DejaVuSans-75"/>
      <path d="M 34.28125 27.484375 
Q 23.390625 27.484375 19.1875 25 
Q 14.984375 22.515625 14.984375 16.5 
Q 14.984375 11.71875 18.140625 8.90625 
Q 21.296875 6.109375 26.703125 6.109375 
Q 34.1875 6.109375 38.703125 11.40625 
Q 43.21875 16.703125 43.21875 25.484375 
L 43.21875 27.484375 
z
M 52.203125 31.203125 
L 52.203125 0 
L 43.21875 0 
L 43.21875 8.296875 
Q 40.140625 3.328125 35.546875 0.953125 
Q 30.953125 -1.421875 24.3125 -1.421875 
Q 15.921875 -1.421875 10.953125 3.296875 
Q 6 8.015625 6 15.921875 
Q 6 25.140625 12.171875 29.828125 
Q 18.359375 34.515625 30.609375 34.515625 
L 43.21875 34.515625 
L 43.21875 35.40625 
Q 43.21875 41.609375 39.140625 45 
Q 35.0625 48.390625 27.6875 48.390625 
Q 23 48.390625 18.546875 47.265625 
Q 14.109375 46.140625 10.015625 43.890625 
L 10.015625 52.203125 
Q 14.9375 54.109375 19.578125 55.046875 
Q 24.21875 56 28.609375 56 
Q 40.484375 56 46.34375 49.84375 
Q 52.203125 43.703125 52.203125 31.203125 
z
" id="DejaVuSans-61"/>
      <path d="M 41.109375 46.296875 
Q 39.59375 47.171875 37.8125 47.578125 
Q 36.03125 48 33.890625 48 
Q 26.265625 48 22.1875 43.046875 
Q 18.109375 38.09375 18.109375 28.8125 
L 18.109375 0 
L 9.078125 0 
L 9.078125 54.6875 
L 18.109375 54.6875 
L 18.109375 46.1875 
Q 20.953125 51.171875 25.484375 53.578125 
Q 30.03125 56 36.53125 56 
Q 37.453125 56 38.578125 55.875 
Q 39.703125 55.765625 41.0625 55.515625 
z
" id="DejaVuSans-72"/>
      <path d="M 9.8125 72.90625 
L 51.703125 72.90625 
L 51.703125 64.59375 
L 19.671875 64.59375 
L 19.671875 43.109375 
L 48.578125 43.109375 
L 48.578125 34.8125 
L 19.671875 34.8125 
L 19.671875 0 
L 9.8125 0 
z
" id="DejaVuSans-46"/>
      <path d="M 8.015625 75.875 
L 15.828125 75.875 
Q 23.140625 64.359375 26.78125 53.3125 
Q 30.421875 42.28125 30.421875 31.390625 
Q 30.421875 20.453125 26.78125 9.375 
Q 23.140625 -1.703125 15.828125 -13.1875 
L 8.015625 -13.1875 
Q 14.5 -2 17.703125 9.0625 
Q 20.90625 20.125 20.90625 31.390625 
Q 20.90625 42.671875 17.703125 53.65625 
Q 14.5 64.65625 8.015625 75.875 
z
" id="DejaVuSans-29"/>
     </defs>
     <g transform="translate(15.558281 317.88873)rotate(-90)scale(0.11 -0.11)">
      <use xlink:href="#DejaVuSans-4c"/>
      <use x="55.697266" xlink:href="#DejaVuSans-6f"/>
      <use x="116.878906" xlink:href="#DejaVuSans-74"/>
      <use x="156.087891" xlink:href="#DejaVuSans-73"/>
      <use x="208.1875" xlink:href="#DejaVuSans-69"/>
      <use x="235.970703" xlink:href="#DejaVuSans-7a"/>
      <use x="288.460938" xlink:href="#DejaVuSans-65"/>
      <use x="349.984375" xlink:href="#DejaVuSans-20"/>
      <use x="381.771484" xlink:href="#DejaVuSans-28"/>
      <use x="420.785156" xlink:href="#DejaVuSans-53"/>
      <use x="484.261719" xlink:href="#DejaVuSans-71"/>
      <use x="547.738281" xlink:href="#DejaVuSans-75"/>
      <use x="611.117188" xlink:href="#DejaVuSans-61"/>
      <use x="672.396484" xlink:href="#DejaVuSans-72"/>
      <use x="713.478516" xlink:href="#DejaVuSans-65"/>
      <use x="775.001953" xlink:href="#DejaVuSans-20"/>
      <use x="806.789062" xlink:href="#DejaVuSans-46"/>
      <use x="864.230469" xlink:href="#DejaVuSans-65"/>
      <use x="925.753906" xlink:href="#DejaVuSans-65"/>
      <use x="987.277344" xlink:href="#DejaVuSans-74"/>
      <use x="1026.486328" xlink:href="#DejaVuSans-29"/>
     </g>
    </g>
   </g>
   <g id="PolyCollection_1">
    <path clip-path="url(#p797bf30a71)" d="M 88.057576 463.765371 
L 88.057576 120.086995 
L 94.139578 120.086995 
L 94.139578 463.765371 
z
" style="fill:#5f57db;"/>
    <path clip-path="url(#p797bf30a71)" d="M 81.975575 463.765371 
L 81.975575 425.921647 
L 88.057576 425.921647 
L 88.057576 463.765371 
z
" style="fill:#57db5f;"/>
    <path clip-path="url(#p797bf30a71)" d="M 75.893574 463.765371 
L 75.893574 336.871046 
L 81.975575 336.871046 
L 81.975575 463.765371 
z
" style="fill:#db5f57;"/>
    <path clip-path="url(#p797bf30a71)" d="M 108.330914 463.765371 
L 108.330914 272.087457 
L 114.412915 272.087457 
L 114.412915 463.765371 
z
" style="fill:#5f57db;"/>
    <path clip-path="url(#p797bf30a71)" d="M 102.248912 463.765371 
L 102.248912 405.442026 
L 108.330914 405.442026 
L 108.330914 463.765371 
z
" style="fill:#57db5f;"/>
    <path clip-path="url(#p797bf30a71)" d="M 96.166911 463.765371 
L 96.166911 355.879061 
L 102.248912 355.879061 
L 102.248912 463.765371 
z
" style="fill:#db5f57;"/>
    <path clip-path="url(#p797bf30a71)" d="M 128.604251 463.765371 
L 128.604251 60.565371 
L 134.686252 60.565371 
L 134.686252 463.765371 
z
" style="fill:#5f57db;"/>
    <path clip-path="url(#p797bf30a71)" d="M 122.52225 463.765371 
L 122.52225 415.775631 
L 128.604251 415.775631 
L 128.604251 463.765371 
z
" style="fill:#57db5f;"/>
    <path clip-path="url(#p797bf30a71)" d="M 116.440249 463.765371 
L 116.440249 345.910208 
L 122.52225 345.910208 
L 122.52225 463.765371 
z
" style="fill:#db5f57;"/>
    <path clip-path="url(#p797bf30a71)" d="M 148.877589 463.765371 
L 148.877589 408.23866 
L 154.95959 408.23866 
L 154.95959 463.765371 
z
" style="fill:#5f57db;"/>
    <path clip-path="url(#p797bf30a71)" d="M 142.795587 463.765371 
L 142.795587 106.925538 
L 148.877589 106.925538 
L 148.877589 463.765371 
z
" style="fill:#57db5f;"/>
    <path clip-path="url(#p797bf30a71)" d="M 136.713586 463.765371 
L 136.713586 412.73025 
L 142.795587 412.73025 
L 142.795587 463.765371 
z
" style="fill:#db5f57;"/>
    <path clip-path="url(#p797bf30a71)" d="M 169.150926 463.765371 
L 169.150926 106.822029 
L 175.232927 106.822029 
L 175.232927 463.765371 
z
" style="fill:#5f57db;"/>
    <path clip-path="url(#p797bf30a71)" d="M 163.068925 463.765371 
L 163.068925 431.433374 
L 169.150926 431.433374 
L 169.150926 463.765371 
z
" style="fill:#57db5f;"/>
    <path clip-path="url(#p797bf30a71)" d="M 156.986923 463.765371 
L 156.986923 447.18297 
L 163.068925 447.18297 
L 163.068925 463.765371 
z
" style="fill:#db5f57;"/>
    <path clip-path="url(#p797bf30a71)" d="M 189.424263 463.765371 
L 189.424263 96.545705 
L 195.506265 96.545705 
L 195.506265 463.765371 
z
" style="fill:#5f57db;"/>
    <path clip-path="url(#p797bf30a71)" d="M 183.342262 463.765371 
L 183.342262 420.65727 
L 189.424263 420.65727 
L 189.424263 463.765371 
z
" style="fill:#57db5f;"/>
    <path clip-path="url(#p797bf30a71)" d="M 209.697601 463.765371 
L 209.697601 246.678641 
L 215.779602 246.678641 
L 215.779602 463.765371 
z
" style="fill:#5f57db;"/>
    <path clip-path="url(#p797bf30a71)" d="M 203.615599 463.765371 
L 203.615599 438.442497 
L 209.697601 438.442497 
L 209.697601 463.765371 
z
" style="fill:#57db5f;"/>
    <path clip-path="url(#p797bf30a71)" d="M 197.533598 463.765371 
L 197.533598 414.501985 
L 203.615599 414.501985 
L 203.615599 463.765371 
z
" style="fill:#db5f57;"/>
    <path clip-path="url(#p797bf30a71)" d="M 229.970938 463.765371 
L 229.970938 334.091607 
L 236.052939 334.091607 
L 236.052939 463.765371 
z
" style="fill:#5f57db;"/>
    <path clip-path="url(#p797bf30a71)" d="M 223.888937 463.765371 
L 223.888937 358.048342 
L 229.970938 358.048342 
L 229.970938 463.765371 
z
" style="fill:#57db5f;"/>
    <path clip-path="url(#p797bf30a71)" d="M 217.806936 463.765371 
L 217.806936 445.797163 
L 223.888937 445.797163 
L 223.888937 463.765371 
z
" style="fill:#db5f57;"/>
    <path clip-path="url(#p797bf30a71)" d="M 250.244276 463.765371 
L 250.244276 420.717441 
L 256.326277 420.717441 
L 256.326277 463.765371 
z
" style="fill:#5f57db;"/>
    <path clip-path="url(#p797bf30a71)" d="M 244.162274 463.765371 
L 244.162274 442.441576 
L 250.244276 442.441576 
L 250.244276 463.765371 
z
" style="fill:#57db5f;"/>
    <path clip-path="url(#p797bf30a71)" d="M 238.080273 463.765371 
L 238.080273 437.293547 
L 244.162274 437.293547 
L 244.162274 463.765371 
z
" style="fill:#db5f57;"/>
    <path clip-path="url(#p797bf30a71)" d="M 270.517613 463.765371 
L 270.517613 409.117826 
L 276.599614 409.117826 
L 276.599614 463.765371 
z
" style="fill:#5f57db;"/>
    <path clip-path="url(#p797bf30a71)" d="M 264.435612 463.765371 
L 264.435612 375.561848 
L 270.517613 375.561848 
L 270.517613 463.765371 
z
" style="fill:#57db5f;"/>
    <path clip-path="url(#p797bf30a71)" d="M 258.35361 463.765371 
L 258.35361 416.83684 
L 264.435612 416.83684 
L 264.435612 463.765371 
z
" style="fill:#db5f57;"/>
    <path clip-path="url(#p797bf30a71)" d="M 290.79095 463.765371 
L 290.79095 403.410185 
L 296.872952 403.410185 
L 296.872952 463.765371 
z
" style="fill:#5f57db;"/>
    <path clip-path="url(#p797bf30a71)" d="M 284.708949 463.765371 
L 284.708949 409.522348 
L 290.79095 409.522348 
L 290.79095 463.765371 
z
" style="fill:#57db5f;"/>
    <path clip-path="url(#p797bf30a71)" d="M 304.982286 463.765371 
L 304.982286 376.402953 
L 311.064288 376.402953 
L 311.064288 463.765371 
z
" style="fill:#57db5f;"/>
    <path clip-path="url(#p797bf30a71)" d="M 325.255624 463.765371 
L 325.255624 450.061 
L 331.337625 450.061 
L 331.337625 463.765371 
z
" style="fill:#57db5f;"/>
    <path clip-path="url(#p797bf30a71)" d="M 345.528961 463.765371 
L 345.528961 448.062516 
L 351.610963 448.062516 
L 351.610963 463.765371 
z
" style="fill:#57db5f;"/>
    <path clip-path="url(#p797bf30a71)" d="M 365.802299 463.765371 
L 365.802299 452.374639 
L 371.8843 452.374639 
L 371.8843 463.765371 
z
" style="fill:#57db5f;"/>
   </g>
   <g id="patch_3">
    <path d="M 60.789938 40.405371 
L 393.069938 40.405371 
L 393.069938 26.231919 
L 60.789938 26.231919 
z
" style="fill:#d9d9d9;"/>
   </g>
   <g id="text_9">
    <!-- Multifamily -->
    <defs>
     <path d="M 9.8125 72.90625 
L 24.515625 72.90625 
L 43.109375 23.296875 
L 61.8125 72.90625 
L 76.515625 72.90625 
L 76.515625 0 
L 66.890625 0 
L 66.890625 64.015625 
L 48.09375 14.015625 
L 38.1875 14.015625 
L 19.390625 64.015625 
L 19.390625 0 
L 9.8125 0 
z
" id="DejaVuSans-4d"/>
     <path d="M 9.421875 75.984375 
L 18.40625 75.984375 
L 18.40625 0 
L 9.421875 0 
z
" id="DejaVuSans-6c"/>
     <path d="M 37.109375 75.984375 
L 37.109375 68.5 
L 28.515625 68.5 
Q 23.6875 68.5 21.796875 66.546875 
Q 19.921875 64.59375 19.921875 59.515625 
L 19.921875 54.6875 
L 34.71875 54.6875 
L 34.71875 47.703125 
L 19.921875 47.703125 
L 19.921875 0 
L 10.890625 0 
L 10.890625 47.703125 
L 2.296875 47.703125 
L 2.296875 54.6875 
L 10.890625 54.6875 
L 10.890625 58.5 
Q 10.890625 67.625 15.140625 71.796875 
Q 19.390625 75.984375 28.609375 75.984375 
z
" id="DejaVuSans-66"/>
     <path d="M 52 44.1875 
Q 55.375 50.25 60.0625 53.125 
Q 64.75 56 71.09375 56 
Q 79.640625 56 84.28125 50.015625 
Q 88.921875 44.046875 88.921875 33.015625 
L 88.921875 0 
L 79.890625 0 
L 79.890625 32.71875 
Q 79.890625 40.578125 77.09375 44.375 
Q 74.3125 48.1875 68.609375 48.1875 
Q 61.625 48.1875 57.5625 43.546875 
Q 53.515625 38.921875 53.515625 30.90625 
L 53.515625 0 
L 44.484375 0 
L 44.484375 32.71875 
Q 44.484375 40.625 41.703125 44.40625 
Q 38.921875 48.1875 33.109375 48.1875 
Q 26.21875 48.1875 22.15625 43.53125 
Q 18.109375 38.875 18.109375 30.90625 
L 18.109375 0 
L 9.078125 0 
L 9.078125 54.6875 
L 18.109375 54.6875 
L 18.109375 46.1875 
Q 21.1875 51.21875 25.484375 53.609375 
Q 29.78125 56 35.6875 56 
Q 41.65625 56 45.828125 52.96875 
Q 50 49.953125 52 44.1875 
z
" id="DejaVuSans-6d"/>
     <path d="M 32.171875 -5.078125 
Q 28.375 -14.84375 24.75 -17.8125 
Q 21.140625 -20.796875 15.09375 -20.796875 
L 7.90625 -20.796875 
L 7.90625 -13.28125 
L 13.1875 -13.28125 
Q 16.890625 -13.28125 18.9375 -11.515625 
Q 21 -9.765625 23.484375 -3.21875 
L 25.09375 0.875 
L 2.984375 54.6875 
L 12.5 54.6875 
L 29.59375 11.921875 
L 46.6875 54.6875 
L 56.203125 54.6875 
z
" id="DejaVuSans-79"/>
    </defs>
    <g style="fill:#1a1a1a;" transform="translate(202.595188 35.746895)scale(0.088 -0.088)">
     <use xlink:href="#DejaVuSans-4d"/>
     <use x="86.279297" xlink:href="#DejaVuSans-75"/>
     <use x="149.658203" xlink:href="#DejaVuSans-6c"/>
     <use x="177.441406" xlink:href="#DejaVuSans-74"/>
     <use x="216.650391" xlink:href="#DejaVuSans-69"/>
     <use x="244.433594" xlink:href="#DejaVuSans-66"/>
     <use x="279.638672" xlink:href="#DejaVuSans-61"/>
     <use x="340.917969" xlink:href="#DejaVuSans-6d"/>
     <use x="438.330078" xlink:href="#DejaVuSans-69"/>
     <use x="466.113281" xlink:href="#DejaVuSans-6c"/>
     <use x="493.896484" xlink:href="#DejaVuSans-79"/>
    </g>
   </g>
   <g id="patch_4">
    <path d="M 737.589938 304.768339 
L 817.404938 304.768339 
L 817.404938 213.802402 
L 737.589938 213.802402 
z
" style="fill:#ffffff;"/>
   </g>
   <g id="text_10">
    <!-- City -->
    <defs>
     <path d="M 64.40625 67.28125 
L 64.40625 56.890625 
Q 59.421875 61.53125 53.78125 63.8125 
Q 48.140625 66.109375 41.796875 66.109375 
Q 29.296875 66.109375 22.65625 58.46875 
Q 16.015625 50.828125 16.015625 36.375 
Q 16.015625 21.96875 22.65625 14.328125 
Q 29.296875 6.6875 41.796875 6.6875 
Q 48.140625 6.6875 53.78125 8.984375 
Q 59.421875 11.28125 64.40625 15.921875 
L 64.40625 5.609375 
Q 59.234375 2.09375 53.4375 0.328125 
Q 47.65625 -1.421875 41.21875 -1.421875 
Q 24.65625 -1.421875 15.125 8.703125 
Q 5.609375 18.84375 5.609375 36.375 
Q 5.609375 53.953125 15.125 64.078125 
Q 24.65625 74.21875 41.21875 74.21875 
Q 47.75 74.21875 53.53125 72.484375 
Q 59.328125 70.75 64.40625 67.28125 
z
" id="DejaVuSans-43"/>
    </defs>
    <g transform="translate(749.789938 237.395996)scale(0.11 -0.11)">
     <use xlink:href="#DejaVuSans-43"/>
     <use x="69.824219" xlink:href="#DejaVuSans-69"/>
     <use x="97.607422" xlink:href="#DejaVuSans-74"/>
     <use x="136.816406" xlink:href="#DejaVuSans-79"/>
    </g>
   </g>
   <g id="patch_5">
    <path clip-path="url(#pc53a4e6032)" d="M 749.789938 256.888339 
L 765.629938 256.888339 
L 765.629938 241.048339 
L 749.789938 241.048339 
z
" style="fill:#f2f2f2;"/>
   </g>
   <g id="patch_6">
    <path clip-path="url(#pc53a4e6032)" d="M 749.789938 256.888339 
L 765.629938 256.888339 
L 765.629938 241.048339 
L 749.789938 241.048339 
z
" style="fill:#db5f57;"/>
   </g>
   <g id="text_11">
    <!-- Austin -->
    <defs>
     <path d="M 34.1875 63.1875 
L 20.796875 26.90625 
L 47.609375 26.90625 
z
M 28.609375 72.90625 
L 39.796875 72.90625 
L 67.578125 0 
L 57.328125 0 
L 50.6875 18.703125 
L 17.828125 18.703125 
L 11.1875 0 
L 0.78125 0 
z
" id="DejaVuSans-41"/>
     <path d="M 54.890625 33.015625 
L 54.890625 0 
L 45.90625 0 
L 45.90625 32.71875 
Q 45.90625 40.484375 42.875 44.328125 
Q 39.84375 48.1875 33.796875 48.1875 
Q 26.515625 48.1875 22.3125 43.546875 
Q 18.109375 38.921875 18.109375 30.90625 
L 18.109375 0 
L 9.078125 0 
L 9.078125 54.6875 
L 18.109375 54.6875 
L 18.109375 46.1875 
Q 21.34375 51.125 25.703125 53.5625 
Q 30.078125 56 35.796875 56 
Q 45.21875 56 50.046875 50.171875 
Q 54.890625 44.34375 54.890625 33.015625 
z
" id="DejaVuSans-6e"/>
    </defs>
    <g transform="translate(768.629938 251.396589)scale(0.088 -0.088)">
     <use xlink:href="#DejaVuSans-41"/>
     <use x="68.408203" xlink:href="#DejaVuSans-75"/>
     <use x="131.787109" xlink:href="#DejaVuSans-73"/>
     <use x="183.886719" xlink:href="#DejaVuSans-74"/>
     <use x="223.095703" xlink:href="#DejaVuSans-69"/>
     <use x="250.878906" xlink:href="#DejaVuSans-6e"/>
    </g>
   </g>
   <g id="patch_7">
    <path clip-path="url(#pe7b665c011)" d="M 749.789938 274.728339 
L 765.629938 274.728339 
L 765.629938 258.888339 
L 749.789938 258.888339 
z
" style="fill:#f2f2f2;"/>
   </g>
   <g id="patch_8">
    <path clip-path="url(#pe7b665c011)" d="M 749.789938 274.728339 
L 765.629938 274.728339 
L 765.629938 258.888339 
L 749.789938 258.888339 
z
" style="fill:#57db5f;"/>
   </g>
   <g id="text_12">
    <!-- Dallas -->
    <defs>
     <path d="M 19.671875 64.796875 
L 19.671875 8.109375 
L 31.59375 8.109375 
Q 46.6875 8.109375 53.6875 14.9375 
Q 60.6875 21.78125 60.6875 36.53125 
Q 60.6875 51.171875 53.6875 57.984375 
Q 46.6875 64.796875 31.59375 64.796875 
z
M 9.8125 72.90625 
L 30.078125 72.90625 
Q 51.265625 72.90625 61.171875 64.09375 
Q 71.09375 55.28125 71.09375 36.53125 
Q 71.09375 17.671875 61.125 8.828125 
Q 51.171875 0 30.078125 0 
L 9.8125 0 
z
" id="DejaVuSans-44"/>
    </defs>
    <g transform="translate(768.629938 269.236589)scale(0.088 -0.088)">
     <use xlink:href="#DejaVuSans-44"/>
     <use x="77.001953" xlink:href="#DejaVuSans-61"/>
     <use x="138.28125" xlink:href="#DejaVuSans-6c"/>
     <use x="166.064453" xlink:href="#DejaVuSans-6c"/>
     <use x="193.847656" xlink:href="#DejaVuSans-61"/>
     <use x="255.126953" xlink:href="#DejaVuSans-73"/>
    </g>
   </g>
   <g id="patch_9">
    <path clip-path="url(#p957dfe331b)" d="M 749.789938 292.568339 
L 765.629938 292.568339 
L 765.629938 276.728339 
L 749.789938 276.728339 
z
" style="fill:#f2f2f2;"/>
   </g>
   <g id="patch_10">
    <path clip-path="url(#p957dfe331b)" d="M 749.789938 292.568339 
L 765.629938 292.568339 
L 765.629938 276.728339 
L 749.789938 276.728339 
z
" style="fill:#5f57db;"/>
   </g>
   <g id="text_13">
    <!-- Houston -->
    <defs>
     <path d="M 9.8125 72.90625 
L 19.671875 72.90625 
L 19.671875 43.015625 
L 55.515625 43.015625 
L 55.515625 72.90625 
L 65.375 72.90625 
L 65.375 0 
L 55.515625 0 
L 55.515625 34.71875 
L 19.671875 34.71875 
L 19.671875 0 
L 9.8125 0 
z
" id="DejaVuSans-48"/>
    </defs>
    <g transform="translate(768.629938 287.076589)scale(0.088 -0.088)">
     <use xlink:href="#DejaVuSans-48"/>
     <use x="75.195312" xlink:href="#DejaVuSans-6f"/>
     <use x="136.376953" xlink:href="#DejaVuSans-75"/>
     <use x="199.755859" xlink:href="#DejaVuSans-73"/>
     <use x="251.855469" xlink:href="#DejaVuSans-74"/>
     <use x="291.064453" xlink:href="#DejaVuSans-6f"/>
     <use x="352.246094" xlink:href="#DejaVuSans-6e"/>
    </g>
   </g>
  </g>
  <g id="axes_2">
   <g id="patch_11">
    <path d="M 398.109938 483.925371 
L 730.389938 483.925371 
L 730.389938 40.405371 
L 398.109938 40.405371 
z
" style="fill:#ebebeb;"/>
   </g>
   <g id="matplotlib.axis_3">
    <g id="xtick_9">
     <g id="line2d_29">
      <path clip-path="url(#p81305dee5d)" d="M 422.336576 483.925371 
L 422.336576 40.405371 
" style="fill:none;stroke:#ffffff;stroke-linecap:square;"/>
     </g>
     <g id="line2d_30">
      <path d="M 422.336576 483.925371 
" style="fill:none;stroke:#333333;stroke-linecap:square;stroke-width:1.5;"/>
      <g>
       <use style="fill:#333333;stroke:#333333;" x="422.336576" xlink:href="#mb994412027" y="483.925371"/>
      </g>
     </g>
     <g id="text_14">
      <!-- 10 -->
      <g style="fill:#4d4d4d;" transform="translate(416.737576 495.561996)scale(0.088 -0.088)">
       <use xlink:href="#DejaVuSans-31"/>
       <use x="63.623047" xlink:href="#DejaVuSans-30"/>
      </g>
     </g>
    </g>
    <g id="xtick_10">
     <g id="line2d_31">
      <path clip-path="url(#p81305dee5d)" d="M 503.429925 483.925371 
L 503.429925 40.405371 
" style="fill:none;stroke:#ffffff;stroke-linecap:square;"/>
     </g>
     <g id="line2d_32">
      <path d="M 503.429925 483.925371 
" style="fill:none;stroke:#333333;stroke-linecap:square;stroke-width:1.5;"/>
      <g>
       <use style="fill:#333333;stroke:#333333;" x="503.429925" xlink:href="#mb994412027" y="483.925371"/>
      </g>
     </g>
     <g id="text_15">
      <!-- 20 -->
      <g style="fill:#4d4d4d;" transform="translate(497.830925 495.561996)scale(0.088 -0.088)">
       <use xlink:href="#DejaVuSans-32"/>
       <use x="63.623047" xlink:href="#DejaVuSans-30"/>
      </g>
     </g>
    </g>
    <g id="xtick_11">
     <g id="line2d_33">
      <path clip-path="url(#p81305dee5d)" d="M 584.523275 483.925371 
L 584.523275 40.405371 
" style="fill:none;stroke:#ffffff;stroke-linecap:square;"/>
     </g>
     <g id="line2d_34">
      <path d="M 584.523275 483.925371 
" style="fill:none;stroke:#333333;stroke-linecap:square;stroke-width:1.5;"/>
      <g>
       <use style="fill:#333333;stroke:#333333;" x="584.523275" xlink:href="#mb994412027" y="483.925371"/>
      </g>
     </g>
     <g id="text_16">
      <!-- 30 -->
      <g style="fill:#4d4d4d;" transform="translate(578.924275 495.561996)scale(0.088 -0.088)">
       <use xlink:href="#DejaVuSans-33"/>
       <use x="63.623047" xlink:href="#DejaVuSans-30"/>
      </g>
     </g>
    </g>
    <g id="xtick_12">
     <g id="line2d_35">
      <path clip-path="url(#p81305dee5d)" d="M 665.616625 483.925371 
L 665.616625 40.405371 
" style="fill:none;stroke:#ffffff;stroke-linecap:square;"/>
     </g>
     <g id="line2d_36">
      <path d="M 665.616625 483.925371 
" style="fill:none;stroke:#333333;stroke-linecap:square;stroke-width:1.5;"/>
      <g>
       <use style="fill:#333333;stroke:#333333;" x="665.616625" xlink:href="#mb994412027" y="483.925371"/>
      </g>
     </g>
     <g id="text_17">
      <!-- 40 -->
      <g style="fill:#4d4d4d;" transform="translate(660.017625 495.561996)scale(0.088 -0.088)">
       <use xlink:href="#DejaVuSans-34"/>
       <use x="63.623047" xlink:href="#DejaVuSans-30"/>
      </g>
     </g>
    </g>
    <g id="xtick_13">
     <g id="line2d_37">
      <path clip-path="url(#p81305dee5d)" d="M 462.88325 483.925371 
L 462.88325 40.405371 
" style="fill:none;stroke:#ffffff;stroke-linecap:square;stroke-width:0.5;"/>
     </g>
     <g id="line2d_38">
      <path d="M 462.88325 483.925371 
" style="fill:none;stroke:#333333;stroke-linecap:square;stroke-width:1.5;"/>
     </g>
    </g>
    <g id="xtick_14">
     <g id="line2d_39">
      <path clip-path="url(#p81305dee5d)" d="M 543.9766 483.925371 
L 543.9766 40.405371 
" style="fill:none;stroke:#ffffff;stroke-linecap:square;stroke-width:0.5;"/>
     </g>
     <g id="line2d_40">
      <path d="M 543.9766 483.925371 
" style="fill:none;stroke:#333333;stroke-linecap:square;stroke-width:1.5;"/>
     </g>
    </g>
    <g id="xtick_15">
     <g id="line2d_41">
      <path clip-path="url(#p81305dee5d)" d="M 625.06995 483.925371 
L 625.06995 40.405371 
" style="fill:none;stroke:#ffffff;stroke-linecap:square;stroke-width:0.5;"/>
     </g>
     <g id="line2d_42">
      <path d="M 625.06995 483.925371 
" style="fill:none;stroke:#333333;stroke-linecap:square;stroke-width:1.5;"/>
     </g>
    </g>
    <g id="xtick_16">
     <g id="line2d_43">
      <path clip-path="url(#p81305dee5d)" d="M 706.163299 483.925371 
L 706.163299 40.405371 
" style="fill:none;stroke:#ffffff;stroke-linecap:square;stroke-width:0.5;"/>
     </g>
     <g id="line2d_44">
      <path d="M 706.163299 483.925371 
" style="fill:none;stroke:#333333;stroke-linecap:square;stroke-width:1.5;"/>
     </g>
    </g>
    <g id="text_18">
     <!-- Distance from City Center -->
     <defs>
      <path d="M 48.78125 52.59375 
L 48.78125 44.1875 
Q 44.96875 46.296875 41.140625 47.34375 
Q 37.3125 48.390625 33.40625 48.390625 
Q 24.65625 48.390625 19.8125 42.84375 
Q 14.984375 37.3125 14.984375 27.296875 
Q 14.984375 17.28125 19.8125 11.734375 
Q 24.65625 6.203125 33.40625 6.203125 
Q 37.3125 6.203125 41.140625 7.25 
Q 44.96875 8.296875 48.78125 10.40625 
L 48.78125 2.09375 
Q 45.015625 0.34375 40.984375 -0.53125 
Q 36.96875 -1.421875 32.421875 -1.421875 
Q 20.0625 -1.421875 12.78125 6.34375 
Q 5.515625 14.109375 5.515625 27.296875 
Q 5.515625 40.671875 12.859375 48.328125 
Q 20.21875 56 33.015625 56 
Q 37.15625 56 41.109375 55.140625 
Q 45.0625 54.296875 48.78125 52.59375 
z
" id="DejaVuSans-63"/>
     </defs>
     <g transform="translate(313.287359 510.150402)scale(0.11 -0.11)">
      <use xlink:href="#DejaVuSans-44"/>
      <use x="77.001953" xlink:href="#DejaVuSans-69"/>
      <use x="104.785156" xlink:href="#DejaVuSans-73"/>
      <use x="156.884766" xlink:href="#DejaVuSans-74"/>
      <use x="196.09375" xlink:href="#DejaVuSans-61"/>
      <use x="257.373047" xlink:href="#DejaVuSans-6e"/>
      <use x="320.751953" xlink:href="#DejaVuSans-63"/>
      <use x="375.732422" xlink:href="#DejaVuSans-65"/>
      <use x="437.255859" xlink:href="#DejaVuSans-20"/>
      <use x="469.042969" xlink:href="#DejaVuSans-66"/>
      <use x="504.248047" xlink:href="#DejaVuSans-72"/>
      <use x="545.330078" xlink:href="#DejaVuSans-6f"/>
      <use x="606.511719" xlink:href="#DejaVuSans-6d"/>
      <use x="703.923828" xlink:href="#DejaVuSans-20"/>
      <use x="735.710938" xlink:href="#DejaVuSans-43"/>
      <use x="805.535156" xlink:href="#DejaVuSans-69"/>
      <use x="833.318359" xlink:href="#DejaVuSans-74"/>
      <use x="872.527344" xlink:href="#DejaVuSans-79"/>
      <use x="931.707031" xlink:href="#DejaVuSans-20"/>
      <use x="963.494141" xlink:href="#DejaVuSans-43"/>
      <use x="1033.318359" xlink:href="#DejaVuSans-65"/>
      <use x="1094.841797" xlink:href="#DejaVuSans-6e"/>
      <use x="1158.220703" xlink:href="#DejaVuSans-74"/>
      <use x="1197.429688" xlink:href="#DejaVuSans-65"/>
      <use x="1258.953125" xlink:href="#DejaVuSans-72"/>
     </g>
    </g>
   </g>
   <g id="matplotlib.axis_4">
    <g id="ytick_7">
     <g id="line2d_45">
      <path clip-path="url(#p81305dee5d)" d="M 398.109938 463.765371 
L 730.389938 463.765371 
" style="fill:none;stroke:#ffffff;stroke-linecap:square;"/>
     </g>
     <g id="line2d_46">
      <path d="M 398.109938 463.765371 
" style="fill:none;stroke:#333333;stroke-linecap:square;stroke-width:1.5;"/>
      <g>
       <use style="fill:#333333;stroke:#333333;" x="398.109938" xlink:href="#mfb257fcbe5" y="463.765371"/>
      </g>
     </g>
     <g id="text_19">
      <!-- 0 -->
      <g style="fill:#4d4d4d;" transform="translate(387.560938 466.193621)scale(0.088 -0.088)">
       <use xlink:href="#DejaVuSans-30"/>
      </g>
     </g>
    </g>
    <g id="ytick_8">
     <g id="line2d_47">
      <path clip-path="url(#p81305dee5d)" d="M 398.109938 343.437759 
L 730.389938 343.437759 
" style="fill:none;stroke:#ffffff;stroke-linecap:square;"/>
     </g>
     <g id="line2d_48">
      <path d="M 398.109938 343.437759 
" style="fill:none;stroke:#333333;stroke-linecap:square;stroke-width:1.5;"/>
      <g>
       <use style="fill:#333333;stroke:#333333;" x="398.109938" xlink:href="#mfb257fcbe5" y="343.437759"/>
      </g>
     </g>
     <g id="text_20">
      <!-- 20000 -->
      <g style="fill:#4d4d4d;" transform="translate(365.164938 345.866009)scale(0.088 -0.088)">
       <use xlink:href="#DejaVuSans-32"/>
       <use x="63.623047" xlink:href="#DejaVuSans-30"/>
       <use x="127.246094" xlink:href="#DejaVuSans-30"/>
       <use x="190.869141" xlink:href="#DejaVuSans-30"/>
       <use x="254.492188" xlink:href="#DejaVuSans-30"/>
      </g>
     </g>
    </g>
    <g id="ytick_9">
     <g id="line2d_49">
      <path clip-path="url(#p81305dee5d)" d="M 398.109938 223.110147 
L 730.389938 223.110147 
" style="fill:none;stroke:#ffffff;stroke-linecap:square;"/>
     </g>
     <g id="line2d_50">
      <path d="M 398.109938 223.110147 
" style="fill:none;stroke:#333333;stroke-linecap:square;stroke-width:1.5;"/>
      <g>
       <use style="fill:#333333;stroke:#333333;" x="398.109938" xlink:href="#mfb257fcbe5" y="223.110147"/>
      </g>
     </g>
     <g id="text_21">
      <!-- 40000 -->
      <g style="fill:#4d4d4d;" transform="translate(365.164938 225.538397)scale(0.088 -0.088)">
       <use xlink:href="#DejaVuSans-34"/>
       <use x="63.623047" xlink:href="#DejaVuSans-30"/>
       <use x="127.246094" xlink:href="#DejaVuSans-30"/>
       <use x="190.869141" xlink:href="#DejaVuSans-30"/>
       <use x="254.492188" xlink:href="#DejaVuSans-30"/>
      </g>
     </g>
    </g>
    <g id="ytick_10">
     <g id="line2d_51">
      <path clip-path="url(#p81305dee5d)" d="M 398.109938 102.782535 
L 730.389938 102.782535 
" style="fill:none;stroke:#ffffff;stroke-linecap:square;"/>
     </g>
     <g id="line2d_52">
      <path d="M 398.109938 102.782535 
" style="fill:none;stroke:#333333;stroke-linecap:square;stroke-width:1.5;"/>
      <g>
       <use style="fill:#333333;stroke:#333333;" x="398.109938" xlink:href="#mfb257fcbe5" y="102.782535"/>
      </g>
     </g>
     <g id="text_22">
      <!-- 60000 -->
      <defs>
       <path d="M 33.015625 40.375 
Q 26.375 40.375 22.484375 35.828125 
Q 18.609375 31.296875 18.609375 23.390625 
Q 18.609375 15.53125 22.484375 10.953125 
Q 26.375 6.390625 33.015625 6.390625 
Q 39.65625 6.390625 43.53125 10.953125 
Q 47.40625 15.53125 47.40625 23.390625 
Q 47.40625 31.296875 43.53125 35.828125 
Q 39.65625 40.375 33.015625 40.375 
z
M 52.59375 71.296875 
L 52.59375 62.3125 
Q 48.875 64.0625 45.09375 64.984375 
Q 41.3125 65.921875 37.59375 65.921875 
Q 27.828125 65.921875 22.671875 59.328125 
Q 17.53125 52.734375 16.796875 39.40625 
Q 19.671875 43.65625 24.015625 45.921875 
Q 28.375 48.1875 33.59375 48.1875 
Q 44.578125 48.1875 50.953125 41.515625 
Q 57.328125 34.859375 57.328125 23.390625 
Q 57.328125 12.15625 50.6875 5.359375 
Q 44.046875 -1.421875 33.015625 -1.421875 
Q 20.359375 -1.421875 13.671875 8.265625 
Q 6.984375 17.96875 6.984375 36.375 
Q 6.984375 53.65625 15.1875 63.9375 
Q 23.390625 74.21875 37.203125 74.21875 
Q 40.921875 74.21875 44.703125 73.484375 
Q 48.484375 72.75 52.59375 71.296875 
z
" id="DejaVuSans-36"/>
      </defs>
      <g style="fill:#4d4d4d;" transform="translate(365.164938 105.210785)scale(0.088 -0.088)">
       <use xlink:href="#DejaVuSans-36"/>
       <use x="63.623047" xlink:href="#DejaVuSans-30"/>
       <use x="127.246094" xlink:href="#DejaVuSans-30"/>
       <use x="190.869141" xlink:href="#DejaVuSans-30"/>
       <use x="254.492188" xlink:href="#DejaVuSans-30"/>
      </g>
     </g>
    </g>
    <g id="ytick_11">
     <g id="line2d_53">
      <path clip-path="url(#p81305dee5d)" d="M 398.109938 403.601565 
L 730.389938 403.601565 
" style="fill:none;stroke:#ffffff;stroke-linecap:square;stroke-width:0.5;"/>
     </g>
     <g id="line2d_54">
      <path d="M 398.109938 403.601565 
" style="fill:none;stroke:#333333;stroke-linecap:square;stroke-width:1.5;"/>
     </g>
    </g>
    <g id="ytick_12">
     <g id="line2d_55">
      <path clip-path="url(#p81305dee5d)" d="M 398.109938 283.273953 
L 730.389938 283.273953 
" style="fill:none;stroke:#ffffff;stroke-linecap:square;stroke-width:0.5;"/>
     </g>
     <g id="line2d_56">
      <path d="M 398.109938 283.273953 
" style="fill:none;stroke:#333333;stroke-linecap:square;stroke-width:1.5;"/>
     </g>
    </g>
    <g id="ytick_13">
     <g id="line2d_57">
      <path clip-path="url(#p81305dee5d)" d="M 398.109938 162.946341 
L 730.389938 162.946341 
" style="fill:none;stroke:#ffffff;stroke-linecap:square;stroke-width:0.5;"/>
     </g>
     <g id="line2d_58">
      <path d="M 398.109938 162.946341 
" style="fill:none;stroke:#333333;stroke-linecap:square;stroke-width:1.5;"/>
     </g>
    </g>
    <g id="ytick_14">
     <g id="line2d_59">
      <path clip-path="url(#p81305dee5d)" d="M 398.109938 42.61873 
L 730.389938 42.61873 
" style="fill:none;stroke:#ffffff;stroke-linecap:square;stroke-width:0.5;"/>
     </g>
     <g id="line2d_60">
      <path d="M 398.109938 42.61873 
" style="fill:none;stroke:#333333;stroke-linecap:square;stroke-width:1.5;"/>
     </g>
    </g>
   </g>
   <g id="PolyCollection_2">
    <path clip-path="url(#p81305dee5d)" d="M 425.377576 463.765371 
L 425.377576 383.243292 
L 431.459578 383.243292 
L 431.459578 463.765371 
z
" style="fill:#5f57db;"/>
    <path clip-path="url(#p81305dee5d)" d="M 419.295575 463.765371 
L 419.295575 377.61951 
L 425.377576 377.61951 
L 425.377576 463.765371 
z
" style="fill:#57db5f;"/>
    <path clip-path="url(#p81305dee5d)" d="M 413.213574 463.765371 
L 413.213574 290.737924 
L 419.295575 290.737924 
L 419.295575 463.765371 
z
" style="fill:#db5f57;"/>
    <path clip-path="url(#p81305dee5d)" d="M 445.650914 463.765371 
L 445.650914 411.366803 
L 451.732915 411.366803 
L 451.732915 463.765371 
z
" style="fill:#5f57db;"/>
    <path clip-path="url(#p81305dee5d)" d="M 439.568912 463.765371 
L 439.568912 377.78239 
L 445.650914 377.78239 
L 445.650914 463.765371 
z
" style="fill:#57db5f;"/>
    <path clip-path="url(#p81305dee5d)" d="M 433.486911 463.765371 
L 433.486911 365.399907 
L 439.568912 365.399907 
L 439.568912 463.765371 
z
" style="fill:#db5f57;"/>
    <path clip-path="url(#p81305dee5d)" d="M 465.924251 463.765371 
L 465.924251 411.779915 
L 472.006252 411.779915 
L 472.006252 463.765371 
z
" style="fill:#5f57db;"/>
    <path clip-path="url(#p81305dee5d)" d="M 459.84225 463.765371 
L 459.84225 373.543555 
L 465.924251 373.543555 
L 465.924251 463.765371 
z
" style="fill:#57db5f;"/>
    <path clip-path="url(#p81305dee5d)" d="M 453.760249 463.765371 
L 453.760249 378.132362 
L 459.84225 378.132362 
L 459.84225 463.765371 
z
" style="fill:#db5f57;"/>
    <path clip-path="url(#p81305dee5d)" d="M 486.197589 463.765371 
L 486.197589 405.069852 
L 492.27959 405.069852 
L 492.27959 463.765371 
z
" style="fill:#5f57db;"/>
    <path clip-path="url(#p81305dee5d)" d="M 480.115587 463.765371 
L 480.115587 384.539259 
L 486.197589 384.539259 
L 486.197589 463.765371 
z
" style="fill:#57db5f;"/>
    <path clip-path="url(#p81305dee5d)" d="M 474.033586 463.765371 
L 474.033586 382.683279 
L 480.115587 382.683279 
L 480.115587 463.765371 
z
" style="fill:#db5f57;"/>
    <path clip-path="url(#p81305dee5d)" d="M 506.470926 463.765371 
L 506.470926 404.075037 
L 512.552927 404.075037 
L 512.552927 463.765371 
z
" style="fill:#5f57db;"/>
    <path clip-path="url(#p81305dee5d)" d="M 500.388925 463.765371 
L 500.388925 399.607731 
L 506.470926 399.607731 
L 506.470926 463.765371 
z
" style="fill:#57db5f;"/>
    <path clip-path="url(#p81305dee5d)" d="M 494.306923 463.765371 
L 494.306923 371.921527 
L 500.388925 371.921527 
L 500.388925 463.765371 
z
" style="fill:#db5f57;"/>
    <path clip-path="url(#p81305dee5d)" d="M 526.744263 463.765371 
L 526.744263 408.821119 
L 532.826265 408.821119 
L 532.826265 463.765371 
z
" style="fill:#5f57db;"/>
    <path clip-path="url(#p81305dee5d)" d="M 520.662262 463.765371 
L 520.662262 395.234 
L 526.744263 395.234 
L 526.744263 463.765371 
z
" style="fill:#57db5f;"/>
    <path clip-path="url(#p81305dee5d)" d="M 514.580261 463.765371 
L 514.580261 60.565371 
L 520.662262 60.565371 
L 520.662262 463.765371 
z
" style="fill:#db5f57;"/>
    <path clip-path="url(#p81305dee5d)" d="M 547.017601 463.765371 
L 547.017601 402.001136 
L 553.099602 402.001136 
L 553.099602 463.765371 
z
" style="fill:#5f57db;"/>
    <path clip-path="url(#p81305dee5d)" d="M 540.935599 463.765371 
L 540.935599 385.80928 
L 547.017601 385.80928 
L 547.017601 463.765371 
z
" style="fill:#57db5f;"/>
    <path clip-path="url(#p81305dee5d)" d="M 534.853598 463.765371 
L 534.853598 358.108223 
L 540.935599 358.108223 
L 540.935599 463.765371 
z
" style="fill:#db5f57;"/>
    <path clip-path="url(#p81305dee5d)" d="M 567.290938 463.765371 
L 567.290938 380.714888 
L 573.372939 380.714888 
L 573.372939 463.765371 
z
" style="fill:#5f57db;"/>
    <path clip-path="url(#p81305dee5d)" d="M 561.208937 463.765371 
L 561.208937 374.468541 
L 567.290938 374.468541 
L 567.290938 463.765371 
z
" style="fill:#57db5f;"/>
    <path clip-path="url(#p81305dee5d)" d="M 555.126936 463.765371 
L 555.126936 344.664961 
L 561.208937 344.664961 
L 561.208937 463.765371 
z
" style="fill:#db5f57;"/>
    <path clip-path="url(#p81305dee5d)" d="M 587.564276 463.765371 
L 587.564276 378.957863 
L 593.646277 378.957863 
L 593.646277 463.765371 
z
" style="fill:#5f57db;"/>
    <path clip-path="url(#p81305dee5d)" d="M 581.482274 463.765371 
L 581.482274 394.114717 
L 587.564276 394.114717 
L 587.564276 463.765371 
z
" style="fill:#57db5f;"/>
    <path clip-path="url(#p81305dee5d)" d="M 575.400273 463.765371 
L 575.400273 196.156344 
L 581.482274 196.156344 
L 581.482274 463.765371 
z
" style="fill:#db5f57;"/>
    <path clip-path="url(#p81305dee5d)" d="M 607.837613 463.765371 
L 607.837613 326.990655 
L 613.919614 326.990655 
L 613.919614 463.765371 
z
" style="fill:#5f57db;"/>
    <path clip-path="url(#p81305dee5d)" d="M 601.755612 463.765371 
L 601.755612 402.807262 
L 607.837613 402.807262 
L 607.837613 463.765371 
z
" style="fill:#57db5f;"/>
    <path clip-path="url(#p81305dee5d)" d="M 595.67361 463.765371 
L 595.67361 355.418451 
L 601.755612 355.418451 
L 601.755612 463.765371 
z
" style="fill:#db5f57;"/>
    <path clip-path="url(#p81305dee5d)" d="M 628.11095 463.765371 
L 628.11095 131.744997 
L 634.192952 131.744997 
L 634.192952 463.765371 
z
" style="fill:#5f57db;"/>
    <path clip-path="url(#p81305dee5d)" d="M 622.028949 463.765371 
L 622.028949 397.826367 
L 628.11095 397.826367 
L 628.11095 463.765371 
z
" style="fill:#57db5f;"/>
    <path clip-path="url(#p81305dee5d)" d="M 615.946948 463.765371 
L 615.946948 390.647509 
L 622.028949 390.647509 
L 622.028949 463.765371 
z
" style="fill:#db5f57;"/>
    <path clip-path="url(#p81305dee5d)" d="M 648.384288 463.765371 
L 648.384288 202.838337 
L 654.466289 202.838337 
L 654.466289 463.765371 
z
" style="fill:#5f57db;"/>
    <path clip-path="url(#p81305dee5d)" d="M 642.302286 463.765371 
L 642.302286 390.383878 
L 648.384288 390.383878 
L 648.384288 463.765371 
z
" style="fill:#57db5f;"/>
    <path clip-path="url(#p81305dee5d)" d="M 662.575624 463.765371 
L 662.575624 367.994784 
L 668.657625 367.994784 
L 668.657625 463.765371 
z
" style="fill:#57db5f;"/>
    <path clip-path="url(#p81305dee5d)" d="M 682.848961 463.765371 
L 682.848961 350.053644 
L 688.930963 350.053644 
L 688.930963 463.765371 
z
" style="fill:#57db5f;"/>
    <path clip-path="url(#p81305dee5d)" d="M 703.122299 463.765371 
L 703.122299 269.113672 
L 709.2043 269.113672 
L 709.2043 463.765371 
z
" style="fill:#57db5f;"/>
   </g>
   <g id="patch_12">
    <path d="M 398.109938 40.405371 
L 730.389938 40.405371 
L 730.389938 26.231919 
L 398.109938 26.231919 
z
" style="fill:#d9d9d9;"/>
   </g>
   <g id="text_23">
    <!-- Single Family -->
    <defs>
     <path d="M 45.40625 27.984375 
Q 45.40625 37.75 41.375 43.109375 
Q 37.359375 48.484375 30.078125 48.484375 
Q 22.859375 48.484375 18.828125 43.109375 
Q 14.796875 37.75 14.796875 27.984375 
Q 14.796875 18.265625 18.828125 12.890625 
Q 22.859375 7.515625 30.078125 7.515625 
Q 37.359375 7.515625 41.375 12.890625 
Q 45.40625 18.265625 45.40625 27.984375 
z
M 54.390625 6.78125 
Q 54.390625 -7.171875 48.1875 -13.984375 
Q 42 -20.796875 29.203125 -20.796875 
Q 24.46875 -20.796875 20.265625 -20.09375 
Q 16.0625 -19.390625 12.109375 -17.921875 
L 12.109375 -9.1875 
Q 16.0625 -11.328125 19.921875 -12.34375 
Q 23.78125 -13.375 27.78125 -13.375 
Q 36.625 -13.375 41.015625 -8.765625 
Q 45.40625 -4.15625 45.40625 5.171875 
L 45.40625 9.625 
Q 42.625 4.78125 38.28125 2.390625 
Q 33.9375 0 27.875 0 
Q 17.828125 0 11.671875 7.65625 
Q 5.515625 15.328125 5.515625 27.984375 
Q 5.515625 40.671875 11.671875 48.328125 
Q 17.828125 56 27.875 56 
Q 33.9375 56 38.28125 53.609375 
Q 42.625 51.21875 45.40625 46.390625 
L 45.40625 54.6875 
L 54.390625 54.6875 
z
" id="DejaVuSans-67"/>
    </defs>
    <g style="fill:#1a1a1a;" transform="translate(534.768563 35.746895)scale(0.088 -0.088)">
     <use xlink:href="#DejaVuSans-53"/>
     <use x="63.476562" xlink:href="#DejaVuSans-69"/>
     <use x="91.259766" xlink:href="#DejaVuSans-6e"/>
     <use x="154.638672" xlink:href="#DejaVuSans-67"/>
     <use x="218.115234" xlink:href="#DejaVuSans-6c"/>
     <use x="245.898438" xlink:href="#DejaVuSans-65"/>
     <use x="307.421875" xlink:href="#DejaVuSans-20"/>
     <use x="339.208984" xlink:href="#DejaVuSans-46"/>
     <use x="396.587891" xlink:href="#DejaVuSans-61"/>
     <use x="457.867188" xlink:href="#DejaVuSans-6d"/>
     <use x="555.279297" xlink:href="#DejaVuSans-69"/>
     <use x="583.0625" xlink:href="#DejaVuSans-6c"/>
     <use x="610.845703" xlink:href="#DejaVuSans-79"/>
    </g>
   </g>
  </g>
  <g id="text_24">
   <!-- Lotsize by Distance from City Center, All Suburbs -->
   <defs>
    <path d="M 48.6875 27.296875 
Q 48.6875 37.203125 44.609375 42.84375 
Q 40.53125 48.484375 33.40625 48.484375 
Q 26.265625 48.484375 22.1875 42.84375 
Q 18.109375 37.203125 18.109375 27.296875 
Q 18.109375 17.390625 22.1875 11.75 
Q 26.265625 6.109375 33.40625 6.109375 
Q 40.53125 6.109375 44.609375 11.75 
Q 48.6875 17.390625 48.6875 27.296875 
z
M 18.109375 46.390625 
Q 20.953125 51.265625 25.265625 53.625 
Q 29.59375 56 35.59375 56 
Q 45.5625 56 51.78125 48.09375 
Q 58.015625 40.1875 58.015625 27.296875 
Q 58.015625 14.40625 51.78125 6.484375 
Q 45.5625 -1.421875 35.59375 -1.421875 
Q 29.59375 -1.421875 25.265625 0.953125 
Q 20.953125 3.328125 18.109375 8.203125 
L 18.109375 0 
L 9.078125 0 
L 9.078125 75.984375 
L 18.109375 75.984375 
z
" id="DejaVuSans-62"/>
    <path d="M 11.71875 12.40625 
L 22.015625 12.40625 
L 22.015625 4 
L 14.015625 -11.625 
L 7.71875 -11.625 
L 11.71875 4 
z
" id="DejaVuSans-2c"/>
   </defs>
   <g transform="translate(222.034969 17.229937)scale(0.132 -0.132)">
    <use xlink:href="#DejaVuSans-4c"/>
    <use x="55.697266" xlink:href="#DejaVuSans-6f"/>
    <use x="116.878906" xlink:href="#DejaVuSans-74"/>
    <use x="156.087891" xlink:href="#DejaVuSans-73"/>
    <use x="208.1875" xlink:href="#DejaVuSans-69"/>
    <use x="235.970703" xlink:href="#DejaVuSans-7a"/>
    <use x="288.460938" xlink:href="#DejaVuSans-65"/>
    <use x="349.984375" xlink:href="#DejaVuSans-20"/>
    <use x="381.771484" xlink:href="#DejaVuSans-62"/>
    <use x="445.248047" xlink:href="#DejaVuSans-79"/>
    <use x="504.427734" xlink:href="#DejaVuSans-20"/>
    <use x="536.214844" xlink:href="#DejaVuSans-44"/>
    <use x="613.216797" xlink:href="#DejaVuSans-69"/>
    <use x="641" xlink:href="#DejaVuSans-73"/>
    <use x="693.099609" xlink:href="#DejaVuSans-74"/>
    <use x="732.308594" xlink:href="#DejaVuSans-61"/>
    <use x="793.587891" xlink:href="#DejaVuSans-6e"/>
    <use x="856.966797" xlink:href="#DejaVuSans-63"/>
    <use x="911.947266" xlink:href="#DejaVuSans-65"/>
    <use x="973.470703" xlink:href="#DejaVuSans-20"/>
    <use x="1005.257812" xlink:href="#DejaVuSans-66"/>
    <use x="1040.462891" xlink:href="#DejaVuSans-72"/>
    <use x="1081.544922" xlink:href="#DejaVuSans-6f"/>
    <use x="1142.726562" xlink:href="#DejaVuSans-6d"/>
    <use x="1240.138672" xlink:href="#DejaVuSans-20"/>
    <use x="1271.925781" xlink:href="#DejaVuSans-43"/>
    <use x="1341.75" xlink:href="#DejaVuSans-69"/>
    <use x="1369.533203" xlink:href="#DejaVuSans-74"/>
    <use x="1408.742188" xlink:href="#DejaVuSans-79"/>
    <use x="1467.921875" xlink:href="#DejaVuSans-20"/>
    <use x="1499.708984" xlink:href="#DejaVuSans-43"/>
    <use x="1569.533203" xlink:href="#DejaVuSans-65"/>
    <use x="1631.056641" xlink:href="#DejaVuSans-6e"/>
    <use x="1694.435547" xlink:href="#DejaVuSans-74"/>
    <use x="1733.644531" xlink:href="#DejaVuSans-65"/>
    <use x="1795.167969" xlink:href="#DejaVuSans-72"/>
    <use x="1836.28125" xlink:href="#DejaVuSans-2c"/>
    <use x="1868.068359" xlink:href="#DejaVuSans-20"/>
    <use x="1899.855469" xlink:href="#DejaVuSans-41"/>
    <use x="1968.263672" xlink:href="#DejaVuSans-6c"/>
    <use x="1996.046875" xlink:href="#DejaVuSans-6c"/>
    <use x="2023.830078" xlink:href="#DejaVuSans-20"/>
    <use x="2055.617188" xlink:href="#DejaVuSans-53"/>
    <use x="2119.09375" xlink:href="#DejaVuSans-75"/>
    <use x="2182.472656" xlink:href="#DejaVuSans-62"/>
    <use x="2245.949219" xlink:href="#DejaVuSans-75"/>
    <use x="2309.328125" xlink:href="#DejaVuSans-72"/>
    <use x="2350.441406" xlink:href="#DejaVuSans-62"/>
    <use x="2413.917969" xlink:href="#DejaVuSans-73"/>
   </g>
  </g>
 </g>
 <defs>
  <clipPath id="p797bf30a71">
   <rect height="443.52" width="332.28" x="60.789938" y="40.405371"/>
  </clipPath>
  <clipPath id="pc53a4e6032">
   <path d="M 749.789938 256.888339 
L 749.789938 241.048339 
L 765.629938 241.048339 
L 765.629938 256.888339 
"/>
  </clipPath>
  <clipPath id="pe7b665c011">
   <path d="M 749.789938 274.728339 
L 749.789938 258.888339 
L 765.629938 258.888339 
L 765.629938 274.728339 
"/>
  </clipPath>
  <clipPath id="p957dfe331b">
   <path d="M 749.789938 292.568339 
L 749.789938 276.728339 
L 765.629938 276.728339 
L 765.629938 292.568339 
"/>
  </clipPath>
  <clipPath id="p81305dee5d">
   <rect height="443.52" width="332.28" x="398.109938" y="40.405371"/>
  </clipPath>
 </defs>
</svg>
