<?xml version="1.0" encoding="utf-8" standalone="no"?>
<!DOCTYPE svg PUBLIC "-//W3C//DTD SVG 1.1//EN"
  "http://www.w3.org/Graphics/SVG/1.1/DTD/svg11.dtd">
<!-- Created with matplotlib (http://matplotlib.org/) -->
<svg height="519pt" version="1.1" viewBox="0 0 847 519" width="847pt" xmlns="http://www.w3.org/2000/svg" xmlns:xlink="http://www.w3.org/1999/xlink">
 <defs>
  <style type="text/css">
*{stroke-linecap:butt;stroke-linejoin:round;}
  </style>
 </defs>
 <g id="figure_1">
  <g id="patch_1">
   <path d="M 0 519.638058 
L 847.879562 519.638058 
L 847.879562 0 
L 0 0 
z
" style="fill:#ffffff;stroke:#ffffff;stroke-linejoin:miter;"/>
  </g>
  <g id="axes_1">
   <g id="patch_2">
    <path d="M 43.992938 483.925371 
L 263.832938 483.925371 
L 263.832938 40.405371 
L 43.992938 40.405371 
z
" style="fill:#ebebeb;"/>
   </g>
   <g id="matplotlib.axis_1">
    <g id="xtick_1">
     <g id="line2d_1">
      <path clip-path="url(#p9ae19849a0)" d="M 60.02154 483.925371 
L 60.02154 40.405371 
" style="fill:none;stroke:#ffffff;"/>
     </g>
     <g id="line2d_2">
      <path d="M 60.02154 483.925371 
" style="fill:none;stroke:#333333;stroke-width:1.5;"/>
      <defs>
       <path d="M 0 0 
L 0 2.75 
" id="mdbebf881eb" style="stroke:#333333;"/>
      </defs>
      <g>
       <use style="fill:#333333;stroke:#333333;" x="60.02154" xlink:href="#mdbebf881eb" y="483.925371"/>
      </g>
     </g>
     <g id="text_1">
      <!-- 10 -->
      <defs>
       <path d="M 12.40625 8.296875 
L 28.515625 8.296875 
L 28.515625 63.921875 
L 10.984375 60.40625 
L 10.984375 69.390625 
L 28.421875 72.90625 
L 38.28125 72.90625 
L 38.28125 8.296875 
L 54.390625 8.296875 
L 54.390625 0 
L 12.40625 0 
z
" id="DejaVuSans-31"/>
       <path d="M 31.78125 66.40625 
Q 24.171875 66.40625 20.328125 58.90625 
Q 16.5 51.421875 16.5 36.375 
Q 16.5 21.390625 20.328125 13.890625 
Q 24.171875 6.390625 31.78125 6.390625 
Q 39.453125 6.390625 43.28125 13.890625 
Q 47.125 21.390625 47.125 36.375 
Q 47.125 51.421875 43.28125 58.90625 
Q 39.453125 66.40625 31.78125 66.40625 
z
M 31.78125 74.21875 
Q 44.046875 74.21875 50.515625 64.515625 
Q 56.984375 54.828125 56.984375 36.375 
Q 56.984375 17.96875 50.515625 8.265625 
Q 44.046875 -1.421875 31.78125 -1.421875 
Q 19.53125 -1.421875 13.0625 8.265625 
Q 6.59375 17.96875 6.59375 36.375 
Q 6.59375 54.828125 13.0625 64.515625 
Q 19.53125 74.21875 31.78125 74.21875 
z
" id="DejaVuSans-30"/>
      </defs>
      <g style="fill:#4d4d4d;" transform="translate(54.42254 495.561996)scale(0.088 -0.088)">
       <use xlink:href="#DejaVuSans-31"/>
       <use x="63.623047" xlink:href="#DejaVuSans-30"/>
      </g>
     </g>
    </g>
    <g id="xtick_2">
     <g id="line2d_3">
      <path clip-path="url(#p9ae19849a0)" d="M 113.673767 483.925371 
L 113.673767 40.405371 
" style="fill:none;stroke:#ffffff;"/>
     </g>
     <g id="line2d_4">
      <path d="M 113.673767 483.925371 
" style="fill:none;stroke:#333333;stroke-width:1.5;"/>
      <g>
       <use style="fill:#333333;stroke:#333333;" x="113.673767" xlink:href="#mdbebf881eb" y="483.925371"/>
      </g>
     </g>
     <g id="text_2">
      <!-- 20 -->
      <defs>
       <path d="M 19.1875 8.296875 
L 53.609375 8.296875 
L 53.609375 0 
L 7.328125 0 
L 7.328125 8.296875 
Q 12.9375 14.109375 22.625 23.890625 
Q 32.328125 33.6875 34.8125 36.53125 
Q 39.546875 41.84375 41.421875 45.53125 
Q 43.3125 49.21875 43.3125 52.78125 
Q 43.3125 58.59375 39.234375 62.25 
Q 35.15625 65.921875 28.609375 65.921875 
Q 23.96875 65.921875 18.8125 64.3125 
Q 13.671875 62.703125 7.8125 59.421875 
L 7.8125 69.390625 
Q 13.765625 71.78125 18.9375 73 
Q 24.125 74.21875 28.421875 74.21875 
Q 39.75 74.21875 46.484375 68.546875 
Q 53.21875 62.890625 53.21875 53.421875 
Q 53.21875 48.921875 51.53125 44.890625 
Q 49.859375 40.875 45.40625 35.40625 
Q 44.1875 33.984375 37.640625 27.21875 
Q 31.109375 20.453125 19.1875 8.296875 
z
" id="DejaVuSans-32"/>
      </defs>
      <g style="fill:#4d4d4d;" transform="translate(108.074767 495.561996)scale(0.088 -0.088)">
       <use xlink:href="#DejaVuSans-32"/>
       <use x="63.623047" xlink:href="#DejaVuSans-30"/>
      </g>
     </g>
    </g>
    <g id="xtick_3">
     <g id="line2d_5">
      <path clip-path="url(#p9ae19849a0)" d="M 167.325994 483.925371 
L 167.325994 40.405371 
" style="fill:none;stroke:#ffffff;"/>
     </g>
     <g id="line2d_6">
      <path d="M 167.325994 483.925371 
" style="fill:none;stroke:#333333;stroke-width:1.5;"/>
      <g>
       <use style="fill:#333333;stroke:#333333;" x="167.325994" xlink:href="#mdbebf881eb" y="483.925371"/>
      </g>
     </g>
     <g id="text_3">
      <!-- 30 -->
      <defs>
       <path d="M 40.578125 39.3125 
Q 47.65625 37.796875 51.625 33 
Q 55.609375 28.21875 55.609375 21.1875 
Q 55.609375 10.40625 48.1875 4.484375 
Q 40.765625 -1.421875 27.09375 -1.421875 
Q 22.515625 -1.421875 17.65625 -0.515625 
Q 12.796875 0.390625 7.625 2.203125 
L 7.625 11.71875 
Q 11.71875 9.328125 16.59375 8.109375 
Q 21.484375 6.890625 26.8125 6.890625 
Q 36.078125 6.890625 40.9375 10.546875 
Q 45.796875 14.203125 45.796875 21.1875 
Q 45.796875 27.640625 41.28125 31.265625 
Q 36.765625 34.90625 28.71875 34.90625 
L 20.21875 34.90625 
L 20.21875 43.015625 
L 29.109375 43.015625 
Q 36.375 43.015625 40.234375 45.921875 
Q 44.09375 48.828125 44.09375 54.296875 
Q 44.09375 59.90625 40.109375 62.90625 
Q 36.140625 65.921875 28.71875 65.921875 
Q 24.65625 65.921875 20.015625 65.03125 
Q 15.375 64.15625 9.8125 62.3125 
L 9.8125 71.09375 
Q 15.4375 72.65625 20.34375 73.4375 
Q 25.25 74.21875 29.59375 74.21875 
Q 40.828125 74.21875 47.359375 69.109375 
Q 53.90625 64.015625 53.90625 55.328125 
Q 53.90625 49.265625 50.4375 45.09375 
Q 46.96875 40.921875 40.578125 39.3125 
z
" id="DejaVuSans-33"/>
      </defs>
      <g style="fill:#4d4d4d;" transform="translate(161.726994 495.561996)scale(0.088 -0.088)">
       <use xlink:href="#DejaVuSans-33"/>
       <use x="63.623047" xlink:href="#DejaVuSans-30"/>
      </g>
     </g>
    </g>
    <g id="xtick_4">
     <g id="line2d_7">
      <path clip-path="url(#p9ae19849a0)" d="M 220.978221 483.925371 
L 220.978221 40.405371 
" style="fill:none;stroke:#ffffff;"/>
     </g>
     <g id="line2d_8">
      <path d="M 220.978221 483.925371 
" style="fill:none;stroke:#333333;stroke-width:1.5;"/>
      <g>
       <use style="fill:#333333;stroke:#333333;" x="220.978221" xlink:href="#mdbebf881eb" y="483.925371"/>
      </g>
     </g>
     <g id="text_4">
      <!-- 40 -->
      <defs>
       <path d="M 37.796875 64.3125 
L 12.890625 25.390625 
L 37.796875 25.390625 
z
M 35.203125 72.90625 
L 47.609375 72.90625 
L 47.609375 25.390625 
L 58.015625 25.390625 
L 58.015625 17.1875 
L 47.609375 17.1875 
L 47.609375 0 
L 37.796875 0 
L 37.796875 17.1875 
L 4.890625 17.1875 
L 4.890625 26.703125 
z
" id="DejaVuSans-34"/>
      </defs>
      <g style="fill:#4d4d4d;" transform="translate(215.379221 495.561996)scale(0.088 -0.088)">
       <use xlink:href="#DejaVuSans-34"/>
       <use x="63.623047" xlink:href="#DejaVuSans-30"/>
      </g>
     </g>
    </g>
    <g id="xtick_5">
     <g id="line2d_9">
      <path clip-path="url(#p9ae19849a0)" d="M 86.847654 483.925371 
L 86.847654 40.405371 
" style="fill:none;stroke:#ffffff;stroke-width:0.5;"/>
     </g>
     <g id="line2d_10">
      <path d="M 86.847654 483.925371 
" style="fill:none;stroke:#333333;stroke-width:1.5;"/>
     </g>
    </g>
    <g id="xtick_6">
     <g id="line2d_11">
      <path clip-path="url(#p9ae19849a0)" d="M 140.499881 483.925371 
L 140.499881 40.405371 
" style="fill:none;stroke:#ffffff;stroke-width:0.5;"/>
     </g>
     <g id="line2d_12">
      <path d="M 140.499881 483.925371 
" style="fill:none;stroke:#333333;stroke-width:1.5;"/>
     </g>
    </g>
    <g id="xtick_7">
     <g id="line2d_13">
      <path clip-path="url(#p9ae19849a0)" d="M 194.152108 483.925371 
L 194.152108 40.405371 
" style="fill:none;stroke:#ffffff;stroke-width:0.5;"/>
     </g>
     <g id="line2d_14">
      <path d="M 194.152108 483.925371 
" style="fill:none;stroke:#333333;stroke-width:1.5;"/>
     </g>
    </g>
    <g id="xtick_8">
     <g id="line2d_15">
      <path clip-path="url(#p9ae19849a0)" d="M 247.804335 483.925371 
L 247.804335 40.405371 
" style="fill:none;stroke:#ffffff;stroke-width:0.5;"/>
     </g>
     <g id="line2d_16">
      <path d="M 247.804335 483.925371 
" style="fill:none;stroke:#333333;stroke-width:1.5;"/>
     </g>
    </g>
   </g>
   <g id="matplotlib.axis_2">
    <g id="ytick_1">
     <g id="line2d_17">
      <path clip-path="url(#p9ae19849a0)" d="M 43.992938 463.765371 
L 263.832938 463.765371 
" style="fill:none;stroke:#ffffff;"/>
     </g>
     <g id="line2d_18">
      <path d="M 43.992938 463.765371 
" style="fill:none;stroke:#333333;stroke-width:1.5;"/>
      <defs>
       <path d="M 0 0 
L -2.75 0 
" id="m2ed06a2a8b" style="stroke:#333333;"/>
      </defs>
      <g>
       <use style="fill:#333333;stroke:#333333;" x="43.992938" xlink:href="#m2ed06a2a8b" y="463.765371"/>
      </g>
     </g>
     <g id="text_5">
      <!-- 0 -->
      <g style="fill:#4d4d4d;" transform="translate(33.443938 466.193621)scale(0.088 -0.088)">
       <use xlink:href="#DejaVuSans-30"/>
      </g>
     </g>
    </g>
    <g id="ytick_2">
     <g id="line2d_19">
      <path clip-path="url(#p9ae19849a0)" d="M 43.992938 362.965371 
L 263.832938 362.965371 
" style="fill:none;stroke:#ffffff;"/>
     </g>
     <g id="line2d_20">
      <path d="M 43.992938 362.965371 
" style="fill:none;stroke:#333333;stroke-width:1.5;"/>
      <g>
       <use style="fill:#333333;stroke:#333333;" x="43.992938" xlink:href="#m2ed06a2a8b" y="362.965371"/>
      </g>
     </g>
     <g id="text_6">
      <!-- 25 -->
      <defs>
       <path d="M 10.796875 72.90625 
L 49.515625 72.90625 
L 49.515625 64.59375 
L 19.828125 64.59375 
L 19.828125 46.734375 
Q 21.96875 47.46875 24.109375 47.828125 
Q 26.265625 48.1875 28.421875 48.1875 
Q 40.625 48.1875 47.75 41.5 
Q 54.890625 34.8125 54.890625 23.390625 
Q 54.890625 11.625 47.5625 5.09375 
Q 40.234375 -1.421875 26.90625 -1.421875 
Q 22.3125 -1.421875 17.546875 -0.640625 
Q 12.796875 0.140625 7.71875 1.703125 
L 7.71875 11.625 
Q 12.109375 9.234375 16.796875 8.0625 
Q 21.484375 6.890625 26.703125 6.890625 
Q 35.15625 6.890625 40.078125 11.328125 
Q 45.015625 15.765625 45.015625 23.390625 
Q 45.015625 31 40.078125 35.4375 
Q 35.15625 39.890625 26.703125 39.890625 
Q 22.75 39.890625 18.8125 39.015625 
Q 14.890625 38.140625 10.796875 36.28125 
z
" id="DejaVuSans-35"/>
      </defs>
      <g style="fill:#4d4d4d;" transform="translate(27.844938 365.393621)scale(0.088 -0.088)">
       <use xlink:href="#DejaVuSans-32"/>
       <use x="63.623047" xlink:href="#DejaVuSans-35"/>
      </g>
     </g>
    </g>
    <g id="ytick_3">
     <g id="line2d_21">
      <path clip-path="url(#p9ae19849a0)" d="M 43.992938 262.165371 
L 263.832938 262.165371 
" style="fill:none;stroke:#ffffff;"/>
     </g>
     <g id="line2d_22">
      <path d="M 43.992938 262.165371 
" style="fill:none;stroke:#333333;stroke-width:1.5;"/>
      <g>
       <use style="fill:#333333;stroke:#333333;" x="43.992938" xlink:href="#m2ed06a2a8b" y="262.165371"/>
      </g>
     </g>
     <g id="text_7">
      <!-- 50 -->
      <g style="fill:#4d4d4d;" transform="translate(27.844938 264.593621)scale(0.088 -0.088)">
       <use xlink:href="#DejaVuSans-35"/>
       <use x="63.623047" xlink:href="#DejaVuSans-30"/>
      </g>
     </g>
    </g>
    <g id="ytick_4">
     <g id="line2d_23">
      <path clip-path="url(#p9ae19849a0)" d="M 43.992938 161.365371 
L 263.832938 161.365371 
" style="fill:none;stroke:#ffffff;"/>
     </g>
     <g id="line2d_24">
      <path d="M 43.992938 161.365371 
" style="fill:none;stroke:#333333;stroke-width:1.5;"/>
      <g>
       <use style="fill:#333333;stroke:#333333;" x="43.992938" xlink:href="#m2ed06a2a8b" y="161.365371"/>
      </g>
     </g>
     <g id="text_8">
      <!-- 75 -->
      <defs>
       <path d="M 8.203125 72.90625 
L 55.078125 72.90625 
L 55.078125 68.703125 
L 28.609375 0 
L 18.3125 0 
L 43.21875 64.59375 
L 8.203125 64.59375 
z
" id="DejaVuSans-37"/>
      </defs>
      <g style="fill:#4d4d4d;" transform="translate(27.844938 163.793621)scale(0.088 -0.088)">
       <use xlink:href="#DejaVuSans-37"/>
       <use x="63.623047" xlink:href="#DejaVuSans-35"/>
      </g>
     </g>
    </g>
    <g id="ytick_5">
     <g id="line2d_25">
      <path clip-path="url(#p9ae19849a0)" d="M 43.992938 60.565371 
L 263.832938 60.565371 
" style="fill:none;stroke:#ffffff;"/>
     </g>
     <g id="line2d_26">
      <path d="M 43.992938 60.565371 
" style="fill:none;stroke:#333333;stroke-width:1.5;"/>
      <g>
       <use style="fill:#333333;stroke:#333333;" x="43.992938" xlink:href="#m2ed06a2a8b" y="60.565371"/>
      </g>
     </g>
     <g id="text_9">
      <!-- 100 -->
      <g style="fill:#4d4d4d;" transform="translate(22.245938 62.993621)scale(0.088 -0.088)">
       <use xlink:href="#DejaVuSans-31"/>
       <use x="63.623047" xlink:href="#DejaVuSans-30"/>
       <use x="127.246094" xlink:href="#DejaVuSans-30"/>
      </g>
     </g>
    </g>
    <g id="ytick_6">
     <g id="line2d_27">
      <path clip-path="url(#p9ae19849a0)" d="M 43.992938 413.365371 
L 263.832938 413.365371 
" style="fill:none;stroke:#ffffff;stroke-width:0.5;"/>
     </g>
     <g id="line2d_28">
      <path d="M 43.992938 413.365371 
" style="fill:none;stroke:#333333;stroke-width:1.5;"/>
     </g>
    </g>
    <g id="ytick_7">
     <g id="line2d_29">
      <path clip-path="url(#p9ae19849a0)" d="M 43.992938 312.565371 
L 263.832938 312.565371 
" style="fill:none;stroke:#ffffff;stroke-width:0.5;"/>
     </g>
     <g id="line2d_30">
      <path d="M 43.992938 312.565371 
" style="fill:none;stroke:#333333;stroke-width:1.5;"/>
     </g>
    </g>
    <g id="ytick_8">
     <g id="line2d_31">
      <path clip-path="url(#p9ae19849a0)" d="M 43.992938 211.765371 
L 263.832938 211.765371 
" style="fill:none;stroke:#ffffff;stroke-width:0.5;"/>
     </g>
     <g id="line2d_32">
      <path d="M 43.992938 211.765371 
" style="fill:none;stroke:#333333;stroke-width:1.5;"/>
     </g>
    </g>
    <g id="ytick_9">
     <g id="line2d_33">
      <path clip-path="url(#p9ae19849a0)" d="M 43.992938 110.965371 
L 263.832938 110.965371 
" style="fill:none;stroke:#ffffff;stroke-width:0.5;"/>
     </g>
     <g id="line2d_34">
      <path d="M 43.992938 110.965371 
" style="fill:none;stroke:#333333;stroke-width:1.5;"/>
     </g>
    </g>
    <g id="text_10">
     <!-- Percent of Land -->
     <defs>
      <path d="M 19.671875 64.796875 
L 19.671875 37.40625 
L 32.078125 37.40625 
Q 38.96875 37.40625 42.71875 40.96875 
Q 46.484375 44.53125 46.484375 51.125 
Q 46.484375 57.671875 42.71875 61.234375 
Q 38.96875 64.796875 32.078125 64.796875 
z
M 9.8125 72.90625 
L 32.078125 72.90625 
Q 44.34375 72.90625 50.609375 67.359375 
Q 56.890625 61.8125 56.890625 51.125 
Q 56.890625 40.328125 50.609375 34.8125 
Q 44.34375 29.296875 32.078125 29.296875 
L 19.671875 29.296875 
L 19.671875 0 
L 9.8125 0 
z
" id="DejaVuSans-50"/>
      <path d="M 56.203125 29.59375 
L 56.203125 25.203125 
L 14.890625 25.203125 
Q 15.484375 15.921875 20.484375 11.0625 
Q 25.484375 6.203125 34.421875 6.203125 
Q 39.59375 6.203125 44.453125 7.46875 
Q 49.3125 8.734375 54.109375 11.28125 
L 54.109375 2.78125 
Q 49.265625 0.734375 44.1875 -0.34375 
Q 39.109375 -1.421875 33.890625 -1.421875 
Q 20.796875 -1.421875 13.15625 6.1875 
Q 5.515625 13.8125 5.515625 26.8125 
Q 5.515625 40.234375 12.765625 48.109375 
Q 20.015625 56 32.328125 56 
Q 43.359375 56 49.78125 48.890625 
Q 56.203125 41.796875 56.203125 29.59375 
z
M 47.21875 32.234375 
Q 47.125 39.59375 43.09375 43.984375 
Q 39.0625 48.390625 32.421875 48.390625 
Q 24.90625 48.390625 20.390625 44.140625 
Q 15.875 39.890625 15.1875 32.171875 
z
" id="DejaVuSans-65"/>
      <path d="M 41.109375 46.296875 
Q 39.59375 47.171875 37.8125 47.578125 
Q 36.03125 48 33.890625 48 
Q 26.265625 48 22.1875 43.046875 
Q 18.109375 38.09375 18.109375 28.8125 
L 18.109375 0 
L 9.078125 0 
L 9.078125 54.6875 
L 18.109375 54.6875 
L 18.109375 46.1875 
Q 20.953125 51.171875 25.484375 53.578125 
Q 30.03125 56 36.53125 56 
Q 37.453125 56 38.578125 55.875 
Q 39.703125 55.765625 41.0625 55.515625 
z
" id="DejaVuSans-72"/>
      <path d="M 48.78125 52.59375 
L 48.78125 44.1875 
Q 44.96875 46.296875 41.140625 47.34375 
Q 37.3125 48.390625 33.40625 48.390625 
Q 24.65625 48.390625 19.8125 42.84375 
Q 14.984375 37.3125 14.984375 27.296875 
Q 14.984375 17.28125 19.8125 11.734375 
Q 24.65625 6.203125 33.40625 6.203125 
Q 37.3125 6.203125 41.140625 7.25 
Q 44.96875 8.296875 48.78125 10.40625 
L 48.78125 2.09375 
Q 45.015625 0.34375 40.984375 -0.53125 
Q 36.96875 -1.421875 32.421875 -1.421875 
Q 20.0625 -1.421875 12.78125 6.34375 
Q 5.515625 14.109375 5.515625 27.296875 
Q 5.515625 40.671875 12.859375 48.328125 
Q 20.21875 56 33.015625 56 
Q 37.15625 56 41.109375 55.140625 
Q 45.0625 54.296875 48.78125 52.59375 
z
" id="DejaVuSans-63"/>
      <path d="M 54.890625 33.015625 
L 54.890625 0 
L 45.90625 0 
L 45.90625 32.71875 
Q 45.90625 40.484375 42.875 44.328125 
Q 39.84375 48.1875 33.796875 48.1875 
Q 26.515625 48.1875 22.3125 43.546875 
Q 18.109375 38.921875 18.109375 30.90625 
L 18.109375 0 
L 9.078125 0 
L 9.078125 54.6875 
L 18.109375 54.6875 
L 18.109375 46.1875 
Q 21.34375 51.125 25.703125 53.5625 
Q 30.078125 56 35.796875 56 
Q 45.21875 56 50.046875 50.171875 
Q 54.890625 44.34375 54.890625 33.015625 
z
" id="DejaVuSans-6e"/>
      <path d="M 18.3125 70.21875 
L 18.3125 54.6875 
L 36.8125 54.6875 
L 36.8125 47.703125 
L 18.3125 47.703125 
L 18.3125 18.015625 
Q 18.3125 11.328125 20.140625 9.421875 
Q 21.96875 7.515625 27.59375 7.515625 
L 36.8125 7.515625 
L 36.8125 0 
L 27.59375 0 
Q 17.1875 0 13.234375 3.875 
Q 9.28125 7.765625 9.28125 18.015625 
L 9.28125 47.703125 
L 2.6875 47.703125 
L 2.6875 54.6875 
L 9.28125 54.6875 
L 9.28125 70.21875 
z
" id="DejaVuSans-74"/>
      <path id="DejaVuSans-20"/>
      <path d="M 30.609375 48.390625 
Q 23.390625 48.390625 19.1875 42.75 
Q 14.984375 37.109375 14.984375 27.296875 
Q 14.984375 17.484375 19.15625 11.84375 
Q 23.34375 6.203125 30.609375 6.203125 
Q 37.796875 6.203125 41.984375 11.859375 
Q 46.1875 17.53125 46.1875 27.296875 
Q 46.1875 37.015625 41.984375 42.703125 
Q 37.796875 48.390625 30.609375 48.390625 
z
M 30.609375 56 
Q 42.328125 56 49.015625 48.375 
Q 55.71875 40.765625 55.71875 27.296875 
Q 55.71875 13.875 49.015625 6.21875 
Q 42.328125 -1.421875 30.609375 -1.421875 
Q 18.84375 -1.421875 12.171875 6.21875 
Q 5.515625 13.875 5.515625 27.296875 
Q 5.515625 40.765625 12.171875 48.375 
Q 18.84375 56 30.609375 56 
z
" id="DejaVuSans-6f"/>
      <path d="M 37.109375 75.984375 
L 37.109375 68.5 
L 28.515625 68.5 
Q 23.6875 68.5 21.796875 66.546875 
Q 19.921875 64.59375 19.921875 59.515625 
L 19.921875 54.6875 
L 34.71875 54.6875 
L 34.71875 47.703125 
L 19.921875 47.703125 
L 19.921875 0 
L 10.890625 0 
L 10.890625 47.703125 
L 2.296875 47.703125 
L 2.296875 54.6875 
L 10.890625 54.6875 
L 10.890625 58.5 
Q 10.890625 67.625 15.140625 71.796875 
Q 19.390625 75.984375 28.609375 75.984375 
z
" id="DejaVuSans-66"/>
      <path d="M 9.8125 72.90625 
L 19.671875 72.90625 
L 19.671875 8.296875 
L 55.171875 8.296875 
L 55.171875 0 
L 9.8125 0 
z
" id="DejaVuSans-4c"/>
      <path d="M 34.28125 27.484375 
Q 23.390625 27.484375 19.1875 25 
Q 14.984375 22.515625 14.984375 16.5 
Q 14.984375 11.71875 18.140625 8.90625 
Q 21.296875 6.109375 26.703125 6.109375 
Q 34.1875 6.109375 38.703125 11.40625 
Q 43.21875 16.703125 43.21875 25.484375 
L 43.21875 27.484375 
z
M 52.203125 31.203125 
L 52.203125 0 
L 43.21875 0 
L 43.21875 8.296875 
Q 40.140625 3.328125 35.546875 0.953125 
Q 30.953125 -1.421875 24.3125 -1.421875 
Q 15.921875 -1.421875 10.953125 3.296875 
Q 6 8.015625 6 15.921875 
Q 6 25.140625 12.171875 29.828125 
Q 18.359375 34.515625 30.609375 34.515625 
L 43.21875 34.515625 
L 43.21875 35.40625 
Q 43.21875 41.609375 39.140625 45 
Q 35.0625 48.390625 27.6875 48.390625 
Q 23 48.390625 18.546875 47.265625 
Q 14.109375 46.140625 10.015625 43.890625 
L 10.015625 52.203125 
Q 14.9375 54.109375 19.578125 55.046875 
Q 24.21875 56 28.609375 56 
Q 40.484375 56 46.34375 49.84375 
Q 52.203125 43.703125 52.203125 31.203125 
z
" id="DejaVuSans-61"/>
      <path d="M 45.40625 46.390625 
L 45.40625 75.984375 
L 54.390625 75.984375 
L 54.390625 0 
L 45.40625 0 
L 45.40625 8.203125 
Q 42.578125 3.328125 38.25 0.953125 
Q 33.9375 -1.421875 27.875 -1.421875 
Q 17.96875 -1.421875 11.734375 6.484375 
Q 5.515625 14.40625 5.515625 27.296875 
Q 5.515625 40.1875 11.734375 48.09375 
Q 17.96875 56 27.875 56 
Q 33.9375 56 38.25 53.625 
Q 42.578125 51.265625 45.40625 46.390625 
z
M 14.796875 27.296875 
Q 14.796875 17.390625 18.875 11.75 
Q 22.953125 6.109375 30.078125 6.109375 
Q 37.203125 6.109375 41.296875 11.75 
Q 45.40625 17.390625 45.40625 27.296875 
Q 45.40625 37.203125 41.296875 42.84375 
Q 37.203125 48.484375 30.078125 48.484375 
Q 22.953125 48.484375 18.875 42.84375 
Q 14.796875 37.203125 14.796875 27.296875 
z
" id="DejaVuSans-64"/>
     </defs>
     <g transform="translate(15.558281 302.50248)rotate(-90)scale(0.11 -0.11)">
      <use xlink:href="#DejaVuSans-50"/>
      <use x="60.255859" xlink:href="#DejaVuSans-65"/>
      <use x="121.779297" xlink:href="#DejaVuSans-72"/>
      <use x="162.861328" xlink:href="#DejaVuSans-63"/>
      <use x="217.841797" xlink:href="#DejaVuSans-65"/>
      <use x="279.365234" xlink:href="#DejaVuSans-6e"/>
      <use x="342.744141" xlink:href="#DejaVuSans-74"/>
      <use x="381.953125" xlink:href="#DejaVuSans-20"/>
      <use x="413.740234" xlink:href="#DejaVuSans-6f"/>
      <use x="474.921875" xlink:href="#DejaVuSans-66"/>
      <use x="510.126953" xlink:href="#DejaVuSans-20"/>
      <use x="541.914062" xlink:href="#DejaVuSans-4c"/>
      <use x="597.626953" xlink:href="#DejaVuSans-61"/>
      <use x="658.90625" xlink:href="#DejaVuSans-6e"/>
      <use x="722.285156" xlink:href="#DejaVuSans-64"/>
     </g>
    </g>
   </g>
   <g id="PolyCollection_1">
    <path clip-path="url(#p9ae19849a0)" d="M 88.859612 463.765371 
L 88.859612 330.943835 
L 92.883529 330.943835 
L 92.883529 463.765371 
z
" style="fill:#a157db;"/>
    <path clip-path="url(#p9ae19849a0)" d="M 84.835695 463.765371 
L 84.835695 201.287936 
L 88.859612 201.287936 
L 88.859612 463.765371 
z
" style="fill:#91db57;"/>
    <path clip-path="url(#p9ae19849a0)" d="M 80.811778 463.765371 
L 80.811778 455.864342 
L 84.835695 455.864342 
L 84.835695 463.765371 
z
" style="fill:#db5f57;"/>
    <path clip-path="url(#p9ae19849a0)" d="M 102.272669 463.765371 
L 102.272669 278.825599 
L 106.296586 278.825599 
L 106.296586 463.765371 
z
" style="fill:#a157db;"/>
    <path clip-path="url(#p9ae19849a0)" d="M 98.248752 463.765371 
L 98.248752 255.513942 
L 102.272669 255.513942 
L 102.272669 463.765371 
z
" style="fill:#91db57;"/>
    <path clip-path="url(#p9ae19849a0)" d="M 94.224835 463.765371 
L 94.224835 453.756571 
L 98.248752 453.756571 
L 98.248752 463.765371 
z
" style="fill:#db5f57;"/>
    <path clip-path="url(#p9ae19849a0)" d="M 115.685726 463.765371 
L 115.685726 414.34616 
L 119.709643 414.34616 
L 119.709643 463.765371 
z
" style="fill:#a157db;"/>
    <path clip-path="url(#p9ae19849a0)" d="M 111.661809 463.765371 
L 111.661809 112.341573 
L 115.685726 112.341573 
L 115.685726 463.765371 
z
" style="fill:#91db57;"/>
    <path clip-path="url(#p9ae19849a0)" d="M 107.637892 463.765371 
L 107.637892 461.408378 
L 111.661809 461.408378 
L 111.661809 463.765371 
z
" style="fill:#db5f57;"/>
    <path clip-path="url(#p9ae19849a0)" d="M 129.098783 463.765371 
L 129.098783 410.94926 
L 133.1227 410.94926 
L 133.1227 463.765371 
z
" style="fill:#a157db;"/>
    <path clip-path="url(#p9ae19849a0)" d="M 125.074866 463.765371 
L 125.074866 113.381481 
L 129.098783 113.381481 
L 129.098783 463.765371 
z
" style="fill:#91db57;"/>
    <path clip-path="url(#p9ae19849a0)" d="M 142.511839 463.765371 
L 142.511839 238.107897 
L 146.535756 238.107897 
L 146.535756 463.765371 
z
" style="fill:#a157db;"/>
    <path clip-path="url(#p9ae19849a0)" d="M 138.487922 463.765371 
L 138.487922 286.883579 
L 142.511839 286.883579 
L 142.511839 463.765371 
z
" style="fill:#91db57;"/>
    <path clip-path="url(#p9ae19849a0)" d="M 134.464005 463.765371 
L 134.464005 463.104637 
L 138.487922 463.104637 
L 138.487922 463.765371 
z
" style="fill:#db5f57;"/>
    <path clip-path="url(#p9ae19849a0)" d="M 155.924896 463.765371 
L 155.924896 165.723324 
L 159.948813 165.723324 
L 159.948813 463.765371 
z
" style="fill:#a157db;"/>
    <path clip-path="url(#p9ae19849a0)" d="M 151.900979 463.765371 
L 151.900979 359.412953 
L 155.924896 359.412953 
L 155.924896 463.765371 
z
" style="fill:#91db57;"/>
    <path clip-path="url(#p9ae19849a0)" d="M 147.877062 463.765371 
L 147.877062 462.959835 
L 151.900979 462.959835 
L 151.900979 463.765371 
z
" style="fill:#db5f57;"/>
    <path clip-path="url(#p9ae19849a0)" d="M 169.337953 463.765371 
L 169.337953 166.064747 
L 173.36187 166.064747 
L 173.36187 463.765371 
z
" style="fill:#a157db;"/>
    <path clip-path="url(#p9ae19849a0)" d="M 165.314036 463.765371 
L 165.314036 363.324799 
L 169.337953 363.324799 
L 169.337953 463.765371 
z
" style="fill:#91db57;"/>
    <path clip-path="url(#p9ae19849a0)" d="M 161.290119 463.765371 
L 161.290119 458.706567 
L 165.314036 458.706567 
L 165.314036 463.765371 
z
" style="fill:#db5f57;"/>
    <path clip-path="url(#p9ae19849a0)" d="M 182.751009 463.765371 
L 182.751009 161.133779 
L 186.774927 161.133779 
L 186.774927 463.765371 
z
" style="fill:#a157db;"/>
    <path clip-path="url(#p9ae19849a0)" d="M 178.727092 463.765371 
L 178.727092 377.74631 
L 182.751009 377.74631 
L 182.751009 463.765371 
z
" style="fill:#91db57;"/>
    <path clip-path="url(#p9ae19849a0)" d="M 174.703175 463.765371 
L 174.703175 449.216023 
L 178.727092 449.216023 
L 178.727092 463.765371 
z
" style="fill:#db5f57;"/>
    <path clip-path="url(#p9ae19849a0)" d="M 196.164066 463.765371 
L 196.164066 92.220127 
L 200.187983 92.220127 
L 200.187983 463.765371 
z
" style="fill:#a157db;"/>
    <path clip-path="url(#p9ae19849a0)" d="M 192.140149 463.765371 
L 192.140149 432.110615 
L 196.164066 432.110615 
L 196.164066 463.765371 
z
" style="fill:#91db57;"/>
   </g>
   <g id="patch_3">
    <path d="M 43.992938 40.405371 
L 263.832938 40.405371 
L 263.832938 26.231919 
L 43.992938 26.231919 
z
" style="fill:#d9d9d9;"/>
   </g>
   <g id="text_11">
    <!-- Austin -->
    <defs>
     <path d="M 34.1875 63.1875 
L 20.796875 26.90625 
L 47.609375 26.90625 
z
M 28.609375 72.90625 
L 39.796875 72.90625 
L 67.578125 0 
L 57.328125 0 
L 50.6875 18.703125 
L 17.828125 18.703125 
L 11.1875 0 
L 0.78125 0 
z
" id="DejaVuSans-41"/>
     <path d="M 8.5 21.578125 
L 8.5 54.6875 
L 17.484375 54.6875 
L 17.484375 21.921875 
Q 17.484375 14.15625 20.5 10.265625 
Q 23.53125 6.390625 29.59375 6.390625 
Q 36.859375 6.390625 41.078125 11.03125 
Q 45.3125 15.671875 45.3125 23.6875 
L 45.3125 54.6875 
L 54.296875 54.6875 
L 54.296875 0 
L 45.3125 0 
L 45.3125 8.40625 
Q 42.046875 3.421875 37.71875 1 
Q 33.40625 -1.421875 27.6875 -1.421875 
Q 18.265625 -1.421875 13.375 4.4375 
Q 8.5 10.296875 8.5 21.578125 
z
M 31.109375 56 
z
" id="DejaVuSans-75"/>
     <path d="M 44.28125 53.078125 
L 44.28125 44.578125 
Q 40.484375 46.53125 36.375 47.5 
Q 32.28125 48.484375 27.875 48.484375 
Q 21.1875 48.484375 17.84375 46.4375 
Q 14.5 44.390625 14.5 40.28125 
Q 14.5 37.15625 16.890625 35.375 
Q 19.28125 33.59375 26.515625 31.984375 
L 29.59375 31.296875 
Q 39.15625 29.25 43.1875 25.515625 
Q 47.21875 21.78125 47.21875 15.09375 
Q 47.21875 7.46875 41.1875 3.015625 
Q 35.15625 -1.421875 24.609375 -1.421875 
Q 20.21875 -1.421875 15.453125 -0.5625 
Q 10.6875 0.296875 5.421875 2 
L 5.421875 11.28125 
Q 10.40625 8.6875 15.234375 7.390625 
Q 20.0625 6.109375 24.8125 6.109375 
Q 31.15625 6.109375 34.5625 8.28125 
Q 37.984375 10.453125 37.984375 14.40625 
Q 37.984375 18.0625 35.515625 20.015625 
Q 33.0625 21.96875 24.703125 23.78125 
L 21.578125 24.515625 
Q 13.234375 26.265625 9.515625 29.90625 
Q 5.8125 33.546875 5.8125 39.890625 
Q 5.8125 47.609375 11.28125 51.796875 
Q 16.75 56 26.8125 56 
Q 31.78125 56 36.171875 55.265625 
Q 40.578125 54.546875 44.28125 53.078125 
z
" id="DejaVuSans-73"/>
     <path d="M 9.421875 54.6875 
L 18.40625 54.6875 
L 18.40625 0 
L 9.421875 0 
z
M 9.421875 75.984375 
L 18.40625 75.984375 
L 18.40625 64.59375 
L 9.421875 64.59375 
z
" id="DejaVuSans-69"/>
    </defs>
    <g style="fill:#1a1a1a;" transform="translate(140.086625 35.746895)scale(0.088 -0.088)">
     <use xlink:href="#DejaVuSans-41"/>
     <use x="68.408203" xlink:href="#DejaVuSans-75"/>
     <use x="131.787109" xlink:href="#DejaVuSans-73"/>
     <use x="183.886719" xlink:href="#DejaVuSans-74"/>
     <use x="223.095703" xlink:href="#DejaVuSans-69"/>
     <use x="250.878906" xlink:href="#DejaVuSans-6e"/>
    </g>
   </g>
   <g id="patch_4">
    <path d="M 720.792937 313.688339 
L 840.679562 313.688339 
L 840.679562 204.882402 
L 720.792937 204.882402 
z
" style="fill:#ffffff;"/>
   </g>
   <g id="text_12">
    <!-- Zone -->
    <defs>
     <path d="M 5.609375 72.90625 
L 62.890625 72.90625 
L 62.890625 65.375 
L 16.796875 8.296875 
L 64.015625 8.296875 
L 64.015625 0 
L 4.5 0 
L 4.5 7.515625 
L 50.59375 64.59375 
L 5.609375 64.59375 
z
" id="DejaVuSans-5a"/>
    </defs>
    <g transform="translate(732.992938 228.475996)scale(0.11 -0.11)">
     <use xlink:href="#DejaVuSans-5a"/>
     <use x="68.505859" xlink:href="#DejaVuSans-6f"/>
     <use x="129.6875" xlink:href="#DejaVuSans-6e"/>
     <use x="193.066406" xlink:href="#DejaVuSans-65"/>
    </g>
   </g>
   <g id="patch_5">
    <path clip-path="url(#pe9699c03eb)" d="M 732.992938 247.968339 
L 748.832938 247.968339 
L 748.832938 232.128339 
L 732.992938 232.128339 
z
" style="fill:#f2f2f2;"/>
   </g>
   <g id="patch_6">
    <path clip-path="url(#pe9699c03eb)" d="M 732.992938 247.968339 
L 748.832938 247.968339 
L 748.832938 232.128339 
L 732.992938 232.128339 
z
" style="fill:#db5f57;"/>
   </g>
   <g id="text_13">
    <!-- Multifamily -->
    <defs>
     <path d="M 9.8125 72.90625 
L 24.515625 72.90625 
L 43.109375 23.296875 
L 61.8125 72.90625 
L 76.515625 72.90625 
L 76.515625 0 
L 66.890625 0 
L 66.890625 64.015625 
L 48.09375 14.015625 
L 38.1875 14.015625 
L 19.390625 64.015625 
L 19.390625 0 
L 9.8125 0 
z
" id="DejaVuSans-4d"/>
     <path d="M 9.421875 75.984375 
L 18.40625 75.984375 
L 18.40625 0 
L 9.421875 0 
z
" id="DejaVuSans-6c"/>
     <path d="M 52 44.1875 
Q 55.375 50.25 60.0625 53.125 
Q 64.75 56 71.09375 56 
Q 79.640625 56 84.28125 50.015625 
Q 88.921875 44.046875 88.921875 33.015625 
L 88.921875 0 
L 79.890625 0 
L 79.890625 32.71875 
Q 79.890625 40.578125 77.09375 44.375 
Q 74.3125 48.1875 68.609375 48.1875 
Q 61.625 48.1875 57.5625 43.546875 
Q 53.515625 38.921875 53.515625 30.90625 
L 53.515625 0 
L 44.484375 0 
L 44.484375 32.71875 
Q 44.484375 40.625 41.703125 44.40625 
Q 38.921875 48.1875 33.109375 48.1875 
Q 26.21875 48.1875 22.15625 43.53125 
Q 18.109375 38.875 18.109375 30.90625 
L 18.109375 0 
L 9.078125 0 
L 9.078125 54.6875 
L 18.109375 54.6875 
L 18.109375 46.1875 
Q 21.1875 51.21875 25.484375 53.609375 
Q 29.78125 56 35.6875 56 
Q 41.65625 56 45.828125 52.96875 
Q 50 49.953125 52 44.1875 
z
" id="DejaVuSans-6d"/>
     <path d="M 32.171875 -5.078125 
Q 28.375 -14.84375 24.75 -17.8125 
Q 21.140625 -20.796875 15.09375 -20.796875 
L 7.90625 -20.796875 
L 7.90625 -13.28125 
L 13.1875 -13.28125 
Q 16.890625 -13.28125 18.9375 -11.515625 
Q 21 -9.765625 23.484375 -3.21875 
L 25.09375 0.875 
L 2.984375 54.6875 
L 12.5 54.6875 
L 29.59375 11.921875 
L 46.6875 54.6875 
L 56.203125 54.6875 
z
" id="DejaVuSans-79"/>
    </defs>
    <g transform="translate(751.832938 242.476589)scale(0.088 -0.088)">
     <use xlink:href="#DejaVuSans-4d"/>
     <use x="86.279297" xlink:href="#DejaVuSans-75"/>
     <use x="149.658203" xlink:href="#DejaVuSans-6c"/>
     <use x="177.441406" xlink:href="#DejaVuSans-74"/>
     <use x="216.650391" xlink:href="#DejaVuSans-69"/>
     <use x="244.433594" xlink:href="#DejaVuSans-66"/>
     <use x="279.638672" xlink:href="#DejaVuSans-61"/>
     <use x="340.917969" xlink:href="#DejaVuSans-6d"/>
     <use x="438.330078" xlink:href="#DejaVuSans-69"/>
     <use x="466.113281" xlink:href="#DejaVuSans-6c"/>
     <use x="493.896484" xlink:href="#DejaVuSans-79"/>
    </g>
   </g>
   <g id="patch_7">
    <path clip-path="url(#p759537b7e0)" d="M 732.992938 265.808339 
L 748.832938 265.808339 
L 748.832938 249.968339 
L 732.992938 249.968339 
z
" style="fill:#f2f2f2;"/>
   </g>
   <g id="patch_8">
    <path clip-path="url(#p759537b7e0)" d="M 732.992938 265.808339 
L 748.832938 265.808339 
L 748.832938 249.968339 
L 732.992938 249.968339 
z
" style="fill:#91db57;"/>
   </g>
   <g id="text_14">
    <!-- Other -->
    <defs>
     <path d="M 39.40625 66.21875 
Q 28.65625 66.21875 22.328125 58.203125 
Q 16.015625 50.203125 16.015625 36.375 
Q 16.015625 22.609375 22.328125 14.59375 
Q 28.65625 6.59375 39.40625 6.59375 
Q 50.140625 6.59375 56.421875 14.59375 
Q 62.703125 22.609375 62.703125 36.375 
Q 62.703125 50.203125 56.421875 58.203125 
Q 50.140625 66.21875 39.40625 66.21875 
z
M 39.40625 74.21875 
Q 54.734375 74.21875 63.90625 63.9375 
Q 73.09375 53.65625 73.09375 36.375 
Q 73.09375 19.140625 63.90625 8.859375 
Q 54.734375 -1.421875 39.40625 -1.421875 
Q 24.03125 -1.421875 14.8125 8.828125 
Q 5.609375 19.09375 5.609375 36.375 
Q 5.609375 53.65625 14.8125 63.9375 
Q 24.03125 74.21875 39.40625 74.21875 
z
" id="DejaVuSans-4f"/>
     <path d="M 54.890625 33.015625 
L 54.890625 0 
L 45.90625 0 
L 45.90625 32.71875 
Q 45.90625 40.484375 42.875 44.328125 
Q 39.84375 48.1875 33.796875 48.1875 
Q 26.515625 48.1875 22.3125 43.546875 
Q 18.109375 38.921875 18.109375 30.90625 
L 18.109375 0 
L 9.078125 0 
L 9.078125 75.984375 
L 18.109375 75.984375 
L 18.109375 46.1875 
Q 21.34375 51.125 25.703125 53.5625 
Q 30.078125 56 35.796875 56 
Q 45.21875 56 50.046875 50.171875 
Q 54.890625 44.34375 54.890625 33.015625 
z
" id="DejaVuSans-68"/>
    </defs>
    <g transform="translate(751.832938 260.316589)scale(0.088 -0.088)">
     <use xlink:href="#DejaVuSans-4f"/>
     <use x="78.710938" xlink:href="#DejaVuSans-74"/>
     <use x="117.919922" xlink:href="#DejaVuSans-68"/>
     <use x="181.298828" xlink:href="#DejaVuSans-65"/>
     <use x="242.822266" xlink:href="#DejaVuSans-72"/>
    </g>
   </g>
   <g id="patch_9">
    <path clip-path="url(#pf894286fcd)" d="M 732.992938 283.648339 
L 748.832938 283.648339 
L 748.832938 267.808339 
L 732.992938 267.808339 
z
" style="fill:#f2f2f2;"/>
   </g>
   <g id="patch_10">
    <path clip-path="url(#pf894286fcd)" d="M 732.992938 283.648339 
L 748.832938 283.648339 
L 748.832938 267.808339 
L 732.992938 267.808339 
z
" style="fill:#57d3db;"/>
   </g>
   <g id="text_15">
    <!-- Other Residential -->
    <defs>
     <path d="M 44.390625 34.1875 
Q 47.5625 33.109375 50.5625 29.59375 
Q 53.5625 26.078125 56.59375 19.921875 
L 66.609375 0 
L 56 0 
L 46.6875 18.703125 
Q 43.0625 26.03125 39.671875 28.421875 
Q 36.28125 30.8125 30.421875 30.8125 
L 19.671875 30.8125 
L 19.671875 0 
L 9.8125 0 
L 9.8125 72.90625 
L 32.078125 72.90625 
Q 44.578125 72.90625 50.734375 67.671875 
Q 56.890625 62.453125 56.890625 51.90625 
Q 56.890625 45.015625 53.6875 40.46875 
Q 50.484375 35.9375 44.390625 34.1875 
z
M 19.671875 64.796875 
L 19.671875 38.921875 
L 32.078125 38.921875 
Q 39.203125 38.921875 42.84375 42.21875 
Q 46.484375 45.515625 46.484375 51.90625 
Q 46.484375 58.296875 42.84375 61.546875 
Q 39.203125 64.796875 32.078125 64.796875 
z
" id="DejaVuSans-52"/>
    </defs>
    <g transform="translate(751.832938 278.156589)scale(0.088 -0.088)">
     <use xlink:href="#DejaVuSans-4f"/>
     <use x="78.710938" xlink:href="#DejaVuSans-74"/>
     <use x="117.919922" xlink:href="#DejaVuSans-68"/>
     <use x="181.298828" xlink:href="#DejaVuSans-65"/>
     <use x="242.822266" xlink:href="#DejaVuSans-72"/>
     <use x="283.935547" xlink:href="#DejaVuSans-20"/>
     <use x="315.722656" xlink:href="#DejaVuSans-52"/>
     <use x="385.142578" xlink:href="#DejaVuSans-65"/>
     <use x="446.666016" xlink:href="#DejaVuSans-73"/>
     <use x="498.765625" xlink:href="#DejaVuSans-69"/>
     <use x="526.548828" xlink:href="#DejaVuSans-64"/>
     <use x="590.025391" xlink:href="#DejaVuSans-65"/>
     <use x="651.548828" xlink:href="#DejaVuSans-6e"/>
     <use x="714.927734" xlink:href="#DejaVuSans-74"/>
     <use x="754.136719" xlink:href="#DejaVuSans-69"/>
     <use x="781.919922" xlink:href="#DejaVuSans-61"/>
     <use x="843.199219" xlink:href="#DejaVuSans-6c"/>
    </g>
   </g>
   <g id="patch_11">
    <path clip-path="url(#p27db37320b)" d="M 732.992938 301.488339 
L 748.832938 301.488339 
L 748.832938 285.648339 
L 732.992938 285.648339 
z
" style="fill:#f2f2f2;"/>
   </g>
   <g id="patch_12">
    <path clip-path="url(#p27db37320b)" d="M 732.992938 301.488339 
L 748.832938 301.488339 
L 748.832938 285.648339 
L 732.992938 285.648339 
z
" style="fill:#a157db;"/>
   </g>
   <g id="text_16">
    <!-- Single Family -->
    <defs>
     <path d="M 53.515625 70.515625 
L 53.515625 60.890625 
Q 47.90625 63.578125 42.921875 64.890625 
Q 37.9375 66.21875 33.296875 66.21875 
Q 25.25 66.21875 20.875 63.09375 
Q 16.5 59.96875 16.5 54.203125 
Q 16.5 49.359375 19.40625 46.890625 
Q 22.3125 44.4375 30.421875 42.921875 
L 36.375 41.703125 
Q 47.40625 39.59375 52.65625 34.296875 
Q 57.90625 29 57.90625 20.125 
Q 57.90625 9.515625 50.796875 4.046875 
Q 43.703125 -1.421875 29.984375 -1.421875 
Q 24.8125 -1.421875 18.96875 -0.25 
Q 13.140625 0.921875 6.890625 3.21875 
L 6.890625 13.375 
Q 12.890625 10.015625 18.65625 8.296875 
Q 24.421875 6.59375 29.984375 6.59375 
Q 38.421875 6.59375 43.015625 9.90625 
Q 47.609375 13.234375 47.609375 19.390625 
Q 47.609375 24.75 44.3125 27.78125 
Q 41.015625 30.8125 33.5 32.328125 
L 27.484375 33.5 
Q 16.453125 35.6875 11.515625 40.375 
Q 6.59375 45.0625 6.59375 53.421875 
Q 6.59375 63.09375 13.40625 68.65625 
Q 20.21875 74.21875 32.171875 74.21875 
Q 37.3125 74.21875 42.625 73.28125 
Q 47.953125 72.359375 53.515625 70.515625 
z
" id="DejaVuSans-53"/>
     <path d="M 45.40625 27.984375 
Q 45.40625 37.75 41.375 43.109375 
Q 37.359375 48.484375 30.078125 48.484375 
Q 22.859375 48.484375 18.828125 43.109375 
Q 14.796875 37.75 14.796875 27.984375 
Q 14.796875 18.265625 18.828125 12.890625 
Q 22.859375 7.515625 30.078125 7.515625 
Q 37.359375 7.515625 41.375 12.890625 
Q 45.40625 18.265625 45.40625 27.984375 
z
M 54.390625 6.78125 
Q 54.390625 -7.171875 48.1875 -13.984375 
Q 42 -20.796875 29.203125 -20.796875 
Q 24.46875 -20.796875 20.265625 -20.09375 
Q 16.0625 -19.390625 12.109375 -17.921875 
L 12.109375 -9.1875 
Q 16.0625 -11.328125 19.921875 -12.34375 
Q 23.78125 -13.375 27.78125 -13.375 
Q 36.625 -13.375 41.015625 -8.765625 
Q 45.40625 -4.15625 45.40625 5.171875 
L 45.40625 9.625 
Q 42.625 4.78125 38.28125 2.390625 
Q 33.9375 0 27.875 0 
Q 17.828125 0 11.671875 7.65625 
Q 5.515625 15.328125 5.515625 27.984375 
Q 5.515625 40.671875 11.671875 48.328125 
Q 17.828125 56 27.875 56 
Q 33.9375 56 38.28125 53.609375 
Q 42.625 51.21875 45.40625 46.390625 
L 45.40625 54.6875 
L 54.390625 54.6875 
z
" id="DejaVuSans-67"/>
     <path d="M 9.8125 72.90625 
L 51.703125 72.90625 
L 51.703125 64.59375 
L 19.671875 64.59375 
L 19.671875 43.109375 
L 48.578125 43.109375 
L 48.578125 34.8125 
L 19.671875 34.8125 
L 19.671875 0 
L 9.8125 0 
z
" id="DejaVuSans-46"/>
    </defs>
    <g transform="translate(751.832938 295.996589)scale(0.088 -0.088)">
     <use xlink:href="#DejaVuSans-53"/>
     <use x="63.476562" xlink:href="#DejaVuSans-69"/>
     <use x="91.259766" xlink:href="#DejaVuSans-6e"/>
     <use x="154.638672" xlink:href="#DejaVuSans-67"/>
     <use x="218.115234" xlink:href="#DejaVuSans-6c"/>
     <use x="245.898438" xlink:href="#DejaVuSans-65"/>
     <use x="307.421875" xlink:href="#DejaVuSans-20"/>
     <use x="339.208984" xlink:href="#DejaVuSans-46"/>
     <use x="396.587891" xlink:href="#DejaVuSans-61"/>
     <use x="457.867188" xlink:href="#DejaVuSans-6d"/>
     <use x="555.279297" xlink:href="#DejaVuSans-69"/>
     <use x="583.0625" xlink:href="#DejaVuSans-6c"/>
     <use x="610.845703" xlink:href="#DejaVuSans-79"/>
    </g>
   </g>
  </g>
  <g id="axes_2">
   <g id="patch_13">
    <path d="M 268.872938 483.925371 
L 488.712938 483.925371 
L 488.712938 40.405371 
L 268.872938 40.405371 
z
" style="fill:#ebebeb;"/>
   </g>
   <g id="matplotlib.axis_3">
    <g id="xtick_9">
     <g id="line2d_35">
      <path clip-path="url(#pcd01f7100c)" d="M 284.90154 483.925371 
L 284.90154 40.405371 
" style="fill:none;stroke:#ffffff;stroke-linecap:square;"/>
     </g>
     <g id="line2d_36">
      <path d="M 284.90154 483.925371 
" style="fill:none;stroke:#333333;stroke-linecap:square;stroke-width:1.5;"/>
      <g>
       <use style="fill:#333333;stroke:#333333;" x="284.90154" xlink:href="#mdbebf881eb" y="483.925371"/>
      </g>
     </g>
     <g id="text_17">
      <!-- 10 -->
      <g style="fill:#4d4d4d;" transform="translate(279.30254 495.561996)scale(0.088 -0.088)">
       <use xlink:href="#DejaVuSans-31"/>
       <use x="63.623047" xlink:href="#DejaVuSans-30"/>
      </g>
     </g>
    </g>
    <g id="xtick_10">
     <g id="line2d_37">
      <path clip-path="url(#pcd01f7100c)" d="M 338.553767 483.925371 
L 338.553767 40.405371 
" style="fill:none;stroke:#ffffff;stroke-linecap:square;"/>
     </g>
     <g id="line2d_38">
      <path d="M 338.553767 483.925371 
" style="fill:none;stroke:#333333;stroke-linecap:square;stroke-width:1.5;"/>
      <g>
       <use style="fill:#333333;stroke:#333333;" x="338.553767" xlink:href="#mdbebf881eb" y="483.925371"/>
      </g>
     </g>
     <g id="text_18">
      <!-- 20 -->
      <g style="fill:#4d4d4d;" transform="translate(332.954767 495.561996)scale(0.088 -0.088)">
       <use xlink:href="#DejaVuSans-32"/>
       <use x="63.623047" xlink:href="#DejaVuSans-30"/>
      </g>
     </g>
    </g>
    <g id="xtick_11">
     <g id="line2d_39">
      <path clip-path="url(#pcd01f7100c)" d="M 392.205994 483.925371 
L 392.205994 40.405371 
" style="fill:none;stroke:#ffffff;stroke-linecap:square;"/>
     </g>
     <g id="line2d_40">
      <path d="M 392.205994 483.925371 
" style="fill:none;stroke:#333333;stroke-linecap:square;stroke-width:1.5;"/>
      <g>
       <use style="fill:#333333;stroke:#333333;" x="392.205994" xlink:href="#mdbebf881eb" y="483.925371"/>
      </g>
     </g>
     <g id="text_19">
      <!-- 30 -->
      <g style="fill:#4d4d4d;" transform="translate(386.606994 495.561996)scale(0.088 -0.088)">
       <use xlink:href="#DejaVuSans-33"/>
       <use x="63.623047" xlink:href="#DejaVuSans-30"/>
      </g>
     </g>
    </g>
    <g id="xtick_12">
     <g id="line2d_41">
      <path clip-path="url(#pcd01f7100c)" d="M 445.858221 483.925371 
L 445.858221 40.405371 
" style="fill:none;stroke:#ffffff;stroke-linecap:square;"/>
     </g>
     <g id="line2d_42">
      <path d="M 445.858221 483.925371 
" style="fill:none;stroke:#333333;stroke-linecap:square;stroke-width:1.5;"/>
      <g>
       <use style="fill:#333333;stroke:#333333;" x="445.858221" xlink:href="#mdbebf881eb" y="483.925371"/>
      </g>
     </g>
     <g id="text_20">
      <!-- 40 -->
      <g style="fill:#4d4d4d;" transform="translate(440.259221 495.561996)scale(0.088 -0.088)">
       <use xlink:href="#DejaVuSans-34"/>
       <use x="63.623047" xlink:href="#DejaVuSans-30"/>
      </g>
     </g>
    </g>
    <g id="xtick_13">
     <g id="line2d_43">
      <path clip-path="url(#pcd01f7100c)" d="M 311.727654 483.925371 
L 311.727654 40.405371 
" style="fill:none;stroke:#ffffff;stroke-linecap:square;stroke-width:0.5;"/>
     </g>
     <g id="line2d_44">
      <path d="M 311.727654 483.925371 
" style="fill:none;stroke:#333333;stroke-linecap:square;stroke-width:1.5;"/>
     </g>
    </g>
    <g id="xtick_14">
     <g id="line2d_45">
      <path clip-path="url(#pcd01f7100c)" d="M 365.379881 483.925371 
L 365.379881 40.405371 
" style="fill:none;stroke:#ffffff;stroke-linecap:square;stroke-width:0.5;"/>
     </g>
     <g id="line2d_46">
      <path d="M 365.379881 483.925371 
" style="fill:none;stroke:#333333;stroke-linecap:square;stroke-width:1.5;"/>
     </g>
    </g>
    <g id="xtick_15">
     <g id="line2d_47">
      <path clip-path="url(#pcd01f7100c)" d="M 419.032108 483.925371 
L 419.032108 40.405371 
" style="fill:none;stroke:#ffffff;stroke-linecap:square;stroke-width:0.5;"/>
     </g>
     <g id="line2d_48">
      <path d="M 419.032108 483.925371 
" style="fill:none;stroke:#333333;stroke-linecap:square;stroke-width:1.5;"/>
     </g>
    </g>
    <g id="xtick_16">
     <g id="line2d_49">
      <path clip-path="url(#pcd01f7100c)" d="M 472.684335 483.925371 
L 472.684335 40.405371 
" style="fill:none;stroke:#ffffff;stroke-linecap:square;stroke-width:0.5;"/>
     </g>
     <g id="line2d_50">
      <path d="M 472.684335 483.925371 
" style="fill:none;stroke:#333333;stroke-linecap:square;stroke-width:1.5;"/>
     </g>
    </g>
   </g>
   <g id="matplotlib.axis_4">
    <g id="ytick_10">
     <g id="line2d_51">
      <path clip-path="url(#pcd01f7100c)" d="M 268.872938 463.765371 
L 488.712938 463.765371 
" style="fill:none;stroke:#ffffff;stroke-linecap:square;"/>
     </g>
    </g>
    <g id="ytick_11">
     <g id="line2d_52">
      <path clip-path="url(#pcd01f7100c)" d="M 268.872938 362.965371 
L 488.712938 362.965371 
" style="fill:none;stroke:#ffffff;stroke-linecap:square;"/>
     </g>
    </g>
    <g id="ytick_12">
     <g id="line2d_53">
      <path clip-path="url(#pcd01f7100c)" d="M 268.872938 262.165371 
L 488.712938 262.165371 
" style="fill:none;stroke:#ffffff;stroke-linecap:square;"/>
     </g>
    </g>
    <g id="ytick_13">
     <g id="line2d_54">
      <path clip-path="url(#pcd01f7100c)" d="M 268.872938 161.365371 
L 488.712938 161.365371 
" style="fill:none;stroke:#ffffff;stroke-linecap:square;"/>
     </g>
    </g>
    <g id="ytick_14">
     <g id="line2d_55">
      <path clip-path="url(#pcd01f7100c)" d="M 268.872938 60.565371 
L 488.712938 60.565371 
" style="fill:none;stroke:#ffffff;stroke-linecap:square;"/>
     </g>
    </g>
    <g id="ytick_15">
     <g id="line2d_56">
      <path clip-path="url(#pcd01f7100c)" d="M 268.872938 413.365371 
L 488.712938 413.365371 
" style="fill:none;stroke:#ffffff;stroke-linecap:square;stroke-width:0.5;"/>
     </g>
    </g>
    <g id="ytick_16">
     <g id="line2d_57">
      <path clip-path="url(#pcd01f7100c)" d="M 268.872938 312.565371 
L 488.712938 312.565371 
" style="fill:none;stroke:#ffffff;stroke-linecap:square;stroke-width:0.5;"/>
     </g>
    </g>
    <g id="ytick_17">
     <g id="line2d_58">
      <path clip-path="url(#pcd01f7100c)" d="M 268.872938 211.765371 
L 488.712938 211.765371 
" style="fill:none;stroke:#ffffff;stroke-linecap:square;stroke-width:0.5;"/>
     </g>
    </g>
    <g id="ytick_18">
     <g id="line2d_59">
      <path clip-path="url(#pcd01f7100c)" d="M 268.872938 110.965371 
L 488.712938 110.965371 
" style="fill:none;stroke:#ffffff;stroke-linecap:square;stroke-width:0.5;"/>
     </g>
    </g>
   </g>
   <g id="PolyCollection_2">
    <path clip-path="url(#pcd01f7100c)" d="M 287.919478 463.765371 
L 287.919478 290.418383 
L 290.937416 290.418383 
L 290.937416 463.765371 
z
" style="fill:#a157db;"/>
    <path clip-path="url(#pcd01f7100c)" d="M 281.883603 463.765371 
L 281.883603 258.247139 
L 284.90154 258.247139 
L 284.90154 463.765371 
z
" style="fill:#91db57;"/>
    <path clip-path="url(#pcd01f7100c)" d="M 278.865665 463.765371 
L 278.865665 439.43059 
L 281.883603 439.43059 
L 281.883603 463.765371 
z
" style="fill:#db5f57;"/>
    <path clip-path="url(#pcd01f7100c)" d="M 301.332535 463.765371 
L 301.332535 283.838993 
L 304.350473 283.838993 
L 304.350473 463.765371 
z
" style="fill:#a157db;"/>
    <path clip-path="url(#pcd01f7100c)" d="M 295.296659 463.765371 
L 295.296659 253.808878 
L 298.314597 253.808878 
L 298.314597 463.765371 
z
" style="fill:#91db57;"/>
    <path clip-path="url(#pcd01f7100c)" d="M 292.278722 463.765371 
L 292.278722 450.448242 
L 295.296659 450.448242 
L 295.296659 463.765371 
z
" style="fill:#db5f57;"/>
    <path clip-path="url(#pcd01f7100c)" d="M 314.745592 463.765371 
L 314.745592 351.840466 
L 317.763529 351.840466 
L 317.763529 463.765371 
z
" style="fill:#a157db;"/>
    <path clip-path="url(#pcd01f7100c)" d="M 308.709716 463.765371 
L 308.709716 183.509888 
L 311.727654 183.509888 
L 311.727654 463.765371 
z
" style="fill:#91db57;"/>
    <path clip-path="url(#pcd01f7100c)" d="M 305.691778 463.765371 
L 305.691778 452.745758 
L 308.709716 452.745758 
L 308.709716 463.765371 
z
" style="fill:#db5f57;"/>
    <path clip-path="url(#pcd01f7100c)" d="M 328.158648 463.765371 
L 328.158648 434.340371 
L 331.176586 434.340371 
L 331.176586 463.765371 
z
" style="fill:#a157db;"/>
    <path clip-path="url(#pcd01f7100c)" d="M 325.140711 463.765371 
L 325.140711 463.731573 
L 328.158648 463.731573 
L 328.158648 463.765371 
z
" style="fill:#57d3db;"/>
    <path clip-path="url(#pcd01f7100c)" d="M 322.122773 463.765371 
L 322.122773 216.636788 
L 325.140711 216.636788 
L 325.140711 463.765371 
z
" style="fill:#91db57;"/>
    <path clip-path="url(#pcd01f7100c)" d="M 319.104835 463.765371 
L 319.104835 337.15275 
L 322.122773 337.15275 
L 322.122773 463.765371 
z
" style="fill:#db5f57;"/>
    <path clip-path="url(#pcd01f7100c)" d="M 341.571705 463.765371 
L 341.571705 372.240476 
L 344.589643 372.240476 
L 344.589643 463.765371 
z
" style="fill:#a157db;"/>
    <path clip-path="url(#pcd01f7100c)" d="M 338.553767 463.765371 
L 338.553767 461.372218 
L 341.571705 461.372218 
L 341.571705 463.765371 
z
" style="fill:#57d3db;"/>
    <path clip-path="url(#pcd01f7100c)" d="M 335.53583 463.765371 
L 335.53583 175.675054 
L 338.553767 175.675054 
L 338.553767 463.765371 
z
" style="fill:#91db57;"/>
    <path clip-path="url(#pcd01f7100c)" d="M 332.517892 463.765371 
L 332.517892 442.573735 
L 335.53583 442.573735 
L 335.53583 463.765371 
z
" style="fill:#db5f57;"/>
    <path clip-path="url(#pcd01f7100c)" d="M 354.984762 463.765371 
L 354.984762 395.061614 
L 358.0027 395.061614 
L 358.0027 463.765371 
z
" style="fill:#a157db;"/>
    <path clip-path="url(#pcd01f7100c)" d="M 351.966824 463.765371 
L 351.966824 461.622211 
L 354.984762 461.622211 
L 354.984762 463.765371 
z
" style="fill:#57d3db;"/>
    <path clip-path="url(#pcd01f7100c)" d="M 348.948886 463.765371 
L 348.948886 138.597542 
L 351.966824 138.597542 
L 351.966824 463.765371 
z
" style="fill:#91db57;"/>
    <path clip-path="url(#pcd01f7100c)" d="M 345.930948 463.765371 
L 345.930948 456.580116 
L 348.948886 456.580116 
L 348.948886 463.765371 
z
" style="fill:#db5f57;"/>
    <path clip-path="url(#pcd01f7100c)" d="M 368.397819 463.765371 
L 368.397819 361.140325 
L 371.415756 361.140325 
L 371.415756 463.765371 
z
" style="fill:#a157db;"/>
    <path clip-path="url(#pcd01f7100c)" d="M 365.379881 463.765371 
L 365.379881 457.1429 
L 368.397819 457.1429 
L 368.397819 463.765371 
z
" style="fill:#57d3db;"/>
    <path clip-path="url(#pcd01f7100c)" d="M 362.361943 463.765371 
L 362.361943 178.133404 
L 365.379881 178.133404 
L 365.379881 463.765371 
z
" style="fill:#91db57;"/>
    <path clip-path="url(#pcd01f7100c)" d="M 359.344005 463.765371 
L 359.344005 455.444853 
L 362.361943 455.444853 
L 362.361943 463.765371 
z
" style="fill:#db5f57;"/>
    <path clip-path="url(#pcd01f7100c)" d="M 381.810875 463.765371 
L 381.810875 384.865905 
L 384.828813 384.865905 
L 384.828813 463.765371 
z
" style="fill:#a157db;"/>
    <path clip-path="url(#pcd01f7100c)" d="M 378.792938 463.765371 
L 378.792938 459.311128 
L 381.810875 459.311128 
L 381.810875 463.765371 
z
" style="fill:#57d3db;"/>
    <path clip-path="url(#pcd01f7100c)" d="M 375.775 463.765371 
L 375.775 167.136432 
L 378.792938 167.136432 
L 378.792938 463.765371 
z
" style="fill:#91db57;"/>
    <path clip-path="url(#pcd01f7100c)" d="M 372.757062 463.765371 
L 372.757062 440.548017 
L 375.775 440.548017 
L 375.775 463.765371 
z
" style="fill:#db5f57;"/>
    <path clip-path="url(#pcd01f7100c)" d="M 395.223932 463.765371 
L 395.223932 358.24045 
L 398.24187 358.24045 
L 398.24187 463.765371 
z
" style="fill:#a157db;"/>
    <path clip-path="url(#pcd01f7100c)" d="M 392.205994 463.765371 
L 392.205994 461.939977 
L 395.223932 461.939977 
L 395.223932 463.765371 
z
" style="fill:#57d3db;"/>
    <path clip-path="url(#pcd01f7100c)" d="M 389.188056 463.765371 
L 389.188056 172.594843 
L 392.205994 172.594843 
L 392.205994 463.765371 
z
" style="fill:#91db57;"/>
    <path clip-path="url(#pcd01f7100c)" d="M 386.170119 463.765371 
L 386.170119 459.086213 
L 389.188056 459.086213 
L 389.188056 463.765371 
z
" style="fill:#db5f57;"/>
    <path clip-path="url(#pcd01f7100c)" d="M 408.636989 463.765371 
L 408.636989 415.699078 
L 411.654927 415.699078 
L 411.654927 463.765371 
z
" style="fill:#a157db;"/>
    <path clip-path="url(#pcd01f7100c)" d="M 405.619051 463.765371 
L 405.619051 461.985795 
L 408.636989 461.985795 
L 408.636989 463.765371 
z
" style="fill:#57d3db;"/>
    <path clip-path="url(#pcd01f7100c)" d="M 402.601113 463.765371 
L 402.601113 120.821925 
L 405.619051 120.821925 
L 405.619051 463.765371 
z
" style="fill:#91db57;"/>
    <path clip-path="url(#pcd01f7100c)" d="M 399.583175 463.765371 
L 399.583175 453.354686 
L 402.601113 453.354686 
L 402.601113 463.765371 
z
" style="fill:#db5f57;"/>
    <path clip-path="url(#pcd01f7100c)" d="M 422.050045 463.765371 
L 422.050045 398.660178 
L 425.067983 398.660178 
L 425.067983 463.765371 
z
" style="fill:#a157db;"/>
    <path clip-path="url(#pcd01f7100c)" d="M 419.032108 463.765371 
L 419.032108 461.684863 
L 422.050045 461.684863 
L 422.050045 463.765371 
z
" style="fill:#57d3db;"/>
    <path clip-path="url(#pcd01f7100c)" d="M 416.01417 463.765371 
L 416.01417 147.714 
L 419.032108 147.714 
L 419.032108 463.765371 
z
" style="fill:#91db57;"/>
    <path clip-path="url(#pcd01f7100c)" d="M 412.996232 463.765371 
L 412.996232 443.802443 
L 416.01417 443.802443 
L 416.01417 463.765371 
z
" style="fill:#db5f57;"/>
    <path clip-path="url(#pcd01f7100c)" d="M 435.463102 463.765371 
L 435.463102 392.279414 
L 438.48104 392.279414 
L 438.48104 463.765371 
z
" style="fill:#a157db;"/>
    <path clip-path="url(#pcd01f7100c)" d="M 432.445164 463.765371 
L 432.445164 460.277036 
L 435.463102 460.277036 
L 435.463102 463.765371 
z
" style="fill:#57d3db;"/>
    <path clip-path="url(#pcd01f7100c)" d="M 429.427227 463.765371 
L 429.427227 155.880671 
L 432.445164 155.880671 
L 432.445164 463.765371 
z
" style="fill:#91db57;"/>
    <path clip-path="url(#pcd01f7100c)" d="M 426.409289 463.765371 
L 426.409289 443.424363 
L 429.427227 443.424363 
L 429.427227 463.765371 
z
" style="fill:#db5f57;"/>
    <path clip-path="url(#pcd01f7100c)" d="M 448.876159 463.765371 
L 448.876159 415.319375 
L 451.894097 415.319375 
L 451.894097 463.765371 
z
" style="fill:#a157db;"/>
    <path clip-path="url(#pcd01f7100c)" d="M 445.858221 463.765371 
L 445.858221 462.895882 
L 448.876159 462.895882 
L 448.876159 463.765371 
z
" style="fill:#57d3db;"/>
    <path clip-path="url(#pcd01f7100c)" d="M 442.840283 463.765371 
L 442.840283 122.991398 
L 445.858221 122.991398 
L 445.858221 463.765371 
z
" style="fill:#91db57;"/>
    <path clip-path="url(#pcd01f7100c)" d="M 439.822346 463.765371 
L 439.822346 450.654828 
L 442.840283 450.654828 
L 442.840283 463.765371 
z
" style="fill:#db5f57;"/>
    <path clip-path="url(#pcd01f7100c)" d="M 462.289216 463.765371 
L 462.289216 413.939278 
L 465.307153 413.939278 
L 465.307153 463.765371 
z
" style="fill:#a157db;"/>
    <path clip-path="url(#pcd01f7100c)" d="M 459.271278 463.765371 
L 459.271278 461.791564 
L 462.289216 461.791564 
L 462.289216 463.765371 
z
" style="fill:#57d3db;"/>
    <path clip-path="url(#pcd01f7100c)" d="M 456.25334 463.765371 
L 456.25334 112.821395 
L 459.271278 112.821395 
L 459.271278 463.765371 
z
" style="fill:#91db57;"/>
    <path clip-path="url(#pcd01f7100c)" d="M 453.235402 463.765371 
L 453.235402 463.309246 
L 456.25334 463.309246 
L 456.25334 463.765371 
z
" style="fill:#db5f57;"/>
    <path clip-path="url(#pcd01f7100c)" d="M 475.702272 463.765371 
L 475.702272 442.208885 
L 478.72021 442.208885 
L 478.72021 463.765371 
z
" style="fill:#a157db;"/>
    <path clip-path="url(#pcd01f7100c)" d="M 472.684335 463.765371 
L 472.684335 463.520584 
L 475.702272 463.520584 
L 475.702272 463.765371 
z
" style="fill:#57d3db;"/>
    <path clip-path="url(#pcd01f7100c)" d="M 469.666397 463.765371 
L 469.666397 82.873244 
L 472.684335 82.873244 
L 472.684335 463.765371 
z
" style="fill:#91db57;"/>
    <path clip-path="url(#pcd01f7100c)" d="M 466.648459 463.765371 
L 466.648459 463.25877 
L 469.666397 463.25877 
L 469.666397 463.765371 
z
" style="fill:#db5f57;"/>
   </g>
   <g id="patch_14">
    <path d="M 268.872938 40.405371 
L 488.712938 40.405371 
L 488.712938 26.231919 
L 268.872938 26.231919 
z
" style="fill:#d9d9d9;"/>
   </g>
   <g id="text_21">
    <!-- Dallas -->
    <defs>
     <path d="M 19.671875 64.796875 
L 19.671875 8.109375 
L 31.59375 8.109375 
Q 46.6875 8.109375 53.6875 14.9375 
Q 60.6875 21.78125 60.6875 36.53125 
Q 60.6875 51.171875 53.6875 57.984375 
Q 46.6875 64.796875 31.59375 64.796875 
z
M 9.8125 72.90625 
L 30.078125 72.90625 
Q 51.265625 72.90625 61.171875 64.09375 
Q 71.09375 55.28125 71.09375 36.53125 
Q 71.09375 17.671875 61.125 8.828125 
Q 51.171875 0 30.078125 0 
L 9.8125 0 
z
" id="DejaVuSans-44"/>
    </defs>
    <g style="fill:#1a1a1a;" transform="translate(365.275313 35.746895)scale(0.088 -0.088)">
     <use xlink:href="#DejaVuSans-44"/>
     <use x="77.001953" xlink:href="#DejaVuSans-61"/>
     <use x="138.28125" xlink:href="#DejaVuSans-6c"/>
     <use x="166.064453" xlink:href="#DejaVuSans-6c"/>
     <use x="193.847656" xlink:href="#DejaVuSans-61"/>
     <use x="255.126953" xlink:href="#DejaVuSans-73"/>
    </g>
   </g>
  </g>
  <g id="axes_3">
   <g id="patch_15">
    <path d="M 493.752938 483.925371 
L 713.592938 483.925371 
L 713.592938 40.405371 
L 493.752938 40.405371 
z
" style="fill:#ebebeb;"/>
   </g>
   <g id="matplotlib.axis_5">
    <g id="xtick_17">
     <g id="line2d_60">
      <path clip-path="url(#p4f6ea87ae0)" d="M 509.78154 483.925371 
L 509.78154 40.405371 
" style="fill:none;stroke:#ffffff;stroke-linecap:square;"/>
     </g>
     <g id="line2d_61">
      <path d="M 509.78154 483.925371 
" style="fill:none;stroke:#333333;stroke-linecap:square;stroke-width:1.5;"/>
      <g>
       <use style="fill:#333333;stroke:#333333;" x="509.78154" xlink:href="#mdbebf881eb" y="483.925371"/>
      </g>
     </g>
     <g id="text_22">
      <!-- 10 -->
      <g style="fill:#4d4d4d;" transform="translate(504.18254 495.561996)scale(0.088 -0.088)">
       <use xlink:href="#DejaVuSans-31"/>
       <use x="63.623047" xlink:href="#DejaVuSans-30"/>
      </g>
     </g>
    </g>
    <g id="xtick_18">
     <g id="line2d_62">
      <path clip-path="url(#p4f6ea87ae0)" d="M 563.433767 483.925371 
L 563.433767 40.405371 
" style="fill:none;stroke:#ffffff;stroke-linecap:square;"/>
     </g>
     <g id="line2d_63">
      <path d="M 563.433767 483.925371 
" style="fill:none;stroke:#333333;stroke-linecap:square;stroke-width:1.5;"/>
      <g>
       <use style="fill:#333333;stroke:#333333;" x="563.433767" xlink:href="#mdbebf881eb" y="483.925371"/>
      </g>
     </g>
     <g id="text_23">
      <!-- 20 -->
      <g style="fill:#4d4d4d;" transform="translate(557.834767 495.561996)scale(0.088 -0.088)">
       <use xlink:href="#DejaVuSans-32"/>
       <use x="63.623047" xlink:href="#DejaVuSans-30"/>
      </g>
     </g>
    </g>
    <g id="xtick_19">
     <g id="line2d_64">
      <path clip-path="url(#p4f6ea87ae0)" d="M 617.085994 483.925371 
L 617.085994 40.405371 
" style="fill:none;stroke:#ffffff;stroke-linecap:square;"/>
     </g>
     <g id="line2d_65">
      <path d="M 617.085994 483.925371 
" style="fill:none;stroke:#333333;stroke-linecap:square;stroke-width:1.5;"/>
      <g>
       <use style="fill:#333333;stroke:#333333;" x="617.085994" xlink:href="#mdbebf881eb" y="483.925371"/>
      </g>
     </g>
     <g id="text_24">
      <!-- 30 -->
      <g style="fill:#4d4d4d;" transform="translate(611.486994 495.561996)scale(0.088 -0.088)">
       <use xlink:href="#DejaVuSans-33"/>
       <use x="63.623047" xlink:href="#DejaVuSans-30"/>
      </g>
     </g>
    </g>
    <g id="xtick_20">
     <g id="line2d_66">
      <path clip-path="url(#p4f6ea87ae0)" d="M 670.738221 483.925371 
L 670.738221 40.405371 
" style="fill:none;stroke:#ffffff;stroke-linecap:square;"/>
     </g>
     <g id="line2d_67">
      <path d="M 670.738221 483.925371 
" style="fill:none;stroke:#333333;stroke-linecap:square;stroke-width:1.5;"/>
      <g>
       <use style="fill:#333333;stroke:#333333;" x="670.738221" xlink:href="#mdbebf881eb" y="483.925371"/>
      </g>
     </g>
     <g id="text_25">
      <!-- 40 -->
      <g style="fill:#4d4d4d;" transform="translate(665.139221 495.561996)scale(0.088 -0.088)">
       <use xlink:href="#DejaVuSans-34"/>
       <use x="63.623047" xlink:href="#DejaVuSans-30"/>
      </g>
     </g>
    </g>
    <g id="xtick_21">
     <g id="line2d_68">
      <path clip-path="url(#p4f6ea87ae0)" d="M 536.607654 483.925371 
L 536.607654 40.405371 
" style="fill:none;stroke:#ffffff;stroke-linecap:square;stroke-width:0.5;"/>
     </g>
     <g id="line2d_69">
      <path d="M 536.607654 483.925371 
" style="fill:none;stroke:#333333;stroke-linecap:square;stroke-width:1.5;"/>
     </g>
    </g>
    <g id="xtick_22">
     <g id="line2d_70">
      <path clip-path="url(#p4f6ea87ae0)" d="M 590.259881 483.925371 
L 590.259881 40.405371 
" style="fill:none;stroke:#ffffff;stroke-linecap:square;stroke-width:0.5;"/>
     </g>
     <g id="line2d_71">
      <path d="M 590.259881 483.925371 
" style="fill:none;stroke:#333333;stroke-linecap:square;stroke-width:1.5;"/>
     </g>
    </g>
    <g id="xtick_23">
     <g id="line2d_72">
      <path clip-path="url(#p4f6ea87ae0)" d="M 643.912108 483.925371 
L 643.912108 40.405371 
" style="fill:none;stroke:#ffffff;stroke-linecap:square;stroke-width:0.5;"/>
     </g>
     <g id="line2d_73">
      <path d="M 643.912108 483.925371 
" style="fill:none;stroke:#333333;stroke-linecap:square;stroke-width:1.5;"/>
     </g>
    </g>
    <g id="xtick_24">
     <g id="line2d_74">
      <path clip-path="url(#p4f6ea87ae0)" d="M 697.564335 483.925371 
L 697.564335 40.405371 
" style="fill:none;stroke:#ffffff;stroke-linecap:square;stroke-width:0.5;"/>
     </g>
     <g id="line2d_75">
      <path d="M 697.564335 483.925371 
" style="fill:none;stroke:#333333;stroke-linecap:square;stroke-width:1.5;"/>
     </g>
    </g>
    <g id="text_26">
     <!-- Distance from City Center -->
     <defs>
      <path d="M 64.40625 67.28125 
L 64.40625 56.890625 
Q 59.421875 61.53125 53.78125 63.8125 
Q 48.140625 66.109375 41.796875 66.109375 
Q 29.296875 66.109375 22.65625 58.46875 
Q 16.015625 50.828125 16.015625 36.375 
Q 16.015625 21.96875 22.65625 14.328125 
Q 29.296875 6.6875 41.796875 6.6875 
Q 48.140625 6.6875 53.78125 8.984375 
Q 59.421875 11.28125 64.40625 15.921875 
L 64.40625 5.609375 
Q 59.234375 2.09375 53.4375 0.328125 
Q 47.65625 -1.421875 41.21875 -1.421875 
Q 24.65625 -1.421875 15.125 8.703125 
Q 5.609375 18.84375 5.609375 36.375 
Q 5.609375 53.953125 15.125 64.078125 
Q 24.65625 74.21875 41.21875 74.21875 
Q 47.75 74.21875 53.53125 72.484375 
Q 59.328125 70.75 64.40625 67.28125 
z
" id="DejaVuSans-43"/>
     </defs>
     <g transform="translate(296.490359 510.150402)scale(0.11 -0.11)">
      <use xlink:href="#DejaVuSans-44"/>
      <use x="77.001953" xlink:href="#DejaVuSans-69"/>
      <use x="104.785156" xlink:href="#DejaVuSans-73"/>
      <use x="156.884766" xlink:href="#DejaVuSans-74"/>
      <use x="196.09375" xlink:href="#DejaVuSans-61"/>
      <use x="257.373047" xlink:href="#DejaVuSans-6e"/>
      <use x="320.751953" xlink:href="#DejaVuSans-63"/>
      <use x="375.732422" xlink:href="#DejaVuSans-65"/>
      <use x="437.255859" xlink:href="#DejaVuSans-20"/>
      <use x="469.042969" xlink:href="#DejaVuSans-66"/>
      <use x="504.248047" xlink:href="#DejaVuSans-72"/>
      <use x="545.330078" xlink:href="#DejaVuSans-6f"/>
      <use x="606.511719" xlink:href="#DejaVuSans-6d"/>
      <use x="703.923828" xlink:href="#DejaVuSans-20"/>
      <use x="735.710938" xlink:href="#DejaVuSans-43"/>
      <use x="805.535156" xlink:href="#DejaVuSans-69"/>
      <use x="833.318359" xlink:href="#DejaVuSans-74"/>
      <use x="872.527344" xlink:href="#DejaVuSans-79"/>
      <use x="931.707031" xlink:href="#DejaVuSans-20"/>
      <use x="963.494141" xlink:href="#DejaVuSans-43"/>
      <use x="1033.318359" xlink:href="#DejaVuSans-65"/>
      <use x="1094.841797" xlink:href="#DejaVuSans-6e"/>
      <use x="1158.220703" xlink:href="#DejaVuSans-74"/>
      <use x="1197.429688" xlink:href="#DejaVuSans-65"/>
      <use x="1258.953125" xlink:href="#DejaVuSans-72"/>
     </g>
    </g>
   </g>
   <g id="matplotlib.axis_6">
    <g id="ytick_19">
     <g id="line2d_76">
      <path clip-path="url(#p4f6ea87ae0)" d="M 493.752938 463.765371 
L 713.592938 463.765371 
" style="fill:none;stroke:#ffffff;stroke-linecap:square;"/>
     </g>
    </g>
    <g id="ytick_20">
     <g id="line2d_77">
      <path clip-path="url(#p4f6ea87ae0)" d="M 493.752938 362.965371 
L 713.592938 362.965371 
" style="fill:none;stroke:#ffffff;stroke-linecap:square;"/>
     </g>
    </g>
    <g id="ytick_21">
     <g id="line2d_78">
      <path clip-path="url(#p4f6ea87ae0)" d="M 493.752938 262.165371 
L 713.592938 262.165371 
" style="fill:none;stroke:#ffffff;stroke-linecap:square;"/>
     </g>
    </g>
    <g id="ytick_22">
     <g id="line2d_79">
      <path clip-path="url(#p4f6ea87ae0)" d="M 493.752938 161.365371 
L 713.592938 161.365371 
" style="fill:none;stroke:#ffffff;stroke-linecap:square;"/>
     </g>
    </g>
    <g id="ytick_23">
     <g id="line2d_80">
      <path clip-path="url(#p4f6ea87ae0)" d="M 493.752938 60.565371 
L 713.592938 60.565371 
" style="fill:none;stroke:#ffffff;stroke-linecap:square;"/>
     </g>
    </g>
    <g id="ytick_24">
     <g id="line2d_81">
      <path clip-path="url(#p4f6ea87ae0)" d="M 493.752938 413.365371 
L 713.592938 413.365371 
" style="fill:none;stroke:#ffffff;stroke-linecap:square;stroke-width:0.5;"/>
     </g>
    </g>
    <g id="ytick_25">
     <g id="line2d_82">
      <path clip-path="url(#p4f6ea87ae0)" d="M 493.752938 312.565371 
L 713.592938 312.565371 
" style="fill:none;stroke:#ffffff;stroke-linecap:square;stroke-width:0.5;"/>
     </g>
    </g>
    <g id="ytick_26">
     <g id="line2d_83">
      <path clip-path="url(#p4f6ea87ae0)" d="M 493.752938 211.765371 
L 713.592938 211.765371 
" style="fill:none;stroke:#ffffff;stroke-linecap:square;stroke-width:0.5;"/>
     </g>
    </g>
    <g id="ytick_27">
     <g id="line2d_84">
      <path clip-path="url(#p4f6ea87ae0)" d="M 493.752938 110.965371 
L 713.592938 110.965371 
" style="fill:none;stroke:#ffffff;stroke-linecap:square;stroke-width:0.5;"/>
     </g>
    </g>
   </g>
   <g id="PolyCollection_3">
    <path clip-path="url(#p4f6ea87ae0)" d="M 521.182639 463.765371 
L 521.182639 60.565371 
L 525.206556 60.565371 
L 525.206556 463.765371 
z
" style="fill:#91db57;"/>
    <path clip-path="url(#p4f6ea87ae0)" d="M 538.619612 463.765371 
L 538.619612 325.887717 
L 542.643529 325.887717 
L 542.643529 463.765371 
z
" style="fill:#a157db;"/>
    <path clip-path="url(#p4f6ea87ae0)" d="M 534.595695 463.765371 
L 534.595695 198.443024 
L 538.619612 198.443024 
L 538.619612 463.765371 
z
" style="fill:#91db57;"/>
    <path clip-path="url(#p4f6ea87ae0)" d="M 552.032669 463.765371 
L 552.032669 321.399399 
L 556.056586 321.399399 
L 556.056586 463.765371 
z
" style="fill:#a157db;"/>
    <path clip-path="url(#p4f6ea87ae0)" d="M 548.008752 463.765371 
L 548.008752 202.931342 
L 552.032669 202.931342 
L 552.032669 463.765371 
z
" style="fill:#91db57;"/>
    <path clip-path="url(#p4f6ea87ae0)" d="M 565.445726 463.765371 
L 565.445726 360.767958 
L 569.469643 360.767958 
L 569.469643 463.765371 
z
" style="fill:#a157db;"/>
    <path clip-path="url(#p4f6ea87ae0)" d="M 561.421809 463.765371 
L 561.421809 283.478966 
L 565.445726 283.478966 
L 565.445726 463.765371 
z
" style="fill:#91db57;"/>
    <path clip-path="url(#p4f6ea87ae0)" d="M 557.397892 463.765371 
L 557.397892 343.849188 
L 561.421809 343.849188 
L 561.421809 463.765371 
z
" style="fill:#db5f57;"/>
    <path clip-path="url(#p4f6ea87ae0)" d="M 578.858783 463.765371 
L 578.858783 385.692858 
L 582.8827 385.692858 
L 582.8827 463.765371 
z
" style="fill:#a157db;"/>
    <path clip-path="url(#p4f6ea87ae0)" d="M 574.834866 463.765371 
L 574.834866 146.893789 
L 578.858783 146.893789 
L 578.858783 463.765371 
z
" style="fill:#91db57;"/>
    <path clip-path="url(#p4f6ea87ae0)" d="M 570.810948 463.765371 
L 570.810948 455.509465 
L 574.834866 455.509465 
L 574.834866 463.765371 
z
" style="fill:#db5f57;"/>
    <path clip-path="url(#p4f6ea87ae0)" d="M 592.271839 463.765371 
L 592.271839 326.254475 
L 596.295756 326.254475 
L 596.295756 463.765371 
z
" style="fill:#a157db;"/>
    <path clip-path="url(#p4f6ea87ae0)" d="M 588.247922 463.765371 
L 588.247922 209.60624 
L 592.271839 209.60624 
L 592.271839 463.765371 
z
" style="fill:#91db57;"/>
    <path clip-path="url(#p4f6ea87ae0)" d="M 584.224005 463.765371 
L 584.224005 452.235397 
L 588.247922 452.235397 
L 588.247922 463.765371 
z
" style="fill:#db5f57;"/>
    <path clip-path="url(#p4f6ea87ae0)" d="M 605.684896 463.765371 
L 605.684896 337.239578 
L 609.708813 337.239578 
L 609.708813 463.765371 
z
" style="fill:#a157db;"/>
    <path clip-path="url(#p4f6ea87ae0)" d="M 601.660979 463.765371 
L 601.660979 196.287991 
L 605.684896 196.287991 
L 605.684896 463.765371 
z
" style="fill:#91db57;"/>
    <path clip-path="url(#p4f6ea87ae0)" d="M 597.637062 463.765371 
L 597.637062 454.568543 
L 601.660979 454.568543 
L 601.660979 463.765371 
z
" style="fill:#db5f57;"/>
    <path clip-path="url(#p4f6ea87ae0)" d="M 619.097953 463.765371 
L 619.097953 337.75889 
L 623.12187 337.75889 
L 623.12187 463.765371 
z
" style="fill:#a157db;"/>
    <path clip-path="url(#p4f6ea87ae0)" d="M 615.074036 463.765371 
L 615.074036 193.462474 
L 619.097953 193.462474 
L 619.097953 463.765371 
z
" style="fill:#91db57;"/>
    <path clip-path="url(#p4f6ea87ae0)" d="M 611.050119 463.765371 
L 611.050119 456.874748 
L 615.074036 456.874748 
L 615.074036 463.765371 
z
" style="fill:#db5f57;"/>
    <path clip-path="url(#p4f6ea87ae0)" d="M 632.511009 463.765371 
L 632.511009 350.397153 
L 636.534927 350.397153 
L 636.534927 463.765371 
z
" style="fill:#a157db;"/>
    <path clip-path="url(#p4f6ea87ae0)" d="M 628.487092 463.765371 
L 628.487092 177.338862 
L 632.511009 177.338862 
L 632.511009 463.765371 
z
" style="fill:#91db57;"/>
    <path clip-path="url(#p4f6ea87ae0)" d="M 624.463175 463.765371 
L 624.463175 460.360098 
L 628.487092 460.360098 
L 628.487092 463.765371 
z
" style="fill:#db5f57;"/>
    <path clip-path="url(#p4f6ea87ae0)" d="M 645.924066 463.765371 
L 645.924066 360.262161 
L 649.947983 360.262161 
L 649.947983 463.765371 
z
" style="fill:#a157db;"/>
    <path clip-path="url(#p4f6ea87ae0)" d="M 641.900149 463.765371 
L 641.900149 167.362014 
L 645.924066 167.362014 
L 645.924066 463.765371 
z
" style="fill:#91db57;"/>
    <path clip-path="url(#p4f6ea87ae0)" d="M 637.876232 463.765371 
L 637.876232 460.471938 
L 641.900149 460.471938 
L 641.900149 463.765371 
z
" style="fill:#db5f57;"/>
    <path clip-path="url(#p4f6ea87ae0)" d="M 659.337123 463.765371 
L 659.337123 462.290462 
L 663.36104 462.290462 
L 663.36104 463.765371 
z
" style="fill:#a157db;"/>
    <path clip-path="url(#p4f6ea87ae0)" d="M 655.313206 463.765371 
L 655.313206 62.04028 
L 659.337123 62.04028 
L 659.337123 463.765371 
z
" style="fill:#91db57;"/>
    <path clip-path="url(#p4f6ea87ae0)" d="M 668.726263 463.765371 
L 668.726263 60.565371 
L 672.75018 60.565371 
L 672.75018 463.765371 
z
" style="fill:#91db57;"/>
   </g>
   <g id="patch_16">
    <path d="M 493.752938 40.405371 
L 713.592938 40.405371 
L 713.592938 26.231919 
L 493.752938 26.231919 
z
" style="fill:#d9d9d9;"/>
   </g>
   <g id="text_27">
    <!-- Houston -->
    <defs>
     <path d="M 9.8125 72.90625 
L 19.671875 72.90625 
L 19.671875 43.015625 
L 55.515625 43.015625 
L 55.515625 72.90625 
L 65.375 72.90625 
L 65.375 0 
L 55.515625 0 
L 55.515625 34.71875 
L 19.671875 34.71875 
L 19.671875 0 
L 9.8125 0 
z
" id="DejaVuSans-48"/>
    </defs>
    <g style="fill:#1a1a1a;" transform="translate(585.385438 35.746895)scale(0.088 -0.088)">
     <use xlink:href="#DejaVuSans-48"/>
     <use x="75.195312" xlink:href="#DejaVuSans-6f"/>
     <use x="136.376953" xlink:href="#DejaVuSans-75"/>
     <use x="199.755859" xlink:href="#DejaVuSans-73"/>
     <use x="251.855469" xlink:href="#DejaVuSans-74"/>
     <use x="291.064453" xlink:href="#DejaVuSans-6f"/>
     <use x="352.246094" xlink:href="#DejaVuSans-6e"/>
    </g>
   </g>
  </g>
  <g id="text_28">
   <!-- Land Use by Distance from City Center, Job Centers -->
   <defs>
    <path d="M 8.6875 72.90625 
L 18.609375 72.90625 
L 18.609375 28.609375 
Q 18.609375 16.890625 22.84375 11.734375 
Q 27.09375 6.59375 36.625 6.59375 
Q 46.09375 6.59375 50.34375 11.734375 
Q 54.59375 16.890625 54.59375 28.609375 
L 54.59375 72.90625 
L 64.5 72.90625 
L 64.5 27.390625 
Q 64.5 13.140625 57.4375 5.859375 
Q 50.390625 -1.421875 36.625 -1.421875 
Q 22.796875 -1.421875 15.734375 5.859375 
Q 8.6875 13.140625 8.6875 27.390625 
z
" id="DejaVuSans-55"/>
    <path d="M 48.6875 27.296875 
Q 48.6875 37.203125 44.609375 42.84375 
Q 40.53125 48.484375 33.40625 48.484375 
Q 26.265625 48.484375 22.1875 42.84375 
Q 18.109375 37.203125 18.109375 27.296875 
Q 18.109375 17.390625 22.1875 11.75 
Q 26.265625 6.109375 33.40625 6.109375 
Q 40.53125 6.109375 44.609375 11.75 
Q 48.6875 17.390625 48.6875 27.296875 
z
M 18.109375 46.390625 
Q 20.953125 51.265625 25.265625 53.625 
Q 29.59375 56 35.59375 56 
Q 45.5625 56 51.78125 48.09375 
Q 58.015625 40.1875 58.015625 27.296875 
Q 58.015625 14.40625 51.78125 6.484375 
Q 45.5625 -1.421875 35.59375 -1.421875 
Q 29.59375 -1.421875 25.265625 0.953125 
Q 20.953125 3.328125 18.109375 8.203125 
L 18.109375 0 
L 9.078125 0 
L 9.078125 75.984375 
L 18.109375 75.984375 
z
" id="DejaVuSans-62"/>
    <path d="M 11.71875 12.40625 
L 22.015625 12.40625 
L 22.015625 4 
L 14.015625 -11.625 
L 7.71875 -11.625 
L 11.71875 4 
z
" id="DejaVuSans-2c"/>
    <path d="M 9.8125 72.90625 
L 19.671875 72.90625 
L 19.671875 5.078125 
Q 19.671875 -8.109375 14.671875 -14.0625 
Q 9.671875 -20.015625 -1.421875 -20.015625 
L -5.171875 -20.015625 
L -5.171875 -11.71875 
L -2.09375 -11.71875 
Q 4.4375 -11.71875 7.125 -8.046875 
Q 9.8125 -4.390625 9.8125 5.078125 
z
" id="DejaVuSans-4a"/>
   </defs>
   <g transform="translate(197.256094 17.229937)scale(0.132 -0.132)">
    <use xlink:href="#DejaVuSans-4c"/>
    <use x="55.712891" xlink:href="#DejaVuSans-61"/>
    <use x="116.992188" xlink:href="#DejaVuSans-6e"/>
    <use x="180.371094" xlink:href="#DejaVuSans-64"/>
    <use x="243.847656" xlink:href="#DejaVuSans-20"/>
    <use x="275.634766" xlink:href="#DejaVuSans-55"/>
    <use x="348.828125" xlink:href="#DejaVuSans-73"/>
    <use x="400.927734" xlink:href="#DejaVuSans-65"/>
    <use x="462.451172" xlink:href="#DejaVuSans-20"/>
    <use x="494.238281" xlink:href="#DejaVuSans-62"/>
    <use x="557.714844" xlink:href="#DejaVuSans-79"/>
    <use x="616.894531" xlink:href="#DejaVuSans-20"/>
    <use x="648.681641" xlink:href="#DejaVuSans-44"/>
    <use x="725.683594" xlink:href="#DejaVuSans-69"/>
    <use x="753.466797" xlink:href="#DejaVuSans-73"/>
    <use x="805.566406" xlink:href="#DejaVuSans-74"/>
    <use x="844.775391" xlink:href="#DejaVuSans-61"/>
    <use x="906.054688" xlink:href="#DejaVuSans-6e"/>
    <use x="969.433594" xlink:href="#DejaVuSans-63"/>
    <use x="1024.414062" xlink:href="#DejaVuSans-65"/>
    <use x="1085.9375" xlink:href="#DejaVuSans-20"/>
    <use x="1117.724609" xlink:href="#DejaVuSans-66"/>
    <use x="1152.929688" xlink:href="#DejaVuSans-72"/>
    <use x="1194.011719" xlink:href="#DejaVuSans-6f"/>
    <use x="1255.193359" xlink:href="#DejaVuSans-6d"/>
    <use x="1352.605469" xlink:href="#DejaVuSans-20"/>
    <use x="1384.392578" xlink:href="#DejaVuSans-43"/>
    <use x="1454.216797" xlink:href="#DejaVuSans-69"/>
    <use x="1482" xlink:href="#DejaVuSans-74"/>
    <use x="1521.208984" xlink:href="#DejaVuSans-79"/>
    <use x="1580.388672" xlink:href="#DejaVuSans-20"/>
    <use x="1612.175781" xlink:href="#DejaVuSans-43"/>
    <use x="1682" xlink:href="#DejaVuSans-65"/>
    <use x="1743.523438" xlink:href="#DejaVuSans-6e"/>
    <use x="1806.902344" xlink:href="#DejaVuSans-74"/>
    <use x="1846.111328" xlink:href="#DejaVuSans-65"/>
    <use x="1907.634766" xlink:href="#DejaVuSans-72"/>
    <use x="1948.748047" xlink:href="#DejaVuSans-2c"/>
    <use x="1980.535156" xlink:href="#DejaVuSans-20"/>
    <use x="2012.322266" xlink:href="#DejaVuSans-4a"/>
    <use x="2041.814453" xlink:href="#DejaVuSans-6f"/>
    <use x="2102.996094" xlink:href="#DejaVuSans-62"/>
    <use x="2166.472656" xlink:href="#DejaVuSans-20"/>
    <use x="2198.259766" xlink:href="#DejaVuSans-43"/>
    <use x="2268.083984" xlink:href="#DejaVuSans-65"/>
    <use x="2329.607422" xlink:href="#DejaVuSans-6e"/>
    <use x="2392.986328" xlink:href="#DejaVuSans-74"/>
    <use x="2432.195312" xlink:href="#DejaVuSans-65"/>
    <use x="2493.71875" xlink:href="#DejaVuSans-72"/>
    <use x="2534.832031" xlink:href="#DejaVuSans-73"/>
   </g>
  </g>
 </g>
 <defs>
  <clipPath id="p9ae19849a0">
   <rect height="443.52" width="219.84" x="43.992938" y="40.405371"/>
  </clipPath>
  <clipPath id="pe9699c03eb">
   <path d="M 732.992938 247.968339 
L 732.992938 232.128339 
L 748.832938 232.128339 
L 748.832938 247.968339 
"/>
  </clipPath>
  <clipPath id="p759537b7e0">
   <path d="M 732.992938 265.808339 
L 732.992938 249.968339 
L 748.832938 249.968339 
L 748.832938 265.808339 
"/>
  </clipPath>
  <clipPath id="pf894286fcd">
   <path d="M 732.992938 283.648339 
L 732.992938 267.808339 
L 748.832938 267.808339 
L 748.832938 283.648339 
"/>
  </clipPath>
  <clipPath id="p27db37320b">
   <path d="M 732.992938 301.488339 
L 732.992938 285.648339 
L 748.832938 285.648339 
L 748.832938 301.488339 
"/>
  </clipPath>
  <clipPath id="pcd01f7100c">
   <rect height="443.52" width="219.84" x="268.872938" y="40.405371"/>
  </clipPath>
  <clipPath id="p4f6ea87ae0">
   <rect height="443.52" width="219.84" x="493.752938" y="40.405371"/>
  </clipPath>
 </defs>
</svg>
