<?xml version="1.0" encoding="utf-8" standalone="no"?>
<!DOCTYPE svg PUBLIC "-//W3C//DTD SVG 1.1//EN"
  "http://www.w3.org/Graphics/SVG/1.1/DTD/svg11.dtd">
<!-- Created with matplotlib (http://matplotlib.org/) -->
<svg height="630pt" version="1.1" viewBox="0 0 801 630" width="801pt" xmlns="http://www.w3.org/2000/svg" xmlns:xlink="http://www.w3.org/1999/xlink">
 <defs>
  <style type="text/css">
*{stroke-linecap:butt;stroke-linejoin:round;}
  </style>
 </defs>
 <g id="figure_1">
  <g id="patch_1">
   <path d="M 0 630.518058 
L 801.168063 630.518058 
L 801.168063 0 
L 0 0 
z
" style="fill:#ffffff;stroke:#ffffff;stroke-linejoin:miter;"/>
  </g>
  <g id="axes_1">
   <g id="patch_2">
    <path d="M 38.393938 594.805371 
L 258.233938 594.805371 
L 258.233938 40.405371 
L 38.393938 40.405371 
z
" style="fill:#ffffff;stroke:#7f7f7f;stroke-linejoin:miter;"/>
   </g>
   <g id="matplotlib.axis_1">
    <g id="xtick_1">
     <g id="line2d_1">
      <path clip-path="url(#p6e708619a5)" d="M 51.998494 594.805371 
L 51.998494 40.405371 
" style="fill:none;stroke:#e5e5e5;stroke-width:0.8;"/>
     </g>
     <g id="line2d_2">
      <path d="M 51.998494 594.805371 
" style="fill:none;stroke:#000000;stroke-width:1.5;"/>
      <defs>
       <path d="M 0 0 
L 0 2.75 
" id="m06cff803ec" style="stroke:#000000;"/>
      </defs>
      <g>
       <use style="stroke:#000000;" x="51.998494" xlink:href="#m06cff803ec" y="594.805371"/>
      </g>
     </g>
     <g id="text_1">
      <!-- 0 -->
      <defs>
       <path d="M 31.78125 66.40625 
Q 24.171875 66.40625 20.328125 58.90625 
Q 16.5 51.421875 16.5 36.375 
Q 16.5 21.390625 20.328125 13.890625 
Q 24.171875 6.390625 31.78125 6.390625 
Q 39.453125 6.390625 43.28125 13.890625 
Q 47.125 21.390625 47.125 36.375 
Q 47.125 51.421875 43.28125 58.90625 
Q 39.453125 66.40625 31.78125 66.40625 
z
M 31.78125 74.21875 
Q 44.046875 74.21875 50.515625 64.515625 
Q 56.984375 54.828125 56.984375 36.375 
Q 56.984375 17.96875 50.515625 8.265625 
Q 44.046875 -1.421875 31.78125 -1.421875 
Q 19.53125 -1.421875 13.0625 8.265625 
Q 6.59375 17.96875 6.59375 36.375 
Q 6.59375 54.828125 13.0625 64.515625 
Q 19.53125 74.21875 31.78125 74.21875 
z
" id="DejaVuSans-30"/>
      </defs>
      <g style="fill:#4d4d4d;" transform="translate(49.198994 606.441996)scale(0.088 -0.088)">
       <use xlink:href="#DejaVuSans-30"/>
      </g>
     </g>
    </g>
    <g id="xtick_2">
     <g id="line2d_3">
      <path clip-path="url(#p6e708619a5)" d="M 116.20879 594.805371 
L 116.20879 40.405371 
" style="fill:none;stroke:#e5e5e5;stroke-width:0.8;"/>
     </g>
     <g id="line2d_4">
      <path d="M 116.20879 594.805371 
" style="fill:none;stroke:#000000;stroke-width:1.5;"/>
      <g>
       <use style="stroke:#000000;" x="116.20879" xlink:href="#m06cff803ec" y="594.805371"/>
      </g>
     </g>
     <g id="text_2">
      <!-- 20 -->
      <defs>
       <path d="M 19.1875 8.296875 
L 53.609375 8.296875 
L 53.609375 0 
L 7.328125 0 
L 7.328125 8.296875 
Q 12.9375 14.109375 22.625 23.890625 
Q 32.328125 33.6875 34.8125 36.53125 
Q 39.546875 41.84375 41.421875 45.53125 
Q 43.3125 49.21875 43.3125 52.78125 
Q 43.3125 58.59375 39.234375 62.25 
Q 35.15625 65.921875 28.609375 65.921875 
Q 23.96875 65.921875 18.8125 64.3125 
Q 13.671875 62.703125 7.8125 59.421875 
L 7.8125 69.390625 
Q 13.765625 71.78125 18.9375 73 
Q 24.125 74.21875 28.421875 74.21875 
Q 39.75 74.21875 46.484375 68.546875 
Q 53.21875 62.890625 53.21875 53.421875 
Q 53.21875 48.921875 51.53125 44.890625 
Q 49.859375 40.875 45.40625 35.40625 
Q 44.1875 33.984375 37.640625 27.21875 
Q 31.109375 20.453125 19.1875 8.296875 
z
" id="DejaVuSans-32"/>
      </defs>
      <g style="fill:#4d4d4d;" transform="translate(110.60979 606.441996)scale(0.088 -0.088)">
       <use xlink:href="#DejaVuSans-32"/>
       <use x="63.623047" xlink:href="#DejaVuSans-30"/>
      </g>
     </g>
    </g>
    <g id="xtick_3">
     <g id="line2d_5">
      <path clip-path="url(#p6e708619a5)" d="M 180.419085 594.805371 
L 180.419085 40.405371 
" style="fill:none;stroke:#e5e5e5;stroke-width:0.8;"/>
     </g>
     <g id="line2d_6">
      <path d="M 180.419085 594.805371 
" style="fill:none;stroke:#000000;stroke-width:1.5;"/>
      <g>
       <use style="stroke:#000000;" x="180.419085" xlink:href="#m06cff803ec" y="594.805371"/>
      </g>
     </g>
     <g id="text_3">
      <!-- 40 -->
      <defs>
       <path d="M 37.796875 64.3125 
L 12.890625 25.390625 
L 37.796875 25.390625 
z
M 35.203125 72.90625 
L 47.609375 72.90625 
L 47.609375 25.390625 
L 58.015625 25.390625 
L 58.015625 17.1875 
L 47.609375 17.1875 
L 47.609375 0 
L 37.796875 0 
L 37.796875 17.1875 
L 4.890625 17.1875 
L 4.890625 26.703125 
z
" id="DejaVuSans-34"/>
      </defs>
      <g style="fill:#4d4d4d;" transform="translate(174.820085 606.441996)scale(0.088 -0.088)">
       <use xlink:href="#DejaVuSans-34"/>
       <use x="63.623047" xlink:href="#DejaVuSans-30"/>
      </g>
     </g>
    </g>
    <g id="xtick_4">
     <g id="line2d_7">
      <path clip-path="url(#p6e708619a5)" d="M 244.629381 594.805371 
L 244.629381 40.405371 
" style="fill:none;stroke:#e5e5e5;stroke-width:0.8;"/>
     </g>
     <g id="line2d_8">
      <path d="M 244.629381 594.805371 
" style="fill:none;stroke:#000000;stroke-width:1.5;"/>
      <g>
       <use style="stroke:#000000;" x="244.629381" xlink:href="#m06cff803ec" y="594.805371"/>
      </g>
     </g>
     <g id="text_4">
      <!-- 60 -->
      <defs>
       <path d="M 33.015625 40.375 
Q 26.375 40.375 22.484375 35.828125 
Q 18.609375 31.296875 18.609375 23.390625 
Q 18.609375 15.53125 22.484375 10.953125 
Q 26.375 6.390625 33.015625 6.390625 
Q 39.65625 6.390625 43.53125 10.953125 
Q 47.40625 15.53125 47.40625 23.390625 
Q 47.40625 31.296875 43.53125 35.828125 
Q 39.65625 40.375 33.015625 40.375 
z
M 52.59375 71.296875 
L 52.59375 62.3125 
Q 48.875 64.0625 45.09375 64.984375 
Q 41.3125 65.921875 37.59375 65.921875 
Q 27.828125 65.921875 22.671875 59.328125 
Q 17.53125 52.734375 16.796875 39.40625 
Q 19.671875 43.65625 24.015625 45.921875 
Q 28.375 48.1875 33.59375 48.1875 
Q 44.578125 48.1875 50.953125 41.515625 
Q 57.328125 34.859375 57.328125 23.390625 
Q 57.328125 12.15625 50.6875 5.359375 
Q 44.046875 -1.421875 33.015625 -1.421875 
Q 20.359375 -1.421875 13.671875 8.265625 
Q 6.984375 17.96875 6.984375 36.375 
Q 6.984375 53.65625 15.1875 63.9375 
Q 23.390625 74.21875 37.203125 74.21875 
Q 40.921875 74.21875 44.703125 73.484375 
Q 48.484375 72.75 52.59375 71.296875 
z
" id="DejaVuSans-36"/>
      </defs>
      <g style="fill:#4d4d4d;" transform="translate(239.030381 606.441996)scale(0.088 -0.088)">
       <use xlink:href="#DejaVuSans-36"/>
       <use x="63.623047" xlink:href="#DejaVuSans-30"/>
      </g>
     </g>
    </g>
    <g id="xtick_5">
     <g id="line2d_9">
      <path clip-path="url(#p6e708619a5)" d="M 84.103642 594.805371 
L 84.103642 40.405371 
" style="fill:none;stroke:#fafafa;"/>
     </g>
     <g id="line2d_10">
      <path d="M 84.103642 594.805371 
" style="fill:none;stroke:#000000;stroke-width:1.5;"/>
     </g>
    </g>
    <g id="xtick_6">
     <g id="line2d_11">
      <path clip-path="url(#p6e708619a5)" d="M 148.313938 594.805371 
L 148.313938 40.405371 
" style="fill:none;stroke:#fafafa;"/>
     </g>
     <g id="line2d_12">
      <path d="M 148.313938 594.805371 
" style="fill:none;stroke:#000000;stroke-width:1.5;"/>
     </g>
    </g>
    <g id="xtick_7">
     <g id="line2d_13">
      <path clip-path="url(#p6e708619a5)" d="M 212.524233 594.805371 
L 212.524233 40.405371 
" style="fill:none;stroke:#fafafa;"/>
     </g>
     <g id="line2d_14">
      <path d="M 212.524233 594.805371 
" style="fill:none;stroke:#000000;stroke-width:1.5;"/>
     </g>
    </g>
   </g>
   <g id="matplotlib.axis_2">
    <g id="ytick_1">
     <g id="line2d_15">
      <path clip-path="url(#p6e708619a5)" d="M 38.393938 569.605371 
L 258.233938 569.605371 
" style="fill:none;stroke:#e5e5e5;stroke-width:0.8;"/>
     </g>
     <g id="line2d_16">
      <path d="M 38.393938 569.605371 
" style="fill:none;stroke:#000000;stroke-width:1.5;"/>
      <defs>
       <path d="M 0 0 
L -2.75 0 
" id="m08c4281e6f" style="stroke:#000000;"/>
      </defs>
      <g>
       <use style="stroke:#000000;" x="38.393938" xlink:href="#m08c4281e6f" y="569.605371"/>
      </g>
     </g>
     <g id="text_5">
      <!-- 0 -->
      <g style="fill:#4d4d4d;" transform="translate(27.844938 572.033621)scale(0.088 -0.088)">
       <use xlink:href="#DejaVuSans-30"/>
      </g>
     </g>
    </g>
    <g id="ytick_2">
     <g id="line2d_17">
      <path clip-path="url(#p6e708619a5)" d="M 38.393938 427.855876 
L 258.233938 427.855876 
" style="fill:none;stroke:#e5e5e5;stroke-width:0.8;"/>
     </g>
     <g id="line2d_18">
      <path d="M 38.393938 427.855876 
" style="fill:none;stroke:#000000;stroke-width:1.5;"/>
      <g>
       <use style="stroke:#000000;" x="38.393938" xlink:href="#m08c4281e6f" y="427.855876"/>
      </g>
     </g>
     <g id="text_6">
      <!-- 25 -->
      <defs>
       <path d="M 10.796875 72.90625 
L 49.515625 72.90625 
L 49.515625 64.59375 
L 19.828125 64.59375 
L 19.828125 46.734375 
Q 21.96875 47.46875 24.109375 47.828125 
Q 26.265625 48.1875 28.421875 48.1875 
Q 40.625 48.1875 47.75 41.5 
Q 54.890625 34.8125 54.890625 23.390625 
Q 54.890625 11.625 47.5625 5.09375 
Q 40.234375 -1.421875 26.90625 -1.421875 
Q 22.3125 -1.421875 17.546875 -0.640625 
Q 12.796875 0.140625 7.71875 1.703125 
L 7.71875 11.625 
Q 12.109375 9.234375 16.796875 8.0625 
Q 21.484375 6.890625 26.703125 6.890625 
Q 35.15625 6.890625 40.078125 11.328125 
Q 45.015625 15.765625 45.015625 23.390625 
Q 45.015625 31 40.078125 35.4375 
Q 35.15625 39.890625 26.703125 39.890625 
Q 22.75 39.890625 18.8125 39.015625 
Q 14.890625 38.140625 10.796875 36.28125 
z
" id="DejaVuSans-35"/>
      </defs>
      <g style="fill:#4d4d4d;" transform="translate(22.245938 430.284126)scale(0.088 -0.088)">
       <use xlink:href="#DejaVuSans-32"/>
       <use x="63.623047" xlink:href="#DejaVuSans-35"/>
      </g>
     </g>
    </g>
    <g id="ytick_3">
     <g id="line2d_19">
      <path clip-path="url(#p6e708619a5)" d="M 38.393938 286.106381 
L 258.233938 286.106381 
" style="fill:none;stroke:#e5e5e5;stroke-width:0.8;"/>
     </g>
     <g id="line2d_20">
      <path d="M 38.393938 286.106381 
" style="fill:none;stroke:#000000;stroke-width:1.5;"/>
      <g>
       <use style="stroke:#000000;" x="38.393938" xlink:href="#m08c4281e6f" y="286.106381"/>
      </g>
     </g>
     <g id="text_7">
      <!-- 50 -->
      <g style="fill:#4d4d4d;" transform="translate(22.245938 288.534631)scale(0.088 -0.088)">
       <use xlink:href="#DejaVuSans-35"/>
       <use x="63.623047" xlink:href="#DejaVuSans-30"/>
      </g>
     </g>
    </g>
    <g id="ytick_4">
     <g id="line2d_21">
      <path clip-path="url(#p6e708619a5)" d="M 38.393938 144.356887 
L 258.233938 144.356887 
" style="fill:none;stroke:#e5e5e5;stroke-width:0.8;"/>
     </g>
     <g id="line2d_22">
      <path d="M 38.393938 144.356887 
" style="fill:none;stroke:#000000;stroke-width:1.5;"/>
      <g>
       <use style="stroke:#000000;" x="38.393938" xlink:href="#m08c4281e6f" y="144.356887"/>
      </g>
     </g>
     <g id="text_8">
      <!-- 75 -->
      <defs>
       <path d="M 8.203125 72.90625 
L 55.078125 72.90625 
L 55.078125 68.703125 
L 28.609375 0 
L 18.3125 0 
L 43.21875 64.59375 
L 8.203125 64.59375 
z
" id="DejaVuSans-37"/>
      </defs>
      <g style="fill:#4d4d4d;" transform="translate(22.245938 146.785137)scale(0.088 -0.088)">
       <use xlink:href="#DejaVuSans-37"/>
       <use x="63.623047" xlink:href="#DejaVuSans-35"/>
      </g>
     </g>
    </g>
    <g id="ytick_5">
     <g id="line2d_23">
      <path clip-path="url(#p6e708619a5)" d="M 38.393938 498.730623 
L 258.233938 498.730623 
" style="fill:none;stroke:#fafafa;"/>
     </g>
     <g id="line2d_24">
      <path d="M 38.393938 498.730623 
" style="fill:none;stroke:#000000;stroke-width:1.5;"/>
     </g>
    </g>
    <g id="ytick_6">
     <g id="line2d_25">
      <path clip-path="url(#p6e708619a5)" d="M 38.393938 356.981129 
L 258.233938 356.981129 
" style="fill:none;stroke:#fafafa;"/>
     </g>
     <g id="line2d_26">
      <path d="M 38.393938 356.981129 
" style="fill:none;stroke:#000000;stroke-width:1.5;"/>
     </g>
    </g>
    <g id="ytick_7">
     <g id="line2d_27">
      <path clip-path="url(#p6e708619a5)" d="M 38.393938 215.231634 
L 258.233938 215.231634 
" style="fill:none;stroke:#fafafa;"/>
     </g>
     <g id="line2d_28">
      <path d="M 38.393938 215.231634 
" style="fill:none;stroke:#000000;stroke-width:1.5;"/>
     </g>
    </g>
    <g id="ytick_8">
     <g id="line2d_29">
      <path clip-path="url(#p6e708619a5)" d="M 38.393938 73.482139 
L 258.233938 73.482139 
" style="fill:none;stroke:#fafafa;"/>
     </g>
     <g id="line2d_30">
      <path d="M 38.393938 73.482139 
" style="fill:none;stroke:#000000;stroke-width:1.5;"/>
     </g>
    </g>
    <g id="text_9">
     <!-- Percent of Workers Working in Place of Residence -->
     <defs>
      <path d="M 19.671875 64.796875 
L 19.671875 37.40625 
L 32.078125 37.40625 
Q 38.96875 37.40625 42.71875 40.96875 
Q 46.484375 44.53125 46.484375 51.125 
Q 46.484375 57.671875 42.71875 61.234375 
Q 38.96875 64.796875 32.078125 64.796875 
z
M 9.8125 72.90625 
L 32.078125 72.90625 
Q 44.34375 72.90625 50.609375 67.359375 
Q 56.890625 61.8125 56.890625 51.125 
Q 56.890625 40.328125 50.609375 34.8125 
Q 44.34375 29.296875 32.078125 29.296875 
L 19.671875 29.296875 
L 19.671875 0 
L 9.8125 0 
z
" id="DejaVuSans-50"/>
      <path d="M 56.203125 29.59375 
L 56.203125 25.203125 
L 14.890625 25.203125 
Q 15.484375 15.921875 20.484375 11.0625 
Q 25.484375 6.203125 34.421875 6.203125 
Q 39.59375 6.203125 44.453125 7.46875 
Q 49.3125 8.734375 54.109375 11.28125 
L 54.109375 2.78125 
Q 49.265625 0.734375 44.1875 -0.34375 
Q 39.109375 -1.421875 33.890625 -1.421875 
Q 20.796875 -1.421875 13.15625 6.1875 
Q 5.515625 13.8125 5.515625 26.8125 
Q 5.515625 40.234375 12.765625 48.109375 
Q 20.015625 56 32.328125 56 
Q 43.359375 56 49.78125 48.890625 
Q 56.203125 41.796875 56.203125 29.59375 
z
M 47.21875 32.234375 
Q 47.125 39.59375 43.09375 43.984375 
Q 39.0625 48.390625 32.421875 48.390625 
Q 24.90625 48.390625 20.390625 44.140625 
Q 15.875 39.890625 15.1875 32.171875 
z
" id="DejaVuSans-65"/>
      <path d="M 41.109375 46.296875 
Q 39.59375 47.171875 37.8125 47.578125 
Q 36.03125 48 33.890625 48 
Q 26.265625 48 22.1875 43.046875 
Q 18.109375 38.09375 18.109375 28.8125 
L 18.109375 0 
L 9.078125 0 
L 9.078125 54.6875 
L 18.109375 54.6875 
L 18.109375 46.1875 
Q 20.953125 51.171875 25.484375 53.578125 
Q 30.03125 56 36.53125 56 
Q 37.453125 56 38.578125 55.875 
Q 39.703125 55.765625 41.0625 55.515625 
z
" id="DejaVuSans-72"/>
      <path d="M 48.78125 52.59375 
L 48.78125 44.1875 
Q 44.96875 46.296875 41.140625 47.34375 
Q 37.3125 48.390625 33.40625 48.390625 
Q 24.65625 48.390625 19.8125 42.84375 
Q 14.984375 37.3125 14.984375 27.296875 
Q 14.984375 17.28125 19.8125 11.734375 
Q 24.65625 6.203125 33.40625 6.203125 
Q 37.3125 6.203125 41.140625 7.25 
Q 44.96875 8.296875 48.78125 10.40625 
L 48.78125 2.09375 
Q 45.015625 0.34375 40.984375 -0.53125 
Q 36.96875 -1.421875 32.421875 -1.421875 
Q 20.0625 -1.421875 12.78125 6.34375 
Q 5.515625 14.109375 5.515625 27.296875 
Q 5.515625 40.671875 12.859375 48.328125 
Q 20.21875 56 33.015625 56 
Q 37.15625 56 41.109375 55.140625 
Q 45.0625 54.296875 48.78125 52.59375 
z
" id="DejaVuSans-63"/>
      <path d="M 54.890625 33.015625 
L 54.890625 0 
L 45.90625 0 
L 45.90625 32.71875 
Q 45.90625 40.484375 42.875 44.328125 
Q 39.84375 48.1875 33.796875 48.1875 
Q 26.515625 48.1875 22.3125 43.546875 
Q 18.109375 38.921875 18.109375 30.90625 
L 18.109375 0 
L 9.078125 0 
L 9.078125 54.6875 
L 18.109375 54.6875 
L 18.109375 46.1875 
Q 21.34375 51.125 25.703125 53.5625 
Q 30.078125 56 35.796875 56 
Q 45.21875 56 50.046875 50.171875 
Q 54.890625 44.34375 54.890625 33.015625 
z
" id="DejaVuSans-6e"/>
      <path d="M 18.3125 70.21875 
L 18.3125 54.6875 
L 36.8125 54.6875 
L 36.8125 47.703125 
L 18.3125 47.703125 
L 18.3125 18.015625 
Q 18.3125 11.328125 20.140625 9.421875 
Q 21.96875 7.515625 27.59375 7.515625 
L 36.8125 7.515625 
L 36.8125 0 
L 27.59375 0 
Q 17.1875 0 13.234375 3.875 
Q 9.28125 7.765625 9.28125 18.015625 
L 9.28125 47.703125 
L 2.6875 47.703125 
L 2.6875 54.6875 
L 9.28125 54.6875 
L 9.28125 70.21875 
z
" id="DejaVuSans-74"/>
      <path id="DejaVuSans-20"/>
      <path d="M 30.609375 48.390625 
Q 23.390625 48.390625 19.1875 42.75 
Q 14.984375 37.109375 14.984375 27.296875 
Q 14.984375 17.484375 19.15625 11.84375 
Q 23.34375 6.203125 30.609375 6.203125 
Q 37.796875 6.203125 41.984375 11.859375 
Q 46.1875 17.53125 46.1875 27.296875 
Q 46.1875 37.015625 41.984375 42.703125 
Q 37.796875 48.390625 30.609375 48.390625 
z
M 30.609375 56 
Q 42.328125 56 49.015625 48.375 
Q 55.71875 40.765625 55.71875 27.296875 
Q 55.71875 13.875 49.015625 6.21875 
Q 42.328125 -1.421875 30.609375 -1.421875 
Q 18.84375 -1.421875 12.171875 6.21875 
Q 5.515625 13.875 5.515625 27.296875 
Q 5.515625 40.765625 12.171875 48.375 
Q 18.84375 56 30.609375 56 
z
" id="DejaVuSans-6f"/>
      <path d="M 37.109375 75.984375 
L 37.109375 68.5 
L 28.515625 68.5 
Q 23.6875 68.5 21.796875 66.546875 
Q 19.921875 64.59375 19.921875 59.515625 
L 19.921875 54.6875 
L 34.71875 54.6875 
L 34.71875 47.703125 
L 19.921875 47.703125 
L 19.921875 0 
L 10.890625 0 
L 10.890625 47.703125 
L 2.296875 47.703125 
L 2.296875 54.6875 
L 10.890625 54.6875 
L 10.890625 58.5 
Q 10.890625 67.625 15.140625 71.796875 
Q 19.390625 75.984375 28.609375 75.984375 
z
" id="DejaVuSans-66"/>
      <path d="M 3.328125 72.90625 
L 13.28125 72.90625 
L 28.609375 11.28125 
L 43.890625 72.90625 
L 54.984375 72.90625 
L 70.3125 11.28125 
L 85.59375 72.90625 
L 95.609375 72.90625 
L 77.296875 0 
L 64.890625 0 
L 49.515625 63.28125 
L 33.984375 0 
L 21.578125 0 
z
" id="DejaVuSans-57"/>
      <path d="M 9.078125 75.984375 
L 18.109375 75.984375 
L 18.109375 31.109375 
L 44.921875 54.6875 
L 56.390625 54.6875 
L 27.390625 29.109375 
L 57.625 0 
L 45.90625 0 
L 18.109375 26.703125 
L 18.109375 0 
L 9.078125 0 
z
" id="DejaVuSans-6b"/>
      <path d="M 44.28125 53.078125 
L 44.28125 44.578125 
Q 40.484375 46.53125 36.375 47.5 
Q 32.28125 48.484375 27.875 48.484375 
Q 21.1875 48.484375 17.84375 46.4375 
Q 14.5 44.390625 14.5 40.28125 
Q 14.5 37.15625 16.890625 35.375 
Q 19.28125 33.59375 26.515625 31.984375 
L 29.59375 31.296875 
Q 39.15625 29.25 43.1875 25.515625 
Q 47.21875 21.78125 47.21875 15.09375 
Q 47.21875 7.46875 41.1875 3.015625 
Q 35.15625 -1.421875 24.609375 -1.421875 
Q 20.21875 -1.421875 15.453125 -0.5625 
Q 10.6875 0.296875 5.421875 2 
L 5.421875 11.28125 
Q 10.40625 8.6875 15.234375 7.390625 
Q 20.0625 6.109375 24.8125 6.109375 
Q 31.15625 6.109375 34.5625 8.28125 
Q 37.984375 10.453125 37.984375 14.40625 
Q 37.984375 18.0625 35.515625 20.015625 
Q 33.0625 21.96875 24.703125 23.78125 
L 21.578125 24.515625 
Q 13.234375 26.265625 9.515625 29.90625 
Q 5.8125 33.546875 5.8125 39.890625 
Q 5.8125 47.609375 11.28125 51.796875 
Q 16.75 56 26.8125 56 
Q 31.78125 56 36.171875 55.265625 
Q 40.578125 54.546875 44.28125 53.078125 
z
" id="DejaVuSans-73"/>
      <path d="M 9.421875 54.6875 
L 18.40625 54.6875 
L 18.40625 0 
L 9.421875 0 
z
M 9.421875 75.984375 
L 18.40625 75.984375 
L 18.40625 64.59375 
L 9.421875 64.59375 
z
" id="DejaVuSans-69"/>
      <path d="M 45.40625 27.984375 
Q 45.40625 37.75 41.375 43.109375 
Q 37.359375 48.484375 30.078125 48.484375 
Q 22.859375 48.484375 18.828125 43.109375 
Q 14.796875 37.75 14.796875 27.984375 
Q 14.796875 18.265625 18.828125 12.890625 
Q 22.859375 7.515625 30.078125 7.515625 
Q 37.359375 7.515625 41.375 12.890625 
Q 45.40625 18.265625 45.40625 27.984375 
z
M 54.390625 6.78125 
Q 54.390625 -7.171875 48.1875 -13.984375 
Q 42 -20.796875 29.203125 -20.796875 
Q 24.46875 -20.796875 20.265625 -20.09375 
Q 16.0625 -19.390625 12.109375 -17.921875 
L 12.109375 -9.1875 
Q 16.0625 -11.328125 19.921875 -12.34375 
Q 23.78125 -13.375 27.78125 -13.375 
Q 36.625 -13.375 41.015625 -8.765625 
Q 45.40625 -4.15625 45.40625 5.171875 
L 45.40625 9.625 
Q 42.625 4.78125 38.28125 2.390625 
Q 33.9375 0 27.875 0 
Q 17.828125 0 11.671875 7.65625 
Q 5.515625 15.328125 5.515625 27.984375 
Q 5.515625 40.671875 11.671875 48.328125 
Q 17.828125 56 27.875 56 
Q 33.9375 56 38.28125 53.609375 
Q 42.625 51.21875 45.40625 46.390625 
L 45.40625 54.6875 
L 54.390625 54.6875 
z
" id="DejaVuSans-67"/>
      <path d="M 9.421875 75.984375 
L 18.40625 75.984375 
L 18.40625 0 
L 9.421875 0 
z
" id="DejaVuSans-6c"/>
      <path d="M 34.28125 27.484375 
Q 23.390625 27.484375 19.1875 25 
Q 14.984375 22.515625 14.984375 16.5 
Q 14.984375 11.71875 18.140625 8.90625 
Q 21.296875 6.109375 26.703125 6.109375 
Q 34.1875 6.109375 38.703125 11.40625 
Q 43.21875 16.703125 43.21875 25.484375 
L 43.21875 27.484375 
z
M 52.203125 31.203125 
L 52.203125 0 
L 43.21875 0 
L 43.21875 8.296875 
Q 40.140625 3.328125 35.546875 0.953125 
Q 30.953125 -1.421875 24.3125 -1.421875 
Q 15.921875 -1.421875 10.953125 3.296875 
Q 6 8.015625 6 15.921875 
Q 6 25.140625 12.171875 29.828125 
Q 18.359375 34.515625 30.609375 34.515625 
L 43.21875 34.515625 
L 43.21875 35.40625 
Q 43.21875 41.609375 39.140625 45 
Q 35.0625 48.390625 27.6875 48.390625 
Q 23 48.390625 18.546875 47.265625 
Q 14.109375 46.140625 10.015625 43.890625 
L 10.015625 52.203125 
Q 14.9375 54.109375 19.578125 55.046875 
Q 24.21875 56 28.609375 56 
Q 40.484375 56 46.34375 49.84375 
Q 52.203125 43.703125 52.203125 31.203125 
z
" id="DejaVuSans-61"/>
      <path d="M 44.390625 34.1875 
Q 47.5625 33.109375 50.5625 29.59375 
Q 53.5625 26.078125 56.59375 19.921875 
L 66.609375 0 
L 56 0 
L 46.6875 18.703125 
Q 43.0625 26.03125 39.671875 28.421875 
Q 36.28125 30.8125 30.421875 30.8125 
L 19.671875 30.8125 
L 19.671875 0 
L 9.8125 0 
L 9.8125 72.90625 
L 32.078125 72.90625 
Q 44.578125 72.90625 50.734375 67.671875 
Q 56.890625 62.453125 56.890625 51.90625 
Q 56.890625 45.015625 53.6875 40.46875 
Q 50.484375 35.9375 44.390625 34.1875 
z
M 19.671875 64.796875 
L 19.671875 38.921875 
L 32.078125 38.921875 
Q 39.203125 38.921875 42.84375 42.21875 
Q 46.484375 45.515625 46.484375 51.90625 
Q 46.484375 58.296875 42.84375 61.546875 
Q 39.203125 64.796875 32.078125 64.796875 
z
" id="DejaVuSans-52"/>
      <path d="M 45.40625 46.390625 
L 45.40625 75.984375 
L 54.390625 75.984375 
L 54.390625 0 
L 45.40625 0 
L 45.40625 8.203125 
Q 42.578125 3.328125 38.25 0.953125 
Q 33.9375 -1.421875 27.875 -1.421875 
Q 17.96875 -1.421875 11.734375 6.484375 
Q 5.515625 14.40625 5.515625 27.296875 
Q 5.515625 40.1875 11.734375 48.09375 
Q 17.96875 56 27.875 56 
Q 33.9375 56 38.25 53.625 
Q 42.578125 51.265625 45.40625 46.390625 
z
M 14.796875 27.296875 
Q 14.796875 17.390625 18.875 11.75 
Q 22.953125 6.109375 30.078125 6.109375 
Q 37.203125 6.109375 41.296875 11.75 
Q 45.40625 17.390625 45.40625 27.296875 
Q 45.40625 37.203125 41.296875 42.84375 
Q 37.203125 48.484375 30.078125 48.484375 
Q 22.953125 48.484375 18.875 42.84375 
Q 14.796875 37.203125 14.796875 27.296875 
z
" id="DejaVuSans-64"/>
     </defs>
     <g transform="translate(15.558281 451.356699)rotate(-90)scale(0.11 -0.11)">
      <use xlink:href="#DejaVuSans-50"/>
      <use x="60.255859" xlink:href="#DejaVuSans-65"/>
      <use x="121.779297" xlink:href="#DejaVuSans-72"/>
      <use x="162.861328" xlink:href="#DejaVuSans-63"/>
      <use x="217.841797" xlink:href="#DejaVuSans-65"/>
      <use x="279.365234" xlink:href="#DejaVuSans-6e"/>
      <use x="342.744141" xlink:href="#DejaVuSans-74"/>
      <use x="381.953125" xlink:href="#DejaVuSans-20"/>
      <use x="413.740234" xlink:href="#DejaVuSans-6f"/>
      <use x="474.921875" xlink:href="#DejaVuSans-66"/>
      <use x="510.126953" xlink:href="#DejaVuSans-20"/>
      <use x="541.914062" xlink:href="#DejaVuSans-57"/>
      <use x="640.712891" xlink:href="#DejaVuSans-6f"/>
      <use x="701.894531" xlink:href="#DejaVuSans-72"/>
      <use x="743.007812" xlink:href="#DejaVuSans-6b"/>
      <use x="800.871094" xlink:href="#DejaVuSans-65"/>
      <use x="862.394531" xlink:href="#DejaVuSans-72"/>
      <use x="903.507812" xlink:href="#DejaVuSans-73"/>
      <use x="955.607422" xlink:href="#DejaVuSans-20"/>
      <use x="987.394531" xlink:href="#DejaVuSans-57"/>
      <use x="1086.193359" xlink:href="#DejaVuSans-6f"/>
      <use x="1147.375" xlink:href="#DejaVuSans-72"/>
      <use x="1188.488281" xlink:href="#DejaVuSans-6b"/>
      <use x="1246.398438" xlink:href="#DejaVuSans-69"/>
      <use x="1274.181641" xlink:href="#DejaVuSans-6e"/>
      <use x="1337.560547" xlink:href="#DejaVuSans-67"/>
      <use x="1401.037109" xlink:href="#DejaVuSans-20"/>
      <use x="1432.824219" xlink:href="#DejaVuSans-69"/>
      <use x="1460.607422" xlink:href="#DejaVuSans-6e"/>
      <use x="1523.986328" xlink:href="#DejaVuSans-20"/>
      <use x="1555.773438" xlink:href="#DejaVuSans-50"/>
      <use x="1616.076172" xlink:href="#DejaVuSans-6c"/>
      <use x="1643.859375" xlink:href="#DejaVuSans-61"/>
      <use x="1705.138672" xlink:href="#DejaVuSans-63"/>
      <use x="1760.119141" xlink:href="#DejaVuSans-65"/>
      <use x="1821.642578" xlink:href="#DejaVuSans-20"/>
      <use x="1853.429688" xlink:href="#DejaVuSans-6f"/>
      <use x="1914.611328" xlink:href="#DejaVuSans-66"/>
      <use x="1949.816406" xlink:href="#DejaVuSans-20"/>
      <use x="1981.603516" xlink:href="#DejaVuSans-52"/>
      <use x="2051.023438" xlink:href="#DejaVuSans-65"/>
      <use x="2112.546875" xlink:href="#DejaVuSans-73"/>
      <use x="2164.646484" xlink:href="#DejaVuSans-69"/>
      <use x="2192.429688" xlink:href="#DejaVuSans-64"/>
      <use x="2255.90625" xlink:href="#DejaVuSans-65"/>
      <use x="2317.429688" xlink:href="#DejaVuSans-6e"/>
      <use x="2380.808594" xlink:href="#DejaVuSans-63"/>
      <use x="2435.789062" xlink:href="#DejaVuSans-65"/>
     </g>
    </g>
   </g>
   <g id="PolyCollection_1">
    <path clip-path="url(#p6e708619a5)" d="M 48.386665 569.605371 
L 48.386665 86.166738 
L 55.610323 86.166738 
L 55.610323 569.605371 
z
" style="fill:#db5f57;"/>
    <path clip-path="url(#p6e708619a5)" d="M 56.412952 569.605371 
L 56.412952 65.605371 
L 63.63661 65.605371 
L 63.63661 569.605371 
z
" style="fill:#db5f57;"/>
    <path clip-path="url(#p6e708619a5)" d="M 64.439239 569.605371 
L 64.439239 85.540508 
L 71.662897 85.540508 
L 71.662897 569.605371 
z
" style="fill:#db5f57;"/>
    <path clip-path="url(#p6e708619a5)" d="M 72.465526 569.605371 
L 72.465526 94.403418 
L 79.689184 94.403418 
L 79.689184 569.605371 
z
" style="fill:#db5f57;"/>
    <path clip-path="url(#p6e708619a5)" d="M 80.491813 569.605371 
L 80.491813 104.771183 
L 87.715471 104.771183 
L 87.715471 569.605371 
z
" style="fill:#db5f57;"/>
    <path clip-path="url(#p6e708619a5)" d="M 88.5181 569.605371 
L 88.5181 221.344882 
L 95.741758 221.344882 
L 95.741758 569.605371 
z
" style="fill:#db5f57;"/>
    <path clip-path="url(#p6e708619a5)" d="M 96.544387 569.605371 
L 96.544387 386.808122 
L 103.768045 386.808122 
L 103.768045 569.605371 
z
" style="fill:#db5f57;"/>
    <path clip-path="url(#p6e708619a5)" d="M 104.570674 569.605371 
L 104.570674 401.433637 
L 111.794332 401.433637 
L 111.794332 569.605371 
z
" style="fill:#db5f57;"/>
    <path clip-path="url(#p6e708619a5)" d="M 112.596961 569.605371 
L 112.596961 426.944404 
L 119.820619 426.944404 
L 119.820619 569.605371 
z
" style="fill:#db5f57;"/>
    <path clip-path="url(#p6e708619a5)" d="M 120.623247 569.605371 
L 120.623247 457.73496 
L 127.846906 457.73496 
L 127.846906 569.605371 
z
" style="fill:#db5f57;"/>
    <path clip-path="url(#p6e708619a5)" d="M 128.649534 569.605371 
L 128.649534 390.733219 
L 135.873193 390.733219 
L 135.873193 569.605371 
z
" style="fill:#db5f57;"/>
    <path clip-path="url(#p6e708619a5)" d="M 136.675821 569.605371 
L 136.675821 321.061689 
L 143.89948 321.061689 
L 143.89948 569.605371 
z
" style="fill:#db5f57;"/>
    <path clip-path="url(#p6e708619a5)" d="M 144.702108 569.605371 
L 144.702108 303.027779 
L 151.925767 303.027779 
L 151.925767 569.605371 
z
" style="fill:#db5f57;"/>
    <path clip-path="url(#p6e708619a5)" d="M 152.728395 569.605371 
L 152.728395 386.416349 
L 159.952054 386.416349 
L 159.952054 569.605371 
z
" style="fill:#db5f57;"/>
    <path clip-path="url(#p6e708619a5)" d="M 160.754682 569.605371 
L 160.754682 345.223358 
L 167.978341 345.223358 
L 167.978341 569.605371 
z
" style="fill:#db5f57;"/>
    <path clip-path="url(#p6e708619a5)" d="M 168.780969 569.605371 
L 168.780969 316.684657 
L 176.004628 316.684657 
L 176.004628 569.605371 
z
" style="fill:#db5f57;"/>
    <path clip-path="url(#p6e708619a5)" d="M 176.807256 569.605371 
L 176.807256 369.488437 
L 184.030914 369.488437 
L 184.030914 569.605371 
z
" style="fill:#db5f57;"/>
    <path clip-path="url(#p6e708619a5)" d="M 184.833543 569.605371 
L 184.833543 324.358292 
L 192.057201 324.358292 
L 192.057201 569.605371 
z
" style="fill:#db5f57;"/>
    <path clip-path="url(#p6e708619a5)" d="M 192.85983 569.605371 
L 192.85983 302.802534 
L 200.083488 302.802534 
L 200.083488 569.605371 
z
" style="fill:#db5f57;"/>
    <path clip-path="url(#p6e708619a5)" d="M 200.886117 569.605371 
L 200.886117 290.674652 
L 208.109775 290.674652 
L 208.109775 569.605371 
z
" style="fill:#db5f57;"/>
    <path clip-path="url(#p6e708619a5)" d="M 208.912404 569.605371 
L 208.912404 283.024601 
L 216.136062 283.024601 
L 216.136062 569.605371 
z
" style="fill:#db5f57;"/>
    <path clip-path="url(#p6e708619a5)" d="M 216.938691 569.605371 
L 216.938691 433.529731 
L 224.162349 433.529731 
L 224.162349 569.605371 
z
" style="fill:#db5f57;"/>
    <path clip-path="url(#p6e708619a5)" d="M 224.964978 569.605371 
L 224.964978 423.862363 
L 232.188636 423.862363 
L 232.188636 569.605371 
z
" style="fill:#db5f57;"/>
    <path clip-path="url(#p6e708619a5)" d="M 232.991265 569.605371 
L 232.991265 392.077615 
L 240.214923 392.077615 
L 240.214923 569.605371 
z
" style="fill:#db5f57;"/>
    <path clip-path="url(#p6e708619a5)" d="M 241.017552 569.605371 
L 241.017552 246.944575 
L 248.24121 246.944575 
L 248.24121 569.605371 
z
" style="fill:#db5f57;"/>
   </g>
   <g id="patch_3">
    <path d="M 38.393938 40.405371 
L 258.233938 40.405371 
L 258.233938 26.206789 
L 38.393938 26.206789 
z
" style="fill:#cccccc;stroke:#7f7f7f;stroke-linejoin:miter;"/>
   </g>
   <g id="text_10">
    <!-- austin -->
    <defs>
     <path d="M 8.5 21.578125 
L 8.5 54.6875 
L 17.484375 54.6875 
L 17.484375 21.921875 
Q 17.484375 14.15625 20.5 10.265625 
Q 23.53125 6.390625 29.59375 6.390625 
Q 36.859375 6.390625 41.078125 11.03125 
Q 45.3125 15.671875 45.3125 23.6875 
L 45.3125 54.6875 
L 54.296875 54.6875 
L 54.296875 0 
L 45.3125 0 
L 45.3125 8.40625 
Q 42.046875 3.421875 37.71875 1 
Q 33.40625 -1.421875 27.6875 -1.421875 
Q 18.265625 -1.421875 13.375 4.4375 
Q 8.5 10.296875 8.5 21.578125 
z
M 31.109375 56 
z
" id="DejaVuSans-75"/>
    </defs>
    <g style="fill:#1a1a1a;" transform="translate(134.801125 35.73433)scale(0.088 -0.088)">
     <use xlink:href="#DejaVuSans-61"/>
     <use x="61.279297" xlink:href="#DejaVuSans-75"/>
     <use x="124.658203" xlink:href="#DejaVuSans-73"/>
     <use x="176.757812" xlink:href="#DejaVuSans-74"/>
     <use x="215.966797" xlink:href="#DejaVuSans-69"/>
     <use x="243.75" xlink:href="#DejaVuSans-6e"/>
    </g>
   </g>
   <g id="patch_4">
    <path d="M 715.193937 359.488339 
L 793.968062 359.488339 
L 793.968062 268.522402 
L 715.193937 268.522402 
z
" style="fill:#ffffff;"/>
   </g>
   <g id="text_11">
    <!-- City -->
    <defs>
     <path d="M 64.40625 67.28125 
L 64.40625 56.890625 
Q 59.421875 61.53125 53.78125 63.8125 
Q 48.140625 66.109375 41.796875 66.109375 
Q 29.296875 66.109375 22.65625 58.46875 
Q 16.015625 50.828125 16.015625 36.375 
Q 16.015625 21.96875 22.65625 14.328125 
Q 29.296875 6.6875 41.796875 6.6875 
Q 48.140625 6.6875 53.78125 8.984375 
Q 59.421875 11.28125 64.40625 15.921875 
L 64.40625 5.609375 
Q 59.234375 2.09375 53.4375 0.328125 
Q 47.65625 -1.421875 41.21875 -1.421875 
Q 24.65625 -1.421875 15.125 8.703125 
Q 5.609375 18.84375 5.609375 36.375 
Q 5.609375 53.953125 15.125 64.078125 
Q 24.65625 74.21875 41.21875 74.21875 
Q 47.75 74.21875 53.53125 72.484375 
Q 59.328125 70.75 64.40625 67.28125 
z
" id="DejaVuSans-43"/>
     <path d="M 32.171875 -5.078125 
Q 28.375 -14.84375 24.75 -17.8125 
Q 21.140625 -20.796875 15.09375 -20.796875 
L 7.90625 -20.796875 
L 7.90625 -13.28125 
L 13.1875 -13.28125 
Q 16.890625 -13.28125 18.9375 -11.515625 
Q 21 -9.765625 23.484375 -3.21875 
L 25.09375 0.875 
L 2.984375 54.6875 
L 12.5 54.6875 
L 29.59375 11.921875 
L 46.6875 54.6875 
L 56.203125 54.6875 
z
" id="DejaVuSans-79"/>
    </defs>
    <g transform="translate(727.393937 292.115996)scale(0.11 -0.11)">
     <use xlink:href="#DejaVuSans-43"/>
     <use x="69.824219" xlink:href="#DejaVuSans-69"/>
     <use x="97.607422" xlink:href="#DejaVuSans-74"/>
     <use x="136.816406" xlink:href="#DejaVuSans-79"/>
    </g>
   </g>
   <g id="patch_5">
    <path clip-path="url(#pb401f8b63f)" d="M 727.393937 311.608339 
L 743.233938 311.608339 
L 743.233938 295.768339 
L 727.393937 295.768339 
z
" style="fill:#f2f2f2;stroke:#cccccc;stroke-linejoin:miter;"/>
   </g>
   <g id="patch_6">
    <path clip-path="url(#pb401f8b63f)" d="M 727.393937 311.608339 
L 743.233938 311.608339 
L 743.233938 295.768339 
L 727.393937 295.768339 
z
" style="fill:#db5f57;"/>
   </g>
   <g id="text_12">
    <!-- austin -->
    <g transform="translate(746.233938 306.116589)scale(0.088 -0.088)">
     <use xlink:href="#DejaVuSans-61"/>
     <use x="61.279297" xlink:href="#DejaVuSans-75"/>
     <use x="124.658203" xlink:href="#DejaVuSans-73"/>
     <use x="176.757812" xlink:href="#DejaVuSans-74"/>
     <use x="215.966797" xlink:href="#DejaVuSans-69"/>
     <use x="243.75" xlink:href="#DejaVuSans-6e"/>
    </g>
   </g>
   <g id="patch_7">
    <path clip-path="url(#p2c7d994250)" d="M 727.393937 329.448339 
L 743.233938 329.448339 
L 743.233938 313.608339 
L 727.393937 313.608339 
z
" style="fill:#f2f2f2;stroke:#cccccc;stroke-linejoin:miter;"/>
   </g>
   <g id="patch_8">
    <path clip-path="url(#p2c7d994250)" d="M 727.393937 329.448339 
L 743.233938 329.448339 
L 743.233938 313.608339 
L 727.393937 313.608339 
z
" style="fill:#57db5f;"/>
   </g>
   <g id="text_13">
    <!-- dallas -->
    <g transform="translate(746.233938 323.956589)scale(0.088 -0.088)">
     <use xlink:href="#DejaVuSans-64"/>
     <use x="63.476562" xlink:href="#DejaVuSans-61"/>
     <use x="124.755859" xlink:href="#DejaVuSans-6c"/>
     <use x="152.539062" xlink:href="#DejaVuSans-6c"/>
     <use x="180.322266" xlink:href="#DejaVuSans-61"/>
     <use x="241.601562" xlink:href="#DejaVuSans-73"/>
    </g>
   </g>
   <g id="patch_9">
    <path clip-path="url(#pbd1ad9a297)" d="M 727.393937 347.288339 
L 743.233938 347.288339 
L 743.233938 331.448339 
L 727.393937 331.448339 
z
" style="fill:#f2f2f2;stroke:#cccccc;stroke-linejoin:miter;"/>
   </g>
   <g id="patch_10">
    <path clip-path="url(#pbd1ad9a297)" d="M 727.393937 347.288339 
L 743.233938 347.288339 
L 743.233938 331.448339 
L 727.393937 331.448339 
z
" style="fill:#5f57db;"/>
   </g>
   <g id="text_14">
    <!-- houston -->
    <defs>
     <path d="M 54.890625 33.015625 
L 54.890625 0 
L 45.90625 0 
L 45.90625 32.71875 
Q 45.90625 40.484375 42.875 44.328125 
Q 39.84375 48.1875 33.796875 48.1875 
Q 26.515625 48.1875 22.3125 43.546875 
Q 18.109375 38.921875 18.109375 30.90625 
L 18.109375 0 
L 9.078125 0 
L 9.078125 75.984375 
L 18.109375 75.984375 
L 18.109375 46.1875 
Q 21.34375 51.125 25.703125 53.5625 
Q 30.078125 56 35.796875 56 
Q 45.21875 56 50.046875 50.171875 
Q 54.890625 44.34375 54.890625 33.015625 
z
" id="DejaVuSans-68"/>
    </defs>
    <g transform="translate(746.233938 341.796589)scale(0.088 -0.088)">
     <use xlink:href="#DejaVuSans-68"/>
     <use x="63.378906" xlink:href="#DejaVuSans-6f"/>
     <use x="124.560547" xlink:href="#DejaVuSans-75"/>
     <use x="187.939453" xlink:href="#DejaVuSans-73"/>
     <use x="240.039062" xlink:href="#DejaVuSans-74"/>
     <use x="279.248047" xlink:href="#DejaVuSans-6f"/>
     <use x="340.429688" xlink:href="#DejaVuSans-6e"/>
    </g>
   </g>
  </g>
  <g id="axes_2">
   <g id="patch_11">
    <path d="M 263.273938 594.805371 
L 483.113938 594.805371 
L 483.113938 40.405371 
L 263.273938 40.405371 
z
" style="fill:#ffffff;stroke:#7f7f7f;stroke-linejoin:miter;"/>
   </g>
   <g id="matplotlib.axis_3">
    <g id="xtick_8">
     <g id="line2d_31">
      <path clip-path="url(#p459b8b0edf)" d="M 276.878494 594.805371 
L 276.878494 40.405371 
" style="fill:none;stroke:#e5e5e5;stroke-linecap:square;stroke-width:0.8;"/>
     </g>
     <g id="line2d_32">
      <path d="M 276.878494 594.805371 
" style="fill:none;stroke:#000000;stroke-linecap:square;stroke-width:1.5;"/>
      <g>
       <use style="stroke:#000000;" x="276.878494" xlink:href="#m06cff803ec" y="594.805371"/>
      </g>
     </g>
     <g id="text_15">
      <!-- 0 -->
      <g style="fill:#4d4d4d;" transform="translate(274.078994 606.441996)scale(0.088 -0.088)">
       <use xlink:href="#DejaVuSans-30"/>
      </g>
     </g>
    </g>
    <g id="xtick_9">
     <g id="line2d_33">
      <path clip-path="url(#p459b8b0edf)" d="M 341.08879 594.805371 
L 341.08879 40.405371 
" style="fill:none;stroke:#e5e5e5;stroke-linecap:square;stroke-width:0.8;"/>
     </g>
     <g id="line2d_34">
      <path d="M 341.08879 594.805371 
" style="fill:none;stroke:#000000;stroke-linecap:square;stroke-width:1.5;"/>
      <g>
       <use style="stroke:#000000;" x="341.08879" xlink:href="#m06cff803ec" y="594.805371"/>
      </g>
     </g>
     <g id="text_16">
      <!-- 20 -->
      <g style="fill:#4d4d4d;" transform="translate(335.48979 606.441996)scale(0.088 -0.088)">
       <use xlink:href="#DejaVuSans-32"/>
       <use x="63.623047" xlink:href="#DejaVuSans-30"/>
      </g>
     </g>
    </g>
    <g id="xtick_10">
     <g id="line2d_35">
      <path clip-path="url(#p459b8b0edf)" d="M 405.299085 594.805371 
L 405.299085 40.405371 
" style="fill:none;stroke:#e5e5e5;stroke-linecap:square;stroke-width:0.8;"/>
     </g>
     <g id="line2d_36">
      <path d="M 405.299085 594.805371 
" style="fill:none;stroke:#000000;stroke-linecap:square;stroke-width:1.5;"/>
      <g>
       <use style="stroke:#000000;" x="405.299085" xlink:href="#m06cff803ec" y="594.805371"/>
      </g>
     </g>
     <g id="text_17">
      <!-- 40 -->
      <g style="fill:#4d4d4d;" transform="translate(399.700085 606.441996)scale(0.088 -0.088)">
       <use xlink:href="#DejaVuSans-34"/>
       <use x="63.623047" xlink:href="#DejaVuSans-30"/>
      </g>
     </g>
    </g>
    <g id="xtick_11">
     <g id="line2d_37">
      <path clip-path="url(#p459b8b0edf)" d="M 469.509381 594.805371 
L 469.509381 40.405371 
" style="fill:none;stroke:#e5e5e5;stroke-linecap:square;stroke-width:0.8;"/>
     </g>
     <g id="line2d_38">
      <path d="M 469.509381 594.805371 
" style="fill:none;stroke:#000000;stroke-linecap:square;stroke-width:1.5;"/>
      <g>
       <use style="stroke:#000000;" x="469.509381" xlink:href="#m06cff803ec" y="594.805371"/>
      </g>
     </g>
     <g id="text_18">
      <!-- 60 -->
      <g style="fill:#4d4d4d;" transform="translate(463.910381 606.441996)scale(0.088 -0.088)">
       <use xlink:href="#DejaVuSans-36"/>
       <use x="63.623047" xlink:href="#DejaVuSans-30"/>
      </g>
     </g>
    </g>
    <g id="xtick_12">
     <g id="line2d_39">
      <path clip-path="url(#p459b8b0edf)" d="M 308.983642 594.805371 
L 308.983642 40.405371 
" style="fill:none;stroke:#fafafa;stroke-linecap:square;"/>
     </g>
     <g id="line2d_40">
      <path d="M 308.983642 594.805371 
" style="fill:none;stroke:#000000;stroke-linecap:square;stroke-width:1.5;"/>
     </g>
    </g>
    <g id="xtick_13">
     <g id="line2d_41">
      <path clip-path="url(#p459b8b0edf)" d="M 373.193938 594.805371 
L 373.193938 40.405371 
" style="fill:none;stroke:#fafafa;stroke-linecap:square;"/>
     </g>
     <g id="line2d_42">
      <path d="M 373.193938 594.805371 
" style="fill:none;stroke:#000000;stroke-linecap:square;stroke-width:1.5;"/>
     </g>
    </g>
    <g id="xtick_14">
     <g id="line2d_43">
      <path clip-path="url(#p459b8b0edf)" d="M 437.404233 594.805371 
L 437.404233 40.405371 
" style="fill:none;stroke:#fafafa;stroke-linecap:square;"/>
     </g>
     <g id="line2d_44">
      <path d="M 437.404233 594.805371 
" style="fill:none;stroke:#000000;stroke-linecap:square;stroke-width:1.5;"/>
     </g>
    </g>
   </g>
   <g id="matplotlib.axis_4">
    <g id="ytick_9">
     <g id="line2d_45">
      <path clip-path="url(#p459b8b0edf)" d="M 263.273938 569.605371 
L 483.113938 569.605371 
" style="fill:none;stroke:#e5e5e5;stroke-linecap:square;stroke-width:0.8;"/>
     </g>
    </g>
    <g id="ytick_10">
     <g id="line2d_46">
      <path clip-path="url(#p459b8b0edf)" d="M 263.273938 427.855876 
L 483.113938 427.855876 
" style="fill:none;stroke:#e5e5e5;stroke-linecap:square;stroke-width:0.8;"/>
     </g>
    </g>
    <g id="ytick_11">
     <g id="line2d_47">
      <path clip-path="url(#p459b8b0edf)" d="M 263.273938 286.106381 
L 483.113938 286.106381 
" style="fill:none;stroke:#e5e5e5;stroke-linecap:square;stroke-width:0.8;"/>
     </g>
    </g>
    <g id="ytick_12">
     <g id="line2d_48">
      <path clip-path="url(#p459b8b0edf)" d="M 263.273938 144.356887 
L 483.113938 144.356887 
" style="fill:none;stroke:#e5e5e5;stroke-linecap:square;stroke-width:0.8;"/>
     </g>
    </g>
    <g id="ytick_13">
     <g id="line2d_49">
      <path clip-path="url(#p459b8b0edf)" d="M 263.273938 498.730623 
L 483.113938 498.730623 
" style="fill:none;stroke:#fafafa;stroke-linecap:square;"/>
     </g>
    </g>
    <g id="ytick_14">
     <g id="line2d_50">
      <path clip-path="url(#p459b8b0edf)" d="M 263.273938 356.981129 
L 483.113938 356.981129 
" style="fill:none;stroke:#fafafa;stroke-linecap:square;"/>
     </g>
    </g>
    <g id="ytick_15">
     <g id="line2d_51">
      <path clip-path="url(#p459b8b0edf)" d="M 263.273938 215.231634 
L 483.113938 215.231634 
" style="fill:none;stroke:#fafafa;stroke-linecap:square;"/>
     </g>
    </g>
    <g id="ytick_16">
     <g id="line2d_52">
      <path clip-path="url(#p459b8b0edf)" d="M 263.273938 73.482139 
L 483.113938 73.482139 
" style="fill:none;stroke:#fafafa;stroke-linecap:square;"/>
     </g>
    </g>
   </g>
   <g id="PolyCollection_2">
    <path clip-path="url(#p459b8b0edf)" d="M 273.266665 569.605371 
L 273.266665 184.904413 
L 280.490323 184.904413 
L 280.490323 569.605371 
z
" style="fill:#57db5f;"/>
    <path clip-path="url(#p459b8b0edf)" d="M 281.292952 569.605371 
L 281.292952 176.826643 
L 288.51661 176.826643 
L 288.51661 569.605371 
z
" style="fill:#57db5f;"/>
    <path clip-path="url(#p459b8b0edf)" d="M 289.319239 569.605371 
L 289.319239 215.816281 
L 296.542897 215.816281 
L 296.542897 569.605371 
z
" style="fill:#57db5f;"/>
    <path clip-path="url(#p459b8b0edf)" d="M 297.345526 569.605371 
L 297.345526 211.12009 
L 304.569184 211.12009 
L 304.569184 569.605371 
z
" style="fill:#57db5f;"/>
    <path clip-path="url(#p459b8b0edf)" d="M 305.371813 569.605371 
L 305.371813 329.786424 
L 312.595471 329.786424 
L 312.595471 569.605371 
z
" style="fill:#57db5f;"/>
    <path clip-path="url(#p459b8b0edf)" d="M 313.3981 569.605371 
L 313.3981 405.986118 
L 320.621758 405.986118 
L 320.621758 569.605371 
z
" style="fill:#57db5f;"/>
    <path clip-path="url(#p459b8b0edf)" d="M 321.424387 569.605371 
L 321.424387 413.121643 
L 328.648045 413.121643 
L 328.648045 569.605371 
z
" style="fill:#57db5f;"/>
    <path clip-path="url(#p459b8b0edf)" d="M 329.450674 569.605371 
L 329.450674 415.373464 
L 336.674332 415.373464 
L 336.674332 569.605371 
z
" style="fill:#57db5f;"/>
    <path clip-path="url(#p459b8b0edf)" d="M 337.476961 569.605371 
L 337.476961 400.037828 
L 344.700619 400.037828 
L 344.700619 569.605371 
z
" style="fill:#57db5f;"/>
    <path clip-path="url(#p459b8b0edf)" d="M 345.503247 569.605371 
L 345.503247 411.275595 
L 352.726906 411.275595 
L 352.726906 569.605371 
z
" style="fill:#57db5f;"/>
    <path clip-path="url(#p459b8b0edf)" d="M 353.529534 569.605371 
L 353.529534 412.293615 
L 360.753193 412.293615 
L 360.753193 569.605371 
z
" style="fill:#57db5f;"/>
    <path clip-path="url(#p459b8b0edf)" d="M 361.555821 569.605371 
L 361.555821 422.941452 
L 368.77948 422.941452 
L 368.77948 569.605371 
z
" style="fill:#57db5f;"/>
    <path clip-path="url(#p459b8b0edf)" d="M 369.582108 569.605371 
L 369.582108 352.066599 
L 376.805767 352.066599 
L 376.805767 569.605371 
z
" style="fill:#57db5f;"/>
    <path clip-path="url(#p459b8b0edf)" d="M 377.608395 569.605371 
L 377.608395 291.072239 
L 384.832054 291.072239 
L 384.832054 569.605371 
z
" style="fill:#57db5f;"/>
    <path clip-path="url(#p459b8b0edf)" d="M 385.634682 569.605371 
L 385.634682 298.260394 
L 392.858341 298.260394 
L 392.858341 569.605371 
z
" style="fill:#57db5f;"/>
    <path clip-path="url(#p459b8b0edf)" d="M 393.660969 569.605371 
L 393.660969 285.039539 
L 400.884628 285.039539 
L 400.884628 569.605371 
z
" style="fill:#57db5f;"/>
    <path clip-path="url(#p459b8b0edf)" d="M 401.687256 569.605371 
L 401.687256 370.89311 
L 408.910914 370.89311 
L 408.910914 569.605371 
z
" style="fill:#57db5f;"/>
    <path clip-path="url(#p459b8b0edf)" d="M 409.713543 569.605371 
L 409.713543 386.529957 
L 416.937201 386.529957 
L 416.937201 569.605371 
z
" style="fill:#57db5f;"/>
    <path clip-path="url(#p459b8b0edf)" d="M 417.73983 569.605371 
L 417.73983 356.541396 
L 424.963488 356.541396 
L 424.963488 569.605371 
z
" style="fill:#57db5f;"/>
    <path clip-path="url(#p459b8b0edf)" d="M 425.766117 569.605371 
L 425.766117 364.213541 
L 432.989775 364.213541 
L 432.989775 569.605371 
z
" style="fill:#57db5f;"/>
    <path clip-path="url(#p459b8b0edf)" d="M 433.792404 569.605371 
L 433.792404 309.572057 
L 441.016062 309.572057 
L 441.016062 569.605371 
z
" style="fill:#57db5f;"/>
    <path clip-path="url(#p459b8b0edf)" d="M 441.818691 569.605371 
L 441.818691 374.793837 
L 449.042349 374.793837 
L 449.042349 569.605371 
z
" style="fill:#57db5f;"/>
    <path clip-path="url(#p459b8b0edf)" d="M 449.844978 569.605371 
L 449.844978 349.176312 
L 457.068636 349.176312 
L 457.068636 569.605371 
z
" style="fill:#57db5f;"/>
    <path clip-path="url(#p459b8b0edf)" d="M 457.871265 569.605371 
L 457.871265 365.153611 
L 465.094923 365.153611 
L 465.094923 569.605371 
z
" style="fill:#57db5f;"/>
    <path clip-path="url(#p459b8b0edf)" d="M 465.897552 569.605371 
L 465.897552 287.570755 
L 473.12121 287.570755 
L 473.12121 569.605371 
z
" style="fill:#57db5f;"/>
   </g>
   <g id="patch_12">
    <path d="M 263.273938 40.405371 
L 483.113938 40.405371 
L 483.113938 26.206789 
L 263.273938 26.206789 
z
" style="fill:#cccccc;stroke:#7f7f7f;stroke-linejoin:miter;"/>
   </g>
   <g id="text_19">
    <!-- dallas -->
    <g style="fill:#1a1a1a;" transform="translate(360.271 35.73433)scale(0.088 -0.088)">
     <use xlink:href="#DejaVuSans-64"/>
     <use x="63.476562" xlink:href="#DejaVuSans-61"/>
     <use x="124.755859" xlink:href="#DejaVuSans-6c"/>
     <use x="152.539062" xlink:href="#DejaVuSans-6c"/>
     <use x="180.322266" xlink:href="#DejaVuSans-61"/>
     <use x="241.601562" xlink:href="#DejaVuSans-73"/>
    </g>
   </g>
  </g>
  <g id="axes_3">
   <g id="patch_13">
    <path d="M 488.153938 594.805371 
L 707.993938 594.805371 
L 707.993938 40.405371 
L 488.153938 40.405371 
z
" style="fill:#ffffff;stroke:#7f7f7f;stroke-linejoin:miter;"/>
   </g>
   <g id="matplotlib.axis_5">
    <g id="xtick_15">
     <g id="line2d_53">
      <path clip-path="url(#p48c19a330a)" d="M 501.758494 594.805371 
L 501.758494 40.405371 
" style="fill:none;stroke:#e5e5e5;stroke-linecap:square;stroke-width:0.8;"/>
     </g>
     <g id="line2d_54">
      <path d="M 501.758494 594.805371 
" style="fill:none;stroke:#000000;stroke-linecap:square;stroke-width:1.5;"/>
      <g>
       <use style="stroke:#000000;" x="501.758494" xlink:href="#m06cff803ec" y="594.805371"/>
      </g>
     </g>
     <g id="text_20">
      <!-- 0 -->
      <g style="fill:#4d4d4d;" transform="translate(498.958994 606.441996)scale(0.088 -0.088)">
       <use xlink:href="#DejaVuSans-30"/>
      </g>
     </g>
    </g>
    <g id="xtick_16">
     <g id="line2d_55">
      <path clip-path="url(#p48c19a330a)" d="M 565.96879 594.805371 
L 565.96879 40.405371 
" style="fill:none;stroke:#e5e5e5;stroke-linecap:square;stroke-width:0.8;"/>
     </g>
     <g id="line2d_56">
      <path d="M 565.96879 594.805371 
" style="fill:none;stroke:#000000;stroke-linecap:square;stroke-width:1.5;"/>
      <g>
       <use style="stroke:#000000;" x="565.96879" xlink:href="#m06cff803ec" y="594.805371"/>
      </g>
     </g>
     <g id="text_21">
      <!-- 20 -->
      <g style="fill:#4d4d4d;" transform="translate(560.36979 606.441996)scale(0.088 -0.088)">
       <use xlink:href="#DejaVuSans-32"/>
       <use x="63.623047" xlink:href="#DejaVuSans-30"/>
      </g>
     </g>
    </g>
    <g id="xtick_17">
     <g id="line2d_57">
      <path clip-path="url(#p48c19a330a)" d="M 630.179085 594.805371 
L 630.179085 40.405371 
" style="fill:none;stroke:#e5e5e5;stroke-linecap:square;stroke-width:0.8;"/>
     </g>
     <g id="line2d_58">
      <path d="M 630.179085 594.805371 
" style="fill:none;stroke:#000000;stroke-linecap:square;stroke-width:1.5;"/>
      <g>
       <use style="stroke:#000000;" x="630.179085" xlink:href="#m06cff803ec" y="594.805371"/>
      </g>
     </g>
     <g id="text_22">
      <!-- 40 -->
      <g style="fill:#4d4d4d;" transform="translate(624.580085 606.441996)scale(0.088 -0.088)">
       <use xlink:href="#DejaVuSans-34"/>
       <use x="63.623047" xlink:href="#DejaVuSans-30"/>
      </g>
     </g>
    </g>
    <g id="xtick_18">
     <g id="line2d_59">
      <path clip-path="url(#p48c19a330a)" d="M 694.389381 594.805371 
L 694.389381 40.405371 
" style="fill:none;stroke:#e5e5e5;stroke-linecap:square;stroke-width:0.8;"/>
     </g>
     <g id="line2d_60">
      <path d="M 694.389381 594.805371 
" style="fill:none;stroke:#000000;stroke-linecap:square;stroke-width:1.5;"/>
      <g>
       <use style="stroke:#000000;" x="694.389381" xlink:href="#m06cff803ec" y="594.805371"/>
      </g>
     </g>
     <g id="text_23">
      <!-- 60 -->
      <g style="fill:#4d4d4d;" transform="translate(688.790381 606.441996)scale(0.088 -0.088)">
       <use xlink:href="#DejaVuSans-36"/>
       <use x="63.623047" xlink:href="#DejaVuSans-30"/>
      </g>
     </g>
    </g>
    <g id="xtick_19">
     <g id="line2d_61">
      <path clip-path="url(#p48c19a330a)" d="M 533.863642 594.805371 
L 533.863642 40.405371 
" style="fill:none;stroke:#fafafa;stroke-linecap:square;"/>
     </g>
     <g id="line2d_62">
      <path d="M 533.863642 594.805371 
" style="fill:none;stroke:#000000;stroke-linecap:square;stroke-width:1.5;"/>
     </g>
    </g>
    <g id="xtick_20">
     <g id="line2d_63">
      <path clip-path="url(#p48c19a330a)" d="M 598.073938 594.805371 
L 598.073938 40.405371 
" style="fill:none;stroke:#fafafa;stroke-linecap:square;"/>
     </g>
     <g id="line2d_64">
      <path d="M 598.073938 594.805371 
" style="fill:none;stroke:#000000;stroke-linecap:square;stroke-width:1.5;"/>
     </g>
    </g>
    <g id="xtick_21">
     <g id="line2d_65">
      <path clip-path="url(#p48c19a330a)" d="M 662.284233 594.805371 
L 662.284233 40.405371 
" style="fill:none;stroke:#fafafa;stroke-linecap:square;"/>
     </g>
     <g id="line2d_66">
      <path d="M 662.284233 594.805371 
" style="fill:none;stroke:#000000;stroke-linecap:square;stroke-width:1.5;"/>
     </g>
    </g>
    <g id="text_24">
     <!-- Distance from City Center (Miles) -->
     <defs>
      <path d="M 19.671875 64.796875 
L 19.671875 8.109375 
L 31.59375 8.109375 
Q 46.6875 8.109375 53.6875 14.9375 
Q 60.6875 21.78125 60.6875 36.53125 
Q 60.6875 51.171875 53.6875 57.984375 
Q 46.6875 64.796875 31.59375 64.796875 
z
M 9.8125 72.90625 
L 30.078125 72.90625 
Q 51.265625 72.90625 61.171875 64.09375 
Q 71.09375 55.28125 71.09375 36.53125 
Q 71.09375 17.671875 61.125 8.828125 
Q 51.171875 0 30.078125 0 
L 9.8125 0 
z
" id="DejaVuSans-44"/>
      <path d="M 52 44.1875 
Q 55.375 50.25 60.0625 53.125 
Q 64.75 56 71.09375 56 
Q 79.640625 56 84.28125 50.015625 
Q 88.921875 44.046875 88.921875 33.015625 
L 88.921875 0 
L 79.890625 0 
L 79.890625 32.71875 
Q 79.890625 40.578125 77.09375 44.375 
Q 74.3125 48.1875 68.609375 48.1875 
Q 61.625 48.1875 57.5625 43.546875 
Q 53.515625 38.921875 53.515625 30.90625 
L 53.515625 0 
L 44.484375 0 
L 44.484375 32.71875 
Q 44.484375 40.625 41.703125 44.40625 
Q 38.921875 48.1875 33.109375 48.1875 
Q 26.21875 48.1875 22.15625 43.53125 
Q 18.109375 38.875 18.109375 30.90625 
L 18.109375 0 
L 9.078125 0 
L 9.078125 54.6875 
L 18.109375 54.6875 
L 18.109375 46.1875 
Q 21.1875 51.21875 25.484375 53.609375 
Q 29.78125 56 35.6875 56 
Q 41.65625 56 45.828125 52.96875 
Q 50 49.953125 52 44.1875 
z
" id="DejaVuSans-6d"/>
      <path d="M 31 75.875 
Q 24.46875 64.65625 21.28125 53.65625 
Q 18.109375 42.671875 18.109375 31.390625 
Q 18.109375 20.125 21.3125 9.0625 
Q 24.515625 -2 31 -13.1875 
L 23.1875 -13.1875 
Q 15.875 -1.703125 12.234375 9.375 
Q 8.59375 20.453125 8.59375 31.390625 
Q 8.59375 42.28125 12.203125 53.3125 
Q 15.828125 64.359375 23.1875 75.875 
z
" id="DejaVuSans-28"/>
      <path d="M 9.8125 72.90625 
L 24.515625 72.90625 
L 43.109375 23.296875 
L 61.8125 72.90625 
L 76.515625 72.90625 
L 76.515625 0 
L 66.890625 0 
L 66.890625 64.015625 
L 48.09375 14.015625 
L 38.1875 14.015625 
L 19.390625 64.015625 
L 19.390625 0 
L 9.8125 0 
z
" id="DejaVuSans-4d"/>
      <path d="M 8.015625 75.875 
L 15.828125 75.875 
Q 23.140625 64.359375 26.78125 53.3125 
Q 30.421875 42.28125 30.421875 31.390625 
Q 30.421875 20.453125 26.78125 9.375 
Q 23.140625 -1.703125 15.828125 -13.1875 
L 8.015625 -13.1875 
Q 14.5 -2 17.703125 9.0625 
Q 20.90625 20.125 20.90625 31.390625 
Q 20.90625 42.671875 17.703125 53.65625 
Q 14.5 64.65625 8.015625 75.875 
z
" id="DejaVuSans-29"/>
     </defs>
     <g transform="translate(270.800891 621.030402)scale(0.11 -0.11)">
      <use xlink:href="#DejaVuSans-44"/>
      <use x="77.001953" xlink:href="#DejaVuSans-69"/>
      <use x="104.785156" xlink:href="#DejaVuSans-73"/>
      <use x="156.884766" xlink:href="#DejaVuSans-74"/>
      <use x="196.09375" xlink:href="#DejaVuSans-61"/>
      <use x="257.373047" xlink:href="#DejaVuSans-6e"/>
      <use x="320.751953" xlink:href="#DejaVuSans-63"/>
      <use x="375.732422" xlink:href="#DejaVuSans-65"/>
      <use x="437.255859" xlink:href="#DejaVuSans-20"/>
      <use x="469.042969" xlink:href="#DejaVuSans-66"/>
      <use x="504.248047" xlink:href="#DejaVuSans-72"/>
      <use x="545.330078" xlink:href="#DejaVuSans-6f"/>
      <use x="606.511719" xlink:href="#DejaVuSans-6d"/>
      <use x="703.923828" xlink:href="#DejaVuSans-20"/>
      <use x="735.710938" xlink:href="#DejaVuSans-43"/>
      <use x="805.535156" xlink:href="#DejaVuSans-69"/>
      <use x="833.318359" xlink:href="#DejaVuSans-74"/>
      <use x="872.527344" xlink:href="#DejaVuSans-79"/>
      <use x="931.707031" xlink:href="#DejaVuSans-20"/>
      <use x="963.494141" xlink:href="#DejaVuSans-43"/>
      <use x="1033.318359" xlink:href="#DejaVuSans-65"/>
      <use x="1094.841797" xlink:href="#DejaVuSans-6e"/>
      <use x="1158.220703" xlink:href="#DejaVuSans-74"/>
      <use x="1197.429688" xlink:href="#DejaVuSans-65"/>
      <use x="1258.953125" xlink:href="#DejaVuSans-72"/>
      <use x="1300.066406" xlink:href="#DejaVuSans-20"/>
      <use x="1331.853516" xlink:href="#DejaVuSans-28"/>
      <use x="1370.867188" xlink:href="#DejaVuSans-4d"/>
      <use x="1457.146484" xlink:href="#DejaVuSans-69"/>
      <use x="1484.929688" xlink:href="#DejaVuSans-6c"/>
      <use x="1512.712891" xlink:href="#DejaVuSans-65"/>
      <use x="1574.236328" xlink:href="#DejaVuSans-73"/>
      <use x="1626.335938" xlink:href="#DejaVuSans-29"/>
     </g>
    </g>
   </g>
   <g id="matplotlib.axis_6">
    <g id="ytick_17">
     <g id="line2d_67">
      <path clip-path="url(#p48c19a330a)" d="M 488.153938 569.605371 
L 707.993938 569.605371 
" style="fill:none;stroke:#e5e5e5;stroke-linecap:square;stroke-width:0.8;"/>
     </g>
    </g>
    <g id="ytick_18">
     <g id="line2d_68">
      <path clip-path="url(#p48c19a330a)" d="M 488.153938 427.855876 
L 707.993938 427.855876 
" style="fill:none;stroke:#e5e5e5;stroke-linecap:square;stroke-width:0.8;"/>
     </g>
    </g>
    <g id="ytick_19">
     <g id="line2d_69">
      <path clip-path="url(#p48c19a330a)" d="M 488.153938 286.106381 
L 707.993938 286.106381 
" style="fill:none;stroke:#e5e5e5;stroke-linecap:square;stroke-width:0.8;"/>
     </g>
    </g>
    <g id="ytick_20">
     <g id="line2d_70">
      <path clip-path="url(#p48c19a330a)" d="M 488.153938 144.356887 
L 707.993938 144.356887 
" style="fill:none;stroke:#e5e5e5;stroke-linecap:square;stroke-width:0.8;"/>
     </g>
    </g>
    <g id="ytick_21">
     <g id="line2d_71">
      <path clip-path="url(#p48c19a330a)" d="M 488.153938 498.730623 
L 707.993938 498.730623 
" style="fill:none;stroke:#fafafa;stroke-linecap:square;"/>
     </g>
    </g>
    <g id="ytick_22">
     <g id="line2d_72">
      <path clip-path="url(#p48c19a330a)" d="M 488.153938 356.981129 
L 707.993938 356.981129 
" style="fill:none;stroke:#fafafa;stroke-linecap:square;"/>
     </g>
    </g>
    <g id="ytick_23">
     <g id="line2d_73">
      <path clip-path="url(#p48c19a330a)" d="M 488.153938 215.231634 
L 707.993938 215.231634 
" style="fill:none;stroke:#fafafa;stroke-linecap:square;"/>
     </g>
    </g>
    <g id="ytick_24">
     <g id="line2d_74">
      <path clip-path="url(#p48c19a330a)" d="M 488.153938 73.482139 
L 707.993938 73.482139 
" style="fill:none;stroke:#fafafa;stroke-linecap:square;"/>
     </g>
    </g>
   </g>
   <g id="PolyCollection_3">
    <path clip-path="url(#p48c19a330a)" d="M 498.146665 569.605371 
L 498.146665 89.528753 
L 505.370323 89.528753 
L 505.370323 569.605371 
z
" style="fill:#5f57db;"/>
    <path clip-path="url(#p48c19a330a)" d="M 506.172952 569.605371 
L 506.172952 83.092308 
L 513.39661 83.092308 
L 513.39661 569.605371 
z
" style="fill:#5f57db;"/>
    <path clip-path="url(#p48c19a330a)" d="M 514.199239 569.605371 
L 514.199239 107.728525 
L 521.422897 107.728525 
L 521.422897 569.605371 
z
" style="fill:#5f57db;"/>
    <path clip-path="url(#p48c19a330a)" d="M 522.225526 569.605371 
L 522.225526 123.421281 
L 529.449184 123.421281 
L 529.449184 569.605371 
z
" style="fill:#5f57db;"/>
    <path clip-path="url(#p48c19a330a)" d="M 530.251813 569.605371 
L 530.251813 145.322546 
L 537.475471 145.322546 
L 537.475471 569.605371 
z
" style="fill:#5f57db;"/>
    <path clip-path="url(#p48c19a330a)" d="M 538.2781 569.605371 
L 538.2781 208.983234 
L 545.501758 208.983234 
L 545.501758 569.605371 
z
" style="fill:#5f57db;"/>
    <path clip-path="url(#p48c19a330a)" d="M 546.304387 569.605371 
L 546.304387 299.160157 
L 553.528045 299.160157 
L 553.528045 569.605371 
z
" style="fill:#5f57db;"/>
    <path clip-path="url(#p48c19a330a)" d="M 554.330674 569.605371 
L 554.330674 429.550864 
L 561.554332 429.550864 
L 561.554332 569.605371 
z
" style="fill:#5f57db;"/>
    <path clip-path="url(#p48c19a330a)" d="M 562.356961 569.605371 
L 562.356961 426.608881 
L 569.580619 426.608881 
L 569.580619 569.605371 
z
" style="fill:#5f57db;"/>
    <path clip-path="url(#p48c19a330a)" d="M 570.383247 569.605371 
L 570.383247 413.522702 
L 577.606906 413.522702 
L 577.606906 569.605371 
z
" style="fill:#5f57db;"/>
    <path clip-path="url(#p48c19a330a)" d="M 578.409534 569.605371 
L 578.409534 393.284525 
L 585.633193 393.284525 
L 585.633193 569.605371 
z
" style="fill:#5f57db;"/>
    <path clip-path="url(#p48c19a330a)" d="M 586.435821 569.605371 
L 586.435821 432.00665 
L 593.65948 432.00665 
L 593.65948 569.605371 
z
" style="fill:#5f57db;"/>
    <path clip-path="url(#p48c19a330a)" d="M 594.462108 569.605371 
L 594.462108 417.780292 
L 601.685767 417.780292 
L 601.685767 569.605371 
z
" style="fill:#5f57db;"/>
    <path clip-path="url(#p48c19a330a)" d="M 602.488395 569.605371 
L 602.488395 416.387151 
L 609.712054 416.387151 
L 609.712054 569.605371 
z
" style="fill:#5f57db;"/>
    <path clip-path="url(#p48c19a330a)" d="M 610.514682 569.605371 
L 610.514682 408.309646 
L 617.738341 408.309646 
L 617.738341 569.605371 
z
" style="fill:#5f57db;"/>
    <path clip-path="url(#p48c19a330a)" d="M 618.540969 569.605371 
L 618.540969 382.800462 
L 625.764628 382.800462 
L 625.764628 569.605371 
z
" style="fill:#5f57db;"/>
    <path clip-path="url(#p48c19a330a)" d="M 626.567256 569.605371 
L 626.567256 369.035262 
L 633.790914 369.035262 
L 633.790914 569.605371 
z
" style="fill:#5f57db;"/>
    <path clip-path="url(#p48c19a330a)" d="M 634.593543 569.605371 
L 634.593543 355.540437 
L 641.817201 355.540437 
L 641.817201 569.605371 
z
" style="fill:#5f57db;"/>
    <path clip-path="url(#p48c19a330a)" d="M 642.61983 569.605371 
L 642.61983 342.203375 
L 649.843488 342.203375 
L 649.843488 569.605371 
z
" style="fill:#5f57db;"/>
    <path clip-path="url(#p48c19a330a)" d="M 650.646117 569.605371 
L 650.646117 249.223761 
L 657.869775 249.223761 
L 657.869775 569.605371 
z
" style="fill:#5f57db;"/>
    <path clip-path="url(#p48c19a330a)" d="M 658.672404 569.605371 
L 658.672404 428.062221 
L 665.896062 428.062221 
L 665.896062 569.605371 
z
" style="fill:#5f57db;"/>
    <path clip-path="url(#p48c19a330a)" d="M 666.698691 569.605371 
L 666.698691 390.438775 
L 673.922349 390.438775 
L 673.922349 569.605371 
z
" style="fill:#5f57db;"/>
    <path clip-path="url(#p48c19a330a)" d="M 674.724978 569.605371 
L 674.724978 353.393487 
L 681.948636 353.393487 
L 681.948636 569.605371 
z
" style="fill:#5f57db;"/>
    <path clip-path="url(#p48c19a330a)" d="M 682.751265 569.605371 
L 682.751265 339.504823 
L 689.974923 339.504823 
L 689.974923 569.605371 
z
" style="fill:#5f57db;"/>
    <path clip-path="url(#p48c19a330a)" d="M 690.777552 569.605371 
L 690.777552 353.230806 
L 698.00121 353.230806 
L 698.00121 569.605371 
z
" style="fill:#5f57db;"/>
   </g>
   <g id="patch_14">
    <path d="M 488.153938 40.405371 
L 707.993938 40.405371 
L 707.993938 26.206789 
L 488.153938 26.206789 
z
" style="fill:#cccccc;stroke:#7f7f7f;stroke-linejoin:miter;"/>
   </g>
   <g id="text_25">
    <!-- houston -->
    <g style="fill:#1a1a1a;" transform="translate(580.306875 35.73433)scale(0.088 -0.088)">
     <use xlink:href="#DejaVuSans-68"/>
     <use x="63.378906" xlink:href="#DejaVuSans-6f"/>
     <use x="124.560547" xlink:href="#DejaVuSans-75"/>
     <use x="187.939453" xlink:href="#DejaVuSans-73"/>
     <use x="240.039062" xlink:href="#DejaVuSans-74"/>
     <use x="279.248047" xlink:href="#DejaVuSans-6f"/>
     <use x="340.429688" xlink:href="#DejaVuSans-6e"/>
    </g>
   </g>
  </g>
  <g id="text_26">
   <!-- Percent of Workers Working in Place of Residence by Distance from City Center -->
   <defs>
    <path d="M 48.6875 27.296875 
Q 48.6875 37.203125 44.609375 42.84375 
Q 40.53125 48.484375 33.40625 48.484375 
Q 26.265625 48.484375 22.1875 42.84375 
Q 18.109375 37.203125 18.109375 27.296875 
Q 18.109375 17.390625 22.1875 11.75 
Q 26.265625 6.109375 33.40625 6.109375 
Q 40.53125 6.109375 44.609375 11.75 
Q 48.6875 17.390625 48.6875 27.296875 
z
M 18.109375 46.390625 
Q 20.953125 51.265625 25.265625 53.625 
Q 29.59375 56 35.59375 56 
Q 45.5625 56 51.78125 48.09375 
Q 58.015625 40.1875 58.015625 27.296875 
Q 58.015625 14.40625 51.78125 6.484375 
Q 45.5625 -1.421875 35.59375 -1.421875 
Q 29.59375 -1.421875 25.265625 0.953125 
Q 20.953125 3.328125 18.109375 8.203125 
L 18.109375 0 
L 9.078125 0 
L 9.078125 75.984375 
L 18.109375 75.984375 
z
" id="DejaVuSans-62"/>
   </defs>
   <g transform="translate(99.477781 17.229937)scale(0.132 -0.132)">
    <use xlink:href="#DejaVuSans-50"/>
    <use x="60.255859" xlink:href="#DejaVuSans-65"/>
    <use x="121.779297" xlink:href="#DejaVuSans-72"/>
    <use x="162.861328" xlink:href="#DejaVuSans-63"/>
    <use x="217.841797" xlink:href="#DejaVuSans-65"/>
    <use x="279.365234" xlink:href="#DejaVuSans-6e"/>
    <use x="342.744141" xlink:href="#DejaVuSans-74"/>
    <use x="381.953125" xlink:href="#DejaVuSans-20"/>
    <use x="413.740234" xlink:href="#DejaVuSans-6f"/>
    <use x="474.921875" xlink:href="#DejaVuSans-66"/>
    <use x="510.126953" xlink:href="#DejaVuSans-20"/>
    <use x="541.914062" xlink:href="#DejaVuSans-57"/>
    <use x="640.712891" xlink:href="#DejaVuSans-6f"/>
    <use x="701.894531" xlink:href="#DejaVuSans-72"/>
    <use x="743.007812" xlink:href="#DejaVuSans-6b"/>
    <use x="800.871094" xlink:href="#DejaVuSans-65"/>
    <use x="862.394531" xlink:href="#DejaVuSans-72"/>
    <use x="903.507812" xlink:href="#DejaVuSans-73"/>
    <use x="955.607422" xlink:href="#DejaVuSans-20"/>
    <use x="987.394531" xlink:href="#DejaVuSans-57"/>
    <use x="1086.193359" xlink:href="#DejaVuSans-6f"/>
    <use x="1147.375" xlink:href="#DejaVuSans-72"/>
    <use x="1188.488281" xlink:href="#DejaVuSans-6b"/>
    <use x="1246.398438" xlink:href="#DejaVuSans-69"/>
    <use x="1274.181641" xlink:href="#DejaVuSans-6e"/>
    <use x="1337.560547" xlink:href="#DejaVuSans-67"/>
    <use x="1401.037109" xlink:href="#DejaVuSans-20"/>
    <use x="1432.824219" xlink:href="#DejaVuSans-69"/>
    <use x="1460.607422" xlink:href="#DejaVuSans-6e"/>
    <use x="1523.986328" xlink:href="#DejaVuSans-20"/>
    <use x="1555.773438" xlink:href="#DejaVuSans-50"/>
    <use x="1616.076172" xlink:href="#DejaVuSans-6c"/>
    <use x="1643.859375" xlink:href="#DejaVuSans-61"/>
    <use x="1705.138672" xlink:href="#DejaVuSans-63"/>
    <use x="1760.119141" xlink:href="#DejaVuSans-65"/>
    <use x="1821.642578" xlink:href="#DejaVuSans-20"/>
    <use x="1853.429688" xlink:href="#DejaVuSans-6f"/>
    <use x="1914.611328" xlink:href="#DejaVuSans-66"/>
    <use x="1949.816406" xlink:href="#DejaVuSans-20"/>
    <use x="1981.603516" xlink:href="#DejaVuSans-52"/>
    <use x="2051.023438" xlink:href="#DejaVuSans-65"/>
    <use x="2112.546875" xlink:href="#DejaVuSans-73"/>
    <use x="2164.646484" xlink:href="#DejaVuSans-69"/>
    <use x="2192.429688" xlink:href="#DejaVuSans-64"/>
    <use x="2255.90625" xlink:href="#DejaVuSans-65"/>
    <use x="2317.429688" xlink:href="#DejaVuSans-6e"/>
    <use x="2380.808594" xlink:href="#DejaVuSans-63"/>
    <use x="2435.789062" xlink:href="#DejaVuSans-65"/>
    <use x="2497.3125" xlink:href="#DejaVuSans-20"/>
    <use x="2529.099609" xlink:href="#DejaVuSans-62"/>
    <use x="2592.576172" xlink:href="#DejaVuSans-79"/>
    <use x="2651.755859" xlink:href="#DejaVuSans-20"/>
    <use x="2683.542969" xlink:href="#DejaVuSans-44"/>
    <use x="2760.544922" xlink:href="#DejaVuSans-69"/>
    <use x="2788.328125" xlink:href="#DejaVuSans-73"/>
    <use x="2840.427734" xlink:href="#DejaVuSans-74"/>
    <use x="2879.636719" xlink:href="#DejaVuSans-61"/>
    <use x="2940.916016" xlink:href="#DejaVuSans-6e"/>
    <use x="3004.294922" xlink:href="#DejaVuSans-63"/>
    <use x="3059.275391" xlink:href="#DejaVuSans-65"/>
    <use x="3120.798828" xlink:href="#DejaVuSans-20"/>
    <use x="3152.585938" xlink:href="#DejaVuSans-66"/>
    <use x="3187.791016" xlink:href="#DejaVuSans-72"/>
    <use x="3228.873047" xlink:href="#DejaVuSans-6f"/>
    <use x="3290.054688" xlink:href="#DejaVuSans-6d"/>
    <use x="3387.466797" xlink:href="#DejaVuSans-20"/>
    <use x="3419.253906" xlink:href="#DejaVuSans-43"/>
    <use x="3489.078125" xlink:href="#DejaVuSans-69"/>
    <use x="3516.861328" xlink:href="#DejaVuSans-74"/>
    <use x="3556.070312" xlink:href="#DejaVuSans-79"/>
    <use x="3615.25" xlink:href="#DejaVuSans-20"/>
    <use x="3647.037109" xlink:href="#DejaVuSans-43"/>
    <use x="3716.861328" xlink:href="#DejaVuSans-65"/>
    <use x="3778.384766" xlink:href="#DejaVuSans-6e"/>
    <use x="3841.763672" xlink:href="#DejaVuSans-74"/>
    <use x="3880.972656" xlink:href="#DejaVuSans-65"/>
    <use x="3942.496094" xlink:href="#DejaVuSans-72"/>
   </g>
  </g>
 </g>
 <defs>
  <clipPath id="p6e708619a5">
   <rect height="554.4" width="219.84" x="38.393938" y="40.405371"/>
  </clipPath>
  <clipPath id="pb401f8b63f">
   <path d="M 727.393937 311.608339 
L 727.393937 295.768339 
L 743.233938 295.768339 
L 743.233938 311.608339 
"/>
  </clipPath>
  <clipPath id="p2c7d994250">
   <path d="M 727.393937 329.448339 
L 727.393937 313.608339 
L 743.233938 313.608339 
L 743.233938 329.448339 
"/>
  </clipPath>
  <clipPath id="pbd1ad9a297">
   <path d="M 727.393937 347.288339 
L 727.393937 331.448339 
L 743.233938 331.448339 
L 743.233938 347.288339 
"/>
  </clipPath>
  <clipPath id="p459b8b0edf">
   <rect height="554.4" width="219.84" x="263.273938" y="40.405371"/>
  </clipPath>
  <clipPath id="p48c19a330a">
   <rect height="554.4" width="219.84" x="488.153938" y="40.405371"/>
  </clipPath>
 </defs>
</svg>
