<?xml version="1.0" encoding="utf-8" standalone="no"?>
<!DOCTYPE svg PUBLIC "-//W3C//DTD SVG 1.1//EN"
  "http://www.w3.org/Graphics/SVG/1.1/DTD/svg11.dtd">
<!-- Created with matplotlib (http://matplotlib.org/) -->
<svg height="630pt" version="1.1" viewBox="0 0 802 630" width="802pt" xmlns="http://www.w3.org/2000/svg" xmlns:xlink="http://www.w3.org/1999/xlink">
 <defs>
  <style type="text/css">
*{stroke-linecap:butt;stroke-linejoin:round;}
  </style>
 </defs>
 <g id="figure_1">
  <g id="patch_1">
   <path d="M 0 630.518058 
L 802.208937 630.518058 
L 802.208937 0 
L 0 0 
z
" style="fill:#ffffff;stroke:#ffffff;stroke-linejoin:miter;"/>
  </g>
  <g id="axes_1">
   <g id="patch_2">
    <path d="M 38.393938 594.805371 
L 258.233938 594.805371 
L 258.233938 40.405371 
L 38.393938 40.405371 
z
" style="fill:#ffffff;stroke:#7f7f7f;stroke-linejoin:miter;"/>
   </g>
   <g id="matplotlib.axis_1">
    <g id="xtick_1">
     <g id="line2d_1">
      <path clip-path="url(#p69a7e1f516)" d="M 51.998494 594.805371 
L 51.998494 40.405371 
" style="fill:none;stroke:#e5e5e5;stroke-width:0.8;"/>
     </g>
     <g id="line2d_2">
      <path d="M 51.998494 594.805371 
" style="fill:none;stroke:#000000;stroke-width:1.5;"/>
      <defs>
       <path d="M 0 0 
L 0 2.75 
" id="m9d0b109ef0" style="stroke:#000000;"/>
      </defs>
      <g>
       <use style="stroke:#000000;" x="51.998494" xlink:href="#m9d0b109ef0" y="594.805371"/>
      </g>
     </g>
     <g id="text_1">
      <!-- 0 -->
      <defs>
       <path d="M 31.78125 66.40625 
Q 24.171875 66.40625 20.328125 58.90625 
Q 16.5 51.421875 16.5 36.375 
Q 16.5 21.390625 20.328125 13.890625 
Q 24.171875 6.390625 31.78125 6.390625 
Q 39.453125 6.390625 43.28125 13.890625 
Q 47.125 21.390625 47.125 36.375 
Q 47.125 51.421875 43.28125 58.90625 
Q 39.453125 66.40625 31.78125 66.40625 
z
M 31.78125 74.21875 
Q 44.046875 74.21875 50.515625 64.515625 
Q 56.984375 54.828125 56.984375 36.375 
Q 56.984375 17.96875 50.515625 8.265625 
Q 44.046875 -1.421875 31.78125 -1.421875 
Q 19.53125 -1.421875 13.0625 8.265625 
Q 6.59375 17.96875 6.59375 36.375 
Q 6.59375 54.828125 13.0625 64.515625 
Q 19.53125 74.21875 31.78125 74.21875 
z
" id="DejaVuSans-30"/>
      </defs>
      <g style="fill:#4d4d4d;" transform="translate(49.198994 606.441996)scale(0.088 -0.088)">
       <use xlink:href="#DejaVuSans-30"/>
      </g>
     </g>
    </g>
    <g id="xtick_2">
     <g id="line2d_3">
      <path clip-path="url(#p69a7e1f516)" d="M 116.20879 594.805371 
L 116.20879 40.405371 
" style="fill:none;stroke:#e5e5e5;stroke-width:0.8;"/>
     </g>
     <g id="line2d_4">
      <path d="M 116.20879 594.805371 
" style="fill:none;stroke:#000000;stroke-width:1.5;"/>
      <g>
       <use style="stroke:#000000;" x="116.20879" xlink:href="#m9d0b109ef0" y="594.805371"/>
      </g>
     </g>
     <g id="text_2">
      <!-- 20 -->
      <defs>
       <path d="M 19.1875 8.296875 
L 53.609375 8.296875 
L 53.609375 0 
L 7.328125 0 
L 7.328125 8.296875 
Q 12.9375 14.109375 22.625 23.890625 
Q 32.328125 33.6875 34.8125 36.53125 
Q 39.546875 41.84375 41.421875 45.53125 
Q 43.3125 49.21875 43.3125 52.78125 
Q 43.3125 58.59375 39.234375 62.25 
Q 35.15625 65.921875 28.609375 65.921875 
Q 23.96875 65.921875 18.8125 64.3125 
Q 13.671875 62.703125 7.8125 59.421875 
L 7.8125 69.390625 
Q 13.765625 71.78125 18.9375 73 
Q 24.125 74.21875 28.421875 74.21875 
Q 39.75 74.21875 46.484375 68.546875 
Q 53.21875 62.890625 53.21875 53.421875 
Q 53.21875 48.921875 51.53125 44.890625 
Q 49.859375 40.875 45.40625 35.40625 
Q 44.1875 33.984375 37.640625 27.21875 
Q 31.109375 20.453125 19.1875 8.296875 
z
" id="DejaVuSans-32"/>
      </defs>
      <g style="fill:#4d4d4d;" transform="translate(110.60979 606.441996)scale(0.088 -0.088)">
       <use xlink:href="#DejaVuSans-32"/>
       <use x="63.623047" xlink:href="#DejaVuSans-30"/>
      </g>
     </g>
    </g>
    <g id="xtick_3">
     <g id="line2d_5">
      <path clip-path="url(#p69a7e1f516)" d="M 180.419085 594.805371 
L 180.419085 40.405371 
" style="fill:none;stroke:#e5e5e5;stroke-width:0.8;"/>
     </g>
     <g id="line2d_6">
      <path d="M 180.419085 594.805371 
" style="fill:none;stroke:#000000;stroke-width:1.5;"/>
      <g>
       <use style="stroke:#000000;" x="180.419085" xlink:href="#m9d0b109ef0" y="594.805371"/>
      </g>
     </g>
     <g id="text_3">
      <!-- 40 -->
      <defs>
       <path d="M 37.796875 64.3125 
L 12.890625 25.390625 
L 37.796875 25.390625 
z
M 35.203125 72.90625 
L 47.609375 72.90625 
L 47.609375 25.390625 
L 58.015625 25.390625 
L 58.015625 17.1875 
L 47.609375 17.1875 
L 47.609375 0 
L 37.796875 0 
L 37.796875 17.1875 
L 4.890625 17.1875 
L 4.890625 26.703125 
z
" id="DejaVuSans-34"/>
      </defs>
      <g style="fill:#4d4d4d;" transform="translate(174.820085 606.441996)scale(0.088 -0.088)">
       <use xlink:href="#DejaVuSans-34"/>
       <use x="63.623047" xlink:href="#DejaVuSans-30"/>
      </g>
     </g>
    </g>
    <g id="xtick_4">
     <g id="line2d_7">
      <path clip-path="url(#p69a7e1f516)" d="M 244.629381 594.805371 
L 244.629381 40.405371 
" style="fill:none;stroke:#e5e5e5;stroke-width:0.8;"/>
     </g>
     <g id="line2d_8">
      <path d="M 244.629381 594.805371 
" style="fill:none;stroke:#000000;stroke-width:1.5;"/>
      <g>
       <use style="stroke:#000000;" x="244.629381" xlink:href="#m9d0b109ef0" y="594.805371"/>
      </g>
     </g>
     <g id="text_4">
      <!-- 60 -->
      <defs>
       <path d="M 33.015625 40.375 
Q 26.375 40.375 22.484375 35.828125 
Q 18.609375 31.296875 18.609375 23.390625 
Q 18.609375 15.53125 22.484375 10.953125 
Q 26.375 6.390625 33.015625 6.390625 
Q 39.65625 6.390625 43.53125 10.953125 
Q 47.40625 15.53125 47.40625 23.390625 
Q 47.40625 31.296875 43.53125 35.828125 
Q 39.65625 40.375 33.015625 40.375 
z
M 52.59375 71.296875 
L 52.59375 62.3125 
Q 48.875 64.0625 45.09375 64.984375 
Q 41.3125 65.921875 37.59375 65.921875 
Q 27.828125 65.921875 22.671875 59.328125 
Q 17.53125 52.734375 16.796875 39.40625 
Q 19.671875 43.65625 24.015625 45.921875 
Q 28.375 48.1875 33.59375 48.1875 
Q 44.578125 48.1875 50.953125 41.515625 
Q 57.328125 34.859375 57.328125 23.390625 
Q 57.328125 12.15625 50.6875 5.359375 
Q 44.046875 -1.421875 33.015625 -1.421875 
Q 20.359375 -1.421875 13.671875 8.265625 
Q 6.984375 17.96875 6.984375 36.375 
Q 6.984375 53.65625 15.1875 63.9375 
Q 23.390625 74.21875 37.203125 74.21875 
Q 40.921875 74.21875 44.703125 73.484375 
Q 48.484375 72.75 52.59375 71.296875 
z
" id="DejaVuSans-36"/>
      </defs>
      <g style="fill:#4d4d4d;" transform="translate(239.030381 606.441996)scale(0.088 -0.088)">
       <use xlink:href="#DejaVuSans-36"/>
       <use x="63.623047" xlink:href="#DejaVuSans-30"/>
      </g>
     </g>
    </g>
    <g id="xtick_5">
     <g id="line2d_9">
      <path clip-path="url(#p69a7e1f516)" d="M 84.103642 594.805371 
L 84.103642 40.405371 
" style="fill:none;stroke:#fafafa;"/>
     </g>
     <g id="line2d_10">
      <path d="M 84.103642 594.805371 
" style="fill:none;stroke:#000000;stroke-width:1.5;"/>
     </g>
    </g>
    <g id="xtick_6">
     <g id="line2d_11">
      <path clip-path="url(#p69a7e1f516)" d="M 148.313938 594.805371 
L 148.313938 40.405371 
" style="fill:none;stroke:#fafafa;"/>
     </g>
     <g id="line2d_12">
      <path d="M 148.313938 594.805371 
" style="fill:none;stroke:#000000;stroke-width:1.5;"/>
     </g>
    </g>
    <g id="xtick_7">
     <g id="line2d_13">
      <path clip-path="url(#p69a7e1f516)" d="M 212.524233 594.805371 
L 212.524233 40.405371 
" style="fill:none;stroke:#fafafa;"/>
     </g>
     <g id="line2d_14">
      <path d="M 212.524233 594.805371 
" style="fill:none;stroke:#000000;stroke-width:1.5;"/>
     </g>
    </g>
   </g>
   <g id="matplotlib.axis_2">
    <g id="ytick_1">
     <g id="line2d_15">
      <path clip-path="url(#p69a7e1f516)" d="M 38.393938 569.605371 
L 258.233938 569.605371 
" style="fill:none;stroke:#e5e5e5;stroke-width:0.8;"/>
     </g>
     <g id="line2d_16">
      <path d="M 38.393938 569.605371 
" style="fill:none;stroke:#000000;stroke-width:1.5;"/>
      <defs>
       <path d="M 0 0 
L -2.75 0 
" id="m01ca6a7469" style="stroke:#000000;"/>
      </defs>
      <g>
       <use style="stroke:#000000;" x="38.393938" xlink:href="#m01ca6a7469" y="569.605371"/>
      </g>
     </g>
     <g id="text_5">
      <!-- 0 -->
      <g style="fill:#4d4d4d;" transform="translate(27.844938 572.033621)scale(0.088 -0.088)">
       <use xlink:href="#DejaVuSans-30"/>
      </g>
     </g>
    </g>
    <g id="ytick_2">
     <g id="line2d_17">
      <path clip-path="url(#p69a7e1f516)" d="M 38.393938 432.787795 
L 258.233938 432.787795 
" style="fill:none;stroke:#e5e5e5;stroke-width:0.8;"/>
     </g>
     <g id="line2d_18">
      <path d="M 38.393938 432.787795 
" style="fill:none;stroke:#000000;stroke-width:1.5;"/>
      <g>
       <use style="stroke:#000000;" x="38.393938" xlink:href="#m01ca6a7469" y="432.787795"/>
      </g>
     </g>
     <g id="text_6">
      <!-- 10 -->
      <defs>
       <path d="M 12.40625 8.296875 
L 28.515625 8.296875 
L 28.515625 63.921875 
L 10.984375 60.40625 
L 10.984375 69.390625 
L 28.421875 72.90625 
L 38.28125 72.90625 
L 38.28125 8.296875 
L 54.390625 8.296875 
L 54.390625 0 
L 12.40625 0 
z
" id="DejaVuSans-31"/>
      </defs>
      <g style="fill:#4d4d4d;" transform="translate(22.245938 435.216045)scale(0.088 -0.088)">
       <use xlink:href="#DejaVuSans-31"/>
       <use x="63.623047" xlink:href="#DejaVuSans-30"/>
      </g>
     </g>
    </g>
    <g id="ytick_3">
     <g id="line2d_19">
      <path clip-path="url(#p69a7e1f516)" d="M 38.393938 295.97022 
L 258.233938 295.97022 
" style="fill:none;stroke:#e5e5e5;stroke-width:0.8;"/>
     </g>
     <g id="line2d_20">
      <path d="M 38.393938 295.97022 
" style="fill:none;stroke:#000000;stroke-width:1.5;"/>
      <g>
       <use style="stroke:#000000;" x="38.393938" xlink:href="#m01ca6a7469" y="295.97022"/>
      </g>
     </g>
     <g id="text_7">
      <!-- 20 -->
      <g style="fill:#4d4d4d;" transform="translate(22.245938 298.39847)scale(0.088 -0.088)">
       <use xlink:href="#DejaVuSans-32"/>
       <use x="63.623047" xlink:href="#DejaVuSans-30"/>
      </g>
     </g>
    </g>
    <g id="ytick_4">
     <g id="line2d_21">
      <path clip-path="url(#p69a7e1f516)" d="M 38.393938 159.152644 
L 258.233938 159.152644 
" style="fill:none;stroke:#e5e5e5;stroke-width:0.8;"/>
     </g>
     <g id="line2d_22">
      <path d="M 38.393938 159.152644 
" style="fill:none;stroke:#000000;stroke-width:1.5;"/>
      <g>
       <use style="stroke:#000000;" x="38.393938" xlink:href="#m01ca6a7469" y="159.152644"/>
      </g>
     </g>
     <g id="text_8">
      <!-- 30 -->
      <defs>
       <path d="M 40.578125 39.3125 
Q 47.65625 37.796875 51.625 33 
Q 55.609375 28.21875 55.609375 21.1875 
Q 55.609375 10.40625 48.1875 4.484375 
Q 40.765625 -1.421875 27.09375 -1.421875 
Q 22.515625 -1.421875 17.65625 -0.515625 
Q 12.796875 0.390625 7.625 2.203125 
L 7.625 11.71875 
Q 11.71875 9.328125 16.59375 8.109375 
Q 21.484375 6.890625 26.8125 6.890625 
Q 36.078125 6.890625 40.9375 10.546875 
Q 45.796875 14.203125 45.796875 21.1875 
Q 45.796875 27.640625 41.28125 31.265625 
Q 36.765625 34.90625 28.71875 34.90625 
L 20.21875 34.90625 
L 20.21875 43.015625 
L 29.109375 43.015625 
Q 36.375 43.015625 40.234375 45.921875 
Q 44.09375 48.828125 44.09375 54.296875 
Q 44.09375 59.90625 40.109375 62.90625 
Q 36.140625 65.921875 28.71875 65.921875 
Q 24.65625 65.921875 20.015625 65.03125 
Q 15.375 64.15625 9.8125 62.3125 
L 9.8125 71.09375 
Q 15.4375 72.65625 20.34375 73.4375 
Q 25.25 74.21875 29.59375 74.21875 
Q 40.828125 74.21875 47.359375 69.109375 
Q 53.90625 64.015625 53.90625 55.328125 
Q 53.90625 49.265625 50.4375 45.09375 
Q 46.96875 40.921875 40.578125 39.3125 
z
" id="DejaVuSans-33"/>
      </defs>
      <g style="fill:#4d4d4d;" transform="translate(22.245938 161.580894)scale(0.088 -0.088)">
       <use xlink:href="#DejaVuSans-33"/>
       <use x="63.623047" xlink:href="#DejaVuSans-30"/>
      </g>
     </g>
    </g>
    <g id="ytick_5">
     <g id="line2d_23">
      <path clip-path="url(#p69a7e1f516)" d="M 38.393938 501.196583 
L 258.233938 501.196583 
" style="fill:none;stroke:#fafafa;"/>
     </g>
     <g id="line2d_24">
      <path d="M 38.393938 501.196583 
" style="fill:none;stroke:#000000;stroke-width:1.5;"/>
     </g>
    </g>
    <g id="ytick_6">
     <g id="line2d_25">
      <path clip-path="url(#p69a7e1f516)" d="M 38.393938 364.379007 
L 258.233938 364.379007 
" style="fill:none;stroke:#fafafa;"/>
     </g>
     <g id="line2d_26">
      <path d="M 38.393938 364.379007 
" style="fill:none;stroke:#000000;stroke-width:1.5;"/>
     </g>
    </g>
    <g id="ytick_7">
     <g id="line2d_27">
      <path clip-path="url(#p69a7e1f516)" d="M 38.393938 227.561432 
L 258.233938 227.561432 
" style="fill:none;stroke:#fafafa;"/>
     </g>
     <g id="line2d_28">
      <path d="M 38.393938 227.561432 
" style="fill:none;stroke:#000000;stroke-width:1.5;"/>
     </g>
    </g>
    <g id="ytick_8">
     <g id="line2d_29">
      <path clip-path="url(#p69a7e1f516)" d="M 38.393938 90.743856 
L 258.233938 90.743856 
" style="fill:none;stroke:#fafafa;"/>
     </g>
     <g id="line2d_30">
      <path d="M 38.393938 90.743856 
" style="fill:none;stroke:#000000;stroke-width:1.5;"/>
     </g>
    </g>
    <g id="text_9">
     <!-- Average Commute Time (Minutes) -->
     <defs>
      <path d="M 34.1875 63.1875 
L 20.796875 26.90625 
L 47.609375 26.90625 
z
M 28.609375 72.90625 
L 39.796875 72.90625 
L 67.578125 0 
L 57.328125 0 
L 50.6875 18.703125 
L 17.828125 18.703125 
L 11.1875 0 
L 0.78125 0 
z
" id="DejaVuSans-41"/>
      <path d="M 2.984375 54.6875 
L 12.5 54.6875 
L 29.59375 8.796875 
L 46.6875 54.6875 
L 56.203125 54.6875 
L 35.6875 0 
L 23.484375 0 
z
" id="DejaVuSans-76"/>
      <path d="M 56.203125 29.59375 
L 56.203125 25.203125 
L 14.890625 25.203125 
Q 15.484375 15.921875 20.484375 11.0625 
Q 25.484375 6.203125 34.421875 6.203125 
Q 39.59375 6.203125 44.453125 7.46875 
Q 49.3125 8.734375 54.109375 11.28125 
L 54.109375 2.78125 
Q 49.265625 0.734375 44.1875 -0.34375 
Q 39.109375 -1.421875 33.890625 -1.421875 
Q 20.796875 -1.421875 13.15625 6.1875 
Q 5.515625 13.8125 5.515625 26.8125 
Q 5.515625 40.234375 12.765625 48.109375 
Q 20.015625 56 32.328125 56 
Q 43.359375 56 49.78125 48.890625 
Q 56.203125 41.796875 56.203125 29.59375 
z
M 47.21875 32.234375 
Q 47.125 39.59375 43.09375 43.984375 
Q 39.0625 48.390625 32.421875 48.390625 
Q 24.90625 48.390625 20.390625 44.140625 
Q 15.875 39.890625 15.1875 32.171875 
z
" id="DejaVuSans-65"/>
      <path d="M 41.109375 46.296875 
Q 39.59375 47.171875 37.8125 47.578125 
Q 36.03125 48 33.890625 48 
Q 26.265625 48 22.1875 43.046875 
Q 18.109375 38.09375 18.109375 28.8125 
L 18.109375 0 
L 9.078125 0 
L 9.078125 54.6875 
L 18.109375 54.6875 
L 18.109375 46.1875 
Q 20.953125 51.171875 25.484375 53.578125 
Q 30.03125 56 36.53125 56 
Q 37.453125 56 38.578125 55.875 
Q 39.703125 55.765625 41.0625 55.515625 
z
" id="DejaVuSans-72"/>
      <path d="M 34.28125 27.484375 
Q 23.390625 27.484375 19.1875 25 
Q 14.984375 22.515625 14.984375 16.5 
Q 14.984375 11.71875 18.140625 8.90625 
Q 21.296875 6.109375 26.703125 6.109375 
Q 34.1875 6.109375 38.703125 11.40625 
Q 43.21875 16.703125 43.21875 25.484375 
L 43.21875 27.484375 
z
M 52.203125 31.203125 
L 52.203125 0 
L 43.21875 0 
L 43.21875 8.296875 
Q 40.140625 3.328125 35.546875 0.953125 
Q 30.953125 -1.421875 24.3125 -1.421875 
Q 15.921875 -1.421875 10.953125 3.296875 
Q 6 8.015625 6 15.921875 
Q 6 25.140625 12.171875 29.828125 
Q 18.359375 34.515625 30.609375 34.515625 
L 43.21875 34.515625 
L 43.21875 35.40625 
Q 43.21875 41.609375 39.140625 45 
Q 35.0625 48.390625 27.6875 48.390625 
Q 23 48.390625 18.546875 47.265625 
Q 14.109375 46.140625 10.015625 43.890625 
L 10.015625 52.203125 
Q 14.9375 54.109375 19.578125 55.046875 
Q 24.21875 56 28.609375 56 
Q 40.484375 56 46.34375 49.84375 
Q 52.203125 43.703125 52.203125 31.203125 
z
" id="DejaVuSans-61"/>
      <path d="M 45.40625 27.984375 
Q 45.40625 37.75 41.375 43.109375 
Q 37.359375 48.484375 30.078125 48.484375 
Q 22.859375 48.484375 18.828125 43.109375 
Q 14.796875 37.75 14.796875 27.984375 
Q 14.796875 18.265625 18.828125 12.890625 
Q 22.859375 7.515625 30.078125 7.515625 
Q 37.359375 7.515625 41.375 12.890625 
Q 45.40625 18.265625 45.40625 27.984375 
z
M 54.390625 6.78125 
Q 54.390625 -7.171875 48.1875 -13.984375 
Q 42 -20.796875 29.203125 -20.796875 
Q 24.46875 -20.796875 20.265625 -20.09375 
Q 16.0625 -19.390625 12.109375 -17.921875 
L 12.109375 -9.1875 
Q 16.0625 -11.328125 19.921875 -12.34375 
Q 23.78125 -13.375 27.78125 -13.375 
Q 36.625 -13.375 41.015625 -8.765625 
Q 45.40625 -4.15625 45.40625 5.171875 
L 45.40625 9.625 
Q 42.625 4.78125 38.28125 2.390625 
Q 33.9375 0 27.875 0 
Q 17.828125 0 11.671875 7.65625 
Q 5.515625 15.328125 5.515625 27.984375 
Q 5.515625 40.671875 11.671875 48.328125 
Q 17.828125 56 27.875 56 
Q 33.9375 56 38.28125 53.609375 
Q 42.625 51.21875 45.40625 46.390625 
L 45.40625 54.6875 
L 54.390625 54.6875 
z
" id="DejaVuSans-67"/>
      <path id="DejaVuSans-20"/>
      <path d="M 64.40625 67.28125 
L 64.40625 56.890625 
Q 59.421875 61.53125 53.78125 63.8125 
Q 48.140625 66.109375 41.796875 66.109375 
Q 29.296875 66.109375 22.65625 58.46875 
Q 16.015625 50.828125 16.015625 36.375 
Q 16.015625 21.96875 22.65625 14.328125 
Q 29.296875 6.6875 41.796875 6.6875 
Q 48.140625 6.6875 53.78125 8.984375 
Q 59.421875 11.28125 64.40625 15.921875 
L 64.40625 5.609375 
Q 59.234375 2.09375 53.4375 0.328125 
Q 47.65625 -1.421875 41.21875 -1.421875 
Q 24.65625 -1.421875 15.125 8.703125 
Q 5.609375 18.84375 5.609375 36.375 
Q 5.609375 53.953125 15.125 64.078125 
Q 24.65625 74.21875 41.21875 74.21875 
Q 47.75 74.21875 53.53125 72.484375 
Q 59.328125 70.75 64.40625 67.28125 
z
" id="DejaVuSans-43"/>
      <path d="M 30.609375 48.390625 
Q 23.390625 48.390625 19.1875 42.75 
Q 14.984375 37.109375 14.984375 27.296875 
Q 14.984375 17.484375 19.15625 11.84375 
Q 23.34375 6.203125 30.609375 6.203125 
Q 37.796875 6.203125 41.984375 11.859375 
Q 46.1875 17.53125 46.1875 27.296875 
Q 46.1875 37.015625 41.984375 42.703125 
Q 37.796875 48.390625 30.609375 48.390625 
z
M 30.609375 56 
Q 42.328125 56 49.015625 48.375 
Q 55.71875 40.765625 55.71875 27.296875 
Q 55.71875 13.875 49.015625 6.21875 
Q 42.328125 -1.421875 30.609375 -1.421875 
Q 18.84375 -1.421875 12.171875 6.21875 
Q 5.515625 13.875 5.515625 27.296875 
Q 5.515625 40.765625 12.171875 48.375 
Q 18.84375 56 30.609375 56 
z
" id="DejaVuSans-6f"/>
      <path d="M 52 44.1875 
Q 55.375 50.25 60.0625 53.125 
Q 64.75 56 71.09375 56 
Q 79.640625 56 84.28125 50.015625 
Q 88.921875 44.046875 88.921875 33.015625 
L 88.921875 0 
L 79.890625 0 
L 79.890625 32.71875 
Q 79.890625 40.578125 77.09375 44.375 
Q 74.3125 48.1875 68.609375 48.1875 
Q 61.625 48.1875 57.5625 43.546875 
Q 53.515625 38.921875 53.515625 30.90625 
L 53.515625 0 
L 44.484375 0 
L 44.484375 32.71875 
Q 44.484375 40.625 41.703125 44.40625 
Q 38.921875 48.1875 33.109375 48.1875 
Q 26.21875 48.1875 22.15625 43.53125 
Q 18.109375 38.875 18.109375 30.90625 
L 18.109375 0 
L 9.078125 0 
L 9.078125 54.6875 
L 18.109375 54.6875 
L 18.109375 46.1875 
Q 21.1875 51.21875 25.484375 53.609375 
Q 29.78125 56 35.6875 56 
Q 41.65625 56 45.828125 52.96875 
Q 50 49.953125 52 44.1875 
z
" id="DejaVuSans-6d"/>
      <path d="M 8.5 21.578125 
L 8.5 54.6875 
L 17.484375 54.6875 
L 17.484375 21.921875 
Q 17.484375 14.15625 20.5 10.265625 
Q 23.53125 6.390625 29.59375 6.390625 
Q 36.859375 6.390625 41.078125 11.03125 
Q 45.3125 15.671875 45.3125 23.6875 
L 45.3125 54.6875 
L 54.296875 54.6875 
L 54.296875 0 
L 45.3125 0 
L 45.3125 8.40625 
Q 42.046875 3.421875 37.71875 1 
Q 33.40625 -1.421875 27.6875 -1.421875 
Q 18.265625 -1.421875 13.375 4.4375 
Q 8.5 10.296875 8.5 21.578125 
z
M 31.109375 56 
z
" id="DejaVuSans-75"/>
      <path d="M 18.3125 70.21875 
L 18.3125 54.6875 
L 36.8125 54.6875 
L 36.8125 47.703125 
L 18.3125 47.703125 
L 18.3125 18.015625 
Q 18.3125 11.328125 20.140625 9.421875 
Q 21.96875 7.515625 27.59375 7.515625 
L 36.8125 7.515625 
L 36.8125 0 
L 27.59375 0 
Q 17.1875 0 13.234375 3.875 
Q 9.28125 7.765625 9.28125 18.015625 
L 9.28125 47.703125 
L 2.6875 47.703125 
L 2.6875 54.6875 
L 9.28125 54.6875 
L 9.28125 70.21875 
z
" id="DejaVuSans-74"/>
      <path d="M -0.296875 72.90625 
L 61.375 72.90625 
L 61.375 64.59375 
L 35.5 64.59375 
L 35.5 0 
L 25.59375 0 
L 25.59375 64.59375 
L -0.296875 64.59375 
z
" id="DejaVuSans-54"/>
      <path d="M 9.421875 54.6875 
L 18.40625 54.6875 
L 18.40625 0 
L 9.421875 0 
z
M 9.421875 75.984375 
L 18.40625 75.984375 
L 18.40625 64.59375 
L 9.421875 64.59375 
z
" id="DejaVuSans-69"/>
      <path d="M 31 75.875 
Q 24.46875 64.65625 21.28125 53.65625 
Q 18.109375 42.671875 18.109375 31.390625 
Q 18.109375 20.125 21.3125 9.0625 
Q 24.515625 -2 31 -13.1875 
L 23.1875 -13.1875 
Q 15.875 -1.703125 12.234375 9.375 
Q 8.59375 20.453125 8.59375 31.390625 
Q 8.59375 42.28125 12.203125 53.3125 
Q 15.828125 64.359375 23.1875 75.875 
z
" id="DejaVuSans-28"/>
      <path d="M 9.8125 72.90625 
L 24.515625 72.90625 
L 43.109375 23.296875 
L 61.8125 72.90625 
L 76.515625 72.90625 
L 76.515625 0 
L 66.890625 0 
L 66.890625 64.015625 
L 48.09375 14.015625 
L 38.1875 14.015625 
L 19.390625 64.015625 
L 19.390625 0 
L 9.8125 0 
z
" id="DejaVuSans-4d"/>
      <path d="M 54.890625 33.015625 
L 54.890625 0 
L 45.90625 0 
L 45.90625 32.71875 
Q 45.90625 40.484375 42.875 44.328125 
Q 39.84375 48.1875 33.796875 48.1875 
Q 26.515625 48.1875 22.3125 43.546875 
Q 18.109375 38.921875 18.109375 30.90625 
L 18.109375 0 
L 9.078125 0 
L 9.078125 54.6875 
L 18.109375 54.6875 
L 18.109375 46.1875 
Q 21.34375 51.125 25.703125 53.5625 
Q 30.078125 56 35.796875 56 
Q 45.21875 56 50.046875 50.171875 
Q 54.890625 44.34375 54.890625 33.015625 
z
" id="DejaVuSans-6e"/>
      <path d="M 44.28125 53.078125 
L 44.28125 44.578125 
Q 40.484375 46.53125 36.375 47.5 
Q 32.28125 48.484375 27.875 48.484375 
Q 21.1875 48.484375 17.84375 46.4375 
Q 14.5 44.390625 14.5 40.28125 
Q 14.5 37.15625 16.890625 35.375 
Q 19.28125 33.59375 26.515625 31.984375 
L 29.59375 31.296875 
Q 39.15625 29.25 43.1875 25.515625 
Q 47.21875 21.78125 47.21875 15.09375 
Q 47.21875 7.46875 41.1875 3.015625 
Q 35.15625 -1.421875 24.609375 -1.421875 
Q 20.21875 -1.421875 15.453125 -0.5625 
Q 10.6875 0.296875 5.421875 2 
L 5.421875 11.28125 
Q 10.40625 8.6875 15.234375 7.390625 
Q 20.0625 6.109375 24.8125 6.109375 
Q 31.15625 6.109375 34.5625 8.28125 
Q 37.984375 10.453125 37.984375 14.40625 
Q 37.984375 18.0625 35.515625 20.015625 
Q 33.0625 21.96875 24.703125 23.78125 
L 21.578125 24.515625 
Q 13.234375 26.265625 9.515625 29.90625 
Q 5.8125 33.546875 5.8125 39.890625 
Q 5.8125 47.609375 11.28125 51.796875 
Q 16.75 56 26.8125 56 
Q 31.78125 56 36.171875 55.265625 
Q 40.578125 54.546875 44.28125 53.078125 
z
" id="DejaVuSans-73"/>
      <path d="M 8.015625 75.875 
L 15.828125 75.875 
Q 23.140625 64.359375 26.78125 53.3125 
Q 30.421875 42.28125 30.421875 31.390625 
Q 30.421875 20.453125 26.78125 9.375 
Q 23.140625 -1.703125 15.828125 -13.1875 
L 8.015625 -13.1875 
Q 14.5 -2 17.703125 9.0625 
Q 20.90625 20.125 20.90625 31.390625 
Q 20.90625 42.671875 17.703125 53.65625 
Q 14.5 64.65625 8.015625 75.875 
z
" id="DejaVuSans-29"/>
     </defs>
     <g transform="translate(15.558281 408.668964)rotate(-90)scale(0.11 -0.11)">
      <use xlink:href="#DejaVuSans-41"/>
      <use x="68.330078" xlink:href="#DejaVuSans-76"/>
      <use x="127.509766" xlink:href="#DejaVuSans-65"/>
      <use x="189.033203" xlink:href="#DejaVuSans-72"/>
      <use x="230.146484" xlink:href="#DejaVuSans-61"/>
      <use x="291.425781" xlink:href="#DejaVuSans-67"/>
      <use x="354.902344" xlink:href="#DejaVuSans-65"/>
      <use x="416.425781" xlink:href="#DejaVuSans-20"/>
      <use x="448.212891" xlink:href="#DejaVuSans-43"/>
      <use x="518.037109" xlink:href="#DejaVuSans-6f"/>
      <use x="579.21875" xlink:href="#DejaVuSans-6d"/>
      <use x="676.630859" xlink:href="#DejaVuSans-6d"/>
      <use x="774.042969" xlink:href="#DejaVuSans-75"/>
      <use x="837.421875" xlink:href="#DejaVuSans-74"/>
      <use x="876.630859" xlink:href="#DejaVuSans-65"/>
      <use x="938.154297" xlink:href="#DejaVuSans-20"/>
      <use x="969.941406" xlink:href="#DejaVuSans-54"/>
      <use x="1030.978516" xlink:href="#DejaVuSans-69"/>
      <use x="1058.761719" xlink:href="#DejaVuSans-6d"/>
      <use x="1156.173828" xlink:href="#DejaVuSans-65"/>
      <use x="1217.697266" xlink:href="#DejaVuSans-20"/>
      <use x="1249.484375" xlink:href="#DejaVuSans-28"/>
      <use x="1288.498047" xlink:href="#DejaVuSans-4d"/>
      <use x="1374.777344" xlink:href="#DejaVuSans-69"/>
      <use x="1402.560547" xlink:href="#DejaVuSans-6e"/>
      <use x="1465.939453" xlink:href="#DejaVuSans-75"/>
      <use x="1529.318359" xlink:href="#DejaVuSans-74"/>
      <use x="1568.527344" xlink:href="#DejaVuSans-65"/>
      <use x="1630.050781" xlink:href="#DejaVuSans-73"/>
      <use x="1682.150391" xlink:href="#DejaVuSans-29"/>
     </g>
    </g>
   </g>
   <g id="PolyCollection_1">
    <path clip-path="url(#p69a7e1f516)" d="M 48.386665 569.605371 
L 48.386665 296.107689 
L 55.610323 296.107689 
L 55.610323 569.605371 
z
" style="fill:#db5f57;"/>
    <path clip-path="url(#p69a7e1f516)" d="M 56.412952 569.605371 
L 56.412952 260.951905 
L 63.63661 260.951905 
L 63.63661 569.605371 
z
" style="fill:#db5f57;"/>
    <path clip-path="url(#p69a7e1f516)" d="M 64.439239 569.605371 
L 64.439239 205.155704 
L 71.662897 205.155704 
L 71.662897 569.605371 
z
" style="fill:#db5f57;"/>
    <path clip-path="url(#p69a7e1f516)" d="M 72.465526 569.605371 
L 72.465526 175.062794 
L 79.689184 175.062794 
L 79.689184 569.605371 
z
" style="fill:#db5f57;"/>
    <path clip-path="url(#p69a7e1f516)" d="M 80.491813 569.605371 
L 80.491813 187.159687 
L 87.715471 187.159687 
L 87.715471 569.605371 
z
" style="fill:#db5f57;"/>
    <path clip-path="url(#p69a7e1f516)" d="M 88.5181 569.605371 
L 88.5181 174.0097 
L 95.741758 174.0097 
L 95.741758 569.605371 
z
" style="fill:#db5f57;"/>
    <path clip-path="url(#p69a7e1f516)" d="M 96.544387 569.605371 
L 96.544387 143.294669 
L 103.768045 143.294669 
L 103.768045 569.605371 
z
" style="fill:#db5f57;"/>
    <path clip-path="url(#p69a7e1f516)" d="M 104.570674 569.605371 
L 104.570674 148.257046 
L 111.794332 148.257046 
L 111.794332 569.605371 
z
" style="fill:#db5f57;"/>
    <path clip-path="url(#p69a7e1f516)" d="M 112.596961 569.605371 
L 112.596961 112.725216 
L 119.820619 112.725216 
L 119.820619 569.605371 
z
" style="fill:#db5f57;"/>
    <path clip-path="url(#p69a7e1f516)" d="M 120.623247 569.605371 
L 120.623247 78.306749 
L 127.846906 78.306749 
L 127.846906 569.605371 
z
" style="fill:#db5f57;"/>
    <path clip-path="url(#p69a7e1f516)" d="M 128.649534 569.605371 
L 128.649534 133.204984 
L 135.873193 133.204984 
L 135.873193 569.605371 
z
" style="fill:#db5f57;"/>
    <path clip-path="url(#p69a7e1f516)" d="M 136.675821 569.605371 
L 136.675821 162.699385 
L 143.89948 162.699385 
L 143.89948 569.605371 
z
" style="fill:#db5f57;"/>
    <path clip-path="url(#p69a7e1f516)" d="M 144.702108 569.605371 
L 144.702108 165.28653 
L 151.925767 165.28653 
L 151.925767 569.605371 
z
" style="fill:#db5f57;"/>
    <path clip-path="url(#p69a7e1f516)" d="M 152.728395 569.605371 
L 152.728395 130.098419 
L 159.952054 130.098419 
L 159.952054 569.605371 
z
" style="fill:#db5f57;"/>
    <path clip-path="url(#p69a7e1f516)" d="M 160.754682 569.605371 
L 160.754682 108.373547 
L 167.978341 108.373547 
L 167.978341 569.605371 
z
" style="fill:#db5f57;"/>
    <path clip-path="url(#p69a7e1f516)" d="M 168.780969 569.605371 
L 168.780969 142.840737 
L 176.004628 142.840737 
L 176.004628 569.605371 
z
" style="fill:#db5f57;"/>
    <path clip-path="url(#p69a7e1f516)" d="M 176.807256 569.605371 
L 176.807256 133.508827 
L 184.030914 133.508827 
L 184.030914 569.605371 
z
" style="fill:#db5f57;"/>
    <path clip-path="url(#p69a7e1f516)" d="M 184.833543 569.605371 
L 184.833543 189.056668 
L 192.057201 189.056668 
L 192.057201 569.605371 
z
" style="fill:#db5f57;"/>
    <path clip-path="url(#p69a7e1f516)" d="M 192.85983 569.605371 
L 192.85983 181.03529 
L 200.083488 181.03529 
L 200.083488 569.605371 
z
" style="fill:#db5f57;"/>
    <path clip-path="url(#p69a7e1f516)" d="M 200.886117 569.605371 
L 200.886117 194.861059 
L 208.109775 194.861059 
L 208.109775 569.605371 
z
" style="fill:#db5f57;"/>
    <path clip-path="url(#p69a7e1f516)" d="M 208.912404 569.605371 
L 208.912404 211.520809 
L 216.136062 211.520809 
L 216.136062 569.605371 
z
" style="fill:#db5f57;"/>
    <path clip-path="url(#p69a7e1f516)" d="M 216.938691 569.605371 
L 216.938691 142.103633 
L 224.162349 142.103633 
L 224.162349 569.605371 
z
" style="fill:#db5f57;"/>
    <path clip-path="url(#p69a7e1f516)" d="M 224.964978 569.605371 
L 224.964978 214.999477 
L 232.188636 214.999477 
L 232.188636 569.605371 
z
" style="fill:#db5f57;"/>
    <path clip-path="url(#p69a7e1f516)" d="M 232.991265 569.605371 
L 232.991265 213.834586 
L 240.214923 213.834586 
L 240.214923 569.605371 
z
" style="fill:#db5f57;"/>
    <path clip-path="url(#p69a7e1f516)" d="M 241.017552 569.605371 
L 241.017552 232.248164 
L 248.24121 232.248164 
L 248.24121 569.605371 
z
" style="fill:#db5f57;"/>
   </g>
   <g id="patch_3">
    <path d="M 38.393938 40.405371 
L 258.233938 40.405371 
L 258.233938 26.206789 
L 38.393938 26.206789 
z
" style="fill:#cccccc;stroke:#7f7f7f;stroke-linejoin:miter;"/>
   </g>
   <g id="text_10">
    <!-- Austin -->
    <g style="fill:#1a1a1a;" transform="translate(134.487625 35.73433)scale(0.088 -0.088)">
     <use xlink:href="#DejaVuSans-41"/>
     <use x="68.408203" xlink:href="#DejaVuSans-75"/>
     <use x="131.787109" xlink:href="#DejaVuSans-73"/>
     <use x="183.886719" xlink:href="#DejaVuSans-74"/>
     <use x="223.095703" xlink:href="#DejaVuSans-69"/>
     <use x="250.878906" xlink:href="#DejaVuSans-6e"/>
    </g>
   </g>
   <g id="patch_4">
    <path d="M 715.193937 359.488339 
L 795.008938 359.488339 
L 795.008938 268.522402 
L 715.193937 268.522402 
z
" style="fill:#ffffff;"/>
   </g>
   <g id="text_11">
    <!-- City -->
    <defs>
     <path d="M 32.171875 -5.078125 
Q 28.375 -14.84375 24.75 -17.8125 
Q 21.140625 -20.796875 15.09375 -20.796875 
L 7.90625 -20.796875 
L 7.90625 -13.28125 
L 13.1875 -13.28125 
Q 16.890625 -13.28125 18.9375 -11.515625 
Q 21 -9.765625 23.484375 -3.21875 
L 25.09375 0.875 
L 2.984375 54.6875 
L 12.5 54.6875 
L 29.59375 11.921875 
L 46.6875 54.6875 
L 56.203125 54.6875 
z
" id="DejaVuSans-79"/>
    </defs>
    <g transform="translate(727.393937 292.115996)scale(0.11 -0.11)">
     <use xlink:href="#DejaVuSans-43"/>
     <use x="69.824219" xlink:href="#DejaVuSans-69"/>
     <use x="97.607422" xlink:href="#DejaVuSans-74"/>
     <use x="136.816406" xlink:href="#DejaVuSans-79"/>
    </g>
   </g>
   <g id="patch_5">
    <path clip-path="url(#pdf998263b1)" d="M 727.393937 311.608339 
L 743.233938 311.608339 
L 743.233938 295.768339 
L 727.393937 295.768339 
z
" style="fill:#f2f2f2;stroke:#cccccc;stroke-linejoin:miter;"/>
   </g>
   <g id="patch_6">
    <path clip-path="url(#pdf998263b1)" d="M 727.393937 311.608339 
L 743.233938 311.608339 
L 743.233938 295.768339 
L 727.393937 295.768339 
z
" style="fill:#db5f57;"/>
   </g>
   <g id="text_12">
    <!-- Austin -->
    <g transform="translate(746.233938 306.116589)scale(0.088 -0.088)">
     <use xlink:href="#DejaVuSans-41"/>
     <use x="68.408203" xlink:href="#DejaVuSans-75"/>
     <use x="131.787109" xlink:href="#DejaVuSans-73"/>
     <use x="183.886719" xlink:href="#DejaVuSans-74"/>
     <use x="223.095703" xlink:href="#DejaVuSans-69"/>
     <use x="250.878906" xlink:href="#DejaVuSans-6e"/>
    </g>
   </g>
   <g id="patch_7">
    <path clip-path="url(#p190cc03cd1)" d="M 727.393937 329.448339 
L 743.233938 329.448339 
L 743.233938 313.608339 
L 727.393937 313.608339 
z
" style="fill:#f2f2f2;stroke:#cccccc;stroke-linejoin:miter;"/>
   </g>
   <g id="patch_8">
    <path clip-path="url(#p190cc03cd1)" d="M 727.393937 329.448339 
L 743.233938 329.448339 
L 743.233938 313.608339 
L 727.393937 313.608339 
z
" style="fill:#57db5f;"/>
   </g>
   <g id="text_13">
    <!-- Dallas -->
    <defs>
     <path d="M 19.671875 64.796875 
L 19.671875 8.109375 
L 31.59375 8.109375 
Q 46.6875 8.109375 53.6875 14.9375 
Q 60.6875 21.78125 60.6875 36.53125 
Q 60.6875 51.171875 53.6875 57.984375 
Q 46.6875 64.796875 31.59375 64.796875 
z
M 9.8125 72.90625 
L 30.078125 72.90625 
Q 51.265625 72.90625 61.171875 64.09375 
Q 71.09375 55.28125 71.09375 36.53125 
Q 71.09375 17.671875 61.125 8.828125 
Q 51.171875 0 30.078125 0 
L 9.8125 0 
z
" id="DejaVuSans-44"/>
     <path d="M 9.421875 75.984375 
L 18.40625 75.984375 
L 18.40625 0 
L 9.421875 0 
z
" id="DejaVuSans-6c"/>
    </defs>
    <g transform="translate(746.233938 323.956589)scale(0.088 -0.088)">
     <use xlink:href="#DejaVuSans-44"/>
     <use x="77.001953" xlink:href="#DejaVuSans-61"/>
     <use x="138.28125" xlink:href="#DejaVuSans-6c"/>
     <use x="166.064453" xlink:href="#DejaVuSans-6c"/>
     <use x="193.847656" xlink:href="#DejaVuSans-61"/>
     <use x="255.126953" xlink:href="#DejaVuSans-73"/>
    </g>
   </g>
   <g id="patch_9">
    <path clip-path="url(#p3e12a0e9e5)" d="M 727.393937 347.288339 
L 743.233938 347.288339 
L 743.233938 331.448339 
L 727.393937 331.448339 
z
" style="fill:#f2f2f2;stroke:#cccccc;stroke-linejoin:miter;"/>
   </g>
   <g id="patch_10">
    <path clip-path="url(#p3e12a0e9e5)" d="M 727.393937 347.288339 
L 743.233938 347.288339 
L 743.233938 331.448339 
L 727.393937 331.448339 
z
" style="fill:#5f57db;"/>
   </g>
   <g id="text_14">
    <!-- Houston -->
    <defs>
     <path d="M 9.8125 72.90625 
L 19.671875 72.90625 
L 19.671875 43.015625 
L 55.515625 43.015625 
L 55.515625 72.90625 
L 65.375 72.90625 
L 65.375 0 
L 55.515625 0 
L 55.515625 34.71875 
L 19.671875 34.71875 
L 19.671875 0 
L 9.8125 0 
z
" id="DejaVuSans-48"/>
    </defs>
    <g transform="translate(746.233938 341.796589)scale(0.088 -0.088)">
     <use xlink:href="#DejaVuSans-48"/>
     <use x="75.195312" xlink:href="#DejaVuSans-6f"/>
     <use x="136.376953" xlink:href="#DejaVuSans-75"/>
     <use x="199.755859" xlink:href="#DejaVuSans-73"/>
     <use x="251.855469" xlink:href="#DejaVuSans-74"/>
     <use x="291.064453" xlink:href="#DejaVuSans-6f"/>
     <use x="352.246094" xlink:href="#DejaVuSans-6e"/>
    </g>
   </g>
  </g>
  <g id="axes_2">
   <g id="patch_11">
    <path d="M 263.273938 594.805371 
L 483.113938 594.805371 
L 483.113938 40.405371 
L 263.273938 40.405371 
z
" style="fill:#ffffff;stroke:#7f7f7f;stroke-linejoin:miter;"/>
   </g>
   <g id="matplotlib.axis_3">
    <g id="xtick_8">
     <g id="line2d_31">
      <path clip-path="url(#p5dde1018af)" d="M 276.878494 594.805371 
L 276.878494 40.405371 
" style="fill:none;stroke:#e5e5e5;stroke-linecap:square;stroke-width:0.8;"/>
     </g>
     <g id="line2d_32">
      <path d="M 276.878494 594.805371 
" style="fill:none;stroke:#000000;stroke-linecap:square;stroke-width:1.5;"/>
      <g>
       <use style="stroke:#000000;" x="276.878494" xlink:href="#m9d0b109ef0" y="594.805371"/>
      </g>
     </g>
     <g id="text_15">
      <!-- 0 -->
      <g style="fill:#4d4d4d;" transform="translate(274.078994 606.441996)scale(0.088 -0.088)">
       <use xlink:href="#DejaVuSans-30"/>
      </g>
     </g>
    </g>
    <g id="xtick_9">
     <g id="line2d_33">
      <path clip-path="url(#p5dde1018af)" d="M 341.08879 594.805371 
L 341.08879 40.405371 
" style="fill:none;stroke:#e5e5e5;stroke-linecap:square;stroke-width:0.8;"/>
     </g>
     <g id="line2d_34">
      <path d="M 341.08879 594.805371 
" style="fill:none;stroke:#000000;stroke-linecap:square;stroke-width:1.5;"/>
      <g>
       <use style="stroke:#000000;" x="341.08879" xlink:href="#m9d0b109ef0" y="594.805371"/>
      </g>
     </g>
     <g id="text_16">
      <!-- 20 -->
      <g style="fill:#4d4d4d;" transform="translate(335.48979 606.441996)scale(0.088 -0.088)">
       <use xlink:href="#DejaVuSans-32"/>
       <use x="63.623047" xlink:href="#DejaVuSans-30"/>
      </g>
     </g>
    </g>
    <g id="xtick_10">
     <g id="line2d_35">
      <path clip-path="url(#p5dde1018af)" d="M 405.299085 594.805371 
L 405.299085 40.405371 
" style="fill:none;stroke:#e5e5e5;stroke-linecap:square;stroke-width:0.8;"/>
     </g>
     <g id="line2d_36">
      <path d="M 405.299085 594.805371 
" style="fill:none;stroke:#000000;stroke-linecap:square;stroke-width:1.5;"/>
      <g>
       <use style="stroke:#000000;" x="405.299085" xlink:href="#m9d0b109ef0" y="594.805371"/>
      </g>
     </g>
     <g id="text_17">
      <!-- 40 -->
      <g style="fill:#4d4d4d;" transform="translate(399.700085 606.441996)scale(0.088 -0.088)">
       <use xlink:href="#DejaVuSans-34"/>
       <use x="63.623047" xlink:href="#DejaVuSans-30"/>
      </g>
     </g>
    </g>
    <g id="xtick_11">
     <g id="line2d_37">
      <path clip-path="url(#p5dde1018af)" d="M 469.509381 594.805371 
L 469.509381 40.405371 
" style="fill:none;stroke:#e5e5e5;stroke-linecap:square;stroke-width:0.8;"/>
     </g>
     <g id="line2d_38">
      <path d="M 469.509381 594.805371 
" style="fill:none;stroke:#000000;stroke-linecap:square;stroke-width:1.5;"/>
      <g>
       <use style="stroke:#000000;" x="469.509381" xlink:href="#m9d0b109ef0" y="594.805371"/>
      </g>
     </g>
     <g id="text_18">
      <!-- 60 -->
      <g style="fill:#4d4d4d;" transform="translate(463.910381 606.441996)scale(0.088 -0.088)">
       <use xlink:href="#DejaVuSans-36"/>
       <use x="63.623047" xlink:href="#DejaVuSans-30"/>
      </g>
     </g>
    </g>
    <g id="xtick_12">
     <g id="line2d_39">
      <path clip-path="url(#p5dde1018af)" d="M 308.983642 594.805371 
L 308.983642 40.405371 
" style="fill:none;stroke:#fafafa;stroke-linecap:square;"/>
     </g>
     <g id="line2d_40">
      <path d="M 308.983642 594.805371 
" style="fill:none;stroke:#000000;stroke-linecap:square;stroke-width:1.5;"/>
     </g>
    </g>
    <g id="xtick_13">
     <g id="line2d_41">
      <path clip-path="url(#p5dde1018af)" d="M 373.193938 594.805371 
L 373.193938 40.405371 
" style="fill:none;stroke:#fafafa;stroke-linecap:square;"/>
     </g>
     <g id="line2d_42">
      <path d="M 373.193938 594.805371 
" style="fill:none;stroke:#000000;stroke-linecap:square;stroke-width:1.5;"/>
     </g>
    </g>
    <g id="xtick_14">
     <g id="line2d_43">
      <path clip-path="url(#p5dde1018af)" d="M 437.404233 594.805371 
L 437.404233 40.405371 
" style="fill:none;stroke:#fafafa;stroke-linecap:square;"/>
     </g>
     <g id="line2d_44">
      <path d="M 437.404233 594.805371 
" style="fill:none;stroke:#000000;stroke-linecap:square;stroke-width:1.5;"/>
     </g>
    </g>
   </g>
   <g id="matplotlib.axis_4">
    <g id="ytick_9">
     <g id="line2d_45">
      <path clip-path="url(#p5dde1018af)" d="M 263.273938 569.605371 
L 483.113938 569.605371 
" style="fill:none;stroke:#e5e5e5;stroke-linecap:square;stroke-width:0.8;"/>
     </g>
    </g>
    <g id="ytick_10">
     <g id="line2d_46">
      <path clip-path="url(#p5dde1018af)" d="M 263.273938 432.787795 
L 483.113938 432.787795 
" style="fill:none;stroke:#e5e5e5;stroke-linecap:square;stroke-width:0.8;"/>
     </g>
    </g>
    <g id="ytick_11">
     <g id="line2d_47">
      <path clip-path="url(#p5dde1018af)" d="M 263.273938 295.97022 
L 483.113938 295.97022 
" style="fill:none;stroke:#e5e5e5;stroke-linecap:square;stroke-width:0.8;"/>
     </g>
    </g>
    <g id="ytick_12">
     <g id="line2d_48">
      <path clip-path="url(#p5dde1018af)" d="M 263.273938 159.152644 
L 483.113938 159.152644 
" style="fill:none;stroke:#e5e5e5;stroke-linecap:square;stroke-width:0.8;"/>
     </g>
    </g>
    <g id="ytick_13">
     <g id="line2d_49">
      <path clip-path="url(#p5dde1018af)" d="M 263.273938 501.196583 
L 483.113938 501.196583 
" style="fill:none;stroke:#fafafa;stroke-linecap:square;"/>
     </g>
    </g>
    <g id="ytick_14">
     <g id="line2d_50">
      <path clip-path="url(#p5dde1018af)" d="M 263.273938 364.379007 
L 483.113938 364.379007 
" style="fill:none;stroke:#fafafa;stroke-linecap:square;"/>
     </g>
    </g>
    <g id="ytick_15">
     <g id="line2d_51">
      <path clip-path="url(#p5dde1018af)" d="M 263.273938 227.561432 
L 483.113938 227.561432 
" style="fill:none;stroke:#fafafa;stroke-linecap:square;"/>
     </g>
    </g>
    <g id="ytick_16">
     <g id="line2d_52">
      <path clip-path="url(#p5dde1018af)" d="M 263.273938 90.743856 
L 483.113938 90.743856 
" style="fill:none;stroke:#fafafa;stroke-linecap:square;"/>
     </g>
    </g>
   </g>
   <g id="PolyCollection_2">
    <path clip-path="url(#p5dde1018af)" d="M 273.266665 569.605371 
L 273.266665 240.443882 
L 280.490323 240.443882 
L 280.490323 569.605371 
z
" style="fill:#57db5f;"/>
    <path clip-path="url(#p5dde1018af)" d="M 281.292952 569.605371 
L 281.292952 206.246498 
L 288.51661 206.246498 
L 288.51661 569.605371 
z
" style="fill:#57db5f;"/>
    <path clip-path="url(#p5dde1018af)" d="M 289.319239 569.605371 
L 289.319239 180.82791 
L 296.542897 180.82791 
L 296.542897 569.605371 
z
" style="fill:#57db5f;"/>
    <path clip-path="url(#p5dde1018af)" d="M 297.345526 569.605371 
L 297.345526 152.750342 
L 304.569184 152.750342 
L 304.569184 569.605371 
z
" style="fill:#57db5f;"/>
    <path clip-path="url(#p5dde1018af)" d="M 305.371813 569.605371 
L 305.371813 165.078265 
L 312.595471 165.078265 
L 312.595471 569.605371 
z
" style="fill:#57db5f;"/>
    <path clip-path="url(#p5dde1018af)" d="M 313.3981 569.605371 
L 313.3981 171.880917 
L 320.621758 171.880917 
L 320.621758 569.605371 
z
" style="fill:#57db5f;"/>
    <path clip-path="url(#p5dde1018af)" d="M 321.424387 569.605371 
L 321.424387 163.786699 
L 328.648045 163.786699 
L 328.648045 569.605371 
z
" style="fill:#57db5f;"/>
    <path clip-path="url(#p5dde1018af)" d="M 329.450674 569.605371 
L 329.450674 165.50371 
L 336.674332 165.50371 
L 336.674332 569.605371 
z
" style="fill:#57db5f;"/>
    <path clip-path="url(#p5dde1018af)" d="M 337.476961 569.605371 
L 337.476961 158.33529 
L 344.700619 158.33529 
L 344.700619 569.605371 
z
" style="fill:#57db5f;"/>
    <path clip-path="url(#p5dde1018af)" d="M 345.503247 569.605371 
L 345.503247 140.957575 
L 352.726906 140.957575 
L 352.726906 569.605371 
z
" style="fill:#57db5f;"/>
    <path clip-path="url(#p5dde1018af)" d="M 353.529534 569.605371 
L 353.529534 145.92484 
L 360.753193 145.92484 
L 360.753193 569.605371 
z
" style="fill:#57db5f;"/>
    <path clip-path="url(#p5dde1018af)" d="M 361.555821 569.605371 
L 361.555821 124.295398 
L 368.77948 124.295398 
L 368.77948 569.605371 
z
" style="fill:#57db5f;"/>
    <path clip-path="url(#p5dde1018af)" d="M 369.582108 569.605371 
L 369.582108 122.451364 
L 376.805767 122.451364 
L 376.805767 569.605371 
z
" style="fill:#57db5f;"/>
    <path clip-path="url(#p5dde1018af)" d="M 377.608395 569.605371 
L 377.608395 148.591598 
L 384.832054 148.591598 
L 384.832054 569.605371 
z
" style="fill:#57db5f;"/>
    <path clip-path="url(#p5dde1018af)" d="M 385.634682 569.605371 
L 385.634682 158.330246 
L 392.858341 158.330246 
L 392.858341 569.605371 
z
" style="fill:#57db5f;"/>
    <path clip-path="url(#p5dde1018af)" d="M 393.660969 569.605371 
L 393.660969 159.962716 
L 400.884628 159.962716 
L 400.884628 569.605371 
z
" style="fill:#57db5f;"/>
    <path clip-path="url(#p5dde1018af)" d="M 401.687256 569.605371 
L 401.687256 126.092663 
L 408.910914 126.092663 
L 408.910914 569.605371 
z
" style="fill:#57db5f;"/>
    <path clip-path="url(#p5dde1018af)" d="M 409.713543 569.605371 
L 409.713543 91.662446 
L 416.937201 91.662446 
L 416.937201 569.605371 
z
" style="fill:#57db5f;"/>
    <path clip-path="url(#p5dde1018af)" d="M 417.73983 569.605371 
L 417.73983 122.656212 
L 424.963488 122.656212 
L 424.963488 569.605371 
z
" style="fill:#57db5f;"/>
    <path clip-path="url(#p5dde1018af)" d="M 425.766117 569.605371 
L 425.766117 104.118886 
L 432.989775 104.118886 
L 432.989775 569.605371 
z
" style="fill:#57db5f;"/>
    <path clip-path="url(#p5dde1018af)" d="M 433.792404 569.605371 
L 433.792404 130.383842 
L 441.016062 130.383842 
L 441.016062 569.605371 
z
" style="fill:#57db5f;"/>
    <path clip-path="url(#p5dde1018af)" d="M 441.818691 569.605371 
L 441.818691 105.423557 
L 449.042349 105.423557 
L 449.042349 569.605371 
z
" style="fill:#57db5f;"/>
    <path clip-path="url(#p5dde1018af)" d="M 449.844978 569.605371 
L 449.844978 131.124205 
L 457.068636 131.124205 
L 457.068636 569.605371 
z
" style="fill:#57db5f;"/>
    <path clip-path="url(#p5dde1018af)" d="M 457.871265 569.605371 
L 457.871265 153.869479 
L 465.094923 153.869479 
L 465.094923 569.605371 
z
" style="fill:#57db5f;"/>
    <path clip-path="url(#p5dde1018af)" d="M 465.897552 569.605371 
L 465.897552 169.262181 
L 473.12121 169.262181 
L 473.12121 569.605371 
z
" style="fill:#57db5f;"/>
   </g>
   <g id="patch_12">
    <path d="M 263.273938 40.405371 
L 483.113938 40.405371 
L 483.113938 26.206789 
L 263.273938 26.206789 
z
" style="fill:#cccccc;stroke:#7f7f7f;stroke-linejoin:miter;"/>
   </g>
   <g id="text_19">
    <!-- Dallas -->
    <g style="fill:#1a1a1a;" transform="translate(359.676313 35.73433)scale(0.088 -0.088)">
     <use xlink:href="#DejaVuSans-44"/>
     <use x="77.001953" xlink:href="#DejaVuSans-61"/>
     <use x="138.28125" xlink:href="#DejaVuSans-6c"/>
     <use x="166.064453" xlink:href="#DejaVuSans-6c"/>
     <use x="193.847656" xlink:href="#DejaVuSans-61"/>
     <use x="255.126953" xlink:href="#DejaVuSans-73"/>
    </g>
   </g>
  </g>
  <g id="axes_3">
   <g id="patch_13">
    <path d="M 488.153938 594.805371 
L 707.993938 594.805371 
L 707.993938 40.405371 
L 488.153938 40.405371 
z
" style="fill:#ffffff;stroke:#7f7f7f;stroke-linejoin:miter;"/>
   </g>
   <g id="matplotlib.axis_5">
    <g id="xtick_15">
     <g id="line2d_53">
      <path clip-path="url(#p79bbe3b23f)" d="M 501.758494 594.805371 
L 501.758494 40.405371 
" style="fill:none;stroke:#e5e5e5;stroke-linecap:square;stroke-width:0.8;"/>
     </g>
     <g id="line2d_54">
      <path d="M 501.758494 594.805371 
" style="fill:none;stroke:#000000;stroke-linecap:square;stroke-width:1.5;"/>
      <g>
       <use style="stroke:#000000;" x="501.758494" xlink:href="#m9d0b109ef0" y="594.805371"/>
      </g>
     </g>
     <g id="text_20">
      <!-- 0 -->
      <g style="fill:#4d4d4d;" transform="translate(498.958994 606.441996)scale(0.088 -0.088)">
       <use xlink:href="#DejaVuSans-30"/>
      </g>
     </g>
    </g>
    <g id="xtick_16">
     <g id="line2d_55">
      <path clip-path="url(#p79bbe3b23f)" d="M 565.96879 594.805371 
L 565.96879 40.405371 
" style="fill:none;stroke:#e5e5e5;stroke-linecap:square;stroke-width:0.8;"/>
     </g>
     <g id="line2d_56">
      <path d="M 565.96879 594.805371 
" style="fill:none;stroke:#000000;stroke-linecap:square;stroke-width:1.5;"/>
      <g>
       <use style="stroke:#000000;" x="565.96879" xlink:href="#m9d0b109ef0" y="594.805371"/>
      </g>
     </g>
     <g id="text_21">
      <!-- 20 -->
      <g style="fill:#4d4d4d;" transform="translate(560.36979 606.441996)scale(0.088 -0.088)">
       <use xlink:href="#DejaVuSans-32"/>
       <use x="63.623047" xlink:href="#DejaVuSans-30"/>
      </g>
     </g>
    </g>
    <g id="xtick_17">
     <g id="line2d_57">
      <path clip-path="url(#p79bbe3b23f)" d="M 630.179085 594.805371 
L 630.179085 40.405371 
" style="fill:none;stroke:#e5e5e5;stroke-linecap:square;stroke-width:0.8;"/>
     </g>
     <g id="line2d_58">
      <path d="M 630.179085 594.805371 
" style="fill:none;stroke:#000000;stroke-linecap:square;stroke-width:1.5;"/>
      <g>
       <use style="stroke:#000000;" x="630.179085" xlink:href="#m9d0b109ef0" y="594.805371"/>
      </g>
     </g>
     <g id="text_22">
      <!-- 40 -->
      <g style="fill:#4d4d4d;" transform="translate(624.580085 606.441996)scale(0.088 -0.088)">
       <use xlink:href="#DejaVuSans-34"/>
       <use x="63.623047" xlink:href="#DejaVuSans-30"/>
      </g>
     </g>
    </g>
    <g id="xtick_18">
     <g id="line2d_59">
      <path clip-path="url(#p79bbe3b23f)" d="M 694.389381 594.805371 
L 694.389381 40.405371 
" style="fill:none;stroke:#e5e5e5;stroke-linecap:square;stroke-width:0.8;"/>
     </g>
     <g id="line2d_60">
      <path d="M 694.389381 594.805371 
" style="fill:none;stroke:#000000;stroke-linecap:square;stroke-width:1.5;"/>
      <g>
       <use style="stroke:#000000;" x="694.389381" xlink:href="#m9d0b109ef0" y="594.805371"/>
      </g>
     </g>
     <g id="text_23">
      <!-- 60 -->
      <g style="fill:#4d4d4d;" transform="translate(688.790381 606.441996)scale(0.088 -0.088)">
       <use xlink:href="#DejaVuSans-36"/>
       <use x="63.623047" xlink:href="#DejaVuSans-30"/>
      </g>
     </g>
    </g>
    <g id="xtick_19">
     <g id="line2d_61">
      <path clip-path="url(#p79bbe3b23f)" d="M 533.863642 594.805371 
L 533.863642 40.405371 
" style="fill:none;stroke:#fafafa;stroke-linecap:square;"/>
     </g>
     <g id="line2d_62">
      <path d="M 533.863642 594.805371 
" style="fill:none;stroke:#000000;stroke-linecap:square;stroke-width:1.5;"/>
     </g>
    </g>
    <g id="xtick_20">
     <g id="line2d_63">
      <path clip-path="url(#p79bbe3b23f)" d="M 598.073938 594.805371 
L 598.073938 40.405371 
" style="fill:none;stroke:#fafafa;stroke-linecap:square;"/>
     </g>
     <g id="line2d_64">
      <path d="M 598.073938 594.805371 
" style="fill:none;stroke:#000000;stroke-linecap:square;stroke-width:1.5;"/>
     </g>
    </g>
    <g id="xtick_21">
     <g id="line2d_65">
      <path clip-path="url(#p79bbe3b23f)" d="M 662.284233 594.805371 
L 662.284233 40.405371 
" style="fill:none;stroke:#fafafa;stroke-linecap:square;"/>
     </g>
     <g id="line2d_66">
      <path d="M 662.284233 594.805371 
" style="fill:none;stroke:#000000;stroke-linecap:square;stroke-width:1.5;"/>
     </g>
    </g>
    <g id="text_24">
     <!-- Distance from City Center (Miles) -->
     <defs>
      <path d="M 48.78125 52.59375 
L 48.78125 44.1875 
Q 44.96875 46.296875 41.140625 47.34375 
Q 37.3125 48.390625 33.40625 48.390625 
Q 24.65625 48.390625 19.8125 42.84375 
Q 14.984375 37.3125 14.984375 27.296875 
Q 14.984375 17.28125 19.8125 11.734375 
Q 24.65625 6.203125 33.40625 6.203125 
Q 37.3125 6.203125 41.140625 7.25 
Q 44.96875 8.296875 48.78125 10.40625 
L 48.78125 2.09375 
Q 45.015625 0.34375 40.984375 -0.53125 
Q 36.96875 -1.421875 32.421875 -1.421875 
Q 20.0625 -1.421875 12.78125 6.34375 
Q 5.515625 14.109375 5.515625 27.296875 
Q 5.515625 40.671875 12.859375 48.328125 
Q 20.21875 56 33.015625 56 
Q 37.15625 56 41.109375 55.140625 
Q 45.0625 54.296875 48.78125 52.59375 
z
" id="DejaVuSans-63"/>
      <path d="M 37.109375 75.984375 
L 37.109375 68.5 
L 28.515625 68.5 
Q 23.6875 68.5 21.796875 66.546875 
Q 19.921875 64.59375 19.921875 59.515625 
L 19.921875 54.6875 
L 34.71875 54.6875 
L 34.71875 47.703125 
L 19.921875 47.703125 
L 19.921875 0 
L 10.890625 0 
L 10.890625 47.703125 
L 2.296875 47.703125 
L 2.296875 54.6875 
L 10.890625 54.6875 
L 10.890625 58.5 
Q 10.890625 67.625 15.140625 71.796875 
Q 19.390625 75.984375 28.609375 75.984375 
z
" id="DejaVuSans-66"/>
     </defs>
     <g transform="translate(270.800891 621.030402)scale(0.11 -0.11)">
      <use xlink:href="#DejaVuSans-44"/>
      <use x="77.001953" xlink:href="#DejaVuSans-69"/>
      <use x="104.785156" xlink:href="#DejaVuSans-73"/>
      <use x="156.884766" xlink:href="#DejaVuSans-74"/>
      <use x="196.09375" xlink:href="#DejaVuSans-61"/>
      <use x="257.373047" xlink:href="#DejaVuSans-6e"/>
      <use x="320.751953" xlink:href="#DejaVuSans-63"/>
      <use x="375.732422" xlink:href="#DejaVuSans-65"/>
      <use x="437.255859" xlink:href="#DejaVuSans-20"/>
      <use x="469.042969" xlink:href="#DejaVuSans-66"/>
      <use x="504.248047" xlink:href="#DejaVuSans-72"/>
      <use x="545.330078" xlink:href="#DejaVuSans-6f"/>
      <use x="606.511719" xlink:href="#DejaVuSans-6d"/>
      <use x="703.923828" xlink:href="#DejaVuSans-20"/>
      <use x="735.710938" xlink:href="#DejaVuSans-43"/>
      <use x="805.535156" xlink:href="#DejaVuSans-69"/>
      <use x="833.318359" xlink:href="#DejaVuSans-74"/>
      <use x="872.527344" xlink:href="#DejaVuSans-79"/>
      <use x="931.707031" xlink:href="#DejaVuSans-20"/>
      <use x="963.494141" xlink:href="#DejaVuSans-43"/>
      <use x="1033.318359" xlink:href="#DejaVuSans-65"/>
      <use x="1094.841797" xlink:href="#DejaVuSans-6e"/>
      <use x="1158.220703" xlink:href="#DejaVuSans-74"/>
      <use x="1197.429688" xlink:href="#DejaVuSans-65"/>
      <use x="1258.953125" xlink:href="#DejaVuSans-72"/>
      <use x="1300.066406" xlink:href="#DejaVuSans-20"/>
      <use x="1331.853516" xlink:href="#DejaVuSans-28"/>
      <use x="1370.867188" xlink:href="#DejaVuSans-4d"/>
      <use x="1457.146484" xlink:href="#DejaVuSans-69"/>
      <use x="1484.929688" xlink:href="#DejaVuSans-6c"/>
      <use x="1512.712891" xlink:href="#DejaVuSans-65"/>
      <use x="1574.236328" xlink:href="#DejaVuSans-73"/>
      <use x="1626.335938" xlink:href="#DejaVuSans-29"/>
     </g>
    </g>
   </g>
   <g id="matplotlib.axis_6">
    <g id="ytick_17">
     <g id="line2d_67">
      <path clip-path="url(#p79bbe3b23f)" d="M 488.153938 569.605371 
L 707.993938 569.605371 
" style="fill:none;stroke:#e5e5e5;stroke-linecap:square;stroke-width:0.8;"/>
     </g>
    </g>
    <g id="ytick_18">
     <g id="line2d_68">
      <path clip-path="url(#p79bbe3b23f)" d="M 488.153938 432.787795 
L 707.993938 432.787795 
" style="fill:none;stroke:#e5e5e5;stroke-linecap:square;stroke-width:0.8;"/>
     </g>
    </g>
    <g id="ytick_19">
     <g id="line2d_69">
      <path clip-path="url(#p79bbe3b23f)" d="M 488.153938 295.97022 
L 707.993938 295.97022 
" style="fill:none;stroke:#e5e5e5;stroke-linecap:square;stroke-width:0.8;"/>
     </g>
    </g>
    <g id="ytick_20">
     <g id="line2d_70">
      <path clip-path="url(#p79bbe3b23f)" d="M 488.153938 159.152644 
L 707.993938 159.152644 
" style="fill:none;stroke:#e5e5e5;stroke-linecap:square;stroke-width:0.8;"/>
     </g>
    </g>
    <g id="ytick_21">
     <g id="line2d_71">
      <path clip-path="url(#p79bbe3b23f)" d="M 488.153938 501.196583 
L 707.993938 501.196583 
" style="fill:none;stroke:#fafafa;stroke-linecap:square;"/>
     </g>
    </g>
    <g id="ytick_22">
     <g id="line2d_72">
      <path clip-path="url(#p79bbe3b23f)" d="M 488.153938 364.379007 
L 707.993938 364.379007 
" style="fill:none;stroke:#fafafa;stroke-linecap:square;"/>
     </g>
    </g>
    <g id="ytick_23">
     <g id="line2d_73">
      <path clip-path="url(#p79bbe3b23f)" d="M 488.153938 227.561432 
L 707.993938 227.561432 
" style="fill:none;stroke:#fafafa;stroke-linecap:square;"/>
     </g>
    </g>
    <g id="ytick_24">
     <g id="line2d_74">
      <path clip-path="url(#p79bbe3b23f)" d="M 488.153938 90.743856 
L 707.993938 90.743856 
" style="fill:none;stroke:#fafafa;stroke-linecap:square;"/>
     </g>
    </g>
   </g>
   <g id="PolyCollection_3">
    <path clip-path="url(#p79bbe3b23f)" d="M 498.146665 569.605371 
L 498.146665 267.820641 
L 505.370323 267.820641 
L 505.370323 569.605371 
z
" style="fill:#5f57db;"/>
    <path clip-path="url(#p79bbe3b23f)" d="M 506.172952 569.605371 
L 506.172952 226.626217 
L 513.39661 226.626217 
L 513.39661 569.605371 
z
" style="fill:#5f57db;"/>
    <path clip-path="url(#p79bbe3b23f)" d="M 514.199239 569.605371 
L 514.199239 207.68877 
L 521.422897 207.68877 
L 521.422897 569.605371 
z
" style="fill:#5f57db;"/>
    <path clip-path="url(#p79bbe3b23f)" d="M 522.225526 569.605371 
L 522.225526 167.704747 
L 529.449184 167.704747 
L 529.449184 569.605371 
z
" style="fill:#5f57db;"/>
    <path clip-path="url(#p79bbe3b23f)" d="M 530.251813 569.605371 
L 530.251813 150.069881 
L 537.475471 150.069881 
L 537.475471 569.605371 
z
" style="fill:#5f57db;"/>
    <path clip-path="url(#p79bbe3b23f)" d="M 538.2781 569.605371 
L 538.2781 138.140346 
L 545.501758 138.140346 
L 545.501758 569.605371 
z
" style="fill:#5f57db;"/>
    <path clip-path="url(#p79bbe3b23f)" d="M 546.304387 569.605371 
L 546.304387 122.903578 
L 553.528045 122.903578 
L 553.528045 569.605371 
z
" style="fill:#5f57db;"/>
    <path clip-path="url(#p79bbe3b23f)" d="M 554.330674 569.605371 
L 554.330674 109.133738 
L 561.554332 109.133738 
L 561.554332 569.605371 
z
" style="fill:#5f57db;"/>
    <path clip-path="url(#p79bbe3b23f)" d="M 562.356961 569.605371 
L 562.356961 98.994896 
L 569.580619 98.994896 
L 569.580619 569.605371 
z
" style="fill:#5f57db;"/>
    <path clip-path="url(#p79bbe3b23f)" d="M 570.383247 569.605371 
L 570.383247 78.738221 
L 577.606906 78.738221 
L 577.606906 569.605371 
z
" style="fill:#5f57db;"/>
    <path clip-path="url(#p79bbe3b23f)" d="M 578.409534 569.605371 
L 578.409534 91.105323 
L 585.633193 91.105323 
L 585.633193 569.605371 
z
" style="fill:#5f57db;"/>
    <path clip-path="url(#p79bbe3b23f)" d="M 586.435821 569.605371 
L 586.435821 79.39413 
L 593.65948 79.39413 
L 593.65948 569.605371 
z
" style="fill:#5f57db;"/>
    <path clip-path="url(#p79bbe3b23f)" d="M 594.462108 569.605371 
L 594.462108 82.544969 
L 601.685767 82.544969 
L 601.685767 569.605371 
z
" style="fill:#5f57db;"/>
    <path clip-path="url(#p79bbe3b23f)" d="M 602.488395 569.605371 
L 602.488395 65.605371 
L 609.712054 65.605371 
L 609.712054 569.605371 
z
" style="fill:#5f57db;"/>
    <path clip-path="url(#p79bbe3b23f)" d="M 610.514682 569.605371 
L 610.514682 98.405147 
L 617.738341 98.405147 
L 617.738341 569.605371 
z
" style="fill:#5f57db;"/>
    <path clip-path="url(#p79bbe3b23f)" d="M 618.540969 569.605371 
L 618.540969 118.908409 
L 625.764628 118.908409 
L 625.764628 569.605371 
z
" style="fill:#5f57db;"/>
    <path clip-path="url(#p79bbe3b23f)" d="M 626.567256 569.605371 
L 626.567256 95.30409 
L 633.790914 95.30409 
L 633.790914 569.605371 
z
" style="fill:#5f57db;"/>
    <path clip-path="url(#p79bbe3b23f)" d="M 634.593543 569.605371 
L 634.593543 86.951765 
L 641.817201 86.951765 
L 641.817201 569.605371 
z
" style="fill:#5f57db;"/>
    <path clip-path="url(#p79bbe3b23f)" d="M 642.61983 569.605371 
L 642.61983 116.848281 
L 649.843488 116.848281 
L 649.843488 569.605371 
z
" style="fill:#5f57db;"/>
    <path clip-path="url(#p79bbe3b23f)" d="M 650.646117 569.605371 
L 650.646117 178.171511 
L 657.869775 178.171511 
L 657.869775 569.605371 
z
" style="fill:#5f57db;"/>
    <path clip-path="url(#p79bbe3b23f)" d="M 658.672404 569.605371 
L 658.672404 168.601884 
L 665.896062 168.601884 
L 665.896062 569.605371 
z
" style="fill:#5f57db;"/>
    <path clip-path="url(#p79bbe3b23f)" d="M 666.698691 569.605371 
L 666.698691 158.44329 
L 673.922349 158.44329 
L 673.922349 569.605371 
z
" style="fill:#5f57db;"/>
    <path clip-path="url(#p79bbe3b23f)" d="M 674.724978 569.605371 
L 674.724978 197.450888 
L 681.948636 197.450888 
L 681.948636 569.605371 
z
" style="fill:#5f57db;"/>
    <path clip-path="url(#p79bbe3b23f)" d="M 682.751265 569.605371 
L 682.751265 140.552262 
L 689.974923 140.552262 
L 689.974923 569.605371 
z
" style="fill:#5f57db;"/>
    <path clip-path="url(#p79bbe3b23f)" d="M 690.777552 569.605371 
L 690.777552 163.843252 
L 698.00121 163.843252 
L 698.00121 569.605371 
z
" style="fill:#5f57db;"/>
   </g>
   <g id="patch_14">
    <path d="M 488.153938 40.405371 
L 707.993938 40.405371 
L 707.993938 26.206789 
L 488.153938 26.206789 
z
" style="fill:#cccccc;stroke:#7f7f7f;stroke-linejoin:miter;"/>
   </g>
   <g id="text_25">
    <!-- Houston -->
    <g style="fill:#1a1a1a;" transform="translate(579.786438 35.73433)scale(0.088 -0.088)">
     <use xlink:href="#DejaVuSans-48"/>
     <use x="75.195312" xlink:href="#DejaVuSans-6f"/>
     <use x="136.376953" xlink:href="#DejaVuSans-75"/>
     <use x="199.755859" xlink:href="#DejaVuSans-73"/>
     <use x="251.855469" xlink:href="#DejaVuSans-74"/>
     <use x="291.064453" xlink:href="#DejaVuSans-6f"/>
     <use x="352.246094" xlink:href="#DejaVuSans-6e"/>
    </g>
   </g>
  </g>
  <g id="text_26">
   <!-- Commute Times by Distance from the City Center in Austin, Dallas, and Houston -->
   <defs>
    <path d="M 48.6875 27.296875 
Q 48.6875 37.203125 44.609375 42.84375 
Q 40.53125 48.484375 33.40625 48.484375 
Q 26.265625 48.484375 22.1875 42.84375 
Q 18.109375 37.203125 18.109375 27.296875 
Q 18.109375 17.390625 22.1875 11.75 
Q 26.265625 6.109375 33.40625 6.109375 
Q 40.53125 6.109375 44.609375 11.75 
Q 48.6875 17.390625 48.6875 27.296875 
z
M 18.109375 46.390625 
Q 20.953125 51.265625 25.265625 53.625 
Q 29.59375 56 35.59375 56 
Q 45.5625 56 51.78125 48.09375 
Q 58.015625 40.1875 58.015625 27.296875 
Q 58.015625 14.40625 51.78125 6.484375 
Q 45.5625 -1.421875 35.59375 -1.421875 
Q 29.59375 -1.421875 25.265625 0.953125 
Q 20.953125 3.328125 18.109375 8.203125 
L 18.109375 0 
L 9.078125 0 
L 9.078125 75.984375 
L 18.109375 75.984375 
z
" id="DejaVuSans-62"/>
    <path d="M 54.890625 33.015625 
L 54.890625 0 
L 45.90625 0 
L 45.90625 32.71875 
Q 45.90625 40.484375 42.875 44.328125 
Q 39.84375 48.1875 33.796875 48.1875 
Q 26.515625 48.1875 22.3125 43.546875 
Q 18.109375 38.921875 18.109375 30.90625 
L 18.109375 0 
L 9.078125 0 
L 9.078125 75.984375 
L 18.109375 75.984375 
L 18.109375 46.1875 
Q 21.34375 51.125 25.703125 53.5625 
Q 30.078125 56 35.796875 56 
Q 45.21875 56 50.046875 50.171875 
Q 54.890625 44.34375 54.890625 33.015625 
z
" id="DejaVuSans-68"/>
    <path d="M 11.71875 12.40625 
L 22.015625 12.40625 
L 22.015625 4 
L 14.015625 -11.625 
L 7.71875 -11.625 
L 11.71875 4 
z
" id="DejaVuSans-2c"/>
    <path d="M 45.40625 46.390625 
L 45.40625 75.984375 
L 54.390625 75.984375 
L 54.390625 0 
L 45.40625 0 
L 45.40625 8.203125 
Q 42.578125 3.328125 38.25 0.953125 
Q 33.9375 -1.421875 27.875 -1.421875 
Q 17.96875 -1.421875 11.734375 6.484375 
Q 5.515625 14.40625 5.515625 27.296875 
Q 5.515625 40.1875 11.734375 48.09375 
Q 17.96875 56 27.875 56 
Q 33.9375 56 38.25 53.625 
Q 42.578125 51.265625 45.40625 46.390625 
z
M 14.796875 27.296875 
Q 14.796875 17.390625 18.875 11.75 
Q 22.953125 6.109375 30.078125 6.109375 
Q 37.203125 6.109375 41.296875 11.75 
Q 45.40625 17.390625 45.40625 27.296875 
Q 45.40625 37.203125 41.296875 42.84375 
Q 37.203125 48.484375 30.078125 48.484375 
Q 22.953125 48.484375 18.875 42.84375 
Q 14.796875 37.203125 14.796875 27.296875 
z
" id="DejaVuSans-64"/>
   </defs>
   <g transform="translate(95.583781 17.229937)scale(0.132 -0.132)">
    <use xlink:href="#DejaVuSans-43"/>
    <use x="69.824219" xlink:href="#DejaVuSans-6f"/>
    <use x="131.005859" xlink:href="#DejaVuSans-6d"/>
    <use x="228.417969" xlink:href="#DejaVuSans-6d"/>
    <use x="325.830078" xlink:href="#DejaVuSans-75"/>
    <use x="389.208984" xlink:href="#DejaVuSans-74"/>
    <use x="428.417969" xlink:href="#DejaVuSans-65"/>
    <use x="489.941406" xlink:href="#DejaVuSans-20"/>
    <use x="521.728516" xlink:href="#DejaVuSans-54"/>
    <use x="582.765625" xlink:href="#DejaVuSans-69"/>
    <use x="610.548828" xlink:href="#DejaVuSans-6d"/>
    <use x="707.960938" xlink:href="#DejaVuSans-65"/>
    <use x="769.484375" xlink:href="#DejaVuSans-73"/>
    <use x="821.583984" xlink:href="#DejaVuSans-20"/>
    <use x="853.371094" xlink:href="#DejaVuSans-62"/>
    <use x="916.847656" xlink:href="#DejaVuSans-79"/>
    <use x="976.027344" xlink:href="#DejaVuSans-20"/>
    <use x="1007.814453" xlink:href="#DejaVuSans-44"/>
    <use x="1084.816406" xlink:href="#DejaVuSans-69"/>
    <use x="1112.599609" xlink:href="#DejaVuSans-73"/>
    <use x="1164.699219" xlink:href="#DejaVuSans-74"/>
    <use x="1203.908203" xlink:href="#DejaVuSans-61"/>
    <use x="1265.1875" xlink:href="#DejaVuSans-6e"/>
    <use x="1328.566406" xlink:href="#DejaVuSans-63"/>
    <use x="1383.546875" xlink:href="#DejaVuSans-65"/>
    <use x="1445.070312" xlink:href="#DejaVuSans-20"/>
    <use x="1476.857422" xlink:href="#DejaVuSans-66"/>
    <use x="1512.0625" xlink:href="#DejaVuSans-72"/>
    <use x="1553.144531" xlink:href="#DejaVuSans-6f"/>
    <use x="1614.326172" xlink:href="#DejaVuSans-6d"/>
    <use x="1711.738281" xlink:href="#DejaVuSans-20"/>
    <use x="1743.525391" xlink:href="#DejaVuSans-74"/>
    <use x="1782.734375" xlink:href="#DejaVuSans-68"/>
    <use x="1846.113281" xlink:href="#DejaVuSans-65"/>
    <use x="1907.636719" xlink:href="#DejaVuSans-20"/>
    <use x="1939.423828" xlink:href="#DejaVuSans-43"/>
    <use x="2009.248047" xlink:href="#DejaVuSans-69"/>
    <use x="2037.03125" xlink:href="#DejaVuSans-74"/>
    <use x="2076.240234" xlink:href="#DejaVuSans-79"/>
    <use x="2135.419922" xlink:href="#DejaVuSans-20"/>
    <use x="2167.207031" xlink:href="#DejaVuSans-43"/>
    <use x="2237.03125" xlink:href="#DejaVuSans-65"/>
    <use x="2298.554688" xlink:href="#DejaVuSans-6e"/>
    <use x="2361.933594" xlink:href="#DejaVuSans-74"/>
    <use x="2401.142578" xlink:href="#DejaVuSans-65"/>
    <use x="2462.666016" xlink:href="#DejaVuSans-72"/>
    <use x="2503.779297" xlink:href="#DejaVuSans-20"/>
    <use x="2535.566406" xlink:href="#DejaVuSans-69"/>
    <use x="2563.349609" xlink:href="#DejaVuSans-6e"/>
    <use x="2626.728516" xlink:href="#DejaVuSans-20"/>
    <use x="2658.515625" xlink:href="#DejaVuSans-41"/>
    <use x="2726.923828" xlink:href="#DejaVuSans-75"/>
    <use x="2790.302734" xlink:href="#DejaVuSans-73"/>
    <use x="2842.402344" xlink:href="#DejaVuSans-74"/>
    <use x="2881.611328" xlink:href="#DejaVuSans-69"/>
    <use x="2909.394531" xlink:href="#DejaVuSans-6e"/>
    <use x="2972.773438" xlink:href="#DejaVuSans-2c"/>
    <use x="3004.560547" xlink:href="#DejaVuSans-20"/>
    <use x="3036.347656" xlink:href="#DejaVuSans-44"/>
    <use x="3113.349609" xlink:href="#DejaVuSans-61"/>
    <use x="3174.628906" xlink:href="#DejaVuSans-6c"/>
    <use x="3202.412109" xlink:href="#DejaVuSans-6c"/>
    <use x="3230.195312" xlink:href="#DejaVuSans-61"/>
    <use x="3291.474609" xlink:href="#DejaVuSans-73"/>
    <use x="3343.574219" xlink:href="#DejaVuSans-2c"/>
    <use x="3375.361328" xlink:href="#DejaVuSans-20"/>
    <use x="3407.148438" xlink:href="#DejaVuSans-61"/>
    <use x="3468.427734" xlink:href="#DejaVuSans-6e"/>
    <use x="3531.806641" xlink:href="#DejaVuSans-64"/>
    <use x="3595.283203" xlink:href="#DejaVuSans-20"/>
    <use x="3627.070312" xlink:href="#DejaVuSans-48"/>
    <use x="3702.265625" xlink:href="#DejaVuSans-6f"/>
    <use x="3763.447266" xlink:href="#DejaVuSans-75"/>
    <use x="3826.826172" xlink:href="#DejaVuSans-73"/>
    <use x="3878.925781" xlink:href="#DejaVuSans-74"/>
    <use x="3918.134766" xlink:href="#DejaVuSans-6f"/>
    <use x="3979.316406" xlink:href="#DejaVuSans-6e"/>
   </g>
  </g>
 </g>
 <defs>
  <clipPath id="p69a7e1f516">
   <rect height="554.4" width="219.84" x="38.393938" y="40.405371"/>
  </clipPath>
  <clipPath id="pdf998263b1">
   <path d="M 727.393937 311.608339 
L 727.393937 295.768339 
L 743.233938 295.768339 
L 743.233938 311.608339 
"/>
  </clipPath>
  <clipPath id="p190cc03cd1">
   <path d="M 727.393937 329.448339 
L 727.393937 313.608339 
L 743.233938 313.608339 
L 743.233938 329.448339 
"/>
  </clipPath>
  <clipPath id="p3e12a0e9e5">
   <path d="M 727.393937 347.288339 
L 727.393937 331.448339 
L 743.233938 331.448339 
L 743.233938 347.288339 
"/>
  </clipPath>
  <clipPath id="p5dde1018af">
   <rect height="554.4" width="219.84" x="263.273938" y="40.405371"/>
  </clipPath>
  <clipPath id="p79bbe3b23f">
   <rect height="554.4" width="219.84" x="488.153938" y="40.405371"/>
  </clipPath>
 </defs>
</svg>
