<?xml version="1.0" encoding="utf-8" standalone="no"?>
<!DOCTYPE svg PUBLIC "-//W3C//DTD SVG 1.1//EN"
  "http://www.w3.org/Graphics/SVG/1.1/DTD/svg11.dtd">
<!-- Created with matplotlib (http://matplotlib.org/) -->
<svg height="519pt" version="1.1" viewBox="0 0 696 519" width="696pt" xmlns="http://www.w3.org/2000/svg" xmlns:xlink="http://www.w3.org/1999/xlink">
 <defs>
  <style type="text/css">
*{stroke-linecap:butt;stroke-linejoin:round;}
  </style>
 </defs>
 <g id="figure_1">
  <g id="patch_1">
   <path d="M 0 519.638058 
L 696.207937 519.638058 
L 696.207937 0 
L 0 0 
z
" style="fill:#ffffff;stroke:#ffffff;stroke-linejoin:miter;"/>
  </g>
  <g id="axes_1">
   <g id="patch_2">
    <path d="M 43.992937 483.925371 
L 226.632938 483.925371 
L 226.632938 40.405371 
L 43.992937 40.405371 
z
" style="fill:#ffffff;stroke:#7f7f7f;stroke-linejoin:miter;"/>
   </g>
   <g id="matplotlib.axis_1">
    <g id="xtick_1">
     <g id="line2d_1">
      <path clip-path="url(#pc0dae45e41)" d="M 54.736467 483.925371 
L 54.736467 40.405371 
" style="fill:none;stroke:#e5e5e5;stroke-width:0.8;"/>
     </g>
     <g id="line2d_2">
      <path d="M 54.736467 483.925371 
" style="fill:none;stroke:#000000;stroke-width:1.5;"/>
      <defs>
       <path d="M 0 0 
L 0 2.75 
" id="m5f7e86da84" style="stroke:#000000;"/>
      </defs>
      <g>
       <use style="stroke:#000000;" x="54.736467" xlink:href="#m5f7e86da84" y="483.925371"/>
      </g>
     </g>
     <g id="text_1">
      <!-- 0 -->
      <defs>
       <path d="M 31.78125 66.40625 
Q 24.171875 66.40625 20.328125 58.90625 
Q 16.5 51.421875 16.5 36.375 
Q 16.5 21.390625 20.328125 13.890625 
Q 24.171875 6.390625 31.78125 6.390625 
Q 39.453125 6.390625 43.28125 13.890625 
Q 47.125 21.390625 47.125 36.375 
Q 47.125 51.421875 43.28125 58.90625 
Q 39.453125 66.40625 31.78125 66.40625 
z
M 31.78125 74.21875 
Q 44.046875 74.21875 50.515625 64.515625 
Q 56.984375 54.828125 56.984375 36.375 
Q 56.984375 17.96875 50.515625 8.265625 
Q 44.046875 -1.421875 31.78125 -1.421875 
Q 19.53125 -1.421875 13.0625 8.265625 
Q 6.59375 17.96875 6.59375 36.375 
Q 6.59375 54.828125 13.0625 64.515625 
Q 19.53125 74.21875 31.78125 74.21875 
z
" id="DejaVuSans-30"/>
      </defs>
      <g style="fill:#4d4d4d;" transform="translate(51.936967 495.561996)scale(0.088 -0.088)">
       <use xlink:href="#DejaVuSans-30"/>
      </g>
     </g>
    </g>
    <g id="xtick_2">
     <g id="line2d_3">
      <path clip-path="url(#pc0dae45e41)" d="M 89.437592 483.925371 
L 89.437592 40.405371 
" style="fill:none;stroke:#e5e5e5;stroke-width:0.8;"/>
     </g>
     <g id="line2d_4">
      <path d="M 89.437592 483.925371 
" style="fill:none;stroke:#000000;stroke-width:1.5;"/>
      <g>
       <use style="stroke:#000000;" x="89.437592" xlink:href="#m5f7e86da84" y="483.925371"/>
      </g>
     </g>
     <g id="text_2">
      <!-- 100 -->
      <defs>
       <path d="M 12.40625 8.296875 
L 28.515625 8.296875 
L 28.515625 63.921875 
L 10.984375 60.40625 
L 10.984375 69.390625 
L 28.421875 72.90625 
L 38.28125 72.90625 
L 38.28125 8.296875 
L 54.390625 8.296875 
L 54.390625 0 
L 12.40625 0 
z
" id="DejaVuSans-31"/>
      </defs>
      <g style="fill:#4d4d4d;" transform="translate(81.039092 495.561996)scale(0.088 -0.088)">
       <use xlink:href="#DejaVuSans-31"/>
       <use x="63.623047" xlink:href="#DejaVuSans-30"/>
       <use x="127.246094" xlink:href="#DejaVuSans-30"/>
      </g>
     </g>
    </g>
    <g id="xtick_3">
     <g id="line2d_5">
      <path clip-path="url(#pc0dae45e41)" d="M 124.138718 483.925371 
L 124.138718 40.405371 
" style="fill:none;stroke:#e5e5e5;stroke-width:0.8;"/>
     </g>
     <g id="line2d_6">
      <path d="M 124.138718 483.925371 
" style="fill:none;stroke:#000000;stroke-width:1.5;"/>
      <g>
       <use style="stroke:#000000;" x="124.138718" xlink:href="#m5f7e86da84" y="483.925371"/>
      </g>
     </g>
     <g id="text_3">
      <!-- 200 -->
      <defs>
       <path d="M 19.1875 8.296875 
L 53.609375 8.296875 
L 53.609375 0 
L 7.328125 0 
L 7.328125 8.296875 
Q 12.9375 14.109375 22.625 23.890625 
Q 32.328125 33.6875 34.8125 36.53125 
Q 39.546875 41.84375 41.421875 45.53125 
Q 43.3125 49.21875 43.3125 52.78125 
Q 43.3125 58.59375 39.234375 62.25 
Q 35.15625 65.921875 28.609375 65.921875 
Q 23.96875 65.921875 18.8125 64.3125 
Q 13.671875 62.703125 7.8125 59.421875 
L 7.8125 69.390625 
Q 13.765625 71.78125 18.9375 73 
Q 24.125 74.21875 28.421875 74.21875 
Q 39.75 74.21875 46.484375 68.546875 
Q 53.21875 62.890625 53.21875 53.421875 
Q 53.21875 48.921875 51.53125 44.890625 
Q 49.859375 40.875 45.40625 35.40625 
Q 44.1875 33.984375 37.640625 27.21875 
Q 31.109375 20.453125 19.1875 8.296875 
z
" id="DejaVuSans-32"/>
      </defs>
      <g style="fill:#4d4d4d;" transform="translate(115.740218 495.561996)scale(0.088 -0.088)">
       <use xlink:href="#DejaVuSans-32"/>
       <use x="63.623047" xlink:href="#DejaVuSans-30"/>
       <use x="127.246094" xlink:href="#DejaVuSans-30"/>
      </g>
     </g>
    </g>
    <g id="xtick_4">
     <g id="line2d_7">
      <path clip-path="url(#pc0dae45e41)" d="M 158.839843 483.925371 
L 158.839843 40.405371 
" style="fill:none;stroke:#e5e5e5;stroke-width:0.8;"/>
     </g>
     <g id="line2d_8">
      <path d="M 158.839843 483.925371 
" style="fill:none;stroke:#000000;stroke-width:1.5;"/>
      <g>
       <use style="stroke:#000000;" x="158.839843" xlink:href="#m5f7e86da84" y="483.925371"/>
      </g>
     </g>
     <g id="text_4">
      <!-- 300 -->
      <defs>
       <path d="M 40.578125 39.3125 
Q 47.65625 37.796875 51.625 33 
Q 55.609375 28.21875 55.609375 21.1875 
Q 55.609375 10.40625 48.1875 4.484375 
Q 40.765625 -1.421875 27.09375 -1.421875 
Q 22.515625 -1.421875 17.65625 -0.515625 
Q 12.796875 0.390625 7.625 2.203125 
L 7.625 11.71875 
Q 11.71875 9.328125 16.59375 8.109375 
Q 21.484375 6.890625 26.8125 6.890625 
Q 36.078125 6.890625 40.9375 10.546875 
Q 45.796875 14.203125 45.796875 21.1875 
Q 45.796875 27.640625 41.28125 31.265625 
Q 36.765625 34.90625 28.71875 34.90625 
L 20.21875 34.90625 
L 20.21875 43.015625 
L 29.109375 43.015625 
Q 36.375 43.015625 40.234375 45.921875 
Q 44.09375 48.828125 44.09375 54.296875 
Q 44.09375 59.90625 40.109375 62.90625 
Q 36.140625 65.921875 28.71875 65.921875 
Q 24.65625 65.921875 20.015625 65.03125 
Q 15.375 64.15625 9.8125 62.3125 
L 9.8125 71.09375 
Q 15.4375 72.65625 20.34375 73.4375 
Q 25.25 74.21875 29.59375 74.21875 
Q 40.828125 74.21875 47.359375 69.109375 
Q 53.90625 64.015625 53.90625 55.328125 
Q 53.90625 49.265625 50.4375 45.09375 
Q 46.96875 40.921875 40.578125 39.3125 
z
" id="DejaVuSans-33"/>
      </defs>
      <g style="fill:#4d4d4d;" transform="translate(150.441343 495.561996)scale(0.088 -0.088)">
       <use xlink:href="#DejaVuSans-33"/>
       <use x="63.623047" xlink:href="#DejaVuSans-30"/>
       <use x="127.246094" xlink:href="#DejaVuSans-30"/>
      </g>
     </g>
    </g>
    <g id="xtick_5">
     <g id="line2d_9">
      <path clip-path="url(#pc0dae45e41)" d="M 193.540969 483.925371 
L 193.540969 40.405371 
" style="fill:none;stroke:#e5e5e5;stroke-width:0.8;"/>
     </g>
     <g id="line2d_10">
      <path d="M 193.540969 483.925371 
" style="fill:none;stroke:#000000;stroke-width:1.5;"/>
      <g>
       <use style="stroke:#000000;" x="193.540969" xlink:href="#m5f7e86da84" y="483.925371"/>
      </g>
     </g>
     <g id="text_5">
      <!-- 400 -->
      <defs>
       <path d="M 37.796875 64.3125 
L 12.890625 25.390625 
L 37.796875 25.390625 
z
M 35.203125 72.90625 
L 47.609375 72.90625 
L 47.609375 25.390625 
L 58.015625 25.390625 
L 58.015625 17.1875 
L 47.609375 17.1875 
L 47.609375 0 
L 37.796875 0 
L 37.796875 17.1875 
L 4.890625 17.1875 
L 4.890625 26.703125 
z
" id="DejaVuSans-34"/>
      </defs>
      <g style="fill:#4d4d4d;" transform="translate(185.142469 495.561996)scale(0.088 -0.088)">
       <use xlink:href="#DejaVuSans-34"/>
       <use x="63.623047" xlink:href="#DejaVuSans-30"/>
       <use x="127.246094" xlink:href="#DejaVuSans-30"/>
      </g>
     </g>
    </g>
    <g id="xtick_6">
     <g id="line2d_11">
      <path clip-path="url(#pc0dae45e41)" d="M 72.08703 483.925371 
L 72.08703 40.405371 
" style="fill:none;stroke:#fafafa;"/>
     </g>
     <g id="line2d_12">
      <path d="M 72.08703 483.925371 
" style="fill:none;stroke:#000000;stroke-width:1.5;"/>
     </g>
    </g>
    <g id="xtick_7">
     <g id="line2d_13">
      <path clip-path="url(#pc0dae45e41)" d="M 106.788155 483.925371 
L 106.788155 40.405371 
" style="fill:none;stroke:#fafafa;"/>
     </g>
     <g id="line2d_14">
      <path d="M 106.788155 483.925371 
" style="fill:none;stroke:#000000;stroke-width:1.5;"/>
     </g>
    </g>
    <g id="xtick_8">
     <g id="line2d_15">
      <path clip-path="url(#pc0dae45e41)" d="M 141.48928 483.925371 
L 141.48928 40.405371 
" style="fill:none;stroke:#fafafa;"/>
     </g>
     <g id="line2d_16">
      <path d="M 141.48928 483.925371 
" style="fill:none;stroke:#000000;stroke-width:1.5;"/>
     </g>
    </g>
    <g id="xtick_9">
     <g id="line2d_17">
      <path clip-path="url(#pc0dae45e41)" d="M 176.190406 483.925371 
L 176.190406 40.405371 
" style="fill:none;stroke:#fafafa;"/>
     </g>
     <g id="line2d_18">
      <path d="M 176.190406 483.925371 
" style="fill:none;stroke:#000000;stroke-width:1.5;"/>
     </g>
    </g>
    <g id="xtick_10">
     <g id="line2d_19">
      <path clip-path="url(#pc0dae45e41)" d="M 210.891531 483.925371 
L 210.891531 40.405371 
" style="fill:none;stroke:#fafafa;"/>
     </g>
     <g id="line2d_20">
      <path d="M 210.891531 483.925371 
" style="fill:none;stroke:#000000;stroke-width:1.5;"/>
     </g>
    </g>
   </g>
   <g id="matplotlib.axis_2">
    <g id="ytick_1">
     <g id="line2d_21">
      <path clip-path="url(#pc0dae45e41)" d="M 43.992937 463.765371 
L 226.632938 463.765371 
" style="fill:none;stroke:#e5e5e5;stroke-width:0.8;"/>
     </g>
     <g id="line2d_22">
      <path d="M 43.992937 463.765371 
" style="fill:none;stroke:#000000;stroke-width:1.5;"/>
      <defs>
       <path d="M 0 0 
L -2.75 0 
" id="m446036193d" style="stroke:#000000;"/>
      </defs>
      <g>
       <use style="stroke:#000000;" x="43.992937" xlink:href="#m446036193d" y="463.765371"/>
      </g>
     </g>
     <g id="text_6">
      <!-- 0 -->
      <g style="fill:#4d4d4d;" transform="translate(33.443937 466.193621)scale(0.088 -0.088)">
       <use xlink:href="#DejaVuSans-30"/>
      </g>
     </g>
    </g>
    <g id="ytick_2">
     <g id="line2d_23">
      <path clip-path="url(#pc0dae45e41)" d="M 43.992937 324.97019 
L 226.632938 324.97019 
" style="fill:none;stroke:#e5e5e5;stroke-width:0.8;"/>
     </g>
     <g id="line2d_24">
      <path d="M 43.992937 324.97019 
" style="fill:none;stroke:#000000;stroke-width:1.5;"/>
      <g>
       <use style="stroke:#000000;" x="43.992937" xlink:href="#m446036193d" y="324.97019"/>
      </g>
     </g>
     <g id="text_7">
      <!-- 200 -->
      <g style="fill:#4d4d4d;" transform="translate(22.245937 327.39844)scale(0.088 -0.088)">
       <use xlink:href="#DejaVuSans-32"/>
       <use x="63.623047" xlink:href="#DejaVuSans-30"/>
       <use x="127.246094" xlink:href="#DejaVuSans-30"/>
      </g>
     </g>
    </g>
    <g id="ytick_3">
     <g id="line2d_25">
      <path clip-path="url(#pc0dae45e41)" d="M 43.992937 186.175009 
L 226.632938 186.175009 
" style="fill:none;stroke:#e5e5e5;stroke-width:0.8;"/>
     </g>
     <g id="line2d_26">
      <path d="M 43.992937 186.175009 
" style="fill:none;stroke:#000000;stroke-width:1.5;"/>
      <g>
       <use style="stroke:#000000;" x="43.992937" xlink:href="#m446036193d" y="186.175009"/>
      </g>
     </g>
     <g id="text_8">
      <!-- 400 -->
      <g style="fill:#4d4d4d;" transform="translate(22.245937 188.603259)scale(0.088 -0.088)">
       <use xlink:href="#DejaVuSans-34"/>
       <use x="63.623047" xlink:href="#DejaVuSans-30"/>
       <use x="127.246094" xlink:href="#DejaVuSans-30"/>
      </g>
     </g>
    </g>
    <g id="ytick_4">
     <g id="line2d_27">
      <path clip-path="url(#pc0dae45e41)" d="M 43.992937 47.379829 
L 226.632938 47.379829 
" style="fill:none;stroke:#e5e5e5;stroke-width:0.8;"/>
     </g>
     <g id="line2d_28">
      <path d="M 43.992937 47.379829 
" style="fill:none;stroke:#000000;stroke-width:1.5;"/>
      <g>
       <use style="stroke:#000000;" x="43.992937" xlink:href="#m446036193d" y="47.379829"/>
      </g>
     </g>
     <g id="text_9">
      <!-- 600 -->
      <defs>
       <path d="M 33.015625 40.375 
Q 26.375 40.375 22.484375 35.828125 
Q 18.609375 31.296875 18.609375 23.390625 
Q 18.609375 15.53125 22.484375 10.953125 
Q 26.375 6.390625 33.015625 6.390625 
Q 39.65625 6.390625 43.53125 10.953125 
Q 47.40625 15.53125 47.40625 23.390625 
Q 47.40625 31.296875 43.53125 35.828125 
Q 39.65625 40.375 33.015625 40.375 
z
M 52.59375 71.296875 
L 52.59375 62.3125 
Q 48.875 64.0625 45.09375 64.984375 
Q 41.3125 65.921875 37.59375 65.921875 
Q 27.828125 65.921875 22.671875 59.328125 
Q 17.53125 52.734375 16.796875 39.40625 
Q 19.671875 43.65625 24.015625 45.921875 
Q 28.375 48.1875 33.59375 48.1875 
Q 44.578125 48.1875 50.953125 41.515625 
Q 57.328125 34.859375 57.328125 23.390625 
Q 57.328125 12.15625 50.6875 5.359375 
Q 44.046875 -1.421875 33.015625 -1.421875 
Q 20.359375 -1.421875 13.671875 8.265625 
Q 6.984375 17.96875 6.984375 36.375 
Q 6.984375 53.65625 15.1875 63.9375 
Q 23.390625 74.21875 37.203125 74.21875 
Q 40.921875 74.21875 44.703125 73.484375 
Q 48.484375 72.75 52.59375 71.296875 
z
" id="DejaVuSans-36"/>
      </defs>
      <g style="fill:#4d4d4d;" transform="translate(22.245937 49.808079)scale(0.088 -0.088)">
       <use xlink:href="#DejaVuSans-36"/>
       <use x="63.623047" xlink:href="#DejaVuSans-30"/>
       <use x="127.246094" xlink:href="#DejaVuSans-30"/>
      </g>
     </g>
    </g>
    <g id="ytick_5">
     <g id="line2d_29">
      <path clip-path="url(#pc0dae45e41)" d="M 43.992937 394.36778 
L 226.632938 394.36778 
" style="fill:none;stroke:#fafafa;"/>
     </g>
     <g id="line2d_30">
      <path d="M 43.992937 394.36778 
" style="fill:none;stroke:#000000;stroke-width:1.5;"/>
     </g>
    </g>
    <g id="ytick_6">
     <g id="line2d_31">
      <path clip-path="url(#pc0dae45e41)" d="M 43.992937 255.5726 
L 226.632938 255.5726 
" style="fill:none;stroke:#fafafa;"/>
     </g>
     <g id="line2d_32">
      <path d="M 43.992937 255.5726 
" style="fill:none;stroke:#000000;stroke-width:1.5;"/>
     </g>
    </g>
    <g id="ytick_7">
     <g id="line2d_33">
      <path clip-path="url(#pc0dae45e41)" d="M 43.992937 116.777419 
L 226.632938 116.777419 
" style="fill:none;stroke:#fafafa;"/>
     </g>
     <g id="line2d_34">
      <path d="M 43.992937 116.777419 
" style="fill:none;stroke:#000000;stroke-width:1.5;"/>
     </g>
    </g>
    <g id="text_10">
     <!-- Number of Parcels -->
     <defs>
      <path d="M 9.8125 72.90625 
L 23.09375 72.90625 
L 55.421875 11.921875 
L 55.421875 72.90625 
L 64.984375 72.90625 
L 64.984375 0 
L 51.703125 0 
L 19.390625 60.984375 
L 19.390625 0 
L 9.8125 0 
z
" id="DejaVuSans-4e"/>
      <path d="M 8.5 21.578125 
L 8.5 54.6875 
L 17.484375 54.6875 
L 17.484375 21.921875 
Q 17.484375 14.15625 20.5 10.265625 
Q 23.53125 6.390625 29.59375 6.390625 
Q 36.859375 6.390625 41.078125 11.03125 
Q 45.3125 15.671875 45.3125 23.6875 
L 45.3125 54.6875 
L 54.296875 54.6875 
L 54.296875 0 
L 45.3125 0 
L 45.3125 8.40625 
Q 42.046875 3.421875 37.71875 1 
Q 33.40625 -1.421875 27.6875 -1.421875 
Q 18.265625 -1.421875 13.375 4.4375 
Q 8.5 10.296875 8.5 21.578125 
z
M 31.109375 56 
z
" id="DejaVuSans-75"/>
      <path d="M 52 44.1875 
Q 55.375 50.25 60.0625 53.125 
Q 64.75 56 71.09375 56 
Q 79.640625 56 84.28125 50.015625 
Q 88.921875 44.046875 88.921875 33.015625 
L 88.921875 0 
L 79.890625 0 
L 79.890625 32.71875 
Q 79.890625 40.578125 77.09375 44.375 
Q 74.3125 48.1875 68.609375 48.1875 
Q 61.625 48.1875 57.5625 43.546875 
Q 53.515625 38.921875 53.515625 30.90625 
L 53.515625 0 
L 44.484375 0 
L 44.484375 32.71875 
Q 44.484375 40.625 41.703125 44.40625 
Q 38.921875 48.1875 33.109375 48.1875 
Q 26.21875 48.1875 22.15625 43.53125 
Q 18.109375 38.875 18.109375 30.90625 
L 18.109375 0 
L 9.078125 0 
L 9.078125 54.6875 
L 18.109375 54.6875 
L 18.109375 46.1875 
Q 21.1875 51.21875 25.484375 53.609375 
Q 29.78125 56 35.6875 56 
Q 41.65625 56 45.828125 52.96875 
Q 50 49.953125 52 44.1875 
z
" id="DejaVuSans-6d"/>
      <path d="M 48.6875 27.296875 
Q 48.6875 37.203125 44.609375 42.84375 
Q 40.53125 48.484375 33.40625 48.484375 
Q 26.265625 48.484375 22.1875 42.84375 
Q 18.109375 37.203125 18.109375 27.296875 
Q 18.109375 17.390625 22.1875 11.75 
Q 26.265625 6.109375 33.40625 6.109375 
Q 40.53125 6.109375 44.609375 11.75 
Q 48.6875 17.390625 48.6875 27.296875 
z
M 18.109375 46.390625 
Q 20.953125 51.265625 25.265625 53.625 
Q 29.59375 56 35.59375 56 
Q 45.5625 56 51.78125 48.09375 
Q 58.015625 40.1875 58.015625 27.296875 
Q 58.015625 14.40625 51.78125 6.484375 
Q 45.5625 -1.421875 35.59375 -1.421875 
Q 29.59375 -1.421875 25.265625 0.953125 
Q 20.953125 3.328125 18.109375 8.203125 
L 18.109375 0 
L 9.078125 0 
L 9.078125 75.984375 
L 18.109375 75.984375 
z
" id="DejaVuSans-62"/>
      <path d="M 56.203125 29.59375 
L 56.203125 25.203125 
L 14.890625 25.203125 
Q 15.484375 15.921875 20.484375 11.0625 
Q 25.484375 6.203125 34.421875 6.203125 
Q 39.59375 6.203125 44.453125 7.46875 
Q 49.3125 8.734375 54.109375 11.28125 
L 54.109375 2.78125 
Q 49.265625 0.734375 44.1875 -0.34375 
Q 39.109375 -1.421875 33.890625 -1.421875 
Q 20.796875 -1.421875 13.15625 6.1875 
Q 5.515625 13.8125 5.515625 26.8125 
Q 5.515625 40.234375 12.765625 48.109375 
Q 20.015625 56 32.328125 56 
Q 43.359375 56 49.78125 48.890625 
Q 56.203125 41.796875 56.203125 29.59375 
z
M 47.21875 32.234375 
Q 47.125 39.59375 43.09375 43.984375 
Q 39.0625 48.390625 32.421875 48.390625 
Q 24.90625 48.390625 20.390625 44.140625 
Q 15.875 39.890625 15.1875 32.171875 
z
" id="DejaVuSans-65"/>
      <path d="M 41.109375 46.296875 
Q 39.59375 47.171875 37.8125 47.578125 
Q 36.03125 48 33.890625 48 
Q 26.265625 48 22.1875 43.046875 
Q 18.109375 38.09375 18.109375 28.8125 
L 18.109375 0 
L 9.078125 0 
L 9.078125 54.6875 
L 18.109375 54.6875 
L 18.109375 46.1875 
Q 20.953125 51.171875 25.484375 53.578125 
Q 30.03125 56 36.53125 56 
Q 37.453125 56 38.578125 55.875 
Q 39.703125 55.765625 41.0625 55.515625 
z
" id="DejaVuSans-72"/>
      <path id="DejaVuSans-20"/>
      <path d="M 30.609375 48.390625 
Q 23.390625 48.390625 19.1875 42.75 
Q 14.984375 37.109375 14.984375 27.296875 
Q 14.984375 17.484375 19.15625 11.84375 
Q 23.34375 6.203125 30.609375 6.203125 
Q 37.796875 6.203125 41.984375 11.859375 
Q 46.1875 17.53125 46.1875 27.296875 
Q 46.1875 37.015625 41.984375 42.703125 
Q 37.796875 48.390625 30.609375 48.390625 
z
M 30.609375 56 
Q 42.328125 56 49.015625 48.375 
Q 55.71875 40.765625 55.71875 27.296875 
Q 55.71875 13.875 49.015625 6.21875 
Q 42.328125 -1.421875 30.609375 -1.421875 
Q 18.84375 -1.421875 12.171875 6.21875 
Q 5.515625 13.875 5.515625 27.296875 
Q 5.515625 40.765625 12.171875 48.375 
Q 18.84375 56 30.609375 56 
z
" id="DejaVuSans-6f"/>
      <path d="M 37.109375 75.984375 
L 37.109375 68.5 
L 28.515625 68.5 
Q 23.6875 68.5 21.796875 66.546875 
Q 19.921875 64.59375 19.921875 59.515625 
L 19.921875 54.6875 
L 34.71875 54.6875 
L 34.71875 47.703125 
L 19.921875 47.703125 
L 19.921875 0 
L 10.890625 0 
L 10.890625 47.703125 
L 2.296875 47.703125 
L 2.296875 54.6875 
L 10.890625 54.6875 
L 10.890625 58.5 
Q 10.890625 67.625 15.140625 71.796875 
Q 19.390625 75.984375 28.609375 75.984375 
z
" id="DejaVuSans-66"/>
      <path d="M 19.671875 64.796875 
L 19.671875 37.40625 
L 32.078125 37.40625 
Q 38.96875 37.40625 42.71875 40.96875 
Q 46.484375 44.53125 46.484375 51.125 
Q 46.484375 57.671875 42.71875 61.234375 
Q 38.96875 64.796875 32.078125 64.796875 
z
M 9.8125 72.90625 
L 32.078125 72.90625 
Q 44.34375 72.90625 50.609375 67.359375 
Q 56.890625 61.8125 56.890625 51.125 
Q 56.890625 40.328125 50.609375 34.8125 
Q 44.34375 29.296875 32.078125 29.296875 
L 19.671875 29.296875 
L 19.671875 0 
L 9.8125 0 
z
" id="DejaVuSans-50"/>
      <path d="M 34.28125 27.484375 
Q 23.390625 27.484375 19.1875 25 
Q 14.984375 22.515625 14.984375 16.5 
Q 14.984375 11.71875 18.140625 8.90625 
Q 21.296875 6.109375 26.703125 6.109375 
Q 34.1875 6.109375 38.703125 11.40625 
Q 43.21875 16.703125 43.21875 25.484375 
L 43.21875 27.484375 
z
M 52.203125 31.203125 
L 52.203125 0 
L 43.21875 0 
L 43.21875 8.296875 
Q 40.140625 3.328125 35.546875 0.953125 
Q 30.953125 -1.421875 24.3125 -1.421875 
Q 15.921875 -1.421875 10.953125 3.296875 
Q 6 8.015625 6 15.921875 
Q 6 25.140625 12.171875 29.828125 
Q 18.359375 34.515625 30.609375 34.515625 
L 43.21875 34.515625 
L 43.21875 35.40625 
Q 43.21875 41.609375 39.140625 45 
Q 35.0625 48.390625 27.6875 48.390625 
Q 23 48.390625 18.546875 47.265625 
Q 14.109375 46.140625 10.015625 43.890625 
L 10.015625 52.203125 
Q 14.9375 54.109375 19.578125 55.046875 
Q 24.21875 56 28.609375 56 
Q 40.484375 56 46.34375 49.84375 
Q 52.203125 43.703125 52.203125 31.203125 
z
" id="DejaVuSans-61"/>
      <path d="M 48.78125 52.59375 
L 48.78125 44.1875 
Q 44.96875 46.296875 41.140625 47.34375 
Q 37.3125 48.390625 33.40625 48.390625 
Q 24.65625 48.390625 19.8125 42.84375 
Q 14.984375 37.3125 14.984375 27.296875 
Q 14.984375 17.28125 19.8125 11.734375 
Q 24.65625 6.203125 33.40625 6.203125 
Q 37.3125 6.203125 41.140625 7.25 
Q 44.96875 8.296875 48.78125 10.40625 
L 48.78125 2.09375 
Q 45.015625 0.34375 40.984375 -0.53125 
Q 36.96875 -1.421875 32.421875 -1.421875 
Q 20.0625 -1.421875 12.78125 6.34375 
Q 5.515625 14.109375 5.515625 27.296875 
Q 5.515625 40.671875 12.859375 48.328125 
Q 20.21875 56 33.015625 56 
Q 37.15625 56 41.109375 55.140625 
Q 45.0625 54.296875 48.78125 52.59375 
z
" id="DejaVuSans-63"/>
      <path d="M 9.421875 75.984375 
L 18.40625 75.984375 
L 18.40625 0 
L 9.421875 0 
z
" id="DejaVuSans-6c"/>
      <path d="M 44.28125 53.078125 
L 44.28125 44.578125 
Q 40.484375 46.53125 36.375 47.5 
Q 32.28125 48.484375 27.875 48.484375 
Q 21.1875 48.484375 17.84375 46.4375 
Q 14.5 44.390625 14.5 40.28125 
Q 14.5 37.15625 16.890625 35.375 
Q 19.28125 33.59375 26.515625 31.984375 
L 29.59375 31.296875 
Q 39.15625 29.25 43.1875 25.515625 
Q 47.21875 21.78125 47.21875 15.09375 
Q 47.21875 7.46875 41.1875 3.015625 
Q 35.15625 -1.421875 24.609375 -1.421875 
Q 20.21875 -1.421875 15.453125 -0.5625 
Q 10.6875 0.296875 5.421875 2 
L 5.421875 11.28125 
Q 10.40625 8.6875 15.234375 7.390625 
Q 20.0625 6.109375 24.8125 6.109375 
Q 31.15625 6.109375 34.5625 8.28125 
Q 37.984375 10.453125 37.984375 14.40625 
Q 37.984375 18.0625 35.515625 20.015625 
Q 33.0625 21.96875 24.703125 23.78125 
L 21.578125 24.515625 
Q 13.234375 26.265625 9.515625 29.90625 
Q 5.8125 33.546875 5.8125 39.890625 
Q 5.8125 47.609375 11.28125 51.796875 
Q 16.75 56 26.8125 56 
Q 31.78125 56 36.171875 55.265625 
Q 40.578125 54.546875 44.28125 53.078125 
z
" id="DejaVuSans-73"/>
     </defs>
     <g transform="translate(15.558281 309.921464)rotate(-90)scale(0.11 -0.11)">
      <use xlink:href="#DejaVuSans-4e"/>
      <use x="74.804688" xlink:href="#DejaVuSans-75"/>
      <use x="138.183594" xlink:href="#DejaVuSans-6d"/>
      <use x="235.595703" xlink:href="#DejaVuSans-62"/>
      <use x="299.072266" xlink:href="#DejaVuSans-65"/>
      <use x="360.595703" xlink:href="#DejaVuSans-72"/>
      <use x="401.708984" xlink:href="#DejaVuSans-20"/>
      <use x="433.496094" xlink:href="#DejaVuSans-6f"/>
      <use x="494.677734" xlink:href="#DejaVuSans-66"/>
      <use x="529.882812" xlink:href="#DejaVuSans-20"/>
      <use x="561.669922" xlink:href="#DejaVuSans-50"/>
      <use x="621.910156" xlink:href="#DejaVuSans-61"/>
      <use x="683.189453" xlink:href="#DejaVuSans-72"/>
      <use x="724.271484" xlink:href="#DejaVuSans-63"/>
      <use x="779.251953" xlink:href="#DejaVuSans-65"/>
      <use x="840.775391" xlink:href="#DejaVuSans-6c"/>
      <use x="868.558594" xlink:href="#DejaVuSans-73"/>
     </g>
    </g>
   </g>
   <g id="PolyCollection_1">
    <path clip-path="url(#pc0dae45e41)" d="M 52.294756 463.765371 
L 52.294756 447.803925 
L 57.178178 447.803925 
L 57.178178 463.765371 
z
" style="fill:#db5f57;"/>
    <path clip-path="url(#pc0dae45e41)" d="M 57.178178 463.765371 
L 57.178178 456.825612 
L 62.061601 456.825612 
L 62.061601 463.765371 
z
" style="fill:#db5f57;"/>
    <path clip-path="url(#pc0dae45e41)" d="M 62.061601 463.765371 
L 62.061601 422.126817 
L 66.945023 422.126817 
L 66.945023 463.765371 
z
" style="fill:#db5f57;"/>
    <path clip-path="url(#pc0dae45e41)" d="M 66.945023 463.765371 
L 66.945023 366.608744 
L 71.828446 366.608744 
L 71.828446 463.765371 
z
" style="fill:#db5f57;"/>
    <path clip-path="url(#pc0dae45e41)" d="M 71.828446 463.765371 
L 71.828446 270.146094 
L 76.711868 270.146094 
L 76.711868 463.765371 
z
" style="fill:#db5f57;"/>
    <path clip-path="url(#pc0dae45e41)" d="M 76.711868 463.765371 
L 76.711868 244.468985 
L 81.59529 244.468985 
L 81.59529 463.765371 
z
" style="fill:#db5f57;"/>
    <path clip-path="url(#pc0dae45e41)" d="M 81.59529 463.765371 
L 81.59529 286.801515 
L 86.478713 286.801515 
L 86.478713 463.765371 
z
" style="fill:#db5f57;"/>
    <path clip-path="url(#pc0dae45e41)" d="M 86.478713 463.765371 
L 86.478713 244.468985 
L 91.362135 244.468985 
L 91.362135 463.765371 
z
" style="fill:#db5f57;"/>
    <path clip-path="url(#pc0dae45e41)" d="M 91.362135 463.765371 
L 91.362135 315.948503 
L 96.245558 315.948503 
L 96.245558 463.765371 
z
" style="fill:#db5f57;"/>
    <path clip-path="url(#pc0dae45e41)" d="M 96.245558 463.765371 
L 96.245558 336.76778 
L 101.12898 336.76778 
L 101.12898 463.765371 
z
" style="fill:#db5f57;"/>
    <path clip-path="url(#pc0dae45e41)" d="M 101.12898 463.765371 
L 101.12898 370.078624 
L 106.012403 370.078624 
L 106.012403 463.765371 
z
" style="fill:#db5f57;"/>
    <path clip-path="url(#pc0dae45e41)" d="M 106.012403 463.765371 
L 106.012403 390.897901 
L 110.895825 390.897901 
L 110.895825 463.765371 
z
" style="fill:#db5f57;"/>
    <path clip-path="url(#pc0dae45e41)" d="M 110.895825 463.765371 
L 110.895825 408.941274 
L 115.779248 408.941274 
L 115.779248 463.765371 
z
" style="fill:#db5f57;"/>
    <path clip-path="url(#pc0dae45e41)" d="M 115.779248 463.765371 
L 115.779248 412.411154 
L 120.66267 412.411154 
L 120.66267 463.765371 
z
" style="fill:#db5f57;"/>
    <path clip-path="url(#pc0dae45e41)" d="M 120.66267 463.765371 
L 120.66267 436.70031 
L 125.546093 436.70031 
L 125.546093 463.765371 
z
" style="fill:#db5f57;"/>
    <path clip-path="url(#pc0dae45e41)" d="M 125.546093 463.765371 
L 125.546093 438.088262 
L 130.429515 438.088262 
L 130.429515 463.765371 
z
" style="fill:#db5f57;"/>
    <path clip-path="url(#pc0dae45e41)" d="M 130.429515 463.765371 
L 130.429515 435.312359 
L 135.312938 435.312359 
L 135.312938 463.765371 
z
" style="fill:#db5f57;"/>
    <path clip-path="url(#pc0dae45e41)" d="M 135.312938 463.765371 
L 135.312938 429.760551 
L 140.19636 429.760551 
L 140.19636 463.765371 
z
" style="fill:#db5f57;"/>
    <path clip-path="url(#pc0dae45e41)" d="M 140.19636 463.765371 
L 140.19636 437.394286 
L 145.079782 437.394286 
L 145.079782 463.765371 
z
" style="fill:#db5f57;"/>
    <path clip-path="url(#pc0dae45e41)" d="M 145.079782 463.765371 
L 145.079782 431.842479 
L 149.963205 431.842479 
L 149.963205 463.765371 
z
" style="fill:#db5f57;"/>
    <path clip-path="url(#pc0dae45e41)" d="M 149.963205 463.765371 
L 149.963205 442.252118 
L 154.846627 442.252118 
L 154.846627 463.765371 
z
" style="fill:#db5f57;"/>
    <path clip-path="url(#pc0dae45e41)" d="M 154.846627 463.765371 
L 154.846627 444.334045 
L 159.73005 444.334045 
L 159.73005 463.765371 
z
" style="fill:#db5f57;"/>
    <path clip-path="url(#pc0dae45e41)" d="M 159.73005 463.765371 
L 159.73005 445.721997 
L 164.613472 445.721997 
L 164.613472 463.765371 
z
" style="fill:#db5f57;"/>
    <path clip-path="url(#pc0dae45e41)" d="M 164.613472 463.765371 
L 164.613472 445.028021 
L 169.496895 445.028021 
L 169.496895 463.765371 
z
" style="fill:#db5f57;"/>
    <path clip-path="url(#pc0dae45e41)" d="M 169.496895 463.765371 
L 169.496895 445.028021 
L 174.380317 445.028021 
L 174.380317 463.765371 
z
" style="fill:#db5f57;"/>
    <path clip-path="url(#pc0dae45e41)" d="M 174.380317 463.765371 
L 174.380317 452.661756 
L 179.26374 452.661756 
L 179.26374 463.765371 
z
" style="fill:#db5f57;"/>
    <path clip-path="url(#pc0dae45e41)" d="M 179.26374 463.765371 
L 179.26374 455.43766 
L 184.147162 455.43766 
L 184.147162 463.765371 
z
" style="fill:#db5f57;"/>
    <path clip-path="url(#pc0dae45e41)" d="M 184.147162 463.765371 
L 184.147162 457.519588 
L 189.030585 457.519588 
L 189.030585 463.765371 
z
" style="fill:#db5f57;"/>
    <path clip-path="url(#pc0dae45e41)" d="M 189.030585 463.765371 
L 189.030585 457.519588 
L 193.914007 457.519588 
L 193.914007 463.765371 
z
" style="fill:#db5f57;"/>
    <path clip-path="url(#pc0dae45e41)" d="M 193.914007 463.765371 
L 193.914007 460.295491 
L 198.797429 460.295491 
L 198.797429 463.765371 
z
" style="fill:#db5f57;"/>
    <path clip-path="url(#pc0dae45e41)" d="M 198.797429 463.765371 
L 198.797429 458.907539 
L 203.680852 458.907539 
L 203.680852 463.765371 
z
" style="fill:#db5f57;"/>
    <path clip-path="url(#pc0dae45e41)" d="M 203.680852 463.765371 
L 203.680852 457.519588 
L 208.564274 457.519588 
L 208.564274 463.765371 
z
" style="fill:#db5f57;"/>
    <path clip-path="url(#pc0dae45e41)" d="M 208.564274 463.765371 
L 208.564274 458.907539 
L 213.447697 458.907539 
L 213.447697 463.765371 
z
" style="fill:#db5f57;"/>
    <path clip-path="url(#pc0dae45e41)" d="M 213.447697 463.765371 
L 213.447697 331.909949 
L 218.331119 331.909949 
L 218.331119 463.765371 
z
" style="fill:#db5f57;"/>
   </g>
   <g id="patch_3">
    <path d="M 43.992937 40.405371 
L 226.632938 40.405371 
L 226.632938 26.231919 
L 43.992937 26.231919 
z
" style="fill:#cccccc;stroke:#7f7f7f;stroke-linejoin:miter;"/>
   </g>
   <g id="text_11">
    <!-- Austin -->
    <defs>
     <path d="M 34.1875 63.1875 
L 20.796875 26.90625 
L 47.609375 26.90625 
z
M 28.609375 72.90625 
L 39.796875 72.90625 
L 67.578125 0 
L 57.328125 0 
L 50.6875 18.703125 
L 17.828125 18.703125 
L 11.1875 0 
L 0.78125 0 
z
" id="DejaVuSans-41"/>
     <path d="M 18.3125 70.21875 
L 18.3125 54.6875 
L 36.8125 54.6875 
L 36.8125 47.703125 
L 18.3125 47.703125 
L 18.3125 18.015625 
Q 18.3125 11.328125 20.140625 9.421875 
Q 21.96875 7.515625 27.59375 7.515625 
L 36.8125 7.515625 
L 36.8125 0 
L 27.59375 0 
Q 17.1875 0 13.234375 3.875 
Q 9.28125 7.765625 9.28125 18.015625 
L 9.28125 47.703125 
L 2.6875 47.703125 
L 2.6875 54.6875 
L 9.28125 54.6875 
L 9.28125 70.21875 
z
" id="DejaVuSans-74"/>
     <path d="M 9.421875 54.6875 
L 18.40625 54.6875 
L 18.40625 0 
L 9.421875 0 
z
M 9.421875 75.984375 
L 18.40625 75.984375 
L 18.40625 64.59375 
L 9.421875 64.59375 
z
" id="DejaVuSans-69"/>
     <path d="M 54.890625 33.015625 
L 54.890625 0 
L 45.90625 0 
L 45.90625 32.71875 
Q 45.90625 40.484375 42.875 44.328125 
Q 39.84375 48.1875 33.796875 48.1875 
Q 26.515625 48.1875 22.3125 43.546875 
Q 18.109375 38.921875 18.109375 30.90625 
L 18.109375 0 
L 9.078125 0 
L 9.078125 54.6875 
L 18.109375 54.6875 
L 18.109375 46.1875 
Q 21.34375 51.125 25.703125 53.5625 
Q 30.078125 56 35.796875 56 
Q 45.21875 56 50.046875 50.171875 
Q 54.890625 44.34375 54.890625 33.015625 
z
" id="DejaVuSans-6e"/>
    </defs>
    <g style="fill:#1a1a1a;" transform="translate(121.486625 35.746895)scale(0.088 -0.088)">
     <use xlink:href="#DejaVuSans-41"/>
     <use x="68.408203" xlink:href="#DejaVuSans-75"/>
     <use x="131.787109" xlink:href="#DejaVuSans-73"/>
     <use x="183.886719" xlink:href="#DejaVuSans-74"/>
     <use x="223.095703" xlink:href="#DejaVuSans-69"/>
     <use x="250.878906" xlink:href="#DejaVuSans-6e"/>
    </g>
   </g>
   <g id="patch_4">
    <path d="M 609.192938 304.768339 
L 689.007938 304.768339 
L 689.007938 213.802402 
L 609.192938 213.802402 
z
" style="fill:#ffffff;"/>
   </g>
   <g id="text_12">
    <!-- place -->
    <defs>
     <path d="M 18.109375 8.203125 
L 18.109375 -20.796875 
L 9.078125 -20.796875 
L 9.078125 54.6875 
L 18.109375 54.6875 
L 18.109375 46.390625 
Q 20.953125 51.265625 25.265625 53.625 
Q 29.59375 56 35.59375 56 
Q 45.5625 56 51.78125 48.09375 
Q 58.015625 40.1875 58.015625 27.296875 
Q 58.015625 14.40625 51.78125 6.484375 
Q 45.5625 -1.421875 35.59375 -1.421875 
Q 29.59375 -1.421875 25.265625 0.953125 
Q 20.953125 3.328125 18.109375 8.203125 
z
M 48.6875 27.296875 
Q 48.6875 37.203125 44.609375 42.84375 
Q 40.53125 48.484375 33.40625 48.484375 
Q 26.265625 48.484375 22.1875 42.84375 
Q 18.109375 37.203125 18.109375 27.296875 
Q 18.109375 17.390625 22.1875 11.75 
Q 26.265625 6.109375 33.40625 6.109375 
Q 40.53125 6.109375 44.609375 11.75 
Q 48.6875 17.390625 48.6875 27.296875 
z
" id="DejaVuSans-70"/>
    </defs>
    <g transform="translate(621.392938 237.395996)scale(0.11 -0.11)">
     <use xlink:href="#DejaVuSans-70"/>
     <use x="63.476562" xlink:href="#DejaVuSans-6c"/>
     <use x="91.259766" xlink:href="#DejaVuSans-61"/>
     <use x="152.539062" xlink:href="#DejaVuSans-63"/>
     <use x="207.519531" xlink:href="#DejaVuSans-65"/>
    </g>
   </g>
   <g id="patch_5">
    <path clip-path="url(#pde85960277)" d="M 621.392938 256.888339 
L 637.232938 256.888339 
L 637.232938 241.048339 
L 621.392938 241.048339 
z
" style="fill:#f2f2f2;stroke:#cccccc;stroke-linejoin:miter;"/>
   </g>
   <g id="patch_6">
    <path clip-path="url(#pde85960277)" d="M 621.392938 256.888339 
L 637.232938 256.888339 
L 637.232938 241.048339 
L 621.392938 241.048339 
z
" style="fill:#db5f57;"/>
   </g>
   <g id="text_13">
    <!-- Austin -->
    <g transform="translate(640.232938 251.396589)scale(0.088 -0.088)">
     <use xlink:href="#DejaVuSans-41"/>
     <use x="68.408203" xlink:href="#DejaVuSans-75"/>
     <use x="131.787109" xlink:href="#DejaVuSans-73"/>
     <use x="183.886719" xlink:href="#DejaVuSans-74"/>
     <use x="223.095703" xlink:href="#DejaVuSans-69"/>
     <use x="250.878906" xlink:href="#DejaVuSans-6e"/>
    </g>
   </g>
   <g id="patch_7">
    <path clip-path="url(#pa57c881454)" d="M 621.392938 274.728339 
L 637.232938 274.728339 
L 637.232938 258.888339 
L 621.392938 258.888339 
z
" style="fill:#f2f2f2;stroke:#cccccc;stroke-linejoin:miter;"/>
   </g>
   <g id="patch_8">
    <path clip-path="url(#pa57c881454)" d="M 621.392938 274.728339 
L 637.232938 274.728339 
L 637.232938 258.888339 
L 621.392938 258.888339 
z
" style="fill:#57db5f;"/>
   </g>
   <g id="text_14">
    <!-- Dallas -->
    <defs>
     <path d="M 19.671875 64.796875 
L 19.671875 8.109375 
L 31.59375 8.109375 
Q 46.6875 8.109375 53.6875 14.9375 
Q 60.6875 21.78125 60.6875 36.53125 
Q 60.6875 51.171875 53.6875 57.984375 
Q 46.6875 64.796875 31.59375 64.796875 
z
M 9.8125 72.90625 
L 30.078125 72.90625 
Q 51.265625 72.90625 61.171875 64.09375 
Q 71.09375 55.28125 71.09375 36.53125 
Q 71.09375 17.671875 61.125 8.828125 
Q 51.171875 0 30.078125 0 
L 9.8125 0 
z
" id="DejaVuSans-44"/>
    </defs>
    <g transform="translate(640.232938 269.236589)scale(0.088 -0.088)">
     <use xlink:href="#DejaVuSans-44"/>
     <use x="77.001953" xlink:href="#DejaVuSans-61"/>
     <use x="138.28125" xlink:href="#DejaVuSans-6c"/>
     <use x="166.064453" xlink:href="#DejaVuSans-6c"/>
     <use x="193.847656" xlink:href="#DejaVuSans-61"/>
     <use x="255.126953" xlink:href="#DejaVuSans-73"/>
    </g>
   </g>
   <g id="patch_9">
    <path clip-path="url(#pa31b9fe53c)" d="M 621.392938 292.568339 
L 637.232938 292.568339 
L 637.232938 276.728339 
L 621.392938 276.728339 
z
" style="fill:#f2f2f2;stroke:#cccccc;stroke-linejoin:miter;"/>
   </g>
   <g id="patch_10">
    <path clip-path="url(#pa31b9fe53c)" d="M 621.392938 292.568339 
L 637.232938 292.568339 
L 637.232938 276.728339 
L 621.392938 276.728339 
z
" style="fill:#5f57db;"/>
   </g>
   <g id="text_15">
    <!-- Houston -->
    <defs>
     <path d="M 9.8125 72.90625 
L 19.671875 72.90625 
L 19.671875 43.015625 
L 55.515625 43.015625 
L 55.515625 72.90625 
L 65.375 72.90625 
L 65.375 0 
L 55.515625 0 
L 55.515625 34.71875 
L 19.671875 34.71875 
L 19.671875 0 
L 9.8125 0 
z
" id="DejaVuSans-48"/>
    </defs>
    <g transform="translate(640.232938 287.076589)scale(0.088 -0.088)">
     <use xlink:href="#DejaVuSans-48"/>
     <use x="75.195312" xlink:href="#DejaVuSans-6f"/>
     <use x="136.376953" xlink:href="#DejaVuSans-75"/>
     <use x="199.755859" xlink:href="#DejaVuSans-73"/>
     <use x="251.855469" xlink:href="#DejaVuSans-74"/>
     <use x="291.064453" xlink:href="#DejaVuSans-6f"/>
     <use x="352.246094" xlink:href="#DejaVuSans-6e"/>
    </g>
   </g>
  </g>
  <g id="axes_2">
   <g id="patch_11">
    <path d="M 231.672937 483.925371 
L 414.312938 483.925371 
L 414.312938 40.405371 
L 231.672937 40.405371 
z
" style="fill:#ffffff;stroke:#7f7f7f;stroke-linejoin:miter;"/>
   </g>
   <g id="matplotlib.axis_3">
    <g id="xtick_11">
     <g id="line2d_35">
      <path clip-path="url(#p33bd25369e)" d="M 242.416467 483.925371 
L 242.416467 40.405371 
" style="fill:none;stroke:#e5e5e5;stroke-linecap:square;stroke-width:0.8;"/>
     </g>
     <g id="line2d_36">
      <path d="M 242.416467 483.925371 
" style="fill:none;stroke:#000000;stroke-linecap:square;stroke-width:1.5;"/>
      <g>
       <use style="stroke:#000000;" x="242.416467" xlink:href="#m5f7e86da84" y="483.925371"/>
      </g>
     </g>
     <g id="text_16">
      <!-- 0 -->
      <g style="fill:#4d4d4d;" transform="translate(239.616967 495.561996)scale(0.088 -0.088)">
       <use xlink:href="#DejaVuSans-30"/>
      </g>
     </g>
    </g>
    <g id="xtick_12">
     <g id="line2d_37">
      <path clip-path="url(#p33bd25369e)" d="M 277.117592 483.925371 
L 277.117592 40.405371 
" style="fill:none;stroke:#e5e5e5;stroke-linecap:square;stroke-width:0.8;"/>
     </g>
     <g id="line2d_38">
      <path d="M 277.117592 483.925371 
" style="fill:none;stroke:#000000;stroke-linecap:square;stroke-width:1.5;"/>
      <g>
       <use style="stroke:#000000;" x="277.117592" xlink:href="#m5f7e86da84" y="483.925371"/>
      </g>
     </g>
     <g id="text_17">
      <!-- 100 -->
      <g style="fill:#4d4d4d;" transform="translate(268.719092 495.561996)scale(0.088 -0.088)">
       <use xlink:href="#DejaVuSans-31"/>
       <use x="63.623047" xlink:href="#DejaVuSans-30"/>
       <use x="127.246094" xlink:href="#DejaVuSans-30"/>
      </g>
     </g>
    </g>
    <g id="xtick_13">
     <g id="line2d_39">
      <path clip-path="url(#p33bd25369e)" d="M 311.818718 483.925371 
L 311.818718 40.405371 
" style="fill:none;stroke:#e5e5e5;stroke-linecap:square;stroke-width:0.8;"/>
     </g>
     <g id="line2d_40">
      <path d="M 311.818718 483.925371 
" style="fill:none;stroke:#000000;stroke-linecap:square;stroke-width:1.5;"/>
      <g>
       <use style="stroke:#000000;" x="311.818718" xlink:href="#m5f7e86da84" y="483.925371"/>
      </g>
     </g>
     <g id="text_18">
      <!-- 200 -->
      <g style="fill:#4d4d4d;" transform="translate(303.420218 495.561996)scale(0.088 -0.088)">
       <use xlink:href="#DejaVuSans-32"/>
       <use x="63.623047" xlink:href="#DejaVuSans-30"/>
       <use x="127.246094" xlink:href="#DejaVuSans-30"/>
      </g>
     </g>
    </g>
    <g id="xtick_14">
     <g id="line2d_41">
      <path clip-path="url(#p33bd25369e)" d="M 346.519843 483.925371 
L 346.519843 40.405371 
" style="fill:none;stroke:#e5e5e5;stroke-linecap:square;stroke-width:0.8;"/>
     </g>
     <g id="line2d_42">
      <path d="M 346.519843 483.925371 
" style="fill:none;stroke:#000000;stroke-linecap:square;stroke-width:1.5;"/>
      <g>
       <use style="stroke:#000000;" x="346.519843" xlink:href="#m5f7e86da84" y="483.925371"/>
      </g>
     </g>
     <g id="text_19">
      <!-- 300 -->
      <g style="fill:#4d4d4d;" transform="translate(338.121343 495.561996)scale(0.088 -0.088)">
       <use xlink:href="#DejaVuSans-33"/>
       <use x="63.623047" xlink:href="#DejaVuSans-30"/>
       <use x="127.246094" xlink:href="#DejaVuSans-30"/>
      </g>
     </g>
    </g>
    <g id="xtick_15">
     <g id="line2d_43">
      <path clip-path="url(#p33bd25369e)" d="M 381.220969 483.925371 
L 381.220969 40.405371 
" style="fill:none;stroke:#e5e5e5;stroke-linecap:square;stroke-width:0.8;"/>
     </g>
     <g id="line2d_44">
      <path d="M 381.220969 483.925371 
" style="fill:none;stroke:#000000;stroke-linecap:square;stroke-width:1.5;"/>
      <g>
       <use style="stroke:#000000;" x="381.220969" xlink:href="#m5f7e86da84" y="483.925371"/>
      </g>
     </g>
     <g id="text_20">
      <!-- 400 -->
      <g style="fill:#4d4d4d;" transform="translate(372.822469 495.561996)scale(0.088 -0.088)">
       <use xlink:href="#DejaVuSans-34"/>
       <use x="63.623047" xlink:href="#DejaVuSans-30"/>
       <use x="127.246094" xlink:href="#DejaVuSans-30"/>
      </g>
     </g>
    </g>
    <g id="xtick_16">
     <g id="line2d_45">
      <path clip-path="url(#p33bd25369e)" d="M 259.76703 483.925371 
L 259.76703 40.405371 
" style="fill:none;stroke:#fafafa;stroke-linecap:square;"/>
     </g>
     <g id="line2d_46">
      <path d="M 259.76703 483.925371 
" style="fill:none;stroke:#000000;stroke-linecap:square;stroke-width:1.5;"/>
     </g>
    </g>
    <g id="xtick_17">
     <g id="line2d_47">
      <path clip-path="url(#p33bd25369e)" d="M 294.468155 483.925371 
L 294.468155 40.405371 
" style="fill:none;stroke:#fafafa;stroke-linecap:square;"/>
     </g>
     <g id="line2d_48">
      <path d="M 294.468155 483.925371 
" style="fill:none;stroke:#000000;stroke-linecap:square;stroke-width:1.5;"/>
     </g>
    </g>
    <g id="xtick_18">
     <g id="line2d_49">
      <path clip-path="url(#p33bd25369e)" d="M 329.16928 483.925371 
L 329.16928 40.405371 
" style="fill:none;stroke:#fafafa;stroke-linecap:square;"/>
     </g>
     <g id="line2d_50">
      <path d="M 329.16928 483.925371 
" style="fill:none;stroke:#000000;stroke-linecap:square;stroke-width:1.5;"/>
     </g>
    </g>
    <g id="xtick_19">
     <g id="line2d_51">
      <path clip-path="url(#p33bd25369e)" d="M 363.870406 483.925371 
L 363.870406 40.405371 
" style="fill:none;stroke:#fafafa;stroke-linecap:square;"/>
     </g>
     <g id="line2d_52">
      <path d="M 363.870406 483.925371 
" style="fill:none;stroke:#000000;stroke-linecap:square;stroke-width:1.5;"/>
     </g>
    </g>
    <g id="xtick_20">
     <g id="line2d_53">
      <path clip-path="url(#p33bd25369e)" d="M 398.571531 483.925371 
L 398.571531 40.405371 
" style="fill:none;stroke:#fafafa;stroke-linecap:square;"/>
     </g>
     <g id="line2d_54">
      <path d="M 398.571531 483.925371 
" style="fill:none;stroke:#000000;stroke-linecap:square;stroke-width:1.5;"/>
     </g>
    </g>
   </g>
   <g id="matplotlib.axis_4">
    <g id="ytick_8">
     <g id="line2d_55">
      <path clip-path="url(#p33bd25369e)" d="M 231.672937 463.765371 
L 414.312938 463.765371 
" style="fill:none;stroke:#e5e5e5;stroke-linecap:square;stroke-width:0.8;"/>
     </g>
    </g>
    <g id="ytick_9">
     <g id="line2d_56">
      <path clip-path="url(#p33bd25369e)" d="M 231.672937 324.97019 
L 414.312938 324.97019 
" style="fill:none;stroke:#e5e5e5;stroke-linecap:square;stroke-width:0.8;"/>
     </g>
    </g>
    <g id="ytick_10">
     <g id="line2d_57">
      <path clip-path="url(#p33bd25369e)" d="M 231.672937 186.175009 
L 414.312938 186.175009 
" style="fill:none;stroke:#e5e5e5;stroke-linecap:square;stroke-width:0.8;"/>
     </g>
    </g>
    <g id="ytick_11">
     <g id="line2d_58">
      <path clip-path="url(#p33bd25369e)" d="M 231.672937 47.379829 
L 414.312938 47.379829 
" style="fill:none;stroke:#e5e5e5;stroke-linecap:square;stroke-width:0.8;"/>
     </g>
    </g>
    <g id="ytick_12">
     <g id="line2d_59">
      <path clip-path="url(#p33bd25369e)" d="M 231.672937 394.36778 
L 414.312938 394.36778 
" style="fill:none;stroke:#fafafa;stroke-linecap:square;"/>
     </g>
    </g>
    <g id="ytick_13">
     <g id="line2d_60">
      <path clip-path="url(#p33bd25369e)" d="M 231.672937 255.5726 
L 414.312938 255.5726 
" style="fill:none;stroke:#fafafa;stroke-linecap:square;"/>
     </g>
    </g>
    <g id="ytick_14">
     <g id="line2d_61">
      <path clip-path="url(#p33bd25369e)" d="M 231.672937 116.777419 
L 414.312938 116.777419 
" style="fill:none;stroke:#fafafa;stroke-linecap:square;"/>
     </g>
    </g>
   </g>
   <g id="PolyCollection_2">
    <path clip-path="url(#p33bd25369e)" d="M 239.974756 463.765371 
L 239.974756 395.755732 
L 244.858178 395.755732 
L 244.858178 463.765371 
z
" style="fill:#57db5f;"/>
    <path clip-path="url(#p33bd25369e)" d="M 244.858178 463.765371 
L 244.858178 60.565371 
L 249.741601 60.565371 
L 249.741601 463.765371 
z
" style="fill:#57db5f;"/>
    <path clip-path="url(#p33bd25369e)" d="M 249.741601 463.765371 
L 249.741601 329.134045 
L 254.625023 329.134045 
L 254.625023 463.765371 
z
" style="fill:#57db5f;"/>
    <path clip-path="url(#p33bd25369e)" d="M 254.625023 463.765371 
L 254.625023 322.194286 
L 259.508446 322.194286 
L 259.508446 463.765371 
z
" style="fill:#57db5f;"/>
    <path clip-path="url(#p33bd25369e)" d="M 259.508446 463.765371 
L 259.508446 356.893082 
L 264.391868 356.893082 
L 264.391868 463.765371 
z
" style="fill:#57db5f;"/>
    <path clip-path="url(#p33bd25369e)" d="M 264.391868 463.765371 
L 264.391868 318.030431 
L 269.27529 318.030431 
L 269.27529 463.765371 
z
" style="fill:#57db5f;"/>
    <path clip-path="url(#p33bd25369e)" d="M 269.27529 463.765371 
L 269.27529 343.013563 
L 274.158713 343.013563 
L 274.158713 463.765371 
z
" style="fill:#57db5f;"/>
    <path clip-path="url(#p33bd25369e)" d="M 274.158713 463.765371 
L 274.158713 418.656937 
L 279.042135 418.656937 
L 279.042135 463.765371 
z
" style="fill:#57db5f;"/>
    <path clip-path="url(#p33bd25369e)" d="M 279.042135 463.765371 
L 279.042135 449.191877 
L 283.925558 449.191877 
L 283.925558 463.765371 
z
" style="fill:#57db5f;"/>
    <path clip-path="url(#p33bd25369e)" d="M 283.925558 463.765371 
L 283.925558 443.64007 
L 288.80898 443.64007 
L 288.80898 463.765371 
z
" style="fill:#57db5f;"/>
    <path clip-path="url(#p33bd25369e)" d="M 288.80898 463.765371 
L 288.80898 449.191877 
L 293.692403 449.191877 
L 293.692403 463.765371 
z
" style="fill:#57db5f;"/>
    <path clip-path="url(#p33bd25369e)" d="M 293.692403 463.765371 
L 293.692403 444.334045 
L 298.575825 444.334045 
L 298.575825 463.765371 
z
" style="fill:#57db5f;"/>
    <path clip-path="url(#p33bd25369e)" d="M 298.575825 463.765371 
L 298.575825 450.579829 
L 303.459248 450.579829 
L 303.459248 463.765371 
z
" style="fill:#57db5f;"/>
    <path clip-path="url(#p33bd25369e)" d="M 303.459248 463.765371 
L 303.459248 452.661756 
L 308.34267 452.661756 
L 308.34267 463.765371 
z
" style="fill:#57db5f;"/>
    <path clip-path="url(#p33bd25369e)" d="M 308.34267 463.765371 
L 308.34267 447.803925 
L 313.226093 447.803925 
L 313.226093 463.765371 
z
" style="fill:#57db5f;"/>
    <path clip-path="url(#p33bd25369e)" d="M 313.226093 463.765371 
L 313.226093 442.946094 
L 318.109515 442.946094 
L 318.109515 463.765371 
z
" style="fill:#57db5f;"/>
    <path clip-path="url(#p33bd25369e)" d="M 318.109515 463.765371 
L 318.109515 453.355732 
L 322.992938 453.355732 
L 322.992938 463.765371 
z
" style="fill:#57db5f;"/>
    <path clip-path="url(#p33bd25369e)" d="M 322.992938 463.765371 
L 322.992938 447.109949 
L 327.87636 447.109949 
L 327.87636 463.765371 
z
" style="fill:#57db5f;"/>
    <path clip-path="url(#p33bd25369e)" d="M 327.87636 463.765371 
L 327.87636 445.028021 
L 332.759782 445.028021 
L 332.759782 463.765371 
z
" style="fill:#57db5f;"/>
    <path clip-path="url(#p33bd25369e)" d="M 332.759782 463.765371 
L 332.759782 452.661756 
L 337.643205 452.661756 
L 337.643205 463.765371 
z
" style="fill:#57db5f;"/>
    <path clip-path="url(#p33bd25369e)" d="M 337.643205 463.765371 
L 337.643205 451.273804 
L 342.526627 451.273804 
L 342.526627 463.765371 
z
" style="fill:#57db5f;"/>
    <path clip-path="url(#p33bd25369e)" d="M 342.526627 463.765371 
L 342.526627 451.96778 
L 347.41005 451.96778 
L 347.41005 463.765371 
z
" style="fill:#57db5f;"/>
    <path clip-path="url(#p33bd25369e)" d="M 347.41005 463.765371 
L 347.41005 452.661756 
L 352.293472 452.661756 
L 352.293472 463.765371 
z
" style="fill:#57db5f;"/>
    <path clip-path="url(#p33bd25369e)" d="M 352.293472 463.765371 
L 352.293472 448.497901 
L 357.176895 448.497901 
L 357.176895 463.765371 
z
" style="fill:#57db5f;"/>
    <path clip-path="url(#p33bd25369e)" d="M 357.176895 463.765371 
L 357.176895 453.355732 
L 362.060317 453.355732 
L 362.060317 463.765371 
z
" style="fill:#57db5f;"/>
    <path clip-path="url(#p33bd25369e)" d="M 362.060317 463.765371 
L 362.060317 455.43766 
L 366.94374 455.43766 
L 366.94374 463.765371 
z
" style="fill:#57db5f;"/>
    <path clip-path="url(#p33bd25369e)" d="M 366.94374 463.765371 
L 366.94374 458.907539 
L 371.827162 458.907539 
L 371.827162 463.765371 
z
" style="fill:#57db5f;"/>
    <path clip-path="url(#p33bd25369e)" d="M 371.827162 463.765371 
L 371.827162 456.131636 
L 376.710585 456.131636 
L 376.710585 463.765371 
z
" style="fill:#57db5f;"/>
    <path clip-path="url(#p33bd25369e)" d="M 376.710585 463.765371 
L 376.710585 458.213563 
L 381.594007 458.213563 
L 381.594007 463.765371 
z
" style="fill:#57db5f;"/>
    <path clip-path="url(#p33bd25369e)" d="M 381.594007 463.765371 
L 381.594007 459.601515 
L 386.477429 459.601515 
L 386.477429 463.765371 
z
" style="fill:#57db5f;"/>
    <path clip-path="url(#p33bd25369e)" d="M 386.477429 463.765371 
L 386.477429 458.907539 
L 391.360852 458.907539 
L 391.360852 463.765371 
z
" style="fill:#57db5f;"/>
    <path clip-path="url(#p33bd25369e)" d="M 391.360852 463.765371 
L 391.360852 460.989467 
L 396.244274 460.989467 
L 396.244274 463.765371 
z
" style="fill:#57db5f;"/>
    <path clip-path="url(#p33bd25369e)" d="M 396.244274 463.765371 
L 396.244274 457.519588 
L 401.127697 457.519588 
L 401.127697 463.765371 
z
" style="fill:#57db5f;"/>
    <path clip-path="url(#p33bd25369e)" d="M 401.127697 463.765371 
L 401.127697 368.690672 
L 406.011119 368.690672 
L 406.011119 463.765371 
z
" style="fill:#57db5f;"/>
   </g>
   <g id="patch_12">
    <path d="M 231.672937 40.405371 
L 414.312938 40.405371 
L 414.312938 26.231919 
L 231.672937 26.231919 
z
" style="fill:#cccccc;stroke:#7f7f7f;stroke-linejoin:miter;"/>
   </g>
   <g id="text_21">
    <!-- Dallas -->
    <g style="fill:#1a1a1a;" transform="translate(309.475313 35.746895)scale(0.088 -0.088)">
     <use xlink:href="#DejaVuSans-44"/>
     <use x="77.001953" xlink:href="#DejaVuSans-61"/>
     <use x="138.28125" xlink:href="#DejaVuSans-6c"/>
     <use x="166.064453" xlink:href="#DejaVuSans-6c"/>
     <use x="193.847656" xlink:href="#DejaVuSans-61"/>
     <use x="255.126953" xlink:href="#DejaVuSans-73"/>
    </g>
   </g>
  </g>
  <g id="axes_3">
   <g id="patch_13">
    <path d="M 419.352938 483.925371 
L 601.992938 483.925371 
L 601.992938 40.405371 
L 419.352938 40.405371 
z
" style="fill:#ffffff;stroke:#7f7f7f;stroke-linejoin:miter;"/>
   </g>
   <g id="matplotlib.axis_5">
    <g id="xtick_21">
     <g id="line2d_62">
      <path clip-path="url(#p7bdb8ab5fb)" d="M 430.096467 483.925371 
L 430.096467 40.405371 
" style="fill:none;stroke:#e5e5e5;stroke-linecap:square;stroke-width:0.8;"/>
     </g>
     <g id="line2d_63">
      <path d="M 430.096467 483.925371 
" style="fill:none;stroke:#000000;stroke-linecap:square;stroke-width:1.5;"/>
      <g>
       <use style="stroke:#000000;" x="430.096467" xlink:href="#m5f7e86da84" y="483.925371"/>
      </g>
     </g>
     <g id="text_22">
      <!-- 0 -->
      <g style="fill:#4d4d4d;" transform="translate(427.296967 495.561996)scale(0.088 -0.088)">
       <use xlink:href="#DejaVuSans-30"/>
      </g>
     </g>
    </g>
    <g id="xtick_22">
     <g id="line2d_64">
      <path clip-path="url(#p7bdb8ab5fb)" d="M 464.797592 483.925371 
L 464.797592 40.405371 
" style="fill:none;stroke:#e5e5e5;stroke-linecap:square;stroke-width:0.8;"/>
     </g>
     <g id="line2d_65">
      <path d="M 464.797592 483.925371 
" style="fill:none;stroke:#000000;stroke-linecap:square;stroke-width:1.5;"/>
      <g>
       <use style="stroke:#000000;" x="464.797592" xlink:href="#m5f7e86da84" y="483.925371"/>
      </g>
     </g>
     <g id="text_23">
      <!-- 100 -->
      <g style="fill:#4d4d4d;" transform="translate(456.399092 495.561996)scale(0.088 -0.088)">
       <use xlink:href="#DejaVuSans-31"/>
       <use x="63.623047" xlink:href="#DejaVuSans-30"/>
       <use x="127.246094" xlink:href="#DejaVuSans-30"/>
      </g>
     </g>
    </g>
    <g id="xtick_23">
     <g id="line2d_66">
      <path clip-path="url(#p7bdb8ab5fb)" d="M 499.498718 483.925371 
L 499.498718 40.405371 
" style="fill:none;stroke:#e5e5e5;stroke-linecap:square;stroke-width:0.8;"/>
     </g>
     <g id="line2d_67">
      <path d="M 499.498718 483.925371 
" style="fill:none;stroke:#000000;stroke-linecap:square;stroke-width:1.5;"/>
      <g>
       <use style="stroke:#000000;" x="499.498718" xlink:href="#m5f7e86da84" y="483.925371"/>
      </g>
     </g>
     <g id="text_24">
      <!-- 200 -->
      <g style="fill:#4d4d4d;" transform="translate(491.100218 495.561996)scale(0.088 -0.088)">
       <use xlink:href="#DejaVuSans-32"/>
       <use x="63.623047" xlink:href="#DejaVuSans-30"/>
       <use x="127.246094" xlink:href="#DejaVuSans-30"/>
      </g>
     </g>
    </g>
    <g id="xtick_24">
     <g id="line2d_68">
      <path clip-path="url(#p7bdb8ab5fb)" d="M 534.199843 483.925371 
L 534.199843 40.405371 
" style="fill:none;stroke:#e5e5e5;stroke-linecap:square;stroke-width:0.8;"/>
     </g>
     <g id="line2d_69">
      <path d="M 534.199843 483.925371 
" style="fill:none;stroke:#000000;stroke-linecap:square;stroke-width:1.5;"/>
      <g>
       <use style="stroke:#000000;" x="534.199843" xlink:href="#m5f7e86da84" y="483.925371"/>
      </g>
     </g>
     <g id="text_25">
      <!-- 300 -->
      <g style="fill:#4d4d4d;" transform="translate(525.801343 495.561996)scale(0.088 -0.088)">
       <use xlink:href="#DejaVuSans-33"/>
       <use x="63.623047" xlink:href="#DejaVuSans-30"/>
       <use x="127.246094" xlink:href="#DejaVuSans-30"/>
      </g>
     </g>
    </g>
    <g id="xtick_25">
     <g id="line2d_70">
      <path clip-path="url(#p7bdb8ab5fb)" d="M 568.900969 483.925371 
L 568.900969 40.405371 
" style="fill:none;stroke:#e5e5e5;stroke-linecap:square;stroke-width:0.8;"/>
     </g>
     <g id="line2d_71">
      <path d="M 568.900969 483.925371 
" style="fill:none;stroke:#000000;stroke-linecap:square;stroke-width:1.5;"/>
      <g>
       <use style="stroke:#000000;" x="568.900969" xlink:href="#m5f7e86da84" y="483.925371"/>
      </g>
     </g>
     <g id="text_26">
      <!-- 400 -->
      <g style="fill:#4d4d4d;" transform="translate(560.502469 495.561996)scale(0.088 -0.088)">
       <use xlink:href="#DejaVuSans-34"/>
       <use x="63.623047" xlink:href="#DejaVuSans-30"/>
       <use x="127.246094" xlink:href="#DejaVuSans-30"/>
      </g>
     </g>
    </g>
    <g id="xtick_26">
     <g id="line2d_72">
      <path clip-path="url(#p7bdb8ab5fb)" d="M 447.44703 483.925371 
L 447.44703 40.405371 
" style="fill:none;stroke:#fafafa;stroke-linecap:square;"/>
     </g>
     <g id="line2d_73">
      <path d="M 447.44703 483.925371 
" style="fill:none;stroke:#000000;stroke-linecap:square;stroke-width:1.5;"/>
     </g>
    </g>
    <g id="xtick_27">
     <g id="line2d_74">
      <path clip-path="url(#p7bdb8ab5fb)" d="M 482.148155 483.925371 
L 482.148155 40.405371 
" style="fill:none;stroke:#fafafa;stroke-linecap:square;"/>
     </g>
     <g id="line2d_75">
      <path d="M 482.148155 483.925371 
" style="fill:none;stroke:#000000;stroke-linecap:square;stroke-width:1.5;"/>
     </g>
    </g>
    <g id="xtick_28">
     <g id="line2d_76">
      <path clip-path="url(#p7bdb8ab5fb)" d="M 516.84928 483.925371 
L 516.84928 40.405371 
" style="fill:none;stroke:#fafafa;stroke-linecap:square;"/>
     </g>
     <g id="line2d_77">
      <path d="M 516.84928 483.925371 
" style="fill:none;stroke:#000000;stroke-linecap:square;stroke-width:1.5;"/>
     </g>
    </g>
    <g id="xtick_29">
     <g id="line2d_78">
      <path clip-path="url(#p7bdb8ab5fb)" d="M 551.550406 483.925371 
L 551.550406 40.405371 
" style="fill:none;stroke:#fafafa;stroke-linecap:square;"/>
     </g>
     <g id="line2d_79">
      <path d="M 551.550406 483.925371 
" style="fill:none;stroke:#000000;stroke-linecap:square;stroke-width:1.5;"/>
     </g>
    </g>
    <g id="xtick_30">
     <g id="line2d_80">
      <path clip-path="url(#p7bdb8ab5fb)" d="M 586.251531 483.925371 
L 586.251531 40.405371 
" style="fill:none;stroke:#fafafa;stroke-linecap:square;"/>
     </g>
     <g id="line2d_81">
      <path d="M 586.251531 483.925371 
" style="fill:none;stroke:#000000;stroke-linecap:square;stroke-width:1.5;"/>
     </g>
    </g>
    <g id="text_27">
     <!-- Value per Square Foot -->
     <defs>
      <path d="M 28.609375 0 
L 0.78125 72.90625 
L 11.078125 72.90625 
L 34.1875 11.53125 
L 57.328125 72.90625 
L 67.578125 72.90625 
L 39.796875 0 
z
" id="DejaVuSans-56"/>
      <path d="M 53.515625 70.515625 
L 53.515625 60.890625 
Q 47.90625 63.578125 42.921875 64.890625 
Q 37.9375 66.21875 33.296875 66.21875 
Q 25.25 66.21875 20.875 63.09375 
Q 16.5 59.96875 16.5 54.203125 
Q 16.5 49.359375 19.40625 46.890625 
Q 22.3125 44.4375 30.421875 42.921875 
L 36.375 41.703125 
Q 47.40625 39.59375 52.65625 34.296875 
Q 57.90625 29 57.90625 20.125 
Q 57.90625 9.515625 50.796875 4.046875 
Q 43.703125 -1.421875 29.984375 -1.421875 
Q 24.8125 -1.421875 18.96875 -0.25 
Q 13.140625 0.921875 6.890625 3.21875 
L 6.890625 13.375 
Q 12.890625 10.015625 18.65625 8.296875 
Q 24.421875 6.59375 29.984375 6.59375 
Q 38.421875 6.59375 43.015625 9.90625 
Q 47.609375 13.234375 47.609375 19.390625 
Q 47.609375 24.75 44.3125 27.78125 
Q 41.015625 30.8125 33.5 32.328125 
L 27.484375 33.5 
Q 16.453125 35.6875 11.515625 40.375 
Q 6.59375 45.0625 6.59375 53.421875 
Q 6.59375 63.09375 13.40625 68.65625 
Q 20.21875 74.21875 32.171875 74.21875 
Q 37.3125 74.21875 42.625 73.28125 
Q 47.953125 72.359375 53.515625 70.515625 
z
" id="DejaVuSans-53"/>
      <path d="M 14.796875 27.296875 
Q 14.796875 17.390625 18.875 11.75 
Q 22.953125 6.109375 30.078125 6.109375 
Q 37.203125 6.109375 41.296875 11.75 
Q 45.40625 17.390625 45.40625 27.296875 
Q 45.40625 37.203125 41.296875 42.84375 
Q 37.203125 48.484375 30.078125 48.484375 
Q 22.953125 48.484375 18.875 42.84375 
Q 14.796875 37.203125 14.796875 27.296875 
z
M 45.40625 8.203125 
Q 42.578125 3.328125 38.25 0.953125 
Q 33.9375 -1.421875 27.875 -1.421875 
Q 17.96875 -1.421875 11.734375 6.484375 
Q 5.515625 14.40625 5.515625 27.296875 
Q 5.515625 40.1875 11.734375 48.09375 
Q 17.96875 56 27.875 56 
Q 33.9375 56 38.25 53.625 
Q 42.578125 51.265625 45.40625 46.390625 
L 45.40625 54.6875 
L 54.390625 54.6875 
L 54.390625 -20.796875 
L 45.40625 -20.796875 
z
" id="DejaVuSans-71"/>
      <path d="M 9.8125 72.90625 
L 51.703125 72.90625 
L 51.703125 64.59375 
L 19.671875 64.59375 
L 19.671875 43.109375 
L 48.578125 43.109375 
L 48.578125 34.8125 
L 19.671875 34.8125 
L 19.671875 0 
L 9.8125 0 
z
" id="DejaVuSans-46"/>
     </defs>
     <g transform="translate(252.557078 510.150402)scale(0.11 -0.11)">
      <use xlink:href="#DejaVuSans-56"/>
      <use x="68.298828" xlink:href="#DejaVuSans-61"/>
      <use x="129.578125" xlink:href="#DejaVuSans-6c"/>
      <use x="157.361328" xlink:href="#DejaVuSans-75"/>
      <use x="220.740234" xlink:href="#DejaVuSans-65"/>
      <use x="282.263672" xlink:href="#DejaVuSans-20"/>
      <use x="314.050781" xlink:href="#DejaVuSans-70"/>
      <use x="377.527344" xlink:href="#DejaVuSans-65"/>
      <use x="439.050781" xlink:href="#DejaVuSans-72"/>
      <use x="480.164062" xlink:href="#DejaVuSans-20"/>
      <use x="511.951172" xlink:href="#DejaVuSans-53"/>
      <use x="575.427734" xlink:href="#DejaVuSans-71"/>
      <use x="638.904297" xlink:href="#DejaVuSans-75"/>
      <use x="702.283203" xlink:href="#DejaVuSans-61"/>
      <use x="763.5625" xlink:href="#DejaVuSans-72"/>
      <use x="804.644531" xlink:href="#DejaVuSans-65"/>
      <use x="866.167969" xlink:href="#DejaVuSans-20"/>
      <use x="897.955078" xlink:href="#DejaVuSans-46"/>
      <use x="955.427734" xlink:href="#DejaVuSans-6f"/>
      <use x="1016.609375" xlink:href="#DejaVuSans-6f"/>
      <use x="1077.791016" xlink:href="#DejaVuSans-74"/>
     </g>
    </g>
   </g>
   <g id="matplotlib.axis_6">
    <g id="ytick_15">
     <g id="line2d_82">
      <path clip-path="url(#p7bdb8ab5fb)" d="M 419.352938 463.765371 
L 601.992938 463.765371 
" style="fill:none;stroke:#e5e5e5;stroke-linecap:square;stroke-width:0.8;"/>
     </g>
    </g>
    <g id="ytick_16">
     <g id="line2d_83">
      <path clip-path="url(#p7bdb8ab5fb)" d="M 419.352938 324.97019 
L 601.992938 324.97019 
" style="fill:none;stroke:#e5e5e5;stroke-linecap:square;stroke-width:0.8;"/>
     </g>
    </g>
    <g id="ytick_17">
     <g id="line2d_84">
      <path clip-path="url(#p7bdb8ab5fb)" d="M 419.352938 186.175009 
L 601.992938 186.175009 
" style="fill:none;stroke:#e5e5e5;stroke-linecap:square;stroke-width:0.8;"/>
     </g>
    </g>
    <g id="ytick_18">
     <g id="line2d_85">
      <path clip-path="url(#p7bdb8ab5fb)" d="M 419.352938 47.379829 
L 601.992938 47.379829 
" style="fill:none;stroke:#e5e5e5;stroke-linecap:square;stroke-width:0.8;"/>
     </g>
    </g>
    <g id="ytick_19">
     <g id="line2d_86">
      <path clip-path="url(#p7bdb8ab5fb)" d="M 419.352938 394.36778 
L 601.992938 394.36778 
" style="fill:none;stroke:#fafafa;stroke-linecap:square;"/>
     </g>
    </g>
    <g id="ytick_20">
     <g id="line2d_87">
      <path clip-path="url(#p7bdb8ab5fb)" d="M 419.352938 255.5726 
L 601.992938 255.5726 
" style="fill:none;stroke:#fafafa;stroke-linecap:square;"/>
     </g>
    </g>
    <g id="ytick_21">
     <g id="line2d_88">
      <path clip-path="url(#p7bdb8ab5fb)" d="M 419.352938 116.777419 
L 601.992938 116.777419 
" style="fill:none;stroke:#fafafa;stroke-linecap:square;"/>
     </g>
    </g>
   </g>
   <g id="PolyCollection_3">
    <path clip-path="url(#p7bdb8ab5fb)" d="M 427.654756 463.765371 
L 427.654756 418.656937 
L 432.538178 418.656937 
L 432.538178 463.765371 
z
" style="fill:#5f57db;"/>
    <path clip-path="url(#p7bdb8ab5fb)" d="M 432.538178 463.765371 
L 432.538178 438.088262 
L 437.421601 438.088262 
L 437.421601 463.765371 
z
" style="fill:#5f57db;"/>
    <path clip-path="url(#p7bdb8ab5fb)" d="M 437.421601 463.765371 
L 437.421601 370.078624 
L 442.305023 370.078624 
L 442.305023 463.765371 
z
" style="fill:#5f57db;"/>
    <path clip-path="url(#p7bdb8ab5fb)" d="M 442.305023 463.765371 
L 442.305023 163.273804 
L 447.188446 163.273804 
L 447.188446 463.765371 
z
" style="fill:#5f57db;"/>
    <path clip-path="url(#p7bdb8ab5fb)" d="M 447.188446 463.765371 
L 447.188446 252.10272 
L 452.071868 252.10272 
L 452.071868 463.765371 
z
" style="fill:#5f57db;"/>
    <path clip-path="url(#p7bdb8ab5fb)" d="M 452.071868 463.765371 
L 452.071868 263.206335 
L 456.95529 263.206335 
L 456.95529 463.765371 
z
" style="fill:#5f57db;"/>
    <path clip-path="url(#p7bdb8ab5fb)" d="M 456.95529 463.765371 
L 456.95529 330.521997 
L 461.838713 330.521997 
L 461.838713 463.765371 
z
" style="fill:#5f57db;"/>
    <path clip-path="url(#p7bdb8ab5fb)" d="M 461.838713 463.765371 
L 461.838713 381.182238 
L 466.722135 381.182238 
L 466.722135 463.765371 
z
" style="fill:#5f57db;"/>
    <path clip-path="url(#p7bdb8ab5fb)" d="M 466.722135 463.765371 
L 466.722135 395.755732 
L 471.605558 395.755732 
L 471.605558 463.765371 
z
" style="fill:#5f57db;"/>
    <path clip-path="url(#p7bdb8ab5fb)" d="M 471.605558 463.765371 
L 471.605558 402.001515 
L 476.48898 402.001515 
L 476.48898 463.765371 
z
" style="fill:#5f57db;"/>
    <path clip-path="url(#p7bdb8ab5fb)" d="M 476.48898 463.765371 
L 476.48898 397.83766 
L 481.372403 397.83766 
L 481.372403 463.765371 
z
" style="fill:#5f57db;"/>
    <path clip-path="url(#p7bdb8ab5fb)" d="M 481.372403 463.765371 
L 481.372403 356.199106 
L 486.255825 356.199106 
L 486.255825 463.765371 
z
" style="fill:#5f57db;"/>
    <path clip-path="url(#p7bdb8ab5fb)" d="M 486.255825 463.765371 
L 486.255825 366.608744 
L 491.139248 366.608744 
L 491.139248 463.765371 
z
" style="fill:#5f57db;"/>
    <path clip-path="url(#p7bdb8ab5fb)" d="M 491.139248 463.765371 
L 491.139248 368.690672 
L 496.02267 368.690672 
L 496.02267 463.765371 
z
" style="fill:#5f57db;"/>
    <path clip-path="url(#p7bdb8ab5fb)" d="M 496.02267 463.765371 
L 496.02267 338.155732 
L 500.906093 338.155732 
L 500.906093 463.765371 
z
" style="fill:#5f57db;"/>
    <path clip-path="url(#p7bdb8ab5fb)" d="M 500.906093 463.765371 
L 500.906093 350.647298 
L 505.789515 350.647298 
L 505.789515 463.765371 
z
" style="fill:#5f57db;"/>
    <path clip-path="url(#p7bdb8ab5fb)" d="M 505.789515 463.765371 
L 505.789515 361.056937 
L 510.672938 361.056937 
L 510.672938 463.765371 
z
" style="fill:#5f57db;"/>
    <path clip-path="url(#p7bdb8ab5fb)" d="M 510.672938 463.765371 
L 510.672938 401.307539 
L 515.55636 401.307539 
L 515.55636 463.765371 
z
" style="fill:#5f57db;"/>
    <path clip-path="url(#p7bdb8ab5fb)" d="M 515.55636 463.765371 
L 515.55636 391.591877 
L 520.439782 391.591877 
L 520.439782 463.765371 
z
" style="fill:#5f57db;"/>
    <path clip-path="url(#p7bdb8ab5fb)" d="M 520.439782 463.765371 
L 520.439782 404.083443 
L 525.323205 404.083443 
L 525.323205 463.765371 
z
" style="fill:#5f57db;"/>
    <path clip-path="url(#p7bdb8ab5fb)" d="M 525.323205 463.765371 
L 525.323205 419.350913 
L 530.206627 419.350913 
L 530.206627 463.765371 
z
" style="fill:#5f57db;"/>
    <path clip-path="url(#p7bdb8ab5fb)" d="M 530.206627 463.765371 
L 530.206627 435.312359 
L 535.09005 435.312359 
L 535.09005 463.765371 
z
" style="fill:#5f57db;"/>
    <path clip-path="url(#p7bdb8ab5fb)" d="M 535.09005 463.765371 
L 535.09005 447.109949 
L 539.973472 447.109949 
L 539.973472 463.765371 
z
" style="fill:#5f57db;"/>
    <path clip-path="url(#p7bdb8ab5fb)" d="M 539.973472 463.765371 
L 539.973472 451.273804 
L 544.856895 451.273804 
L 544.856895 463.765371 
z
" style="fill:#5f57db;"/>
    <path clip-path="url(#p7bdb8ab5fb)" d="M 544.856895 463.765371 
L 544.856895 459.601515 
L 549.740317 459.601515 
L 549.740317 463.765371 
z
" style="fill:#5f57db;"/>
    <path clip-path="url(#p7bdb8ab5fb)" d="M 549.740317 463.765371 
L 549.740317 456.131636 
L 554.62374 456.131636 
L 554.62374 463.765371 
z
" style="fill:#5f57db;"/>
    <path clip-path="url(#p7bdb8ab5fb)" d="M 554.62374 463.765371 
L 554.62374 458.213563 
L 559.507162 458.213563 
L 559.507162 463.765371 
z
" style="fill:#5f57db;"/>
    <path clip-path="url(#p7bdb8ab5fb)" d="M 559.507162 463.765371 
L 559.507162 459.601515 
L 564.390585 459.601515 
L 564.390585 463.765371 
z
" style="fill:#5f57db;"/>
    <path clip-path="url(#p7bdb8ab5fb)" d="M 564.390585 463.765371 
L 564.390585 459.601515 
L 569.274007 459.601515 
L 569.274007 463.765371 
z
" style="fill:#5f57db;"/>
    <path clip-path="url(#p7bdb8ab5fb)" d="M 569.274007 463.765371 
L 569.274007 463.071395 
L 574.157429 463.071395 
L 574.157429 463.765371 
z
" style="fill:#5f57db;"/>
    <path clip-path="url(#p7bdb8ab5fb)" d="M 574.157429 463.765371 
L 574.157429 461.683443 
L 579.040852 461.683443 
L 579.040852 463.765371 
z
" style="fill:#5f57db;"/>
    <path clip-path="url(#p7bdb8ab5fb)" d="M 579.040852 463.765371 
L 579.040852 460.989467 
L 583.924274 460.989467 
L 583.924274 463.765371 
z
" style="fill:#5f57db;"/>
    <path clip-path="url(#p7bdb8ab5fb)" d="M 583.924274 463.765371 
L 583.924274 462.377419 
L 588.807697 462.377419 
L 588.807697 463.765371 
z
" style="fill:#5f57db;"/>
    <path clip-path="url(#p7bdb8ab5fb)" d="M 588.807697 463.765371 
L 588.807697 390.203925 
L 593.691119 390.203925 
L 593.691119 463.765371 
z
" style="fill:#5f57db;"/>
   </g>
   <g id="patch_14">
    <path d="M 419.352938 40.405371 
L 601.992938 40.405371 
L 601.992938 26.231919 
L 419.352938 26.231919 
z
" style="fill:#cccccc;stroke:#7f7f7f;stroke-linejoin:miter;"/>
   </g>
   <g id="text_28">
    <!-- Houston -->
    <g style="fill:#1a1a1a;" transform="translate(492.385438 35.746895)scale(0.088 -0.088)">
     <use xlink:href="#DejaVuSans-48"/>
     <use x="75.195312" xlink:href="#DejaVuSans-6f"/>
     <use x="136.376953" xlink:href="#DejaVuSans-75"/>
     <use x="199.755859" xlink:href="#DejaVuSans-73"/>
     <use x="251.855469" xlink:href="#DejaVuSans-74"/>
     <use x="291.064453" xlink:href="#DejaVuSans-6f"/>
     <use x="352.246094" xlink:href="#DejaVuSans-6e"/>
    </g>
   </g>
  </g>
  <g id="text_29">
   <!-- Property Values within 1 Mile of City Center in Texas Triangle -->
   <defs>
    <path d="M 32.171875 -5.078125 
Q 28.375 -14.84375 24.75 -17.8125 
Q 21.140625 -20.796875 15.09375 -20.796875 
L 7.90625 -20.796875 
L 7.90625 -13.28125 
L 13.1875 -13.28125 
Q 16.890625 -13.28125 18.9375 -11.515625 
Q 21 -9.765625 23.484375 -3.21875 
L 25.09375 0.875 
L 2.984375 54.6875 
L 12.5 54.6875 
L 29.59375 11.921875 
L 46.6875 54.6875 
L 56.203125 54.6875 
z
" id="DejaVuSans-79"/>
    <path d="M 4.203125 54.6875 
L 13.1875 54.6875 
L 24.421875 12.015625 
L 35.59375 54.6875 
L 46.1875 54.6875 
L 57.421875 12.015625 
L 68.609375 54.6875 
L 77.59375 54.6875 
L 63.28125 0 
L 52.6875 0 
L 40.921875 44.828125 
L 29.109375 0 
L 18.5 0 
z
" id="DejaVuSans-77"/>
    <path d="M 54.890625 33.015625 
L 54.890625 0 
L 45.90625 0 
L 45.90625 32.71875 
Q 45.90625 40.484375 42.875 44.328125 
Q 39.84375 48.1875 33.796875 48.1875 
Q 26.515625 48.1875 22.3125 43.546875 
Q 18.109375 38.921875 18.109375 30.90625 
L 18.109375 0 
L 9.078125 0 
L 9.078125 75.984375 
L 18.109375 75.984375 
L 18.109375 46.1875 
Q 21.34375 51.125 25.703125 53.5625 
Q 30.078125 56 35.796875 56 
Q 45.21875 56 50.046875 50.171875 
Q 54.890625 44.34375 54.890625 33.015625 
z
" id="DejaVuSans-68"/>
    <path d="M 9.8125 72.90625 
L 24.515625 72.90625 
L 43.109375 23.296875 
L 61.8125 72.90625 
L 76.515625 72.90625 
L 76.515625 0 
L 66.890625 0 
L 66.890625 64.015625 
L 48.09375 14.015625 
L 38.1875 14.015625 
L 19.390625 64.015625 
L 19.390625 0 
L 9.8125 0 
z
" id="DejaVuSans-4d"/>
    <path d="M 64.40625 67.28125 
L 64.40625 56.890625 
Q 59.421875 61.53125 53.78125 63.8125 
Q 48.140625 66.109375 41.796875 66.109375 
Q 29.296875 66.109375 22.65625 58.46875 
Q 16.015625 50.828125 16.015625 36.375 
Q 16.015625 21.96875 22.65625 14.328125 
Q 29.296875 6.6875 41.796875 6.6875 
Q 48.140625 6.6875 53.78125 8.984375 
Q 59.421875 11.28125 64.40625 15.921875 
L 64.40625 5.609375 
Q 59.234375 2.09375 53.4375 0.328125 
Q 47.65625 -1.421875 41.21875 -1.421875 
Q 24.65625 -1.421875 15.125 8.703125 
Q 5.609375 18.84375 5.609375 36.375 
Q 5.609375 53.953125 15.125 64.078125 
Q 24.65625 74.21875 41.21875 74.21875 
Q 47.75 74.21875 53.53125 72.484375 
Q 59.328125 70.75 64.40625 67.28125 
z
" id="DejaVuSans-43"/>
    <path d="M -0.296875 72.90625 
L 61.375 72.90625 
L 61.375 64.59375 
L 35.5 64.59375 
L 35.5 0 
L 25.59375 0 
L 25.59375 64.59375 
L -0.296875 64.59375 
z
" id="DejaVuSans-54"/>
    <path d="M 54.890625 54.6875 
L 35.109375 28.078125 
L 55.90625 0 
L 45.3125 0 
L 29.390625 21.484375 
L 13.484375 0 
L 2.875 0 
L 24.125 28.609375 
L 4.6875 54.6875 
L 15.28125 54.6875 
L 29.78125 35.203125 
L 44.28125 54.6875 
z
" id="DejaVuSans-78"/>
    <path d="M 45.40625 27.984375 
Q 45.40625 37.75 41.375 43.109375 
Q 37.359375 48.484375 30.078125 48.484375 
Q 22.859375 48.484375 18.828125 43.109375 
Q 14.796875 37.75 14.796875 27.984375 
Q 14.796875 18.265625 18.828125 12.890625 
Q 22.859375 7.515625 30.078125 7.515625 
Q 37.359375 7.515625 41.375 12.890625 
Q 45.40625 18.265625 45.40625 27.984375 
z
M 54.390625 6.78125 
Q 54.390625 -7.171875 48.1875 -13.984375 
Q 42 -20.796875 29.203125 -20.796875 
Q 24.46875 -20.796875 20.265625 -20.09375 
Q 16.0625 -19.390625 12.109375 -17.921875 
L 12.109375 -9.1875 
Q 16.0625 -11.328125 19.921875 -12.34375 
Q 23.78125 -13.375 27.78125 -13.375 
Q 36.625 -13.375 41.015625 -8.765625 
Q 45.40625 -4.15625 45.40625 5.171875 
L 45.40625 9.625 
Q 42.625 4.78125 38.28125 2.390625 
Q 33.9375 0 27.875 0 
Q 17.828125 0 11.671875 7.65625 
Q 5.515625 15.328125 5.515625 27.984375 
Q 5.515625 40.671875 11.671875 48.328125 
Q 17.828125 56 27.875 56 
Q 33.9375 56 38.28125 53.609375 
Q 42.625 51.21875 45.40625 46.390625 
L 45.40625 54.6875 
L 54.390625 54.6875 
z
" id="DejaVuSans-67"/>
   </defs>
   <g transform="translate(111.257437 17.229937)scale(0.132 -0.132)">
    <use xlink:href="#DejaVuSans-50"/>
    <use x="60.287109" xlink:href="#DejaVuSans-72"/>
    <use x="101.369141" xlink:href="#DejaVuSans-6f"/>
    <use x="162.550781" xlink:href="#DejaVuSans-70"/>
    <use x="226.027344" xlink:href="#DejaVuSans-65"/>
    <use x="287.550781" xlink:href="#DejaVuSans-72"/>
    <use x="328.664062" xlink:href="#DejaVuSans-74"/>
    <use x="367.873047" xlink:href="#DejaVuSans-79"/>
    <use x="427.052734" xlink:href="#DejaVuSans-20"/>
    <use x="458.839844" xlink:href="#DejaVuSans-56"/>
    <use x="527.138672" xlink:href="#DejaVuSans-61"/>
    <use x="588.417969" xlink:href="#DejaVuSans-6c"/>
    <use x="616.201172" xlink:href="#DejaVuSans-75"/>
    <use x="679.580078" xlink:href="#DejaVuSans-65"/>
    <use x="741.103516" xlink:href="#DejaVuSans-73"/>
    <use x="793.203125" xlink:href="#DejaVuSans-20"/>
    <use x="824.990234" xlink:href="#DejaVuSans-77"/>
    <use x="906.777344" xlink:href="#DejaVuSans-69"/>
    <use x="934.560547" xlink:href="#DejaVuSans-74"/>
    <use x="973.769531" xlink:href="#DejaVuSans-68"/>
    <use x="1037.148438" xlink:href="#DejaVuSans-69"/>
    <use x="1064.931641" xlink:href="#DejaVuSans-6e"/>
    <use x="1128.310547" xlink:href="#DejaVuSans-20"/>
    <use x="1160.097656" xlink:href="#DejaVuSans-31"/>
    <use x="1223.720703" xlink:href="#DejaVuSans-20"/>
    <use x="1255.507812" xlink:href="#DejaVuSans-4d"/>
    <use x="1341.787109" xlink:href="#DejaVuSans-69"/>
    <use x="1369.570312" xlink:href="#DejaVuSans-6c"/>
    <use x="1397.353516" xlink:href="#DejaVuSans-65"/>
    <use x="1458.876953" xlink:href="#DejaVuSans-20"/>
    <use x="1490.664062" xlink:href="#DejaVuSans-6f"/>
    <use x="1551.845703" xlink:href="#DejaVuSans-66"/>
    <use x="1587.050781" xlink:href="#DejaVuSans-20"/>
    <use x="1618.837891" xlink:href="#DejaVuSans-43"/>
    <use x="1688.662109" xlink:href="#DejaVuSans-69"/>
    <use x="1716.445312" xlink:href="#DejaVuSans-74"/>
    <use x="1755.654297" xlink:href="#DejaVuSans-79"/>
    <use x="1814.833984" xlink:href="#DejaVuSans-20"/>
    <use x="1846.621094" xlink:href="#DejaVuSans-43"/>
    <use x="1916.445312" xlink:href="#DejaVuSans-65"/>
    <use x="1977.96875" xlink:href="#DejaVuSans-6e"/>
    <use x="2041.347656" xlink:href="#DejaVuSans-74"/>
    <use x="2080.556641" xlink:href="#DejaVuSans-65"/>
    <use x="2142.080078" xlink:href="#DejaVuSans-72"/>
    <use x="2183.193359" xlink:href="#DejaVuSans-20"/>
    <use x="2214.980469" xlink:href="#DejaVuSans-69"/>
    <use x="2242.763672" xlink:href="#DejaVuSans-6e"/>
    <use x="2306.142578" xlink:href="#DejaVuSans-20"/>
    <use x="2337.929688" xlink:href="#DejaVuSans-54"/>
    <use x="2398.748047" xlink:href="#DejaVuSans-65"/>
    <use x="2460.255859" xlink:href="#DejaVuSans-78"/>
    <use x="2519.435547" xlink:href="#DejaVuSans-61"/>
    <use x="2580.714844" xlink:href="#DejaVuSans-73"/>
    <use x="2632.814453" xlink:href="#DejaVuSans-20"/>
    <use x="2664.601562" xlink:href="#DejaVuSans-54"/>
    <use x="2725.466797" xlink:href="#DejaVuSans-72"/>
    <use x="2766.580078" xlink:href="#DejaVuSans-69"/>
    <use x="2794.363281" xlink:href="#DejaVuSans-61"/>
    <use x="2855.642578" xlink:href="#DejaVuSans-6e"/>
    <use x="2919.021484" xlink:href="#DejaVuSans-67"/>
    <use x="2982.498047" xlink:href="#DejaVuSans-6c"/>
    <use x="3010.28125" xlink:href="#DejaVuSans-65"/>
   </g>
  </g>
 </g>
 <defs>
  <clipPath id="pc0dae45e41">
   <rect height="443.52" width="182.64" x="43.992937" y="40.405371"/>
  </clipPath>
  <clipPath id="pde85960277">
   <path d="M 621.392938 256.888339 
L 621.392938 241.048339 
L 637.232938 241.048339 
L 637.232938 256.888339 
"/>
  </clipPath>
  <clipPath id="pa57c881454">
   <path d="M 621.392938 274.728339 
L 621.392938 258.888339 
L 637.232938 258.888339 
L 637.232938 274.728339 
"/>
  </clipPath>
  <clipPath id="pa31b9fe53c">
   <path d="M 621.392938 292.568339 
L 621.392938 276.728339 
L 637.232938 276.728339 
L 637.232938 292.568339 
"/>
  </clipPath>
  <clipPath id="p33bd25369e">
   <rect height="443.52" width="182.64" x="231.672937" y="40.405371"/>
  </clipPath>
  <clipPath id="p7bdb8ab5fb">
   <rect height="443.52" width="182.64" x="419.352938" y="40.405371"/>
  </clipPath>
 </defs>
</svg>
